0 Generic OBJ exterior sculpture
0 !LEGO_BUILDER_REVISION 08983f58d59c2360b06ff0293ef6a60fa04fd0a8d347db3ef9319ea49e789d0c
0 Mechanical connections and assembly order are not verified.
0 // source-aligned slope shoulders
1 71 -190 -328 -500 0 0 1 0 1 0 -1 0 0 3039.dat
1 71 -190 -336 -440 0 0 1 0 1 0 -1 0 0 3039.dat
1 71 -190 -344 -380 0 0 1 0 1 0 -1 0 0 3039.dat
1 71 -190 -352 -340 0 0 1 0 1 0 -1 0 0 3039.dat
1 71 -190 -280 520 0 0 1 0 1 0 -1 0 0 3039.dat
1 71 -170 -376 -160 0 0 1 0 1 0 -1 0 0 3039.dat
1 71 -170 -384 -120 0 0 1 0 1 0 -1 0 0 3039.dat
1 71 -170 -392 -60 0 0 1 0 1 0 -1 0 0 3039.dat
1 71 -170 -400 0 0 0 1 0 1 0 -1 0 0 3039.dat
1 71 -170 -408 60 0 0 1 0 1 0 -1 0 0 3039.dat
1 71 -170 -384 200 0 0 1 0 1 0 -1 0 0 3039.dat
1 71 -170 -344 320 0 0 1 0 1 0 -1 0 0 3039.dat
1 71 -170 -312 420 0 0 1 0 1 0 -1 0 0 3039.dat
1 71 -160 -240 -450 1 0 0 0 1 0 -0 0 1 3039.dat
1 71 -170 -240 -420 -0 0 -1 0 1 0 1 0 -0 3039.dat
1 71 -170 -240 -380 -0 0 -1 0 1 0 1 0 -0 3039.dat
1 71 -170 -240 -340 -0 0 -1 0 1 0 1 0 -0 3039.dat
1 71 160 -248 -450 1 0 0 0 1 0 -0 0 1 3039.dat
1 71 170 -248 -420 0 0 1 0 1 0 -1 0 0 3039.dat
1 71 170 -248 -380 0 0 1 0 1 0 -1 0 0 3039.dat
1 71 170 -248 -340 0 0 1 0 1 0 -1 0 0 3039.dat
1 71 170 -376 -160 -0 0 -1 0 1 0 1 0 -0 3039.dat
1 71 170 -384 -120 -0 0 -1 0 1 0 1 0 -0 3039.dat
1 71 170 -392 -60 -0 0 -1 0 1 0 1 0 -0 3039.dat
1 71 170 -400 -0 -0 0 -1 0 1 0 1 0 -0 3039.dat
1 71 170 -408 60 -0 0 -1 0 1 0 1 0 -0 3039.dat
1 71 170 -384 200 -0 0 -1 0 1 0 1 0 -0 3039.dat
1 71 170 -344 320 -0 0 -1 0 1 0 1 0 -0 3039.dat
1 71 210 -312 -600 0 0 1 0 1 0 -1 0 0 3039.dat
1 71 210 -320 -560 0 0 1 0 1 0 -1 0 0 3039.dat
1 71 210 -328 -500 0 0 1 0 1 0 -1 0 0 3039.dat
1 71 210 -336 -440 0 0 1 0 1 0 -1 0 0 3039.dat
1 71 210 -344 -380 0 0 1 0 1 0 -1 0 0 3039.dat
1 71 210 -352 -340 0 0 1 0 1 0 -1 0 0 3039.dat
1 71 190 -280 520 -0 0 -1 0 1 0 1 0 -0 3039.dat
0 // smooth exposed top tiles
1 71 160 -40 450 0 0 1 0 1 0 -1 0 0 26603.dat
1 71 -220 -48 -370 0 0 1 0 1 0 -1 0 0 26603.dat
1 71 -220 -48 450 0 0 1 0 1 0 -1 0 0 26603.dat
1 71 150 -48 -380 0 0 1 0 1 0 -1 0 0 2431.dat
1 71 170 -48 -370 0 0 1 0 1 0 -1 0 0 63864.dat
1 71 -220 -56 -410 1 0 0 0 1 0 -0 0 1 3069b.dat
1 71 -230 -56 410 1 0 0 0 1 0 -0 0 1 3070b.dat
1 71 -220 -56 490 1 0 0 0 1 0 -0 0 1 3069b.dat
1 71 160 -56 410 1 0 0 0 1 0 -0 0 1 3069b.dat
1 71 160 -56 490 1 0 0 0 1 0 -0 0 1 3069b.dat
1 71 170 -56 -410 1 0 0 0 1 0 -0 0 1 3070b.dat
1 71 -220 -64 -330 1 0 0 0 1 0 -0 0 1 3069b.dat
1 71 -210 -64 410 1 0 0 0 1 0 -0 0 1 3070b.dat
1 71 160 -64 -330 1 0 0 0 1 0 -0 0 1 3069b.dat
1 71 -230 -80 -430 1 0 0 0 1 0 -0 0 1 3070b.dat
1 71 160 -80 -430 1 0 0 0 1 0 -0 0 1 3069b.dat
1 71 -210 -88 -430 1 0 0 0 1 0 -0 0 1 3070b.dat
1 71 -210 -104 -350 0 0 1 0 1 0 -1 0 0 63864.dat
1 71 -120 -104 -370 1 0 0 0 1 0 -0 0 1 2431.dat
1 71 -70 -104 -370 1 0 0 0 1 0 -0 0 1 3070b.dat
1 71 70 -104 -380 0 0 1 0 1 0 -1 0 0 3069b.dat
1 71 120 -104 -370 1 0 0 0 1 0 -0 0 1 2431.dat
1 71 160 -104 -340 1 0 0 0 1 0 -0 0 1 3068b.dat
1 71 170 -104 -370 1 0 0 0 1 0 -0 0 1 3070b.dat
1 71 -50 -112 -380 0 0 1 0 1 0 -1 0 0 3069b.dat
1 71 50 -112 -380 0 0 1 0 1 0 -1 0 0 3069b.dat
1 71 -230 -120 -270 1 0 0 0 1 0 -0 0 1 3070b.dat
1 71 -10 -120 -410 1 0 0 0 1 0 -0 0 1 63864.dat
1 71 30 -120 -350 1 0 0 0 1 0 -0 0 1 3070b.dat
1 71 230 -120 -270 1 0 0 0 1 0 -0 0 1 3070b.dat
1 71 -30 -128 -370 0 0 1 0 1 0 -1 0 0 63864.dat
1 71 0 -128 -350 1 0 0 0 1 0 -0 0 1 3069b.dat
1 71 30 -128 -380 0 0 1 0 1 0 -1 0 0 3069b.dat
1 71 -230 -136 350 1 0 0 0 1 0 -0 0 1 3070b.dat
1 71 0 -136 -380 1 0 0 0 1 0 -0 0 1 3068b.dat
1 71 230 -136 350 1 0 0 0 1 0 -0 0 1 3070b.dat
1 71 -230 -144 550 1 0 0 0 1 0 -0 0 1 3070b.dat
1 71 230 -144 550 1 0 0 0 1 0 -0 0 1 3070b.dat
1 71 -230 -152 -470 1 0 0 0 1 0 -0 0 1 3070b.dat
1 71 230 -152 -470 1 0 0 0 1 0 -0 0 1 3070b.dat
1 71 230 -160 -270 1 0 0 0 1 0 -0 0 1 3070b.dat
1 71 -230 -168 -290 1 0 0 0 1 0 -0 0 1 3070b.dat
1 71 -140 -168 -580 1 0 0 0 1 0 -0 0 1 87079.dat
1 71 -140 -168 -540 1 0 0 0 1 0 -0 0 1 87079.dat
1 71 -140 -168 -260 1 0 0 0 1 0 -0 0 1 87079.dat
1 71 -140 -168 -230 1 0 0 0 1 0 -0 0 1 2431.dat
1 71 -100 -168 -500 1 0 0 0 1 0 -0 0 1 87079.dat
1 71 -100 -168 -460 1 0 0 0 1 0 -0 0 1 87079.dat
1 71 -100 -168 -420 1 0 0 0 1 0 -0 0 1 87079.dat
1 71 -100 -168 -380 1 0 0 0 1 0 -0 0 1 87079.dat
1 71 -100 -168 -340 1 0 0 0 1 0 -0 0 1 87079.dat
1 71 -100 -168 -300 1 0 0 0 1 0 -0 0 1 87079.dat
1 71 -60 -168 -580 1 0 0 0 1 0 -0 0 1 87079.dat
1 71 -60 -168 -540 1 0 0 0 1 0 -0 0 1 87079.dat
1 71 -60 -168 -260 1 0 0 0 1 0 -0 0 1 87079.dat
1 71 -60 -168 -230 1 0 0 0 1 0 -0 0 1 2431.dat
1 71 -20 -168 -500 1 0 0 0 1 0 -0 0 1 87079.dat
1 71 -20 -168 -460 1 0 0 0 1 0 -0 0 1 87079.dat
1 71 -20 -168 -420 1 0 0 0 1 0 -0 0 1 87079.dat
1 71 -20 -168 -380 1 0 0 0 1 0 -0 0 1 87079.dat
1 71 -20 -168 -340 1 0 0 0 1 0 -0 0 1 87079.dat
1 71 -20 -168 -300 1 0 0 0 1 0 -0 0 1 87079.dat
1 71 20 -168 -580 1 0 0 0 1 0 -0 0 1 87079.dat
1 71 20 -168 -540 1 0 0 0 1 0 -0 0 1 87079.dat
1 71 20 -168 -260 1 0 0 0 1 0 -0 0 1 87079.dat
1 71 20 -168 -230 1 0 0 0 1 0 -0 0 1 2431.dat
1 71 60 -168 -500 1 0 0 0 1 0 -0 0 1 87079.dat
1 71 60 -168 -460 1 0 0 0 1 0 -0 0 1 87079.dat
1 71 60 -168 -420 1 0 0 0 1 0 -0 0 1 87079.dat
1 71 60 -168 -380 1 0 0 0 1 0 -0 0 1 87079.dat
1 71 60 -168 -340 1 0 0 0 1 0 -0 0 1 87079.dat
1 71 60 -168 -300 1 0 0 0 1 0 -0 0 1 87079.dat
1 71 100 -168 -580 1 0 0 0 1 0 -0 0 1 87079.dat
1 71 100 -168 -540 1 0 0 0 1 0 -0 0 1 87079.dat
1 71 100 -168 -260 1 0 0 0 1 0 -0 0 1 87079.dat
1 71 100 -168 -230 1 0 0 0 1 0 -0 0 1 2431.dat
1 71 120 -168 -480 0 0 1 0 1 0 -1 0 0 87079.dat
1 71 120 -168 -400 0 0 1 0 1 0 -1 0 0 87079.dat
1 71 110 -168 -320 0 0 1 0 1 0 -1 0 0 2431.dat
1 71 130 -168 -340 0 0 1 0 1 0 -1 0 0 3069b.dat
1 71 160 -168 -560 0 0 1 0 1 0 -1 0 0 87079.dat
1 71 160 -168 -250 0 0 1 0 1 0 -1 0 0 26603.dat
1 71 -230 -176 -450 1 0 0 0 1 0 -0 0 1 3070b.dat
1 71 -160 -176 -510 1 0 0 0 1 0 -0 0 1 3069b.dat
1 71 160 -176 -510 1 0 0 0 1 0 -0 0 1 3069b.dat
1 71 230 -176 -450 1 0 0 0 1 0 -0 0 1 3070b.dat
1 71 130 -192 -310 1 0 0 0 1 0 -0 0 1 3070b.dat
1 71 130 -200 -290 1 0 0 0 1 0 -0 0 1 3070b.dat
1 71 230 -200 -290 1 0 0 0 1 0 -0 0 1 3070b.dat
1 71 -160 -208 -290 1 0 0 0 1 0 -0 0 1 3069b.dat
1 71 -150 -208 -490 1 0 0 0 1 0 -0 0 1 3070b.dat
1 71 140 -208 -210 1 0 0 0 1 0 -0 0 1 2431.dat
1 71 -230 -216 370 1 0 0 0 1 0 -0 0 1 3070b.dat
1 71 -170 -216 -490 1 0 0 0 1 0 -0 0 1 3070b.dat
1 71 60 -216 -210 1 0 0 0 1 0 -0 0 1 2431.dat
1 71 160 -216 -490 1 0 0 0 1 0 -0 0 1 3069b.dat
1 71 160 -216 -290 1 0 0 0 1 0 -0 0 1 3069b.dat
1 71 -230 -224 -440 0 0 1 0 1 0 -1 0 0 2431.dat
1 71 -230 -224 420 0 0 1 0 1 0 -1 0 0 2431.dat
1 71 -230 -224 500 0 0 1 0 1 0 -1 0 0 2431.dat
1 71 -140 -224 -210 1 0 0 0 1 0 -0 0 1 2431.dat
1 71 -60 -224 -210 1 0 0 0 1 0 -0 0 1 2431.dat
1 71 0 -224 -210 1 0 0 0 1 0 -0 0 1 3069b.dat
1 71 230 -224 370 1 0 0 0 1 0 -0 0 1 3070b.dat
1 71 230 -224 460 0 0 1 0 1 0 -1 0 0 2431.dat
1 71 230 -224 520 0 0 1 0 1 0 -1 0 0 3069b.dat
1 71 -230 -232 -360 0 0 1 0 1 0 -1 0 0 2431.dat
1 71 -230 -232 -310 1 0 0 0 1 0 -0 0 1 3070b.dat
1 71 230 -232 -440 0 0 1 0 1 0 -1 0 0 2431.dat
1 71 230 -232 -360 0 0 1 0 1 0 -1 0 0 2431.dat
1 71 230 -232 -310 1 0 0 0 1 0 -0 0 1 3070b.dat
1 71 230 -232 400 0 0 1 0 1 0 -1 0 0 3069b.dat
1 71 -160 -240 -310 1 0 0 0 1 0 -0 0 1 3069b.dat
1 71 -140 -240 630 1 0 0 0 1 0 -0 0 1 2431.dat
1 71 -60 -240 630 1 0 0 0 1 0 -0 0 1 2431.dat
1 71 20 -240 630 1 0 0 0 1 0 -0 0 1 2431.dat
1 71 100 -240 630 1 0 0 0 1 0 -0 0 1 2431.dat
1 71 150 -240 630 1 0 0 0 1 0 -0 0 1 3070b.dat
1 71 -160 -248 610 1 0 0 0 1 0 -0 0 1 2431.dat
1 71 -80 -248 610 1 0 0 0 1 0 -0 0 1 2431.dat
1 71 0 -248 610 1 0 0 0 1 0 -0 0 1 2431.dat
1 71 80 -248 610 1 0 0 0 1 0 -0 0 1 2431.dat
1 71 150 -248 610 1 0 0 0 1 0 -0 0 1 63864.dat
1 71 160 -248 -310 1 0 0 0 1 0 -0 0 1 3069b.dat
1 71 -180 -256 590 1 0 0 0 1 0 -0 0 1 2431.dat
1 71 -100 -256 590 1 0 0 0 1 0 -0 0 1 2431.dat
1 71 -20 -256 590 1 0 0 0 1 0 -0 0 1 2431.dat
1 71 60 -256 590 1 0 0 0 1 0 -0 0 1 2431.dat
1 71 140 -256 590 1 0 0 0 1 0 -0 0 1 2431.dat
1 71 200 -256 590 1 0 0 0 1 0 -0 0 1 3069b.dat
1 71 -180 -264 570 1 0 0 0 1 0 -0 0 1 2431.dat
1 71 -160 -264 -610 1 0 0 0 1 0 -0 0 1 2431.dat
1 71 -190 -264 -580 0 0 1 0 1 0 -1 0 0 3069b.dat
1 71 -100 -264 570 1 0 0 0 1 0 -0 0 1 2431.dat
1 71 -80 -264 -610 1 0 0 0 1 0 -0 0 1 2431.dat
1 71 -20 -264 570 1 0 0 0 1 0 -0 0 1 2431.dat
1 71 0 -264 -610 1 0 0 0 1 0 -0 0 1 2431.dat
1 71 60 -264 570 1 0 0 0 1 0 -0 0 1 2431.dat
1 71 80 -264 -610 1 0 0 0 1 0 -0 0 1 2431.dat
1 71 140 -264 570 1 0 0 0 1 0 -0 0 1 2431.dat
1 71 150 -264 -610 1 0 0 0 1 0 -0 0 1 63864.dat
1 71 200 -264 570 1 0 0 0 1 0 -0 0 1 3069b.dat
1 71 -180 -272 550 1 0 0 0 1 0 -0 0 1 2431.dat
1 71 -100 -272 550 1 0 0 0 1 0 -0 0 1 2431.dat
1 71 -20 -272 550 1 0 0 0 1 0 -0 0 1 2431.dat
1 71 60 -272 550 1 0 0 0 1 0 -0 0 1 2431.dat
1 71 140 -272 550 1 0 0 0 1 0 -0 0 1 2431.dat
1 71 200 -272 550 1 0 0 0 1 0 -0 0 1 3069b.dat
1 71 -140 -280 520 1 0 0 0 1 0 -0 0 1 87079.dat
1 71 -60 -280 520 1 0 0 0 1 0 -0 0 1 87079.dat
1 71 20 -280 520 1 0 0 0 1 0 -0 0 1 87079.dat
1 71 100 -280 520 1 0 0 0 1 0 -0 0 1 87079.dat
1 71 160 -280 520 1 0 0 0 1 0 -0 0 1 3068b.dat
1 71 -180 -288 490 1 0 0 0 1 0 -0 0 1 2431.dat
1 71 -190 -288 -550 1 0 0 0 1 0 -0 0 1 3070b.dat
1 71 -100 -288 490 1 0 0 0 1 0 -0 0 1 2431.dat
1 71 -20 -288 490 1 0 0 0 1 0 -0 0 1 2431.dat
1 71 60 -288 490 1 0 0 0 1 0 -0 0 1 2431.dat
1 71 140 -288 490 1 0 0 0 1 0 -0 0 1 2431.dat
1 71 200 -288 490 1 0 0 0 1 0 -0 0 1 3069b.dat
1 71 -210 -296 380 0 0 1 0 1 0 -1 0 0 2431.dat
1 71 -210 -296 450 0 0 1 0 1 0 -1 0 0 63864.dat
1 71 -160 -296 470 1 0 0 0 1 0 -0 0 1 2431.dat
1 71 -80 -296 470 1 0 0 0 1 0 -0 0 1 2431.dat
1 71 0 -296 470 1 0 0 0 1 0 -0 0 1 2431.dat
1 71 80 -296 470 1 0 0 0 1 0 -0 0 1 2431.dat
1 71 160 -296 470 1 0 0 0 1 0 -0 0 1 2431.dat
1 71 210 -296 450 0 0 1 0 1 0 -1 0 0 63864.dat
1 71 230 -296 -590 0 0 1 0 1 0 -1 0 0 63864.dat
1 71 -200 -304 -630 1 0 0 0 1 0 -0 0 1 2431.dat
1 71 -230 -304 -580 0 0 1 0 1 0 -1 0 0 2431.dat
1 71 -210 -304 280 0 0 1 0 1 0 -1 0 0 2431.dat
1 71 -210 -304 330 1 0 0 0 1 0 -0 0 1 3070b.dat
1 71 -160 -304 450 1 0 0 0 1 0 -0 0 1 2431.dat
1 71 -120 -304 -630 1 0 0 0 1 0 -0 0 1 2431.dat
1 71 -80 -304 450 1 0 0 0 1 0 -0 0 1 2431.dat
1 71 -40 -304 -630 1 0 0 0 1 0 -0 0 1 2431.dat
1 71 0 -304 450 1 0 0 0 1 0 -0 0 1 2431.dat
1 71 40 -304 -630 1 0 0 0 1 0 -0 0 1 2431.dat
1 71 80 -304 450 1 0 0 0 1 0 -0 0 1 2431.dat
1 71 120 -304 -630 1 0 0 0 1 0 -0 0 1 2431.dat
1 71 160 -304 450 1 0 0 0 1 0 -0 0 1 2431.dat
1 71 200 -304 -630 1 0 0 0 1 0 -0 0 1 2431.dat
1 71 210 -304 300 0 0 1 0 1 0 -1 0 0 2431.dat
1 71 210 -304 380 0 0 1 0 1 0 -1 0 0 2431.dat
1 71 -210 -312 -600 0 0 1 0 1 0 -1 0 0 3069b.dat
1 71 -210 -312 180 0 0 1 0 1 0 -1 0 0 2431.dat
1 71 -210 -312 230 1 0 0 0 1 0 -0 0 1 3070b.dat
1 71 -120 -312 420 1 0 0 0 1 0 -0 0 1 87079.dat
1 71 -40 -312 420 1 0 0 0 1 0 -0 0 1 87079.dat
1 71 40 -312 420 1 0 0 0 1 0 -0 0 1 87079.dat
1 71 120 -312 420 1 0 0 0 1 0 -0 0 1 87079.dat
1 71 180 -312 420 1 0 0 0 1 0 -0 0 1 3068b.dat
1 71 210 -312 200 0 0 1 0 1 0 -1 0 0 2431.dat
1 71 210 -312 250 1 0 0 0 1 0 -0 0 1 3070b.dat
1 71 -210 -320 -550 0 0 1 0 1 0 -1 0 0 63864.dat
1 71 -210 -320 100 0 0 1 0 1 0 -1 0 0 2431.dat
1 71 -190 -320 -530 1 0 0 0 1 0 -0 0 1 3070b.dat
1 71 -160 -320 390 1 0 0 0 1 0 -0 0 1 2431.dat
1 71 -80 -320 390 1 0 0 0 1 0 -0 0 1 2431.dat
1 71 0 -320 390 1 0 0 0 1 0 -0 0 1 2431.dat
1 71 80 -320 390 1 0 0 0 1 0 -0 0 1 2431.dat
1 71 160 -320 390 1 0 0 0 1 0 -0 0 1 2431.dat
1 71 200 -320 -530 1 0 0 0 1 0 -0 0 1 3069b.dat
1 71 210 -320 100 0 0 1 0 1 0 -1 0 0 2431.dat
1 71 210 -320 150 1 0 0 0 1 0 -0 0 1 3070b.dat
1 71 -200 -328 -470 1 0 0 0 1 0 -0 0 1 3069b.dat
1 71 -210 -328 0 0 0 1 0 1 0 -1 0 0 2431.dat
1 71 -210 -328 50 1 0 0 0 1 0 -0 0 1 3070b.dat
1 71 -160 -328 370 1 0 0 0 1 0 -0 0 1 2431.dat
1 71 -80 -328 370 1 0 0 0 1 0 -0 0 1 2431.dat
1 71 0 -328 370 1 0 0 0 1 0 -0 0 1 2431.dat
1 71 80 -328 370 1 0 0 0 1 0 -0 0 1 2431.dat
1 71 160 -328 370 1 0 0 0 1 0 -0 0 1 2431.dat
1 71 200 -328 -470 1 0 0 0 1 0 -0 0 1 3069b.dat
1 71 210 -328 20 0 0 1 0 1 0 -1 0 0 2431.dat
1 71 -200 -336 -410 1 0 0 0 1 0 -0 0 1 3069b.dat
1 71 -210 -336 -100 0 0 1 0 1 0 -1 0 0 2431.dat
1 71 -210 -336 -50 1 0 0 0 1 0 -0 0 1 3070b.dat
1 71 -160 -336 350 1 0 0 0 1 0 -0 0 1 2431.dat
1 71 -80 -336 350 1 0 0 0 1 0 -0 0 1 2431.dat
1 71 0 -336 350 1 0 0 0 1 0 -0 0 1 2431.dat
1 71 80 -336 350 1 0 0 0 1 0 -0 0 1 2431.dat
1 71 160 -336 350 1 0 0 0 1 0 -0 0 1 2431.dat
1 71 200 -336 -410 1 0 0 0 1 0 -0 0 1 3069b.dat
1 71 210 -336 -80 0 0 1 0 1 0 -1 0 0 2431.dat
1 71 210 -336 -30 1 0 0 0 1 0 -0 0 1 3070b.dat
1 71 -210 -344 -160 0 0 1 0 1 0 -1 0 0 3069b.dat
1 71 -120 -344 320 1 0 0 0 1 0 -0 0 1 87079.dat
1 71 -40 -344 320 1 0 0 0 1 0 -0 0 1 87079.dat
1 71 40 -344 320 1 0 0 0 1 0 -0 0 1 87079.dat
1 71 120 -344 320 1 0 0 0 1 0 -0 0 1 87079.dat
1 71 210 -344 -140 0 0 1 0 1 0 -1 0 0 3069b.dat
1 71 -200 -352 -310 1 0 0 0 1 0 -0 0 1 3069b.dat
1 71 -210 -352 -240 0 0 1 0 1 0 -1 0 0 2431.dat
1 71 -210 -352 -190 1 0 0 0 1 0 -0 0 1 3070b.dat
1 71 -160 -352 290 1 0 0 0 1 0 -0 0 1 2431.dat
1 71 -80 -352 290 1 0 0 0 1 0 -0 0 1 2431.dat
1 71 0 -352 290 1 0 0 0 1 0 -0 0 1 2431.dat
1 71 80 -352 290 1 0 0 0 1 0 -0 0 1 2431.dat
1 71 160 -352 290 1 0 0 0 1 0 -0 0 1 2431.dat
1 71 200 -352 -310 1 0 0 0 1 0 -0 0 1 3069b.dat
1 71 210 -352 -240 0 0 1 0 1 0 -1 0 0 2431.dat
1 71 210 -352 -180 0 0 1 0 1 0 -1 0 0 3069b.dat
1 71 -200 -360 -290 1 0 0 0 1 0 -0 0 1 3069b.dat
1 71 -190 -360 -260 0 0 1 0 1 0 -1 0 0 3069b.dat
1 71 -160 -360 270 1 0 0 0 1 0 -0 0 1 2431.dat
1 71 -80 -360 270 1 0 0 0 1 0 -0 0 1 2431.dat
1 71 0 -360 270 1 0 0 0 1 0 -0 0 1 2431.dat
1 71 80 -360 270 1 0 0 0 1 0 -0 0 1 2431.dat
1 71 160 -360 270 1 0 0 0 1 0 -0 0 1 2431.dat
1 71 190 -360 -270 0 0 1 0 1 0 -1 0 0 63864.dat
1 71 210 -360 -290 1 0 0 0 1 0 -0 0 1 3070b.dat
1 71 -190 -368 -210 0 0 1 0 1 0 -1 0 0 63864.dat
1 71 -160 -368 250 1 0 0 0 1 0 -0 0 1 2431.dat
1 71 -140 -368 -190 1 0 0 0 1 0 -0 0 1 2431.dat
1 71 -80 -368 250 1 0 0 0 1 0 -0 0 1 2431.dat
1 71 -60 -368 -190 1 0 0 0 1 0 -0 0 1 2431.dat
1 71 0 -368 250 1 0 0 0 1 0 -0 0 1 2431.dat
1 71 20 -368 -190 1 0 0 0 1 0 -0 0 1 2431.dat
1 71 80 -368 250 1 0 0 0 1 0 -0 0 1 2431.dat
1 71 100 -368 -190 1 0 0 0 1 0 -0 0 1 2431.dat
1 71 160 -368 250 1 0 0 0 1 0 -0 0 1 2431.dat
1 71 170 -368 -190 1 0 0 0 1 0 -0 0 1 63864.dat
1 71 190 -368 -220 0 0 1 0 1 0 -1 0 0 3069b.dat
1 71 -160 -376 230 1 0 0 0 1 0 -0 0 1 2431.dat
1 71 -120 -376 -160 1 0 0 0 1 0 -0 0 1 87079.dat
1 71 -80 -376 230 1 0 0 0 1 0 -0 0 1 2431.dat
1 71 -40 -376 -160 1 0 0 0 1 0 -0 0 1 87079.dat
1 71 0 -376 230 1 0 0 0 1 0 -0 0 1 2431.dat
1 71 40 -376 -160 1 0 0 0 1 0 -0 0 1 87079.dat
1 71 80 -376 230 1 0 0 0 1 0 -0 0 1 2431.dat
1 71 120 -376 -160 1 0 0 0 1 0 -0 0 1 87079.dat
1 71 160 -376 230 1 0 0 0 1 0 -0 0 1 2431.dat
1 71 -160 -384 -90 1 0 0 0 1 0 -0 0 1 2431.dat
1 71 -120 -384 -120 1 0 0 0 1 0 -0 0 1 87079.dat
1 71 -120 -384 200 1 0 0 0 1 0 -0 0 1 87079.dat
1 71 -80 -384 -90 1 0 0 0 1 0 -0 0 1 2431.dat
1 71 -40 -384 -120 1 0 0 0 1 0 -0 0 1 87079.dat
1 71 -40 -384 200 1 0 0 0 1 0 -0 0 1 87079.dat
1 71 0 -384 -90 1 0 0 0 1 0 -0 0 1 2431.dat
1 71 40 -384 -120 1 0 0 0 1 0 -0 0 1 87079.dat
1 71 40 -384 200 1 0 0 0 1 0 -0 0 1 87079.dat
1 71 80 -384 -90 1 0 0 0 1 0 -0 0 1 2431.dat
1 71 120 -384 -120 1 0 0 0 1 0 -0 0 1 87079.dat
1 71 120 -384 200 1 0 0 0 1 0 -0 0 1 87079.dat
1 71 160 -384 -90 1 0 0 0 1 0 -0 0 1 2431.dat
1 71 -160 -392 -30 1 0 0 0 1 0 -0 0 1 2431.dat
1 71 -160 -392 170 1 0 0 0 1 0 -0 0 1 2431.dat
1 71 -120 -392 -60 1 0 0 0 1 0 -0 0 1 87079.dat
1 71 -80 -392 -30 1 0 0 0 1 0 -0 0 1 2431.dat
1 71 -80 -392 170 1 0 0 0 1 0 -0 0 1 2431.dat
1 71 -40 -392 -60 1 0 0 0 1 0 -0 0 1 87079.dat
1 71 0 -392 -30 1 0 0 0 1 0 -0 0 1 2431.dat
1 71 0 -392 170 1 0 0 0 1 0 -0 0 1 2431.dat
1 71 40 -392 -60 1 0 0 0 1 0 -0 0 1 87079.dat
1 71 80 -392 -30 1 0 0 0 1 0 -0 0 1 2431.dat
1 71 80 -392 170 1 0 0 0 1 0 -0 0 1 2431.dat
1 71 120 -392 -60 1 0 0 0 1 0 -0 0 1 87079.dat
1 71 160 -392 -30 1 0 0 0 1 0 -0 0 1 2431.dat
1 71 160 -392 170 1 0 0 0 1 0 -0 0 1 2431.dat
1 71 -160 -400 30 1 0 0 0 1 0 -0 0 1 2431.dat
1 71 -190 -400 120 0 0 1 0 1 0 -1 0 0 2431.dat
1 71 -140 -400 150 1 0 0 0 1 0 -0 0 1 2431.dat
1 71 -120 -400 0 1 0 0 0 1 0 -0 0 1 87079.dat
1 71 -80 -400 30 1 0 0 0 1 0 -0 0 1 2431.dat
1 71 -60 -400 150 1 0 0 0 1 0 -0 0 1 2431.dat
1 71 -40 -400 0 1 0 0 0 1 0 -0 0 1 87079.dat
1 71 0 -400 30 1 0 0 0 1 0 -0 0 1 2431.dat
1 71 20 -400 150 1 0 0 0 1 0 -0 0 1 2431.dat
1 71 40 -400 0 1 0 0 0 1 0 -0 0 1 87079.dat
1 71 80 -400 30 1 0 0 0 1 0 -0 0 1 2431.dat
1 71 100 -400 150 1 0 0 0 1 0 -0 0 1 2431.dat
1 71 120 -400 0 1 0 0 0 1 0 -0 0 1 87079.dat
1 71 160 -400 30 1 0 0 0 1 0 -0 0 1 2431.dat
1 71 170 -400 150 1 0 0 0 1 0 -0 0 1 63864.dat
1 71 190 -400 120 0 0 1 0 1 0 -1 0 0 3069b.dat
1 71 -140 -408 90 1 0 0 0 1 0 -0 0 1 2431.dat
1 71 -140 -408 130 1 0 0 0 1 0 -0 0 1 2431.dat
1 71 -120 -408 60 1 0 0 0 1 0 -0 0 1 87079.dat
1 71 -80 -408 90 1 0 0 0 1 0 -0 0 1 3069b.dat
1 71 -60 -408 130 1 0 0 0 1 0 -0 0 1 2431.dat
1 71 -40 -408 60 1 0 0 0 1 0 -0 0 1 87079.dat
1 71 20 -408 130 1 0 0 0 1 0 -0 0 1 2431.dat
1 71 40 -408 60 1 0 0 0 1 0 -0 0 1 87079.dat
1 71 100 -408 130 1 0 0 0 1 0 -0 0 1 2431.dat
1 71 120 -408 60 1 0 0 0 1 0 -0 0 1 87079.dat
1 71 160 -408 130 1 0 0 0 1 0 -0 0 1 3069b.dat
1 71 190 -408 90 1 0 0 0 1 0 -0 0 1 3070b.dat
1 71 -140 -416 110 1 0 0 0 1 0 -0 0 1 2431.dat
1 71 -60 -416 110 1 0 0 0 1 0 -0 0 1 2431.dat
1 71 -20 -416 90 1 0 0 0 1 0 -0 0 1 2431.dat
1 71 20 -416 110 1 0 0 0 1 0 -0 0 1 2431.dat
1 71 60 -416 90 1 0 0 0 1 0 -0 0 1 2431.dat
1 71 100 -416 110 1 0 0 0 1 0 -0 0 1 2431.dat
1 71 140 -416 90 1 0 0 0 1 0 -0 0 1 2431.dat
1 71 160 -416 110 1 0 0 0 1 0 -0 0 1 3069b.dat
0 // exterior shell
1 71 -200 -24 -400 1 0 0 0 1 0 -0 0 1 3001.dat
1 71 -200 -24 -360 1 0 0 0 1 0 -0 0 1 3001.dat
1 71 -200 -24 -330 1 0 0 0 1 0 -0 0 1 3010.dat
1 71 -200 -24 420 1 0 0 0 1 0 -0 0 1 3001.dat
1 71 -200 -24 460 1 0 0 0 1 0 -0 0 1 3001.dat
1 71 -200 -24 490 1 0 0 0 1 0 -0 0 1 3010.dat
1 71 180 -24 -400 1 0 0 0 1 0 -0 0 1 3001.dat
1 71 180 -24 -360 1 0 0 0 1 0 -0 0 1 3001.dat
1 71 180 -24 420 1 0 0 0 1 0 -0 0 1 3001.dat
1 71 180 -24 460 1 0 0 0 1 0 -0 0 1 3001.dat
1 71 180 -24 490 1 0 0 0 1 0 -0 0 1 3010.dat
1 71 200 -24 -330 1 0 0 0 1 0 -0 0 1 3010.dat
1 71 230 -24 -380 0 0 1 0 1 0 -1 0 0 3010.dat
1 71 230 -24 440 0 0 1 0 1 0 -1 0 0 3010.dat
1 71 230 -24 490 1 0 0 0 1 0 -0 0 1 3005.dat
1 71 -200 -32 -430 1 0 0 0 1 0 -0 0 1 3010.dat
1 71 -200 -32 390 1 0 0 0 1 0 -0 0 1 3010.dat
1 71 -200 -32 510 1 0 0 0 1 0 -0 0 1 3010.dat
1 71 180 -32 -430 1 0 0 0 1 0 -0 0 1 3010.dat
1 71 150 -32 -330 1 0 0 0 1 0 -0 0 1 3005.dat
1 71 180 -32 510 1 0 0 0 1 0 -0 0 1 3010.dat
1 71 200 -32 390 1 0 0 0 1 0 -0 0 1 3010.dat
1 71 230 -32 -430 1 0 0 0 1 0 -0 0 1 3005.dat
1 71 230 -32 510 1 0 0 0 1 0 -0 0 1 3005.dat
1 71 -210 -40 -450 1 0 0 0 1 0 -0 0 1 3622.dat
1 71 -200 -40 -310 1 0 0 0 1 0 -0 0 1 3010.dat
1 71 180 -40 -310 1 0 0 0 1 0 -0 0 1 3010.dat
1 71 150 -40 390 1 0 0 0 1 0 -0 0 1 3005.dat
1 71 190 -40 -450 1 0 0 0 1 0 -0 0 1 3622.dat
1 71 230 -40 -310 1 0 0 0 1 0 -0 0 1 3005.dat
1 71 -230 -32 -380 0 0 1 0 1 0 -1 0 0 3710.dat
1 71 -230 -48 -330 1 0 0 0 1 0 -0 0 1 3005.dat
1 71 -200 -48 370 1 0 0 0 1 0 -0 0 1 3010.dat
1 71 -230 -32 440 0 0 1 0 1 0 -1 0 0 3710.dat
1 71 -230 -48 490 1 0 0 0 1 0 -0 0 1 3005.dat
1 71 -200 -48 530 1 0 0 0 1 0 -0 0 1 3010.dat
1 71 -210 -32 -370 0 0 1 0 1 0 -1 0 0 3623.dat
1 71 -210 -32 450 0 0 1 0 1 0 -1 0 0 3623.dat
1 71 -170 -48 -450 1 0 0 0 1 0 -0 0 1 3005.dat
1 71 -170 -48 -380 0 0 1 0 1 0 -1 0 0 3010.dat
1 71 -170 -48 -330 1 0 0 0 1 0 -0 0 1 3005.dat
1 71 -170 -48 440 0 0 1 0 1 0 -1 0 0 3010.dat
1 71 -170 -48 490 1 0 0 0 1 0 -0 0 1 3005.dat
1 71 150 -48 -450 1 0 0 0 1 0 -0 0 1 3005.dat
1 71 150 -32 -380 0 0 1 0 1 0 -1 0 0 3710.dat
1 71 150 -32 440 0 0 1 0 1 0 -1 0 0 3710.dat
1 71 150 -48 490 1 0 0 0 1 0 -0 0 1 3005.dat
1 71 180 -48 530 1 0 0 0 1 0 -0 0 1 3010.dat
1 71 170 -32 -370 0 0 1 0 1 0 -1 0 0 3623.dat
1 71 200 -48 370 1 0 0 0 1 0 -0 0 1 3010.dat
1 71 170 -32 450 0 0 1 0 1 0 -1 0 0 3623.dat
1 71 230 -48 -450 1 0 0 0 1 0 -0 0 1 3005.dat
1 71 230 -48 -380 0 0 1 0 1 0 -1 0 0 3010.dat
1 71 230 -48 -330 1 0 0 0 1 0 -0 0 1 3005.dat
1 71 230 -48 440 0 0 1 0 1 0 -1 0 0 3010.dat
1 71 230 -48 490 1 0 0 0 1 0 -0 0 1 3005.dat
1 71 230 -48 530 1 0 0 0 1 0 -0 0 1 3005.dat
1 71 -230 -40 -400 0 0 1 0 1 0 -1 0 0 3710.dat
1 71 -220 -40 -350 1 0 0 0 1 0 -0 0 1 3023.dat
1 71 -200 -56 -290 1 0 0 0 1 0 -0 0 1 3010.dat
1 71 -230 -40 420 0 0 1 0 1 0 -1 0 0 3710.dat
1 71 -220 -40 470 1 0 0 0 1 0 -0 0 1 3023.dat
1 71 -230 -56 510 1 0 0 0 1 0 -0 0 1 3005.dat
1 71 -210 -40 -390 0 0 1 0 1 0 -1 0 0 3623.dat
1 71 -210 -40 440 0 0 1 0 1 0 -1 0 0 3023.dat
1 71 -210 -40 490 1 0 0 0 1 0 -0 0 1 3024.dat
1 71 -170 -56 -430 1 0 0 0 1 0 -0 0 1 3005.dat
1 71 -170 -56 390 1 0 0 0 1 0 -0 0 1 3005.dat
1 71 -170 -56 510 1 0 0 0 1 0 -0 0 1 3005.dat
1 71 150 -40 -400 0 0 1 0 1 0 -1 0 0 3710.dat
1 71 160 -40 -350 1 0 0 0 1 0 -0 0 1 3023.dat
1 71 150 -56 -330 1 0 0 0 1 0 -0 0 1 3005.dat
1 71 180 -56 -290 1 0 0 0 1 0 -0 0 1 3010.dat
1 71 150 -56 370 1 0 0 0 1 0 -0 0 1 3005.dat
1 71 160 -40 410 1 0 0 0 1 0 -0 0 1 3023.dat
1 71 150 -56 510 1 0 0 0 1 0 -0 0 1 3005.dat
1 71 170 -40 -390 0 0 1 0 1 0 -1 0 0 3623.dat
1 71 170 -40 490 1 0 0 0 1 0 -0 0 1 3024.dat
1 71 190 -56 450 0 0 1 0 1 0 -1 0 0 3622.dat
1 71 230 -56 -430 1 0 0 0 1 0 -0 0 1 3005.dat
1 71 230 -56 -290 1 0 0 0 1 0 -0 0 1 3005.dat
1 71 230 -56 390 1 0 0 0 1 0 -0 0 1 3005.dat
1 71 230 -56 510 1 0 0 0 1 0 -0 0 1 3005.dat
1 71 -200 -64 -470 1 0 0 0 1 0 -0 0 1 3010.dat
1 71 -230 -64 -440 0 0 1 0 1 0 -1 0 0 3004.dat
1 71 -220 -48 -410 1 0 0 0 1 0 -0 0 1 3023.dat
1 71 -230 -64 -310 1 0 0 0 1 0 -0 0 1 3005.dat
1 71 -230 -64 390 1 0 0 0 1 0 -0 0 1 3005.dat
1 71 -220 -48 410 1 0 0 0 1 0 -0 0 1 3023.dat
1 71 -200 -48 -450 1 0 0 0 1 0 -0 0 1 3023.dat
1 71 -210 -48 -330 1 0 0 0 1 0 -0 0 1 3024.dat
1 71 -210 -48 490 1 0 0 0 1 0 -0 0 1 3024.dat
1 71 -190 -64 -370 0 0 1 0 1 0 -1 0 0 3622.dat
1 71 -190 -64 450 0 0 1 0 1 0 -1 0 0 3622.dat
1 71 -170 -64 -310 1 0 0 0 1 0 -0 0 1 3005.dat
1 71 150 -64 -430 1 0 0 0 1 0 -0 0 1 3005.dat
1 71 150 -64 -310 1 0 0 0 1 0 -0 0 1 3005.dat
1 71 150 -64 390 1 0 0 0 1 0 -0 0 1 3005.dat
1 71 160 -48 410 1 0 0 0 1 0 -0 0 1 3023.dat
1 71 200 -64 -470 1 0 0 0 1 0 -0 0 1 3010.dat
1 71 190 -48 -450 1 0 0 0 1 0 -0 0 1 3623.dat
1 71 170 -48 -410 1 0 0 0 1 0 -0 0 1 3024.dat
1 71 170 -48 -330 1 0 0 0 1 0 -0 0 1 3024.dat
1 71 170 -48 490 1 0 0 0 1 0 -0 0 1 3024.dat
1 71 190 -64 -370 0 0 1 0 1 0 -1 0 0 3622.dat
1 71 230 -64 -310 1 0 0 0 1 0 -0 0 1 3005.dat
1 71 -220 -56 -330 1 0 0 0 1 0 -0 0 1 3023.dat
1 71 -200 -56 370 1 0 0 0 1 0 -0 0 1 3710.dat
1 71 -200 -56 530 1 0 0 0 1 0 -0 0 1 3710.dat
1 71 -210 -72 -430 1 0 0 0 1 0 -0 0 1 3005.dat
1 71 -210 -56 410 1 0 0 0 1 0 -0 0 1 3024.dat
1 71 -210 -72 510 1 0 0 0 1 0 -0 0 1 3005.dat
1 71 -180 -72 -410 1 0 0 0 1 0 -0 0 1 3004.dat
1 71 -180 -72 490 1 0 0 0 1 0 -0 0 1 3004.dat
1 71 -170 -72 -450 1 0 0 0 1 0 -0 0 1 3005.dat
1 71 -170 -72 -360 0 0 1 0 1 0 -1 0 0 3010.dat
1 71 -170 -72 440 0 0 1 0 1 0 -1 0 0 3010.dat
1 71 150 -72 -460 0 0 1 0 1 0 -1 0 0 3004.dat
1 71 180 -56 530 1 0 0 0 1 0 -0 0 1 3710.dat
1 71 170 -72 -430 1 0 0 0 1 0 -0 0 1 3005.dat
1 71 170 -56 -330 1 0 0 0 1 0 -0 0 1 3024.dat
1 71 200 -56 370 1 0 0 0 1 0 -0 0 1 3710.dat
1 71 170 -72 390 1 0 0 0 1 0 -0 0 1 3005.dat
1 71 170 -72 510 1 0 0 0 1 0 -0 0 1 3005.dat
1 71 190 -72 -410 1 0 0 0 1 0 -0 0 1 3005.dat
1 71 190 -72 410 1 0 0 0 1 0 -0 0 1 3005.dat
1 71 190 -72 490 1 0 0 0 1 0 -0 0 1 3005.dat
1 71 230 -72 -450 1 0 0 0 1 0 -0 0 1 3005.dat
1 71 230 -72 -380 0 0 1 0 1 0 -1 0 0 3010.dat
1 71 230 -72 -330 1 0 0 0 1 0 -0 0 1 3005.dat
1 71 230 -72 440 0 0 1 0 1 0 -1 0 0 3010.dat
1 71 230 -72 490 1 0 0 0 1 0 -0 0 1 3005.dat
1 71 230 -72 530 1 0 0 0 1 0 -0 0 1 3005.dat
1 71 -200 -80 -290 1 0 0 0 1 0 -0 0 1 3010.dat
1 71 -200 -80 350 1 0 0 0 1 0 -0 0 1 3010.dat
1 71 -200 -64 370 1 0 0 0 1 0 -0 0 1 3710.dat
1 71 -230 -80 530 0 0 1 0 1 0 -1 0 0 3622.dat
1 71 -210 -80 -310 1 0 0 0 1 0 -0 0 1 3005.dat
1 71 -210 -80 390 1 0 0 0 1 0 -0 0 1 3005.dat
1 71 -190 -64 540 1 0 0 0 1 0 -0 0 1 3021.dat
1 71 -190 -80 -330 1 0 0 0 1 0 -0 0 1 3005.dat
1 71 -190 -80 410 1 0 0 0 1 0 -0 0 1 3005.dat
1 71 -170 -80 -430 1 0 0 0 1 0 -0 0 1 3005.dat
1 71 -170 -80 390 1 0 0 0 1 0 -0 0 1 3005.dat
1 71 -170 -80 510 1 0 0 0 1 0 -0 0 1 3005.dat
1 71 180 -80 -290 1 0 0 0 1 0 -0 0 1 3010.dat
1 71 180 -64 370 1 0 0 0 1 0 -0 0 1 3710.dat
1 71 150 -80 530 0 0 1 0 1 0 -1 0 0 3622.dat
1 71 170 -80 -310 1 0 0 0 1 0 -0 0 1 3005.dat
1 71 200 -80 350 1 0 0 0 1 0 -0 0 1 3010.dat
1 71 190 -64 540 1 0 0 0 1 0 -0 0 1 3021.dat
1 71 190 -80 -330 1 0 0 0 1 0 -0 0 1 3005.dat
1 71 190 -80 450 0 0 1 0 1 0 -1 0 0 3622.dat
1 71 230 -80 -430 1 0 0 0 1 0 -0 0 1 3005.dat
1 71 230 -80 -290 1 0 0 0 1 0 -0 0 1 3005.dat
1 71 230 -80 380 0 0 1 0 1 0 -1 0 0 3004.dat
1 71 230 -80 510 1 0 0 0 1 0 -0 0 1 3005.dat
1 71 230 -80 550 1 0 0 0 1 0 -0 0 1 3005.dat
1 71 -200 -88 -470 1 0 0 0 1 0 -0 0 1 3010.dat
1 71 -230 -88 -450 1 0 0 0 1 0 -0 0 1 3005.dat
1 71 -230 -72 -430 1 0 0 0 1 0 -0 0 1 3024.dat
1 71 -230 -88 -310 1 0 0 0 1 0 -0 0 1 3005.dat
1 71 -230 -88 380 0 0 1 0 1 0 -1 0 0 3004.dat
1 71 -190 -88 550 1 0 0 0 1 0 -0 0 1 3622.dat
1 71 -190 -88 -370 0 0 1 0 1 0 -1 0 0 3622.dat
1 71 -190 -88 450 0 0 1 0 1 0 -1 0 0 3622.dat
1 71 -170 -88 -310 1 0 0 0 1 0 -0 0 1 3005.dat
1 71 -170 -72 370 1 0 0 0 1 0 -0 0 1 3024.dat
1 71 -170 -88 530 1 0 0 0 1 0 -0 0 1 3005.dat
1 71 -20 -88 -380 1 0 0 0 1 0 -0 0 1 3003.dat
1 71 10 -88 -380 0 0 1 0 1 0 -1 0 0 3004.dat
1 71 150 -72 -430 1 0 0 0 1 0 -0 0 1 3024.dat
1 71 150 -88 -310 1 0 0 0 1 0 -0 0 1 3005.dat
1 71 150 -88 350 1 0 0 0 1 0 -0 0 1 3005.dat
1 71 150 -72 380 0 0 1 0 1 0 -1 0 0 3023.dat
1 71 200 -88 -470 1 0 0 0 1 0 -0 0 1 3010.dat
1 71 190 -88 550 1 0 0 0 1 0 -0 0 1 3622.dat
1 71 190 -88 -370 0 0 1 0 1 0 -1 0 0 3622.dat
1 71 230 -88 -310 1 0 0 0 1 0 -0 0 1 3005.dat
1 71 -200 -96 -270 1 0 0 0 1 0 -0 0 1 3010.dat
1 71 -210 -80 -430 1 0 0 0 1 0 -0 0 1 3024.dat
1 71 -210 -96 510 1 0 0 0 1 0 -0 0 1 3005.dat
1 71 -180 -96 -410 1 0 0 0 1 0 -0 0 1 3004.dat
1 71 -180 -96 490 1 0 0 0 1 0 -0 0 1 3004.dat
1 71 -170 -96 -450 1 0 0 0 1 0 -0 0 1 3005.dat
1 71 -170 -96 -360 0 0 1 0 1 0 -1 0 0 3010.dat
1 71 -140 -96 -240 1 0 0 0 1 0 -0 0 1 3001.dat
1 71 -140 -96 -200 1 0 0 0 1 0 -0 0 1 3001.dat
1 71 -140 -96 -160 1 0 0 0 1 0 -0 0 1 3001.dat
1 71 -140 -96 -120 1 0 0 0 1 0 -0 0 1 3001.dat
1 71 -140 -96 -80 1 0 0 0 1 0 -0 0 1 3001.dat
1 71 -140 -96 -40 1 0 0 0 1 0 -0 0 1 3001.dat
1 71 -140 -96 0 1 0 0 0 1 0 -0 0 1 3001.dat
1 71 -140 -96 40 1 0 0 0 1 0 -0 0 1 3001.dat
1 71 -140 -96 80 1 0 0 0 1 0 -0 0 1 3001.dat
1 71 -140 -96 120 1 0 0 0 1 0 -0 0 1 3001.dat
1 71 -140 -96 160 1 0 0 0 1 0 -0 0 1 3001.dat
1 71 -140 -96 200 1 0 0 0 1 0 -0 0 1 3001.dat
1 71 -140 -96 240 1 0 0 0 1 0 -0 0 1 3001.dat
1 71 -140 -96 280 1 0 0 0 1 0 -0 0 1 3001.dat
1 71 -140 -96 320 1 0 0 0 1 0 -0 0 1 3001.dat
1 71 -140 -80 370 1 0 0 0 1 0 -0 0 1 3710.dat
1 71 -170 -80 440 0 0 1 0 1 0 -1 0 0 3710.dat
1 71 -120 -96 350 1 0 0 0 1 0 -0 0 1 3010.dat
1 71 -120 -96 390 1 0 0 0 1 0 -0 0 1 3010.dat
1 71 -60 -96 -240 1 0 0 0 1 0 -0 0 1 3001.dat
1 71 -60 -96 -200 1 0 0 0 1 0 -0 0 1 3001.dat
1 71 -60 -96 -160 1 0 0 0 1 0 -0 0 1 3001.dat
1 71 -60 -96 -120 1 0 0 0 1 0 -0 0 1 3001.dat
1 71 -60 -96 -80 1 0 0 0 1 0 -0 0 1 3001.dat
1 71 -60 -96 -40 1 0 0 0 1 0 -0 0 1 3001.dat
1 71 -60 -96 0 1 0 0 0 1 0 -0 0 1 3001.dat
1 71 -60 -96 40 1 0 0 0 1 0 -0 0 1 3001.dat
1 71 -60 -96 80 1 0 0 0 1 0 -0 0 1 3001.dat
1 71 -60 -96 120 1 0 0 0 1 0 -0 0 1 3001.dat
1 71 -60 -96 160 1 0 0 0 1 0 -0 0 1 3001.dat
1 71 -60 -96 200 1 0 0 0 1 0 -0 0 1 3001.dat
1 71 -60 -96 240 1 0 0 0 1 0 -0 0 1 3001.dat
1 71 -60 -96 280 1 0 0 0 1 0 -0 0 1 3001.dat
1 71 -60 -96 320 1 0 0 0 1 0 -0 0 1 3001.dat
1 71 -60 -96 370 1 0 0 0 1 0 -0 0 1 3010.dat
1 71 -40 -96 350 1 0 0 0 1 0 -0 0 1 3010.dat
1 71 -40 -96 390 1 0 0 0 1 0 -0 0 1 3010.dat
1 71 -10 -96 -350 1 0 0 0 1 0 -0 0 1 3622.dat
1 71 20 -96 -240 1 0 0 0 1 0 -0 0 1 3001.dat
1 71 20 -96 -200 1 0 0 0 1 0 -0 0 1 3001.dat
1 71 20 -96 -160 1 0 0 0 1 0 -0 0 1 3001.dat
1 71 20 -96 -120 1 0 0 0 1 0 -0 0 1 3001.dat
1 71 20 -96 -80 1 0 0 0 1 0 -0 0 1 3001.dat
1 71 20 -96 -40 1 0 0 0 1 0 -0 0 1 3001.dat
1 71 20 -96 0 1 0 0 0 1 0 -0 0 1 3001.dat
1 71 20 -96 40 1 0 0 0 1 0 -0 0 1 3001.dat
1 71 20 -96 80 1 0 0 0 1 0 -0 0 1 3001.dat
1 71 20 -96 120 1 0 0 0 1 0 -0 0 1 3001.dat
1 71 20 -96 160 1 0 0 0 1 0 -0 0 1 3001.dat
1 71 20 -96 200 1 0 0 0 1 0 -0 0 1 3001.dat
1 71 20 -96 240 1 0 0 0 1 0 -0 0 1 3001.dat
1 71 20 -96 280 1 0 0 0 1 0 -0 0 1 3001.dat
1 71 20 -96 320 1 0 0 0 1 0 -0 0 1 3001.dat
1 71 20 -96 370 1 0 0 0 1 0 -0 0 1 3010.dat
1 71 40 -96 350 1 0 0 0 1 0 -0 0 1 3010.dat
1 71 40 -96 390 1 0 0 0 1 0 -0 0 1 3010.dat
1 71 30 -96 -380 0 0 1 0 1 0 -1 0 0 3004.dat
1 71 100 -96 -240 1 0 0 0 1 0 -0 0 1 3001.dat
1 71 100 -96 -200 1 0 0 0 1 0 -0 0 1 3001.dat
1 71 100 -96 -160 1 0 0 0 1 0 -0 0 1 3001.dat
1 71 100 -96 -120 1 0 0 0 1 0 -0 0 1 3001.dat
1 71 100 -96 -80 1 0 0 0 1 0 -0 0 1 3001.dat
1 71 100 -96 -40 1 0 0 0 1 0 -0 0 1 3001.dat
1 71 100 -96 0 1 0 0 0 1 0 -0 0 1 3001.dat
1 71 100 -96 40 1 0 0 0 1 0 -0 0 1 3001.dat
1 71 100 -96 80 1 0 0 0 1 0 -0 0 1 3001.dat
1 71 100 -96 120 1 0 0 0 1 0 -0 0 1 3001.dat
1 71 100 -96 160 1 0 0 0 1 0 -0 0 1 3001.dat
1 71 100 -96 200 1 0 0 0 1 0 -0 0 1 3001.dat
1 71 100 -96 240 1 0 0 0 1 0 -0 0 1 3001.dat
1 71 100 -96 280 1 0 0 0 1 0 -0 0 1 3001.dat
1 71 100 -96 320 1 0 0 0 1 0 -0 0 1 3001.dat
1 71 100 -96 370 1 0 0 0 1 0 -0 0 1 3010.dat
1 71 110 -96 350 1 0 0 0 1 0 -0 0 1 3622.dat
1 71 150 -96 -460 0 0 1 0 1 0 -1 0 0 3004.dat
1 71 160 -96 -240 0 0 1 0 1 0 -1 0 0 3001.dat
1 71 160 -96 -160 0 0 1 0 1 0 -1 0 0 3001.dat
1 71 160 -96 -80 0 0 1 0 1 0 -1 0 0 3001.dat
1 71 160 -96 0 0 0 1 0 1 0 -1 0 0 3001.dat
1 71 160 -96 80 0 0 1 0 1 0 -1 0 0 3001.dat
1 71 160 -96 160 0 0 1 0 1 0 -1 0 0 3001.dat
1 71 160 -96 240 0 0 1 0 1 0 -1 0 0 3001.dat
1 71 160 -96 300 1 0 0 0 1 0 -0 0 1 3003.dat
1 71 160 -96 330 1 0 0 0 1 0 -0 0 1 3004.dat
1 71 150 -80 380 0 0 1 0 1 0 -1 0 0 3023.dat
1 71 170 -96 -450 1 0 0 0 1 0 -0 0 1 3005.dat
1 71 170 -80 390 1 0 0 0 1 0 -0 0 1 3024.dat
1 71 170 -80 510 1 0 0 0 1 0 -0 0 1 3024.dat
1 71 190 -96 -420 0 0 1 0 1 0 -1 0 0 3004.dat
1 71 190 -96 -270 1 0 0 0 1 0 -0 0 1 3005.dat
1 71 190 -80 410 1 0 0 0 1 0 -0 0 1 3024.dat
1 71 190 -80 490 1 0 0 0 1 0 -0 0 1 3024.dat
1 71 230 -96 -450 1 0 0 0 1 0 -0 0 1 3005.dat
1 71 230 -96 -380 0 0 1 0 1 0 -1 0 0 3010.dat
1 71 230 -96 -330 1 0 0 0 1 0 -0 0 1 3005.dat
1 71 230 -96 440 0 0 1 0 1 0 -1 0 0 3010.dat
1 71 230 -96 490 1 0 0 0 1 0 -0 0 1 3005.dat
1 71 230 -96 530 1 0 0 0 1 0 -0 0 1 3005.dat
1 71 -230 -104 -290 1 0 0 0 1 0 -0 0 1 3005.dat
1 71 -220 -104 350 1 0 0 0 1 0 -0 0 1 3004.dat
1 71 -230 -104 530 0 0 1 0 1 0 -1 0 0 3622.dat
1 71 -210 -104 -450 1 0 0 0 1 0 -0 0 1 3005.dat
1 71 -210 -104 -310 1 0 0 0 1 0 -0 0 1 3005.dat
1 71 -210 -104 390 1 0 0 0 1 0 -0 0 1 3005.dat
1 71 -180 -104 -430 1 0 0 0 1 0 -0 0 1 3004.dat
1 71 -190 -104 -330 1 0 0 0 1 0 -0 0 1 3005.dat
1 71 -190 -88 350 1 0 0 0 1 0 -0 0 1 3024.dat
1 71 -160 -88 410 1 0 0 0 1 0 -0 0 1 3710.dat
1 71 -170 -104 -290 1 0 0 0 1 0 -0 0 1 3005.dat
1 71 -140 -88 440 1 0 0 0 1 0 -0 0 1 3020.dat
1 71 -170 -88 470 1 0 0 0 1 0 -0 0 1 3024.dat
1 71 -170 -88 510 1 0 0 0 1 0 -0 0 1 3024.dat
1 71 -130 -88 370 1 0 0 0 1 0 -0 0 1 3623.dat
1 71 -80 -104 410 1 0 0 0 1 0 -0 0 1 3010.dat
1 71 -60 -104 440 1 0 0 0 1 0 -0 0 1 3001.dat
1 71 -10 -104 -410 1 0 0 0 1 0 -0 0 1 3622.dat
1 71 0 -104 410 1 0 0 0 1 0 -0 0 1 3010.dat
1 71 20 -104 440 1 0 0 0 1 0 -0 0 1 3001.dat
1 71 30 -104 -350 1 0 0 0 1 0 -0 0 1 3005.dat
1 71 80 -104 410 1 0 0 0 1 0 -0 0 1 3010.dat
1 71 100 -104 440 1 0 0 0 1 0 -0 0 1 3001.dat
1 71 110 -104 390 1 0 0 0 1 0 -0 0 1 3622.dat
1 71 150 -104 410 1 0 0 0 1 0 -0 0 1 3622.dat
1 71 150 -104 -290 1 0 0 0 1 0 -0 0 1 3005.dat
1 71 160 -88 390 1 0 0 0 1 0 -0 0 1 3023.dat
1 71 160 -104 460 0 0 1 0 1 0 -1 0 0 3001.dat
1 71 150 -88 530 0 0 1 0 1 0 -1 0 0 3623.dat
1 71 170 -104 -310 1 0 0 0 1 0 -0 0 1 3005.dat
1 71 170 -88 510 1 0 0 0 1 0 -0 0 1 3024.dat
1 71 190 -104 -330 1 0 0 0 1 0 -0 0 1 3005.dat
1 71 190 -104 -220 0 0 1 0 1 0 -1 0 0 3010.dat
1 71 190 -104 -140 0 0 1 0 1 0 -1 0 0 3010.dat
1 71 190 -104 -60 0 0 1 0 1 0 -1 0 0 3010.dat
1 71 190 -104 20 0 0 1 0 1 0 -1 0 0 3010.dat
1 71 190 -104 100 0 0 1 0 1 0 -1 0 0 3010.dat
1 71 190 -104 180 0 0 1 0 1 0 -1 0 0 3010.dat
1 71 190 -104 260 0 0 1 0 1 0 -1 0 0 3010.dat
1 71 190 -104 320 0 0 1 0 1 0 -1 0 0 3004.dat
1 71 210 -88 350 1 0 0 0 1 0 -0 0 1 3623.dat
1 71 190 -88 440 0 0 1 0 1 0 -1 0 0 3710.dat
1 71 190 -88 490 1 0 0 0 1 0 -0 0 1 3024.dat
1 71 220 -88 -280 1 0 0 0 1 0 -0 0 1 3022.dat
1 71 230 -104 -430 1 0 0 0 1 0 -0 0 1 3005.dat
1 71 230 -104 380 0 0 1 0 1 0 -1 0 0 3004.dat
1 71 230 -104 510 1 0 0 0 1 0 -0 0 1 3005.dat
1 71 230 -104 550 1 0 0 0 1 0 -0 0 1 3005.dat
1 71 -200 -112 -470 1 0 0 0 1 0 -0 0 1 3010.dat
1 71 -230 -112 -450 1 0 0 0 1 0 -0 0 1 3005.dat
1 71 -230 -112 -310 1 0 0 0 1 0 -0 0 1 3005.dat
1 71 -230 -112 380 0 0 1 0 1 0 -1 0 0 3004.dat
1 71 -210 -112 550 1 0 0 0 1 0 -0 0 1 3005.dat
1 71 -190 -112 -370 0 0 1 0 1 0 -1 0 0 3622.dat
1 71 -190 -112 -220 0 0 1 0 1 0 -1 0 0 3010.dat
1 71 -190 -112 -140 0 0 1 0 1 0 -1 0 0 3010.dat
1 71 -190 -112 -60 0 0 1 0 1 0 -1 0 0 3010.dat
1 71 -190 -112 20 0 0 1 0 1 0 -1 0 0 3010.dat
1 71 -190 -112 100 0 0 1 0 1 0 -1 0 0 3010.dat
1 71 -190 -112 180 0 0 1 0 1 0 -1 0 0 3010.dat
1 71 -190 -112 260 0 0 1 0 1 0 -1 0 0 3010.dat
1 71 -190 -112 320 0 0 1 0 1 0 -1 0 0 3004.dat
1 71 -190 -96 350 1 0 0 0 1 0 -0 0 1 3024.dat
1 71 -190 -112 440 0 0 1 0 1 0 -1 0 0 3010.dat
1 71 -180 -96 550 1 0 0 0 1 0 -0 0 1 3023.dat
1 71 -170 -112 -310 1 0 0 0 1 0 -0 0 1 3005.dat
1 71 -140 -96 470 1 0 0 0 1 0 -0 0 1 3710.dat
1 71 -140 -96 520 1 0 0 0 1 0 -0 0 1 3020.dat
1 71 -130 -96 370 1 0 0 0 1 0 -0 0 1 3623.dat
1 71 -140 -96 430 0 0 1 0 1 0 -1 0 0 3021.dat
1 71 -120 -112 490 1 0 0 0 1 0 -0 0 1 3010.dat
1 71 -100 -112 -540 1 0 0 0 1 0 -0 0 1 3001.dat
1 71 -110 -96 440 0 0 1 0 1 0 -1 0 0 3023.dat
1 71 -60 -112 470 1 0 0 0 1 0 -0 0 1 3010.dat
1 71 -60 -112 520 1 0 0 0 1 0 -0 0 1 3001.dat
1 71 -40 -112 490 1 0 0 0 1 0 -0 0 1 3010.dat
1 71 -20 -112 -540 1 0 0 0 1 0 -0 0 1 3001.dat
1 71 -40 -96 -380 1 0 0 0 1 0 -0 0 1 3022.dat
1 71 20 -112 470 1 0 0 0 1 0 -0 0 1 3010.dat
1 71 20 -112 520 1 0 0 0 1 0 -0 0 1 3001.dat
1 71 40 -112 490 1 0 0 0 1 0 -0 0 1 3010.dat
1 71 60 -112 -540 1 0 0 0 1 0 -0 0 1 3001.dat
1 71 50 -96 -380 0 0 1 0 1 0 -1 0 0 3023.dat
1 71 100 -96 -370 1 0 0 0 1 0 -0 0 1 3710.dat
1 71 100 -112 470 1 0 0 0 1 0 -0 0 1 3010.dat
1 71 100 -112 520 1 0 0 0 1 0 -0 0 1 3001.dat
1 71 110 -112 490 1 0 0 0 1 0 -0 0 1 3622.dat
1 71 120 -112 -540 1 0 0 0 1 0 -0 0 1 3003.dat
1 71 150 -112 -520 0 0 1 0 1 0 -1 0 0 3010.dat
1 71 170 -96 -360 1 0 0 0 1 0 -0 0 1 3021.dat
1 71 160 -96 -330 1 0 0 0 1 0 -0 0 1 3023.dat
1 71 150 -112 -310 1 0 0 0 1 0 -0 0 1 3005.dat
1 71 150 -96 530 0 0 1 0 1 0 -1 0 0 3623.dat
1 71 200 -96 -470 1 0 0 0 1 0 -0 0 1 3710.dat
1 71 190 -96 550 1 0 0 0 1 0 -0 0 1 3623.dat
1 71 190 -112 -390 1 0 0 0 1 0 -0 0 1 3005.dat
1 71 220 -96 -270 1 0 0 0 1 0 -0 0 1 3023.dat
1 71 220 -112 350 1 0 0 0 1 0 -0 0 1 3004.dat
1 71 230 -112 -300 0 0 1 0 1 0 -1 0 0 3004.dat
1 71 -220 -104 -270 1 0 0 0 1 0 -0 0 1 3023.dat
1 71 -210 -120 510 1 0 0 0 1 0 -0 0 1 3005.dat
1 71 -180 -120 -410 1 0 0 0 1 0 -0 0 1 3004.dat
1 71 -190 -120 490 1 0 0 0 1 0 -0 0 1 3005.dat
1 71 -160 -104 560 1 0 0 0 1 0 -0 0 1 3020.dat
1 71 -160 -120 590 1 0 0 0 1 0 -0 0 1 3010.dat
1 71 -170 -120 -450 1 0 0 0 1 0 -0 0 1 3005.dat
1 71 -170 -120 -360 0 0 1 0 1 0 -1 0 0 3010.dat
1 71 -140 -104 -270 1 0 0 0 1 0 -0 0 1 3710.dat
1 71 -150 -120 -540 0 0 1 0 1 0 -1 0 0 3004.dat
1 71 -120 -104 -250 1 0 0 0 1 0 -0 0 1 3710.dat
1 71 -140 -104 440 0 0 1 0 1 0 -1 0 0 3020.dat
1 71 -130 -104 520 1 0 0 0 1 0 -0 0 1 3021.dat
1 71 -110 -104 450 0 0 1 0 1 0 -1 0 0 3623.dat
1 71 -80 -120 560 1 0 0 0 1 0 -0 0 1 3001.dat
1 71 -80 -120 590 1 0 0 0 1 0 -0 0 1 3010.dat
1 71 -60 -120 -270 1 0 0 0 1 0 -0 0 1 3010.dat
1 71 -40 -104 -250 1 0 0 0 1 0 -0 0 1 3710.dat
1 71 -50 -104 -380 0 0 1 0 1 0 -1 0 0 3023.dat
1 71 -10 -120 -350 1 0 0 0 1 0 -0 0 1 3622.dat
1 71 0 -120 560 1 0 0 0 1 0 -0 0 1 3001.dat
1 71 0 -120 590 1 0 0 0 1 0 -0 0 1 3010.dat
1 71 20 -120 -270 1 0 0 0 1 0 -0 0 1 3010.dat
1 71 40 -104 -250 1 0 0 0 1 0 -0 0 1 3710.dat
1 71 30 -120 -390 1 0 0 0 1 0 -0 0 1 3005.dat
1 71 50 -104 -380 0 0 1 0 1 0 -1 0 0 3023.dat
1 71 80 -120 560 1 0 0 0 1 0 -0 0 1 3001.dat
1 71 80 -120 590 1 0 0 0 1 0 -0 0 1 3010.dat
1 71 100 -120 -270 1 0 0 0 1 0 -0 0 1 3010.dat
1 71 110 -104 -250 1 0 0 0 1 0 -0 0 1 3623.dat
1 71 130 -120 570 0 0 1 0 1 0 -1 0 0 3622.dat
1 71 150 -120 -460 0 0 1 0 1 0 -1 0 0 3004.dat
1 71 150 -104 -270 1 0 0 0 1 0 -0 0 1 3024.dat
1 71 170 -104 560 1 0 0 0 1 0 -0 0 1 3021.dat
1 71 170 -120 590 1 0 0 0 1 0 -0 0 1 3622.dat
1 71 170 -120 -520 0 0 1 0 1 0 -1 0 0 3010.dat
1 71 200 -104 -470 1 0 0 0 1 0 -0 0 1 3710.dat
1 71 170 -120 -450 1 0 0 0 1 0 -0 0 1 3005.dat
1 71 190 -120 -420 0 0 1 0 1 0 -1 0 0 3004.dat
1 71 190 -120 -360 0 0 1 0 1 0 -1 0 0 3004.dat
1 71 220 -104 -270 1 0 0 0 1 0 -0 0 1 3023.dat
1 71 210 -120 -250 1 0 0 0 1 0 -0 0 1 3005.dat
1 71 210 -120 550 1 0 0 0 1 0 -0 0 1 3005.dat
1 71 230 -120 -450 1 0 0 0 1 0 -0 0 1 3005.dat
1 71 230 -120 -380 0 0 1 0 1 0 -1 0 0 3010.dat
1 71 230 -120 -330 1 0 0 0 1 0 -0 0 1 3005.dat
1 71 230 -120 440 0 0 1 0 1 0 -1 0 0 3010.dat
1 71 230 -120 490 1 0 0 0 1 0 -0 0 1 3005.dat
1 71 230 -120 530 1 0 0 0 1 0 -0 0 1 3005.dat
1 71 -230 -128 -290 1 0 0 0 1 0 -0 0 1 3005.dat
1 71 -220 -112 -270 1 0 0 0 1 0 -0 0 1 3023.dat
1 71 -220 -128 350 1 0 0 0 1 0 -0 0 1 3004.dat
1 71 -230 -128 530 0 0 1 0 1 0 -1 0 0 3622.dat
1 71 -210 -112 -450 1 0 0 0 1 0 -0 0 1 3024.dat
1 71 -210 -128 -310 1 0 0 0 1 0 -0 0 1 3005.dat
1 71 -210 -128 390 1 0 0 0 1 0 -0 0 1 3005.dat
1 71 -180 -112 -430 1 0 0 0 1 0 -0 0 1 3023.dat
1 71 -190 -128 -330 1 0 0 0 1 0 -0 0 1 3005.dat
1 71 -160 -112 570 1 0 0 0 1 0 -0 0 1 3710.dat
1 71 -170 -128 -520 0 0 1 0 1 0 -1 0 0 3010.dat
1 71 -170 -128 -290 1 0 0 0 1 0 -0 0 1 3005.dat
1 71 -140 -128 610 1 0 0 0 1 0 -0 0 1 3010.dat
1 71 -120 -128 -570 1 0 0 0 1 0 -0 0 1 3010.dat
1 71 -130 -128 -270 1 0 0 0 1 0 -0 0 1 3622.dat
1 71 -130 -112 470 1 0 0 0 1 0 -0 0 1 3623.dat
1 71 -130 -112 520 1 0 0 0 1 0 -0 0 1 3021.dat
1 71 -140 -112 550 1 0 0 0 1 0 -0 0 1 3023.dat
1 71 -60 -128 610 1 0 0 0 1 0 -0 0 1 3010.dat
1 71 -40 -128 -570 1 0 0 0 1 0 -0 0 1 3010.dat
1 71 -10 -112 -410 1 0 0 0 1 0 -0 0 1 3623.dat
1 71 -30 -112 -380 0 0 1 0 1 0 -1 0 0 3023.dat
1 71 20 -128 610 1 0 0 0 1 0 -0 0 1 3010.dat
1 71 40 -128 -570 1 0 0 0 1 0 -0 0 1 3010.dat
1 71 30 -112 -360 0 0 1 0 1 0 -1 0 0 3023.dat
1 71 100 -128 610 1 0 0 0 1 0 -0 0 1 3010.dat
1 71 120 -128 -570 1 0 0 0 1 0 -0 0 1 3010.dat
1 71 150 -128 -290 1 0 0 0 1 0 -0 0 1 3005.dat
1 71 170 -112 570 1 0 0 0 1 0 -0 0 1 3623.dat
1 71 160 -128 610 1 0 0 0 1 0 -0 0 1 3004.dat
1 71 170 -128 -570 1 0 0 0 1 0 -0 0 1 3005.dat
1 71 170 -128 -310 1 0 0 0 1 0 -0 0 1 3005.dat
1 71 210 -112 -470 1 0 0 0 1 0 -0 0 1 3623.dat
1 71 190 -128 -330 1 0 0 0 1 0 -0 0 1 3005.dat
1 71 190 -128 -200 0 0 1 0 1 0 -1 0 0 3010.dat
1 71 190 -128 -120 0 0 1 0 1 0 -1 0 0 3010.dat
1 71 190 -128 -40 0 0 1 0 1 0 -1 0 0 3010.dat
1 71 190 -128 40 0 0 1 0 1 0 -1 0 0 3010.dat
1 71 190 -128 120 0 0 1 0 1 0 -1 0 0 3010.dat
1 71 190 -128 200 0 0 1 0 1 0 -1 0 0 3010.dat
1 71 190 -128 280 0 0 1 0 1 0 -1 0 0 3010.dat
1 71 190 -128 330 1 0 0 0 1 0 -0 0 1 3005.dat
1 71 230 -128 -430 1 0 0 0 1 0 -0 0 1 3005.dat
1 71 230 -112 -270 1 0 0 0 1 0 -0 0 1 3024.dat
1 71 230 -128 380 0 0 1 0 1 0 -1 0 0 3004.dat
1 71 230 -128 510 1 0 0 0 1 0 -0 0 1 3005.dat
1 71 230 -128 550 1 0 0 0 1 0 -0 0 1 3005.dat
1 71 -200 -136 -470 1 0 0 0 1 0 -0 0 1 3010.dat
1 71 -230 -136 -440 0 0 1 0 1 0 -1 0 0 3004.dat
1 71 -230 -136 -310 1 0 0 0 1 0 -0 0 1 3005.dat
1 71 -230 -136 380 0 0 1 0 1 0 -1 0 0 3004.dat
1 71 -210 -120 -440 0 0 1 0 1 0 -1 0 0 3023.dat
1 71 -210 -136 -270 1 0 0 0 1 0 -0 0 1 3005.dat
1 71 -210 -136 550 1 0 0 0 1 0 -0 0 1 3005.dat
1 71 -180 -120 -430 1 0 0 0 1 0 -0 0 1 3023.dat
1 71 -190 -136 -370 0 0 1 0 1 0 -1 0 0 3622.dat
1 71 -190 -136 -220 0 0 1 0 1 0 -1 0 0 3010.dat
1 71 -190 -136 -140 0 0 1 0 1 0 -1 0 0 3010.dat
1 71 -190 -136 -60 0 0 1 0 1 0 -1 0 0 3010.dat
1 71 -190 -136 20 0 0 1 0 1 0 -1 0 0 3010.dat
1 71 -190 -136 100 0 0 1 0 1 0 -1 0 0 3010.dat
1 71 -190 -136 180 0 0 1 0 1 0 -1 0 0 3010.dat
1 71 -190 -136 260 0 0 1 0 1 0 -1 0 0 3010.dat
1 71 -190 -136 310 1 0 0 0 1 0 -0 0 1 3005.dat
1 71 -190 -120 330 1 0 0 0 1 0 -0 0 1 3024.dat
1 71 -190 -136 440 0 0 1 0 1 0 -1 0 0 3010.dat
1 71 -160 -120 570 1 0 0 0 1 0 -0 0 1 3710.dat
1 71 -140 -136 -590 1 0 0 0 1 0 -0 0 1 3010.dat
1 71 -170 -136 -570 1 0 0 0 1 0 -0 0 1 3005.dat
1 71 -170 -136 -310 1 0 0 0 1 0 -0 0 1 3005.dat
1 71 -140 -120 550 1 0 0 0 1 0 -0 0 1 3023.dat
1 71 -100 -136 -530 1 0 0 0 1 0 -0 0 1 3010.dat
1 71 -60 -136 -590 1 0 0 0 1 0 -0 0 1 3010.dat
1 71 -20 -120 -530 1 0 0 0 1 0 -0 0 1 3710.dat
1 71 -10 -120 -380 1 0 0 0 1 0 -0 0 1 3021.dat
1 71 20 -136 -590 1 0 0 0 1 0 -0 0 1 3010.dat
1 71 60 -120 -530 1 0 0 0 1 0 -0 0 1 3710.dat
1 71 30 -120 -370 1 0 0 0 1 0 -0 0 1 3024.dat
1 71 100 -136 -590 1 0 0 0 1 0 -0 0 1 3010.dat
1 71 120 -120 -530 1 0 0 0 1 0 -0 0 1 3023.dat
1 71 160 -136 -590 1 0 0 0 1 0 -0 0 1 3004.dat
1 71 150 -120 -500 0 0 1 0 1 0 -1 0 0 3023.dat
1 71 150 -136 -310 1 0 0 0 1 0 -0 0 1 3005.dat
1 71 170 -120 570 1 0 0 0 1 0 -0 0 1 3623.dat
1 71 170 -136 -430 1 0 0 0 1 0 -0 0 1 3005.dat
1 71 190 -136 -540 0 0 1 0 1 0 -1 0 0 3010.dat
1 71 190 -136 -490 1 0 0 0 1 0 -0 0 1 3005.dat
1 71 210 -120 -470 1 0 0 0 1 0 -0 0 1 3623.dat
1 71 190 -136 -390 1 0 0 0 1 0 -0 0 1 3005.dat
1 71 210 -136 -270 1 0 0 0 1 0 -0 0 1 3005.dat
1 71 210 -136 350 1 0 0 0 1 0 -0 0 1 3005.dat
1 71 230 -136 -300 0 0 1 0 1 0 -1 0 0 3004.dat
1 71 230 -120 350 1 0 0 0 1 0 -0 0 1 3024.dat
1 71 -210 -144 -430 1 0 0 0 1 0 -0 0 1 3005.dat
1 71 -210 -144 330 1 0 0 0 1 0 -0 0 1 3005.dat
1 71 -210 -144 510 1 0 0 0 1 0 -0 0 1 3005.dat
1 71 -180 -144 -410 1 0 0 0 1 0 -0 0 1 3004.dat
1 71 -190 -128 330 1 0 0 0 1 0 -0 0 1 3024.dat
1 71 -190 -144 490 1 0 0 0 1 0 -0 0 1 3005.dat
1 71 -190 -144 580 0 0 1 0 1 0 -1 0 0 3004.dat
1 71 -170 -144 -440 0 0 1 0 1 0 -1 0 0 3004.dat
1 71 -170 -144 -360 0 0 1 0 1 0 -1 0 0 3010.dat
1 71 -140 -144 630 1 0 0 0 1 0 -0 0 1 3010.dat
1 71 -150 -128 -530 1 0 0 0 1 0 -0 0 1 3024.dat
1 71 -60 -144 -270 1 0 0 0 1 0 -0 0 1 3010.dat
1 71 -60 -144 630 1 0 0 0 1 0 -0 0 1 3010.dat
1 71 -20 -128 -520 1 0 0 0 1 0 -0 0 1 3020.dat
1 71 0 -128 -380 1 0 0 0 1 0 -0 0 1 3022.dat
1 71 20 -144 -270 1 0 0 0 1 0 -0 0 1 3010.dat
1 71 20 -144 630 1 0 0 0 1 0 -0 0 1 3010.dat
1 71 60 -128 -520 1 0 0 0 1 0 -0 0 1 3020.dat
1 71 100 -144 -270 1 0 0 0 1 0 -0 0 1 3010.dat
1 71 100 -144 630 1 0 0 0 1 0 -0 0 1 3010.dat
1 71 120 -128 -520 1 0 0 0 1 0 -0 0 1 3022.dat
1 71 150 -128 -480 0 0 1 0 1 0 -1 0 0 3710.dat
1 71 150 -144 -430 1 0 0 0 1 0 -0 0 1 3005.dat
1 71 150 -144 630 1 0 0 0 1 0 -0 0 1 3005.dat
1 71 190 -144 -590 1 0 0 0 1 0 -0 0 1 3005.dat
1 71 190 -144 -410 1 0 0 0 1 0 -0 0 1 3005.dat
1 71 190 -144 -360 0 0 1 0 1 0 -1 0 0 3004.dat
1 71 190 -144 580 0 0 1 0 1 0 -1 0 0 3004.dat
1 71 220 -144 -470 1 0 0 0 1 0 -0 0 1 3004.dat
1 71 210 -144 -250 1 0 0 0 1 0 -0 0 1 3005.dat
1 71 210 -144 330 1 0 0 0 1 0 -0 0 1 3005.dat
1 71 210 -144 550 1 0 0 0 1 0 -0 0 1 3005.dat
1 71 230 -144 -450 1 0 0 0 1 0 -0 0 1 3005.dat
1 71 230 -144 -380 0 0 1 0 1 0 -1 0 0 3010.dat
1 71 230 -144 -330 1 0 0 0 1 0 -0 0 1 3005.dat
1 71 230 -128 350 1 0 0 0 1 0 -0 0 1 3024.dat
1 71 230 -144 440 0 0 1 0 1 0 -1 0 0 3010.dat
1 71 230 -144 490 1 0 0 0 1 0 -0 0 1 3005.dat
1 71 230 -144 530 1 0 0 0 1 0 -0 0 1 3005.dat
1 71 -220 -152 -330 1 0 0 0 1 0 -0 0 1 3004.dat
1 71 -230 -152 -290 1 0 0 0 1 0 -0 0 1 3005.dat
1 71 -230 -152 520 0 0 1 0 1 0 -1 0 0 3004.dat
1 71 -230 -136 550 1 0 0 0 1 0 -0 0 1 3024.dat
1 71 -210 -136 -310 1 0 0 0 1 0 -0 0 1 3024.dat
1 71 -210 -152 -250 1 0 0 0 1 0 -0 0 1 3005.dat
1 71 -210 -152 310 1 0 0 0 1 0 -0 0 1 3005.dat
1 71 -210 -152 350 1 0 0 0 1 0 -0 0 1 3005.dat
1 71 -210 -136 390 1 0 0 0 1 0 -0 0 1 3024.dat
1 71 -160 -152 -610 1 0 0 0 1 0 -0 0 1 3010.dat
1 71 -190 -152 -560 0 0 1 0 1 0 -1 0 0 3010.dat
1 71 -190 -152 -500 0 0 1 0 1 0 -1 0 0 3004.dat
1 71 -190 -136 -330 1 0 0 0 1 0 -0 0 1 3024.dat
1 71 -170 -136 -520 0 0 1 0 1 0 -1 0 0 3710.dat
1 71 -170 -152 -290 1 0 0 0 1 0 -0 0 1 3005.dat
1 71 -170 -152 610 1 0 0 0 1 0 -0 0 1 3005.dat
1 71 -150 -136 -520 0 0 1 0 1 0 -1 0 0 3023.dat
1 71 -130 -152 -270 1 0 0 0 1 0 -0 0 1 3622.dat
1 71 -100 -152 -510 1 0 0 0 1 0 -0 0 1 3010.dat
1 71 -80 -152 -610 1 0 0 0 1 0 -0 0 1 3010.dat
1 71 -20 -152 -510 1 0 0 0 1 0 -0 0 1 3010.dat
1 71 0 -152 -610 1 0 0 0 1 0 -0 0 1 3010.dat
1 71 60 -152 -510 1 0 0 0 1 0 -0 0 1 3010.dat
1 71 80 -152 -610 1 0 0 0 1 0 -0 0 1 3010.dat
1 71 120 -152 -510 1 0 0 0 1 0 -0 0 1 3004.dat
1 71 160 -152 -610 1 0 0 0 1 0 -0 0 1 3010.dat
1 71 150 -152 -470 0 0 1 0 1 0 -1 0 0 3622.dat
1 71 150 -152 -290 1 0 0 0 1 0 -0 0 1 3005.dat
1 71 170 -152 -330 1 0 0 0 1 0 -0 0 1 3005.dat
1 71 170 -136 -310 1 0 0 0 1 0 -0 0 1 3024.dat
1 71 170 -152 610 1 0 0 0 1 0 -0 0 1 3005.dat
1 71 190 -136 -330 1 0 0 0 1 0 -0 0 1 3024.dat
1 71 190 -136 -200 0 0 1 0 1 0 -1 0 0 3710.dat
1 71 190 -136 -120 0 0 1 0 1 0 -1 0 0 3710.dat
1 71 190 -136 -40 0 0 1 0 1 0 -1 0 0 3710.dat
1 71 190 -136 40 0 0 1 0 1 0 -1 0 0 3710.dat
1 71 190 -152 120 0 0 1 0 1 0 -1 0 0 3010.dat
1 71 190 -152 200 0 0 1 0 1 0 -1 0 0 3010.dat
1 71 190 -152 270 0 0 1 0 1 0 -1 0 0 3622.dat
1 71 200 -136 310 1 0 0 0 1 0 -0 0 1 3023.dat
1 71 230 -152 -430 1 0 0 0 1 0 -0 0 1 3005.dat
1 71 230 -152 380 0 0 1 0 1 0 -1 0 0 3004.dat
1 71 230 -152 510 1 0 0 0 1 0 -0 0 1 3005.dat
1 71 230 -136 550 1 0 0 0 1 0 -0 0 1 3024.dat
1 71 -230 -144 -450 0 0 1 0 1 0 -1 0 0 3623.dat
1 71 -230 -160 -310 1 0 0 0 1 0 -0 0 1 3005.dat
1 71 -230 -160 390 0 0 1 0 1 0 -1 0 0 3622.dat
1 71 -210 -160 -470 1 0 0 0 1 0 -0 0 1 3005.dat
1 71 -210 -160 -270 1 0 0 0 1 0 -0 0 1 3005.dat
1 71 -210 -144 420 0 0 1 0 1 0 -1 0 0 3710.dat
1 71 -210 -160 480 0 0 1 0 1 0 -1 0 0 3004.dat
1 71 -210 -160 550 1 0 0 0 1 0 -0 0 1 3005.dat
1 71 -190 -160 -370 0 0 1 0 1 0 -1 0 0 3622.dat
1 71 -190 -160 -200 0 0 1 0 1 0 -1 0 0 3010.dat
1 71 -190 -160 -120 0 0 1 0 1 0 -1 0 0 3010.dat
1 71 -190 -160 -40 0 0 1 0 1 0 -1 0 0 3010.dat
1 71 -190 -160 40 0 0 1 0 1 0 -1 0 0 3010.dat
1 71 -190 -160 120 0 0 1 0 1 0 -1 0 0 3010.dat
1 71 -190 -160 200 0 0 1 0 1 0 -1 0 0 3010.dat
1 71 -190 -160 270 0 0 1 0 1 0 -1 0 0 3622.dat
1 71 -190 -144 440 0 0 1 0 1 0 -1 0 0 3710.dat
1 71 -170 -160 -480 0 0 1 0 1 0 -1 0 0 3004.dat
1 71 -170 -160 -310 1 0 0 0 1 0 -0 0 1 3005.dat
1 71 -150 -160 -510 1 0 0 0 1 0 -0 0 1 3005.dat
1 71 150 -160 -320 0 0 1 0 1 0 -1 0 0 3004.dat
1 71 170 -144 -430 1 0 0 0 1 0 -0 0 1 3024.dat
1 71 190 -160 -560 0 0 1 0 1 0 -1 0 0 3004.dat
1 71 190 -144 -510 0 0 1 0 1 0 -1 0 0 3623.dat
1 71 190 -160 -390 1 0 0 0 1 0 -0 0 1 3005.dat
1 71 200 -144 -200 0 0 1 0 1 0 -1 0 0 3020.dat
1 71 200 -144 -120 0 0 1 0 1 0 -1 0 0 3020.dat
1 71 200 -144 -40 0 0 1 0 1 0 -1 0 0 3020.dat
1 71 200 -144 40 0 0 1 0 1 0 -1 0 0 3020.dat
1 71 210 -160 -270 1 0 0 0 1 0 -0 0 1 3005.dat
1 71 210 -160 310 1 0 0 0 1 0 -0 0 1 3005.dat
1 71 210 -160 350 1 0 0 0 1 0 -0 0 1 3005.dat
1 71 210 -160 570 1 0 0 0 1 0 -0 0 1 3005.dat
1 71 230 -160 -300 0 0 1 0 1 0 -1 0 0 3004.dat
1 71 -230 -168 -430 0 0 1 0 1 0 -1 0 0 3622.dat
1 71 -230 -168 490 1 0 0 0 1 0 -0 0 1 3005.dat
1 71 -210 -152 -420 0 0 1 0 1 0 -1 0 0 3023.dat
1 71 -210 -168 330 1 0 0 0 1 0 -0 0 1 3005.dat
1 71 -210 -152 430 0 0 1 0 1 0 -1 0 0 3623.dat
1 71 -210 -168 570 1 0 0 0 1 0 -0 0 1 3005.dat
1 71 -180 -152 -410 1 0 0 0 1 0 -0 0 1 3023.dat
1 71 -190 -152 580 0 0 1 0 1 0 -1 0 0 3023.dat
1 71 -140 -152 -580 1 0 0 0 1 0 -0 0 1 3020.dat
1 71 -140 -152 -540 1 0 0 0 1 0 -0 0 1 3020.dat
1 71 -170 -168 -440 0 0 1 0 1 0 -1 0 0 3004.dat
1 71 -170 -168 -360 0 0 1 0 1 0 -1 0 0 3010.dat
1 71 -170 -152 -250 0 0 1 0 1 0 -1 0 0 3623.dat
1 71 -140 -168 630 1 0 0 0 1 0 -0 0 1 3010.dat
1 71 -120 -152 -240 1 0 0 0 1 0 -0 0 1 3020.dat
1 71 -60 -152 -580 1 0 0 0 1 0 -0 0 1 3020.dat
1 71 -60 -152 -540 1 0 0 0 1 0 -0 0 1 3020.dat
1 71 -60 -152 -270 1 0 0 0 1 0 -0 0 1 3710.dat
1 71 -60 -168 630 1 0 0 0 1 0 -0 0 1 3010.dat
1 71 -40 -152 -240 1 0 0 0 1 0 -0 0 1 3020.dat
1 71 20 -152 -580 1 0 0 0 1 0 -0 0 1 3020.dat
1 71 20 -152 -540 1 0 0 0 1 0 -0 0 1 3020.dat
1 71 20 -152 -270 1 0 0 0 1 0 -0 0 1 3710.dat
1 71 20 -168 630 1 0 0 0 1 0 -0 0 1 3010.dat
1 71 40 -152 -240 1 0 0 0 1 0 -0 0 1 3020.dat
1 71 100 -152 -580 1 0 0 0 1 0 -0 0 1 3020.dat
1 71 100 -152 -540 1 0 0 0 1 0 -0 0 1 3020.dat
1 71 100 -152 -270 1 0 0 0 1 0 -0 0 1 3710.dat
1 71 100 -168 630 1 0 0 0 1 0 -0 0 1 3010.dat
1 71 120 -152 -240 1 0 0 0 1 0 -0 0 1 3020.dat
1 71 160 -152 -560 0 0 1 0 1 0 -1 0 0 3020.dat
1 71 150 -168 -420 0 0 1 0 1 0 -1 0 0 3004.dat
1 71 160 -152 -270 1 0 0 0 1 0 -0 0 1 3023.dat
1 71 150 -168 630 1 0 0 0 1 0 -0 0 1 3005.dat
1 71 170 -152 -420 0 0 1 0 1 0 -1 0 0 3023.dat
1 71 170 -152 -240 0 0 1 0 1 0 -1 0 0 3023.dat
1 71 190 -168 -590 1 0 0 0 1 0 -0 0 1 3005.dat
1 71 200 -152 -510 0 0 1 0 1 0 -1 0 0 3021.dat
1 71 190 -152 -410 1 0 0 0 1 0 -0 0 1 3024.dat
1 71 190 -152 -360 0 0 1 0 1 0 -1 0 0 3023.dat
1 71 190 -168 590 1 0 0 0 1 0 -0 0 1 3005.dat
1 71 210 -168 -470 1 0 0 0 1 0 -0 0 1 3005.dat
1 71 210 -168 -220 0 0 1 0 1 0 -1 0 0 3010.dat
1 71 210 -168 -140 0 0 1 0 1 0 -1 0 0 3010.dat
1 71 210 -168 -60 0 0 1 0 1 0 -1 0 0 3010.dat
1 71 210 -168 20 0 0 1 0 1 0 -1 0 0 3010.dat
1 71 210 -168 100 0 0 1 0 1 0 -1 0 0 3010.dat
1 71 210 -168 180 0 0 1 0 1 0 -1 0 0 3010.dat
1 71 210 -168 260 0 0 1 0 1 0 -1 0 0 3010.dat
1 71 210 -168 330 1 0 0 0 1 0 -0 0 1 3005.dat
1 71 210 -168 550 1 0 0 0 1 0 -0 0 1 3005.dat
1 71 230 -168 -450 1 0 0 0 1 0 -0 0 1 3005.dat
1 71 230 -168 -380 0 0 1 0 1 0 -1 0 0 3010.dat
1 71 230 -168 -330 1 0 0 0 1 0 -0 0 1 3005.dat
1 71 230 -168 440 0 0 1 0 1 0 -1 0 0 3010.dat
1 71 230 -168 490 1 0 0 0 1 0 -0 0 1 3005.dat
1 71 230 -168 530 1 0 0 0 1 0 -0 0 1 3005.dat
1 71 -220 -176 -380 1 0 0 0 1 0 -0 0 1 3003.dat
1 71 -220 -176 -350 1 0 0 0 1 0 -0 0 1 3004.dat
1 71 -230 -176 -330 1 0 0 0 1 0 -0 0 1 3005.dat
1 71 -230 -160 -290 1 0 0 0 1 0 -0 0 1 3024.dat
1 71 -230 -176 450 0 0 1 0 1 0 -1 0 0 3622.dat
1 71 -230 -176 520 0 0 1 0 1 0 -1 0 0 3004.dat
1 71 -200 -176 -580 0 0 1 0 1 0 -1 0 0 3001.dat
1 71 -210 -176 -510 0 0 1 0 1 0 -1 0 0 3622.dat
1 71 -210 -160 -410 1 0 0 0 1 0 -0 0 1 3024.dat
1 71 -210 -160 -330 1 0 0 0 1 0 -0 0 1 3024.dat
1 71 -210 -176 -220 0 0 1 0 1 0 -1 0 0 3010.dat
1 71 -210 -176 -140 0 0 1 0 1 0 -1 0 0 3010.dat
1 71 -210 -176 -60 0 0 1 0 1 0 -1 0 0 3010.dat
1 71 -210 -176 20 0 0 1 0 1 0 -1 0 0 3010.dat
1 71 -210 -176 100 0 0 1 0 1 0 -1 0 0 3010.dat
1 71 -210 -176 180 0 0 1 0 1 0 -1 0 0 3010.dat
1 71 -210 -176 260 0 0 1 0 1 0 -1 0 0 3010.dat
1 71 -210 -176 310 1 0 0 0 1 0 -0 0 1 3005.dat
1 71 -210 -176 350 1 0 0 0 1 0 -0 0 1 3005.dat
1 71 -210 -160 430 0 0 1 0 1 0 -1 0 0 3623.dat
1 71 -180 -160 -520 1 0 0 0 1 0 -0 0 1 3022.dat
1 71 -190 -160 -490 1 0 0 0 1 0 -0 0 1 3024.dat
1 71 -190 -176 600 0 0 1 0 1 0 -1 0 0 3004.dat
1 71 -140 -176 -610 1 0 0 0 1 0 -0 0 1 3010.dat
1 71 -140 -160 -580 1 0 0 0 1 0 -0 0 1 3020.dat
1 71 -140 -160 -550 1 0 0 0 1 0 -0 0 1 3710.dat
1 71 -170 -160 -410 1 0 0 0 1 0 -0 0 1 3024.dat
1 71 -140 -160 -280 1 0 0 0 1 0 -0 0 1 3020.dat
1 71 -140 -160 -240 1 0 0 0 1 0 -0 0 1 3020.dat
1 71 -170 -160 610 1 0 0 0 1 0 -0 0 1 3024.dat
1 71 -120 -160 -530 1 0 0 0 1 0 -0 0 1 3710.dat
1 71 -100 -160 -510 1 0 0 0 1 0 -0 0 1 3710.dat
1 71 -60 -176 -610 1 0 0 0 1 0 -0 0 1 3010.dat
1 71 -60 -160 -580 1 0 0 0 1 0 -0 0 1 3020.dat
1 71 -60 -160 -550 1 0 0 0 1 0 -0 0 1 3710.dat
1 71 -60 -160 -280 1 0 0 0 1 0 -0 0 1 3020.dat
1 71 -60 -160 -240 1 0 0 0 1 0 -0 0 1 3020.dat
1 71 -40 -160 -530 1 0 0 0 1 0 -0 0 1 3710.dat
1 71 -20 -160 -510 1 0 0 0 1 0 -0 0 1 3710.dat
1 71 20 -176 -610 1 0 0 0 1 0 -0 0 1 3010.dat
1 71 20 -160 -580 1 0 0 0 1 0 -0 0 1 3020.dat
1 71 20 -160 -550 1 0 0 0 1 0 -0 0 1 3710.dat
1 71 20 -160 -280 1 0 0 0 1 0 -0 0 1 3020.dat
1 71 20 -160 -240 1 0 0 0 1 0 -0 0 1 3020.dat
1 71 40 -160 -530 1 0 0 0 1 0 -0 0 1 3710.dat
1 71 60 -160 -510 1 0 0 0 1 0 -0 0 1 3710.dat
1 71 100 -176 -610 1 0 0 0 1 0 -0 0 1 3010.dat
1 71 100 -160 -580 1 0 0 0 1 0 -0 0 1 3020.dat
1 71 100 -160 -550 1 0 0 0 1 0 -0 0 1 3710.dat
1 71 100 -160 -280 1 0 0 0 1 0 -0 0 1 3020.dat
1 71 100 -160 -240 1 0 0 0 1 0 -0 0 1 3020.dat
1 71 120 -160 -530 1 0 0 0 1 0 -0 0 1 3710.dat
1 71 140 -160 -510 1 0 0 0 1 0 -0 0 1 3710.dat
1 71 180 -176 -610 1 0 0 0 1 0 -0 0 1 3010.dat
1 71 160 -160 -570 0 0 1 0 1 0 -1 0 0 3021.dat
1 71 150 -176 -470 0 0 1 0 1 0 -1 0 0 3622.dat
1 71 160 -176 -380 1 0 0 0 1 0 -0 0 1 3003.dat
1 71 160 -176 -350 1 0 0 0 1 0 -0 0 1 3004.dat
1 71 150 -160 -260 0 0 1 0 1 0 -1 0 0 3710.dat
1 71 170 -160 -530 1 0 0 0 1 0 -0 0 1 3024.dat
1 71 170 -160 -410 1 0 0 0 1 0 -0 0 1 3024.dat
1 71 170 -160 -330 1 0 0 0 1 0 -0 0 1 3024.dat
1 71 170 -160 -250 0 0 1 0 1 0 -1 0 0 3623.dat
1 71 170 -176 610 1 0 0 0 1 0 -0 0 1 3005.dat
1 71 190 -160 -360 0 0 1 0 1 0 -1 0 0 3023.dat
1 71 210 -176 -560 0 0 1 0 1 0 -1 0 0 3010.dat
1 71 210 -176 -500 0 0 1 0 1 0 -1 0 0 3004.dat
1 71 230 -176 -430 1 0 0 0 1 0 -0 0 1 3005.dat
1 71 230 -176 380 0 0 1 0 1 0 -1 0 0 3004.dat
1 71 230 -176 510 1 0 0 0 1 0 -0 0 1 3005.dat
1 71 -230 -184 -310 1 0 0 0 1 0 -0 0 1 3005.dat
1 71 -230 -184 390 0 0 1 0 1 0 -1 0 0 3622.dat
1 71 -210 -184 -470 1 0 0 0 1 0 -0 0 1 3005.dat
1 71 -210 -168 -410 1 0 0 0 1 0 -0 0 1 3024.dat
1 71 -210 -184 -280 0 0 1 0 1 0 -1 0 0 3004.dat
1 71 -210 -184 550 1 0 0 0 1 0 -0 0 1 3005.dat
1 71 -190 -184 -530 1 0 0 0 1 0 -0 0 1 3005.dat
1 71 -190 -184 -250 0 0 1 0 1 0 -1 0 0 3622.dat
1 71 -160 -168 -490 0 0 1 0 1 0 -1 0 0 3021.dat
1 71 -160 -168 -410 1 0 0 0 1 0 -0 0 1 3023.dat
1 71 -160 -168 -300 1 0 0 0 1 0 -0 0 1 3022.dat
1 71 -140 -184 -210 1 0 0 0 1 0 -0 0 1 3010.dat
1 71 -150 -184 -440 0 0 1 0 1 0 -1 0 0 3004.dat
1 71 -150 -184 -360 0 0 1 0 1 0 -1 0 0 3010.dat
1 71 -60 -184 -210 1 0 0 0 1 0 -0 0 1 3010.dat
1 71 20 -184 -210 1 0 0 0 1 0 -0 0 1 3010.dat
1 71 100 -184 -210 1 0 0 0 1 0 -0 0 1 3010.dat
1 71 130 -184 -300 0 0 1 0 1 0 -1 0 0 3004.dat
1 71 160 -168 -510 1 0 0 0 1 0 -0 0 1 3023.dat
1 71 150 -184 -330 1 0 0 0 1 0 -0 0 1 3005.dat
1 71 150 -168 -300 0 0 1 0 1 0 -1 0 0 3023.dat
1 71 160 -184 -210 1 0 0 0 1 0 -0 0 1 3004.dat
1 71 170 -168 -410 1 0 0 0 1 0 -0 0 1 3024.dat
1 71 170 -184 -290 1 0 0 0 1 0 -0 0 1 3005.dat
1 71 190 -184 -550 0 0 1 0 1 0 -1 0 0 3622.dat
1 71 190 -184 -250 0 0 1 0 1 0 -1 0 0 3622.dat
1 71 210 -184 -270 1 0 0 0 1 0 -0 0 1 3005.dat
1 71 210 -184 310 1 0 0 0 1 0 -0 0 1 3005.dat
1 71 210 -184 350 1 0 0 0 1 0 -0 0 1 3005.dat
1 71 210 -184 570 1 0 0 0 1 0 -0 0 1 3005.dat
1 71 230 -184 -300 0 0 1 0 1 0 -1 0 0 3004.dat
1 71 -230 -192 -420 0 0 1 0 1 0 -1 0 0 3004.dat
1 71 -230 -192 490 1 0 0 0 1 0 -0 0 1 3005.dat
1 71 -210 -192 -450 1 0 0 0 1 0 -0 0 1 3005.dat
1 71 -210 -192 330 1 0 0 0 1 0 -0 0 1 3005.dat
1 71 -210 -192 570 1 0 0 0 1 0 -0 0 1 3005.dat
1 71 -190 -192 -510 1 0 0 0 1 0 -0 0 1 3005.dat
1 71 -160 -192 -490 1 0 0 0 1 0 -0 0 1 3004.dat
1 71 -160 -192 -290 1 0 0 0 1 0 -0 0 1 3004.dat
1 71 -140 -192 630 1 0 0 0 1 0 -0 0 1 3010.dat
1 71 -150 -192 -470 1 0 0 0 1 0 -0 0 1 3005.dat
1 71 -150 -192 -410 1 0 0 0 1 0 -0 0 1 3005.dat
1 71 -150 -192 -310 1 0 0 0 1 0 -0 0 1 3005.dat
1 71 -60 -192 630 1 0 0 0 1 0 -0 0 1 3010.dat
1 71 20 -192 630 1 0 0 0 1 0 -0 0 1 3010.dat
1 71 100 -192 630 1 0 0 0 1 0 -0 0 1 3010.dat
1 71 150 -192 -420 0 0 1 0 1 0 -1 0 0 3004.dat
1 71 150 -192 -290 1 0 0 0 1 0 -0 0 1 3005.dat
1 71 150 -192 630 1 0 0 0 1 0 -0 0 1 3005.dat
1 71 170 -192 -490 1 0 0 0 1 0 -0 0 1 3005.dat
1 71 190 -192 -590 1 0 0 0 1 0 -0 0 1 3005.dat
1 71 190 -192 -510 1 0 0 0 1 0 -0 0 1 3005.dat
1 71 200 -192 590 1 0 0 0 1 0 -0 0 1 3004.dat
1 71 210 -192 -460 0 0 1 0 1 0 -1 0 0 3004.dat
1 71 210 -192 -220 0 0 1 0 1 0 -1 0 0 3010.dat
1 71 210 -192 -140 0 0 1 0 1 0 -1 0 0 3010.dat
1 71 210 -192 -60 0 0 1 0 1 0 -1 0 0 3010.dat
1 71 210 -192 20 0 0 1 0 1 0 -1 0 0 3010.dat
1 71 210 -192 100 0 0 1 0 1 0 -1 0 0 3010.dat
1 71 210 -192 180 0 0 1 0 1 0 -1 0 0 3010.dat
1 71 210 -192 260 0 0 1 0 1 0 -1 0 0 3010.dat
1 71 210 -192 330 1 0 0 0 1 0 -0 0 1 3005.dat
1 71 210 -192 550 1 0 0 0 1 0 -0 0 1 3005.dat
1 71 230 -192 -380 0 0 1 0 1 0 -1 0 0 3010.dat
1 71 230 -192 -330 1 0 0 0 1 0 -0 0 1 3005.dat
1 71 230 -192 440 0 0 1 0 1 0 -1 0 0 3010.dat
1 71 230 -192 490 1 0 0 0 1 0 -0 0 1 3005.dat
1 71 230 -192 530 1 0 0 0 1 0 -0 0 1 3005.dat
1 71 -230 -200 -360 0 0 1 0 1 0 -1 0 0 3010.dat
1 71 -230 -200 450 0 0 1 0 1 0 -1 0 0 3622.dat
1 71 -230 -200 520 0 0 1 0 1 0 -1 0 0 3004.dat
1 71 -210 -200 -580 0 0 1 0 1 0 -1 0 0 3010.dat
1 71 -210 -200 -510 0 0 1 0 1 0 -1 0 0 3622.dat
1 71 -210 -200 -220 0 0 1 0 1 0 -1 0 0 3010.dat
1 71 -210 -200 -140 0 0 1 0 1 0 -1 0 0 3010.dat
1 71 -210 -200 -60 0 0 1 0 1 0 -1 0 0 3010.dat
1 71 -210 -200 20 0 0 1 0 1 0 -1 0 0 3010.dat
1 71 -210 -200 100 0 0 1 0 1 0 -1 0 0 3010.dat
1 71 -210 -200 180 0 0 1 0 1 0 -1 0 0 3010.dat
1 71 -210 -200 260 0 0 1 0 1 0 -1 0 0 3010.dat
1 71 -210 -200 310 1 0 0 0 1 0 -0 0 1 3005.dat
1 71 -210 -200 350 1 0 0 0 1 0 -0 0 1 3005.dat
1 71 -160 -184 -610 1 0 0 0 1 0 -0 0 1 3710.dat
1 71 -190 -200 -570 0 0 1 0 1 0 -1 0 0 3622.dat
1 71 -190 -184 600 0 0 1 0 1 0 -1 0 0 3023.dat
1 71 -80 -200 -610 1 0 0 0 1 0 -0 0 1 3010.dat
1 71 0 -200 -610 1 0 0 0 1 0 -0 0 1 3010.dat
1 71 80 -200 -610 1 0 0 0 1 0 -0 0 1 3010.dat
1 71 150 -200 -610 1 0 0 0 1 0 -0 0 1 3622.dat
1 71 150 -200 -470 0 0 1 0 1 0 -1 0 0 3622.dat
1 71 150 -200 -370 0 0 1 0 1 0 -1 0 0 3622.dat
1 71 170 -200 610 1 0 0 0 1 0 -0 0 1 3005.dat
1 71 200 -184 -610 1 0 0 0 1 0 -0 0 1 3023.dat
1 71 210 -200 -560 0 0 1 0 1 0 -1 0 0 3010.dat
1 71 210 -200 -500 0 0 1 0 1 0 -1 0 0 3004.dat
1 71 230 -200 -430 1 0 0 0 1 0 -0 0 1 3005.dat
1 71 230 -200 380 0 0 1 0 1 0 -1 0 0 3004.dat
1 71 230 -200 510 1 0 0 0 1 0 -0 0 1 3005.dat
1 71 -230 -208 -310 1 0 0 0 1 0 -0 0 1 3005.dat
1 71 -230 -208 390 0 0 1 0 1 0 -1 0 0 3622.dat
1 71 -180 -208 -630 1 0 0 0 1 0 -0 0 1 3010.dat
1 71 -210 -208 -470 1 0 0 0 1 0 -0 0 1 3005.dat
1 71 -210 -208 -280 0 0 1 0 1 0 -1 0 0 3004.dat
1 71 -210 -208 550 1 0 0 0 1 0 -0 0 1 3005.dat
1 71 -210 -208 590 1 0 0 0 1 0 -0 0 1 3005.dat
1 71 -160 -192 -610 1 0 0 0 1 0 -0 0 1 3710.dat
1 71 -190 -208 -530 1 0 0 0 1 0 -0 0 1 3005.dat
1 71 -190 -208 -250 0 0 1 0 1 0 -1 0 0 3622.dat
1 71 -190 -192 600 0 0 1 0 1 0 -1 0 0 3023.dat
1 71 -140 -208 -210 1 0 0 0 1 0 -0 0 1 3010.dat
1 71 -150 -208 -440 0 0 1 0 1 0 -1 0 0 3004.dat
1 71 -150 -208 -360 0 0 1 0 1 0 -1 0 0 3010.dat
1 71 -100 -208 -630 1 0 0 0 1 0 -0 0 1 3010.dat
1 71 -60 -208 -210 1 0 0 0 1 0 -0 0 1 3010.dat
1 71 -20 -208 -630 1 0 0 0 1 0 -0 0 1 3010.dat
1 71 20 -208 -210 1 0 0 0 1 0 -0 0 1 3010.dat
1 71 60 -208 -630 1 0 0 0 1 0 -0 0 1 3010.dat
1 71 80 -208 -210 1 0 0 0 1 0 -0 0 1 3004.dat
1 71 140 -208 -630 1 0 0 0 1 0 -0 0 1 3010.dat
1 71 140 -192 -210 1 0 0 0 1 0 -0 0 1 3710.dat
1 71 130 -192 -290 1 0 0 0 1 0 -0 0 1 3024.dat
1 71 150 -208 -320 0 0 1 0 1 0 -1 0 0 3004.dat
1 71 170 -208 -290 1 0 0 0 1 0 -0 0 1 3005.dat
1 71 200 -208 -630 1 0 0 0 1 0 -0 0 1 3004.dat
1 71 200 -192 -610 1 0 0 0 1 0 -0 0 1 3023.dat
1 71 190 -208 -550 0 0 1 0 1 0 -1 0 0 3622.dat
1 71 190 -208 -250 0 0 1 0 1 0 -1 0 0 3622.dat
1 71 210 -208 -270 1 0 0 0 1 0 -0 0 1 3005.dat
1 71 210 -208 310 1 0 0 0 1 0 -0 0 1 3005.dat
1 71 210 -208 350 1 0 0 0 1 0 -0 0 1 3005.dat
1 71 210 -208 570 1 0 0 0 1 0 -0 0 1 3005.dat
1 71 230 -208 -310 1 0 0 0 1 0 -0 0 1 3005.dat
1 71 230 -192 -290 1 0 0 0 1 0 -0 0 1 3024.dat
1 71 -230 -216 -420 0 0 1 0 1 0 -1 0 0 3004.dat
1 71 -230 -216 490 1 0 0 0 1 0 -0 0 1 3005.dat
1 71 -210 -200 -450 1 0 0 0 1 0 -0 0 1 3024.dat
1 71 -210 -216 330 1 0 0 0 1 0 -0 0 1 3005.dat
1 71 -210 -216 570 1 0 0 0 1 0 -0 0 1 3005.dat
1 71 -190 -216 -510 1 0 0 0 1 0 -0 0 1 3005.dat
1 71 -190 -216 610 1 0 0 0 1 0 -0 0 1 3005.dat
1 71 -150 -216 -610 1 0 0 0 1 0 -0 0 1 3622.dat
1 71 -160 -200 -490 1 0 0 0 1 0 -0 0 1 3023.dat
1 71 -160 -200 -290 1 0 0 0 1 0 -0 0 1 3023.dat
1 71 -140 -216 630 1 0 0 0 1 0 -0 0 1 3010.dat
1 71 -150 -216 -470 1 0 0 0 1 0 -0 0 1 3005.dat
1 71 -150 -216 -410 1 0 0 0 1 0 -0 0 1 3005.dat
1 71 -150 -216 -310 1 0 0 0 1 0 -0 0 1 3005.dat
1 71 -60 -216 630 1 0 0 0 1 0 -0 0 1 3010.dat
1 71 20 -216 630 1 0 0 0 1 0 -0 0 1 3010.dat
1 71 100 -216 630 1 0 0 0 1 0 -0 0 1 3010.dat
1 71 140 -200 -210 1 0 0 0 1 0 -0 0 1 3710.dat
1 71 150 -216 -420 0 0 1 0 1 0 -1 0 0 3004.dat
1 71 150 -200 -290 1 0 0 0 1 0 -0 0 1 3024.dat
1 71 150 -216 630 1 0 0 0 1 0 -0 0 1 3005.dat
1 71 170 -200 -490 1 0 0 0 1 0 -0 0 1 3024.dat
1 71 190 -216 -590 1 0 0 0 1 0 -0 0 1 3005.dat
1 71 190 -216 -510 1 0 0 0 1 0 -0 0 1 3005.dat
1 71 200 -216 590 1 0 0 0 1 0 -0 0 1 3004.dat
1 71 210 -216 -610 1 0 0 0 1 0 -0 0 1 3005.dat
1 71 210 -200 -460 0 0 1 0 1 0 -1 0 0 3023.dat
1 71 210 -216 -290 1 0 0 0 1 0 -0 0 1 3005.dat
1 71 210 -216 -220 0 0 1 0 1 0 -1 0 0 3010.dat
1 71 210 -216 -140 0 0 1 0 1 0 -1 0 0 3010.dat
1 71 210 -216 -60 0 0 1 0 1 0 -1 0 0 3010.dat
1 71 210 -216 20 0 0 1 0 1 0 -1 0 0 3010.dat
1 71 210 -216 100 0 0 1 0 1 0 -1 0 0 3010.dat
1 71 210 -216 180 0 0 1 0 1 0 -1 0 0 3010.dat
1 71 210 -216 260 0 0 1 0 1 0 -1 0 0 3010.dat
1 71 210 -216 330 1 0 0 0 1 0 -0 0 1 3005.dat
1 71 210 -216 550 1 0 0 0 1 0 -0 0 1 3005.dat
1 71 230 -216 -380 0 0 1 0 1 0 -1 0 0 3010.dat
1 71 230 -216 -330 1 0 0 0 1 0 -0 0 1 3005.dat
1 71 230 -216 440 0 0 1 0 1 0 -1 0 0 3010.dat
1 71 230 -216 490 1 0 0 0 1 0 -0 0 1 3005.dat
1 71 230 -216 530 1 0 0 0 1 0 -0 0 1 3005.dat
1 71 -230 -208 -460 0 0 1 0 1 0 -1 0 0 3023.dat
1 71 -230 -224 -360 0 0 1 0 1 0 -1 0 0 3010.dat
1 71 -230 -208 450 0 0 1 0 1 0 -1 0 0 3623.dat
1 71 -230 -208 520 0 0 1 0 1 0 -1 0 0 3023.dat
1 71 -210 -224 -580 0 0 1 0 1 0 -1 0 0 3010.dat
1 71 -210 -224 -510 0 0 1 0 1 0 -1 0 0 3622.dat
1 71 -210 -208 -450 1 0 0 0 1 0 -0 0 1 3024.dat
1 71 -210 -224 -220 0 0 1 0 1 0 -1 0 0 3010.dat
1 71 -210 -224 -140 0 0 1 0 1 0 -1 0 0 3010.dat
1 71 -210 -224 -60 0 0 1 0 1 0 -1 0 0 3010.dat
1 71 -210 -224 20 0 0 1 0 1 0 -1 0 0 3010.dat
1 71 -210 -224 100 0 0 1 0 1 0 -1 0 0 3010.dat
1 71 -210 -224 180 0 0 1 0 1 0 -1 0 0 3010.dat
1 71 -210 -224 260 0 0 1 0 1 0 -1 0 0 3010.dat
1 71 -210 -224 310 1 0 0 0 1 0 -0 0 1 3005.dat
1 71 -210 -224 350 1 0 0 0 1 0 -0 0 1 3005.dat
1 71 -190 -224 -570 0 0 1 0 1 0 -1 0 0 3622.dat
1 71 -190 -224 -290 1 0 0 0 1 0 -0 0 1 3005.dat
1 71 -170 -208 -490 1 0 0 0 1 0 -0 0 1 3024.dat
1 71 -170 -224 -310 1 0 0 0 1 0 -0 0 1 3005.dat
1 71 -80 -224 -610 1 0 0 0 1 0 -0 0 1 3010.dat
1 71 0 -224 -610 1 0 0 0 1 0 -0 0 1 3010.dat
1 71 80 -224 -610 1 0 0 0 1 0 -0 0 1 3010.dat
1 71 140 -224 -190 1 0 0 0 1 0 -0 0 1 3010.dat
1 71 150 -224 -610 1 0 0 0 1 0 -0 0 1 3622.dat
1 71 150 -208 -470 0 0 1 0 1 0 -1 0 0 3623.dat
1 71 150 -224 -370 0 0 1 0 1 0 -1 0 0 3622.dat
1 71 150 -208 -290 1 0 0 0 1 0 -0 0 1 3024.dat
1 71 170 -208 -490 1 0 0 0 1 0 -0 0 1 3024.dat
1 71 170 -224 610 1 0 0 0 1 0 -0 0 1 3005.dat
1 71 190 -224 -210 1 0 0 0 1 0 -0 0 1 3005.dat
1 71 210 -224 -560 0 0 1 0 1 0 -1 0 0 3010.dat
1 71 210 -224 -500 0 0 1 0 1 0 -1 0 0 3004.dat
1 71 220 -208 -460 1 0 0 0 1 0 -0 0 1 3022.dat
1 71 230 -224 -430 1 0 0 0 1 0 -0 0 1 3005.dat
1 71 230 -208 380 0 0 1 0 1 0 -1 0 0 3023.dat
1 71 230 -208 510 1 0 0 0 1 0 -0 0 1 3024.dat
1 71 -230 -216 -460 0 0 1 0 1 0 -1 0 0 3023.dat
1 71 -230 -216 -310 1 0 0 0 1 0 -0 0 1 3024.dat
1 71 -230 -216 420 0 0 1 0 1 0 -1 0 0 3710.dat
1 71 -230 -216 470 1 0 0 0 1 0 -0 0 1 3024.dat
1 71 -230 -216 520 0 0 1 0 1 0 -1 0 0 3023.dat
1 71 -180 -232 -630 1 0 0 0 1 0 -0 0 1 3010.dat
1 71 -210 -232 -280 0 0 1 0 1 0 -1 0 0 3004.dat
1 71 -210 -232 370 1 0 0 0 1 0 -0 0 1 3005.dat
1 71 -210 -232 550 1 0 0 0 1 0 -0 0 1 3005.dat
1 71 -210 -232 590 1 0 0 0 1 0 -0 0 1 3005.dat
1 71 -190 -232 -530 1 0 0 0 1 0 -0 0 1 3005.dat
1 71 -190 -232 -490 1 0 0 0 1 0 -0 0 1 3005.dat
1 71 -190 -232 -250 0 0 1 0 1 0 -1 0 0 3622.dat
1 71 -170 -216 -470 1 0 0 0 1 0 -0 0 1 3024.dat
1 71 -140 -216 -210 1 0 0 0 1 0 -0 0 1 3710.dat
1 71 -150 -216 -440 0 0 1 0 1 0 -1 0 0 3023.dat
1 71 -150 -216 -360 0 0 1 0 1 0 -1 0 0 3710.dat
1 71 -100 -232 -630 1 0 0 0 1 0 -0 0 1 3010.dat
1 71 -60 -216 -210 1 0 0 0 1 0 -0 0 1 3710.dat
1 71 -20 -232 -630 1 0 0 0 1 0 -0 0 1 3010.dat
1 71 0 -216 -210 1 0 0 0 1 0 -0 0 1 3023.dat
1 71 60 -232 -630 1 0 0 0 1 0 -0 0 1 3010.dat
1 71 60 -232 -190 1 0 0 0 1 0 -0 0 1 3010.dat
1 71 140 -232 -630 1 0 0 0 1 0 -0 0 1 3010.dat
1 71 160 -216 -470 1 0 0 0 1 0 -0 0 1 3023.dat
1 71 150 -216 -450 1 0 0 0 1 0 -0 0 1 3024.dat
1 71 150 -216 -320 0 0 1 0 1 0 -1 0 0 3023.dat
1 71 170 -232 -310 1 0 0 0 1 0 -0 0 1 3005.dat
1 71 200 -232 -630 1 0 0 0 1 0 -0 0 1 3004.dat
1 71 190 -232 -550 0 0 1 0 1 0 -1 0 0 3622.dat
1 71 190 -232 -490 1 0 0 0 1 0 -0 0 1 3005.dat
1 71 190 -232 -260 0 0 1 0 1 0 -1 0 0 3010.dat
1 71 210 -232 -270 1 0 0 0 1 0 -0 0 1 3005.dat
1 71 210 -232 310 1 0 0 0 1 0 -0 0 1 3005.dat
1 71 210 -232 350 1 0 0 0 1 0 -0 0 1 3005.dat
1 71 210 -232 570 1 0 0 0 1 0 -0 0 1 3005.dat
1 71 230 -216 -460 0 0 1 0 1 0 -1 0 0 3023.dat
1 71 230 -216 -310 1 0 0 0 1 0 -0 0 1 3024.dat
1 71 230 -216 380 0 0 1 0 1 0 -1 0 0 3023.dat
1 71 230 -216 510 1 0 0 0 1 0 -0 0 1 3024.dat
1 71 -230 -224 -310 1 0 0 0 1 0 -0 0 1 3024.dat
1 71 -210 -240 -440 0 0 1 0 1 0 -1 0 0 3010.dat
1 71 -210 -240 330 1 0 0 0 1 0 -0 0 1 3005.dat
1 71 -210 -240 420 0 0 1 0 1 0 -1 0 0 3010.dat
1 71 -210 -240 500 0 0 1 0 1 0 -1 0 0 3010.dat
1 71 -210 -240 570 1 0 0 0 1 0 -0 0 1 3005.dat
1 71 -190 -240 -510 1 0 0 0 1 0 -0 0 1 3005.dat
1 71 -190 -240 -210 1 0 0 0 1 0 -0 0 1 3005.dat
1 71 -190 -240 610 1 0 0 0 1 0 -0 0 1 3005.dat
1 71 -150 -240 -610 1 0 0 0 1 0 -0 0 1 3622.dat
1 71 -140 -240 -190 1 0 0 0 1 0 -0 0 1 3010.dat
1 71 -140 -224 630 1 0 0 0 1 0 -0 0 1 3710.dat
1 71 -150 -224 -310 1 0 0 0 1 0 -0 0 1 3024.dat
1 71 -60 -240 -190 1 0 0 0 1 0 -0 0 1 3010.dat
1 71 -60 -224 630 1 0 0 0 1 0 -0 0 1 3710.dat
1 71 0 -240 -190 1 0 0 0 1 0 -0 0 1 3004.dat
1 71 20 -224 630 1 0 0 0 1 0 -0 0 1 3710.dat
1 71 100 -224 630 1 0 0 0 1 0 -0 0 1 3710.dat
1 71 150 -224 -440 0 0 1 0 1 0 -1 0 0 3710.dat
1 71 150 -224 -320 0 0 1 0 1 0 -1 0 0 3023.dat
1 71 150 -224 630 1 0 0 0 1 0 -0 0 1 3024.dat
1 71 170 -224 -470 1 0 0 0 1 0 -0 0 1 3024.dat
1 71 190 -240 -590 1 0 0 0 1 0 -0 0 1 3005.dat
1 71 190 -240 -510 1 0 0 0 1 0 -0 0 1 3005.dat
1 71 200 -240 590 1 0 0 0 1 0 -0 0 1 3004.dat
1 71 210 -240 -610 1 0 0 0 1 0 -0 0 1 3005.dat
1 71 210 -240 -290 1 0 0 0 1 0 -0 0 1 3005.dat
1 71 210 -240 -220 0 0 1 0 1 0 -1 0 0 3010.dat
1 71 210 -240 -140 0 0 1 0 1 0 -1 0 0 3010.dat
1 71 210 -240 -60 0 0 1 0 1 0 -1 0 0 3010.dat
1 71 210 -240 20 0 0 1 0 1 0 -1 0 0 3010.dat
1 71 210 -240 100 0 0 1 0 1 0 -1 0 0 3010.dat
1 71 210 -240 180 0 0 1 0 1 0 -1 0 0 3010.dat
1 71 210 -240 260 0 0 1 0 1 0 -1 0 0 3010.dat
1 71 210 -240 330 1 0 0 0 1 0 -0 0 1 3005.dat
1 71 210 -240 370 1 0 0 0 1 0 -0 0 1 3005.dat
1 71 210 -240 460 0 0 1 0 1 0 -1 0 0 3010.dat
1 71 210 -240 530 0 0 1 0 1 0 -1 0 0 3622.dat
1 71 230 -224 -460 0 0 1 0 1 0 -1 0 0 3023.dat
1 71 230 -224 -380 0 0 1 0 1 0 -1 0 0 3710.dat
1 71 230 -224 -320 0 0 1 0 1 0 -1 0 0 3023.dat
1 71 230 -224 400 0 0 1 0 1 0 -1 0 0 3023.dat
1 71 -210 -248 -580 0 0 1 0 1 0 -1 0 0 3010.dat
1 71 -210 -248 -510 0 0 1 0 1 0 -1 0 0 3622.dat
1 71 -210 -248 -360 0 0 1 0 1 0 -1 0 0 3010.dat
1 71 -210 -248 -310 1 0 0 0 1 0 -0 0 1 3005.dat
1 71 -210 -248 -220 0 0 1 0 1 0 -1 0 0 3010.dat
1 71 -210 -248 -140 0 0 1 0 1 0 -1 0 0 3010.dat
1 71 -210 -248 -60 0 0 1 0 1 0 -1 0 0 3010.dat
1 71 -210 -248 20 0 0 1 0 1 0 -1 0 0 3010.dat
1 71 -210 -248 100 0 0 1 0 1 0 -1 0 0 3010.dat
1 71 -210 -248 180 0 0 1 0 1 0 -1 0 0 3010.dat
1 71 -210 -248 260 0 0 1 0 1 0 -1 0 0 3010.dat
1 71 -210 -248 310 1 0 0 0 1 0 -0 0 1 3005.dat
1 71 -210 -248 350 1 0 0 0 1 0 -0 0 1 3005.dat
1 71 -190 -248 -570 0 0 1 0 1 0 -1 0 0 3622.dat
1 71 -190 -248 -290 1 0 0 0 1 0 -0 0 1 3005.dat
1 71 -160 -232 -310 1 0 0 0 1 0 -0 0 1 3023.dat
1 71 -140 -232 620 1 0 0 0 1 0 -0 0 1 3020.dat
1 71 -80 -248 -610 1 0 0 0 1 0 -0 0 1 3010.dat
1 71 -60 -232 620 1 0 0 0 1 0 -0 0 1 3020.dat
1 71 0 -248 -610 1 0 0 0 1 0 -0 0 1 3010.dat
1 71 20 -232 620 1 0 0 0 1 0 -0 0 1 3020.dat
1 71 80 -248 -610 1 0 0 0 1 0 -0 0 1 3010.dat
1 71 100 -232 620 1 0 0 0 1 0 -0 0 1 3020.dat
1 71 140 -248 -190 1 0 0 0 1 0 -0 0 1 3010.dat
1 71 150 -248 -610 1 0 0 0 1 0 -0 0 1 3622.dat
1 71 150 -232 -310 1 0 0 0 1 0 -0 0 1 3024.dat
1 71 160 -232 610 1 0 0 0 1 0 -0 0 1 3023.dat
1 71 150 -232 630 1 0 0 0 1 0 -0 0 1 3024.dat
1 71 190 -248 -210 1 0 0 0 1 0 -0 0 1 3005.dat
1 71 210 -248 -560 0 0 1 0 1 0 -1 0 0 3010.dat
1 71 210 -248 -480 0 0 1 0 1 0 -1 0 0 3010.dat
1 71 210 -248 -400 0 0 1 0 1 0 -1 0 0 3010.dat
1 71 210 -248 -330 0 0 1 0 1 0 -1 0 0 3622.dat
1 71 210 -248 400 0 0 1 0 1 0 -1 0 0 3004.dat
1 71 -180 -256 -630 1 0 0 0 1 0 -0 0 1 3010.dat
1 71 -210 -256 -280 0 0 1 0 1 0 -1 0 0 3004.dat
1 71 -210 -256 370 1 0 0 0 1 0 -0 0 1 3005.dat
1 71 -210 -256 550 1 0 0 0 1 0 -0 0 1 3005.dat
1 71 -180 -240 590 1 0 0 0 1 0 -0 0 1 3710.dat
1 71 -190 -256 -530 1 0 0 0 1 0 -0 0 1 3005.dat
1 71 -190 -256 -460 0 0 1 0 1 0 -1 0 0 3010.dat
1 71 -190 -256 -380 0 0 1 0 1 0 -1 0 0 3010.dat
1 71 -190 -256 -320 0 0 1 0 1 0 -1 0 0 3004.dat
1 71 -190 -256 -250 0 0 1 0 1 0 -1 0 0 3622.dat
1 71 -140 -240 610 1 0 0 0 1 0 -0 0 1 3710.dat
1 71 -100 -256 -630 1 0 0 0 1 0 -0 0 1 3010.dat
1 71 -100 -240 590 1 0 0 0 1 0 -0 0 1 3710.dat
1 71 -60 -240 610 1 0 0 0 1 0 -0 0 1 3710.dat
1 71 -20 -256 -630 1 0 0 0 1 0 -0 0 1 3010.dat
1 71 -20 -240 590 1 0 0 0 1 0 -0 0 1 3710.dat
1 71 20 -240 610 1 0 0 0 1 0 -0 0 1 3710.dat
1 71 60 -256 -630 1 0 0 0 1 0 -0 0 1 3010.dat
1 71 60 -256 -190 1 0 0 0 1 0 -0 0 1 3010.dat
1 71 60 -240 590 1 0 0 0 1 0 -0 0 1 3710.dat
1 71 100 -240 610 1 0 0 0 1 0 -0 0 1 3710.dat
1 71 140 -256 -630 1 0 0 0 1 0 -0 0 1 3010.dat
1 71 140 -240 590 1 0 0 0 1 0 -0 0 1 3710.dat
1 71 160 -240 -310 1 0 0 0 1 0 -0 0 1 3023.dat
1 71 160 -240 610 1 0 0 0 1 0 -0 0 1 3023.dat
1 71 200 -256 -630 1 0 0 0 1 0 -0 0 1 3004.dat
1 71 190 -256 -550 0 0 1 0 1 0 -1 0 0 3622.dat
1 71 190 -256 -490 1 0 0 0 1 0 -0 0 1 3005.dat
1 71 190 -256 -260 0 0 1 0 1 0 -1 0 0 3010.dat
1 71 210 -256 -270 1 0 0 0 1 0 -0 0 1 3005.dat
1 71 210 -256 310 1 0 0 0 1 0 -0 0 1 3005.dat
1 71 210 -256 350 1 0 0 0 1 0 -0 0 1 3005.dat
1 71 210 -256 570 1 0 0 0 1 0 -0 0 1 3005.dat
1 71 -210 -264 -440 0 0 1 0 1 0 -1 0 0 3010.dat
1 71 -210 -264 330 1 0 0 0 1 0 -0 0 1 3005.dat
1 71 -210 -264 420 0 0 1 0 1 0 -1 0 0 3010.dat
1 71 -210 -264 480 0 0 1 0 1 0 -1 0 0 3004.dat
1 71 -210 -248 520 0 0 1 0 1 0 -1 0 0 3023.dat
1 71 -180 -248 580 1 0 0 0 1 0 -0 0 1 3020.dat
1 71 -160 -248 -610 1 0 0 0 1 0 -0 0 1 3710.dat
1 71 -190 -264 -510 1 0 0 0 1 0 -0 0 1 3005.dat
1 71 -190 -264 -210 1 0 0 0 1 0 -0 0 1 3005.dat
1 71 -140 -264 -190 1 0 0 0 1 0 -0 0 1 3010.dat
1 71 -100 -248 580 1 0 0 0 1 0 -0 0 1 3020.dat
1 71 -60 -264 -190 1 0 0 0 1 0 -0 0 1 3010.dat
1 71 -20 -248 580 1 0 0 0 1 0 -0 0 1 3020.dat
1 71 0 -264 -190 1 0 0 0 1 0 -0 0 1 3004.dat
1 71 60 -248 580 1 0 0 0 1 0 -0 0 1 3020.dat
1 71 140 -248 580 1 0 0 0 1 0 -0 0 1 3020.dat
1 71 190 -264 -590 1 0 0 0 1 0 -0 0 1 3005.dat
1 71 190 -264 -510 1 0 0 0 1 0 -0 0 1 3005.dat
1 71 190 -264 -440 0 0 1 0 1 0 -1 0 0 3010.dat
1 71 190 -264 -360 0 0 1 0 1 0 -1 0 0 3010.dat
1 71 190 -264 -310 1 0 0 0 1 0 -0 0 1 3005.dat
1 71 190 -248 580 0 0 1 0 1 0 -1 0 0 3023.dat
1 71 210 -264 -610 1 0 0 0 1 0 -0 0 1 3005.dat
1 71 210 -264 -290 1 0 0 0 1 0 -0 0 1 3005.dat
1 71 210 -264 -220 0 0 1 0 1 0 -1 0 0 3010.dat
1 71 210 -264 -140 0 0 1 0 1 0 -1 0 0 3010.dat
1 71 210 -264 -60 0 0 1 0 1 0 -1 0 0 3010.dat
1 71 210 -264 20 0 0 1 0 1 0 -1 0 0 3010.dat
1 71 210 -264 100 0 0 1 0 1 0 -1 0 0 3010.dat
1 71 210 -264 180 0 0 1 0 1 0 -1 0 0 3010.dat
1 71 210 -264 260 0 0 1 0 1 0 -1 0 0 3010.dat
1 71 210 -264 330 1 0 0 0 1 0 -0 0 1 3005.dat
1 71 210 -264 370 1 0 0 0 1 0 -0 0 1 3005.dat
1 71 210 -264 460 0 0 1 0 1 0 -1 0 0 3010.dat
1 71 210 -248 530 0 0 1 0 1 0 -1 0 0 3623.dat
1 71 210 -248 590 1 0 0 0 1 0 -0 0 1 3024.dat
1 71 -210 -272 -580 0 0 1 0 1 0 -1 0 0 3010.dat
1 71 -210 -272 -510 0 0 1 0 1 0 -1 0 0 3622.dat
1 71 -210 -272 -360 0 0 1 0 1 0 -1 0 0 3010.dat
1 71 -210 -272 -310 1 0 0 0 1 0 -0 0 1 3005.dat
1 71 -210 -272 -220 0 0 1 0 1 0 -1 0 0 3010.dat
1 71 -210 -272 -140 0 0 1 0 1 0 -1 0 0 3010.dat
1 71 -210 -272 -60 0 0 1 0 1 0 -1 0 0 3010.dat
1 71 -210 -272 20 0 0 1 0 1 0 -1 0 0 3010.dat
1 71 -210 -272 100 0 0 1 0 1 0 -1 0 0 3010.dat
1 71 -210 -272 180 0 0 1 0 1 0 -1 0 0 3010.dat
1 71 -210 -272 260 0 0 1 0 1 0 -1 0 0 3010.dat
1 71 -210 -272 310 1 0 0 0 1 0 -0 0 1 3005.dat
1 71 -210 -272 350 1 0 0 0 1 0 -0 0 1 3005.dat
1 71 -210 -256 520 0 0 1 0 1 0 -1 0 0 3023.dat
1 71 -180 -256 570 1 0 0 0 1 0 -0 0 1 3710.dat
1 71 -160 -256 -610 1 0 0 0 1 0 -0 0 1 3710.dat
1 71 -190 -256 -570 0 0 1 0 1 0 -1 0 0 3623.dat
1 71 -190 -272 -290 1 0 0 0 1 0 -0 0 1 3005.dat
1 71 -160 -256 550 1 0 0 0 1 0 -0 0 1 3710.dat
1 71 -100 -256 570 1 0 0 0 1 0 -0 0 1 3710.dat
1 71 -80 -256 -610 1 0 0 0 1 0 -0 0 1 3710.dat
1 71 -80 -256 550 1 0 0 0 1 0 -0 0 1 3710.dat
1 71 -20 -256 570 1 0 0 0 1 0 -0 0 1 3710.dat
1 71 0 -256 -610 1 0 0 0 1 0 -0 0 1 3710.dat
1 71 0 -256 550 1 0 0 0 1 0 -0 0 1 3710.dat
1 71 60 -256 570 1 0 0 0 1 0 -0 0 1 3710.dat
1 71 80 -256 -610 1 0 0 0 1 0 -0 0 1 3710.dat
1 71 80 -256 550 1 0 0 0 1 0 -0 0 1 3710.dat
1 71 140 -272 -190 1 0 0 0 1 0 -0 0 1 3010.dat
1 71 140 -256 570 1 0 0 0 1 0 -0 0 1 3710.dat
1 71 150 -256 -610 1 0 0 0 1 0 -0 0 1 3623.dat
1 71 160 -256 550 1 0 0 0 1 0 -0 0 1 3710.dat
1 71 190 -272 -210 1 0 0 0 1 0 -0 0 1 3005.dat
1 71 190 -256 570 1 0 0 0 1 0 -0 0 1 3024.dat
1 71 210 -272 -560 0 0 1 0 1 0 -1 0 0 3010.dat
1 71 210 -272 -480 0 0 1 0 1 0 -1 0 0 3010.dat
1 71 210 -272 -400 0 0 1 0 1 0 -1 0 0 3010.dat
1 71 210 -272 -330 0 0 1 0 1 0 -1 0 0 3622.dat
1 71 210 -272 400 0 0 1 0 1 0 -1 0 0 3004.dat
1 71 210 -256 530 0 0 1 0 1 0 -1 0 0 3623.dat
1 71 -180 -280 -630 1 0 0 0 1 0 -0 0 1 3010.dat
1 71 -210 -280 -280 0 0 1 0 1 0 -1 0 0 3004.dat
1 71 -210 -280 370 1 0 0 0 1 0 -0 0 1 3005.dat
1 71 -180 -264 550 1 0 0 0 1 0 -0 0 1 3710.dat
1 71 -190 -280 -540 0 0 1 0 1 0 -1 0 0 3004.dat
1 71 -190 -280 -460 0 0 1 0 1 0 -1 0 0 3010.dat
1 71 -190 -280 -380 0 0 1 0 1 0 -1 0 0 3010.dat
1 71 -190 -280 -320 0 0 1 0 1 0 -1 0 0 3004.dat
1 71 -190 -280 -250 0 0 1 0 1 0 -1 0 0 3622.dat
1 71 -140 -264 520 1 0 0 0 1 0 -0 0 1 3020.dat
1 71 -100 -280 -630 1 0 0 0 1 0 -0 0 1 3010.dat
1 71 -100 -264 550 1 0 0 0 1 0 -0 0 1 3710.dat
1 71 -60 -264 520 1 0 0 0 1 0 -0 0 1 3020.dat
1 71 -20 -280 -630 1 0 0 0 1 0 -0 0 1 3010.dat
1 71 -20 -264 550 1 0 0 0 1 0 -0 0 1 3710.dat
1 71 20 -264 520 1 0 0 0 1 0 -0 0 1 3020.dat
1 71 60 -280 -630 1 0 0 0 1 0 -0 0 1 3010.dat
1 71 60 -280 -190 1 0 0 0 1 0 -0 0 1 3010.dat
1 71 60 -264 550 1 0 0 0 1 0 -0 0 1 3710.dat
1 71 100 -264 520 1 0 0 0 1 0 -0 0 1 3020.dat
1 71 140 -280 -630 1 0 0 0 1 0 -0 0 1 3010.dat
1 71 140 -264 550 1 0 0 0 1 0 -0 0 1 3710.dat
1 71 160 -264 520 1 0 0 0 1 0 -0 0 1 3022.dat
1 71 200 -280 -630 1 0 0 0 1 0 -0 0 1 3004.dat
1 71 190 -280 -610 1 0 0 0 1 0 -0 0 1 3005.dat
1 71 190 -280 -550 0 0 1 0 1 0 -1 0 0 3622.dat
1 71 190 -280 -490 1 0 0 0 1 0 -0 0 1 3005.dat
1 71 190 -280 -260 0 0 1 0 1 0 -1 0 0 3010.dat
1 71 200 -264 550 1 0 0 0 1 0 -0 0 1 3023.dat
1 71 210 -280 -270 1 0 0 0 1 0 -0 0 1 3005.dat
1 71 210 -280 310 1 0 0 0 1 0 -0 0 1 3005.dat
1 71 210 -280 350 1 0 0 0 1 0 -0 0 1 3005.dat
1 71 -210 -288 -440 0 0 1 0 1 0 -1 0 0 3010.dat
1 71 -210 -288 330 1 0 0 0 1 0 -0 0 1 3005.dat
1 71 -210 -288 420 0 0 1 0 1 0 -1 0 0 3010.dat
1 71 -210 -288 470 1 0 0 0 1 0 -0 0 1 3005.dat
1 71 -180 -272 490 1 0 0 0 1 0 -0 0 1 3710.dat
1 71 -190 -288 -510 1 0 0 0 1 0 -0 0 1 3005.dat
1 71 -190 -288 -210 1 0 0 0 1 0 -0 0 1 3005.dat
1 71 -140 -288 -190 1 0 0 0 1 0 -0 0 1 3010.dat
1 71 -140 -272 520 1 0 0 0 1 0 -0 0 1 3020.dat
1 71 -100 -272 490 1 0 0 0 1 0 -0 0 1 3710.dat
1 71 -60 -288 -190 1 0 0 0 1 0 -0 0 1 3010.dat
1 71 -60 -272 520 1 0 0 0 1 0 -0 0 1 3020.dat
1 71 -20 -272 490 1 0 0 0 1 0 -0 0 1 3710.dat
1 71 0 -288 -190 1 0 0 0 1 0 -0 0 1 3004.dat
1 71 20 -272 520 1 0 0 0 1 0 -0 0 1 3020.dat
1 71 60 -272 490 1 0 0 0 1 0 -0 0 1 3710.dat
1 71 100 -272 520 1 0 0 0 1 0 -0 0 1 3020.dat
1 71 140 -272 490 1 0 0 0 1 0 -0 0 1 3710.dat
1 71 160 -272 520 1 0 0 0 1 0 -0 0 1 3022.dat
1 71 190 -288 -590 1 0 0 0 1 0 -0 0 1 3005.dat
1 71 190 -288 -510 1 0 0 0 1 0 -0 0 1 3005.dat
1 71 190 -288 -440 0 0 1 0 1 0 -1 0 0 3010.dat
1 71 190 -288 -360 0 0 1 0 1 0 -1 0 0 3010.dat
1 71 190 -288 -310 1 0 0 0 1 0 -0 0 1 3005.dat
1 71 200 -272 490 1 0 0 0 1 0 -0 0 1 3023.dat
1 71 210 -288 -610 1 0 0 0 1 0 -0 0 1 3005.dat
1 71 210 -288 -290 1 0 0 0 1 0 -0 0 1 3005.dat
1 71 210 -288 -220 0 0 1 0 1 0 -1 0 0 3010.dat
1 71 210 -288 -140 0 0 1 0 1 0 -1 0 0 3010.dat
1 71 210 -288 -60 0 0 1 0 1 0 -1 0 0 3010.dat
1 71 210 -288 20 0 0 1 0 1 0 -1 0 0 3010.dat
1 71 210 -288 100 0 0 1 0 1 0 -1 0 0 3010.dat
1 71 210 -288 180 0 0 1 0 1 0 -1 0 0 3010.dat
1 71 210 -288 260 0 0 1 0 1 0 -1 0 0 3010.dat
1 71 210 -288 330 1 0 0 0 1 0 -0 0 1 3005.dat
1 71 210 -288 370 1 0 0 0 1 0 -0 0 1 3005.dat
1 71 210 -288 450 0 0 1 0 1 0 -1 0 0 3622.dat
1 71 -210 -296 -580 0 0 1 0 1 0 -1 0 0 3010.dat
1 71 -210 -296 -510 0 0 1 0 1 0 -1 0 0 3622.dat
1 71 -210 -296 -360 0 0 1 0 1 0 -1 0 0 3010.dat
1 71 -210 -296 -310 1 0 0 0 1 0 -0 0 1 3005.dat
1 71 -210 -296 -220 0 0 1 0 1 0 -1 0 0 3010.dat
1 71 -210 -296 -140 0 0 1 0 1 0 -1 0 0 3010.dat
1 71 -210 -296 -60 0 0 1 0 1 0 -1 0 0 3010.dat
1 71 -210 -296 20 0 0 1 0 1 0 -1 0 0 3010.dat
1 71 -210 -296 100 0 0 1 0 1 0 -1 0 0 3010.dat
1 71 -210 -296 180 0 0 1 0 1 0 -1 0 0 3010.dat
1 71 -210 -296 260 0 0 1 0 1 0 -1 0 0 3010.dat
1 71 -210 -296 310 1 0 0 0 1 0 -0 0 1 3005.dat
1 71 -210 -280 350 1 0 0 0 1 0 -0 0 1 3024.dat
1 71 -180 -280 490 1 0 0 0 1 0 -0 0 1 3710.dat
1 71 -190 -296 -290 1 0 0 0 1 0 -0 0 1 3005.dat
1 71 -160 -280 470 1 0 0 0 1 0 -0 0 1 3710.dat
1 71 -100 -280 490 1 0 0 0 1 0 -0 0 1 3710.dat
1 71 -80 -280 470 1 0 0 0 1 0 -0 0 1 3710.dat
1 71 -20 -280 490 1 0 0 0 1 0 -0 0 1 3710.dat
1 71 0 -280 470 1 0 0 0 1 0 -0 0 1 3710.dat
1 71 60 -280 490 1 0 0 0 1 0 -0 0 1 3710.dat
1 71 80 -280 470 1 0 0 0 1 0 -0 0 1 3710.dat
1 71 140 -296 -190 1 0 0 0 1 0 -0 0 1 3010.dat
1 71 140 -280 490 1 0 0 0 1 0 -0 0 1 3710.dat
1 71 160 -280 470 1 0 0 0 1 0 -0 0 1 3710.dat
1 71 190 -296 -210 1 0 0 0 1 0 -0 0 1 3005.dat
1 71 200 -280 490 1 0 0 0 1 0 -0 0 1 3023.dat
1 71 210 -280 -560 0 0 1 0 1 0 -1 0 0 3710.dat
1 71 210 -296 -480 0 0 1 0 1 0 -1 0 0 3010.dat
1 71 210 -296 -400 0 0 1 0 1 0 -1 0 0 3010.dat
1 71 210 -296 -330 0 0 1 0 1 0 -1 0 0 3622.dat
1 71 210 -296 400 0 0 1 0 1 0 -1 0 0 3004.dat
1 71 -180 -288 -630 1 0 0 0 1 0 -0 0 1 3710.dat
1 71 -210 -304 -280 0 0 1 0 1 0 -1 0 0 3004.dat
1 71 -210 -288 360 0 0 1 0 1 0 -1 0 0 3023.dat
1 71 -190 -304 -530 1 0 0 0 1 0 -0 0 1 3005.dat
1 71 -190 -304 -460 0 0 1 0 1 0 -1 0 0 3010.dat
1 71 -190 -304 -380 0 0 1 0 1 0 -1 0 0 3010.dat
1 71 -190 -304 -320 0 0 1 0 1 0 -1 0 0 3004.dat
1 71 -190 -304 -250 0 0 1 0 1 0 -1 0 0 3622.dat
1 71 -160 -288 460 1 0 0 0 1 0 -0 0 1 3020.dat
1 71 -100 -288 -630 1 0 0 0 1 0 -0 0 1 3710.dat
1 71 -80 -288 460 1 0 0 0 1 0 -0 0 1 3020.dat
1 71 -20 -288 -630 1 0 0 0 1 0 -0 0 1 3710.dat
1 71 0 -288 460 1 0 0 0 1 0 -0 0 1 3020.dat
1 71 60 -288 -630 1 0 0 0 1 0 -0 0 1 3710.dat
1 71 60 -304 -190 1 0 0 0 1 0 -0 0 1 3010.dat
1 71 80 -288 460 1 0 0 0 1 0 -0 0 1 3020.dat
1 71 140 -288 -630 1 0 0 0 1 0 -0 0 1 3710.dat
1 71 160 -288 460 1 0 0 0 1 0 -0 0 1 3020.dat
1 71 200 -288 -630 1 0 0 0 1 0 -0 0 1 3023.dat
1 71 190 -288 -610 1 0 0 0 1 0 -0 0 1 3024.dat
1 71 200 -288 -550 0 0 1 0 1 0 -1 0 0 3021.dat
1 71 190 -304 -490 1 0 0 0 1 0 -0 0 1 3005.dat
1 71 190 -304 -260 0 0 1 0 1 0 -1 0 0 3010.dat
1 71 210 -288 -590 1 0 0 0 1 0 -0 0 1 3024.dat
1 71 210 -304 -270 1 0 0 0 1 0 -0 0 1 3005.dat
1 71 210 -288 310 1 0 0 0 1 0 -0 0 1 3024.dat
1 71 210 -288 350 1 0 0 0 1 0 -0 0 1 3024.dat
1 71 -180 -296 -630 1 0 0 0 1 0 -0 0 1 3710.dat
1 71 -210 -312 -440 0 0 1 0 1 0 -1 0 0 3010.dat
1 71 -210 -296 330 1 0 0 0 1 0 -0 0 1 3024.dat
1 71 -190 -296 -510 1 0 0 0 1 0 -0 0 1 3024.dat
1 71 -190 -312 -210 1 0 0 0 1 0 -0 0 1 3005.dat
1 71 -190 -312 370 0 0 1 0 1 0 -1 0 0 3622.dat
1 71 -160 -296 450 1 0 0 0 1 0 -0 0 1 3710.dat
1 71 -140 -312 -190 1 0 0 0 1 0 -0 0 1 3010.dat
1 71 -120 -296 420 1 0 0 0 1 0 -0 0 1 3020.dat
1 71 -100 -296 -630 1 0 0 0 1 0 -0 0 1 3710.dat
1 71 -80 -296 450 1 0 0 0 1 0 -0 0 1 3710.dat
1 71 -60 -312 -190 1 0 0 0 1 0 -0 0 1 3010.dat
1 71 -40 -296 420 1 0 0 0 1 0 -0 0 1 3020.dat
1 71 -20 -296 -630 1 0 0 0 1 0 -0 0 1 3710.dat
1 71 0 -296 450 1 0 0 0 1 0 -0 0 1 3710.dat
1 71 0 -312 -190 1 0 0 0 1 0 -0 0 1 3004.dat
1 71 40 -296 420 1 0 0 0 1 0 -0 0 1 3020.dat
1 71 60 -296 -630 1 0 0 0 1 0 -0 0 1 3710.dat
1 71 80 -296 450 1 0 0 0 1 0 -0 0 1 3710.dat
1 71 120 -296 420 1 0 0 0 1 0 -0 0 1 3020.dat
1 71 140 -296 -630 1 0 0 0 1 0 -0 0 1 3710.dat
1 71 160 -296 450 1 0 0 0 1 0 -0 0 1 3710.dat
1 71 180 -296 420 1 0 0 0 1 0 -0 0 1 3022.dat
1 71 210 -296 -630 1 0 0 0 1 0 -0 0 1 3623.dat
1 71 200 -296 -550 0 0 1 0 1 0 -1 0 0 3021.dat
1 71 190 -296 -510 1 0 0 0 1 0 -0 0 1 3024.dat
1 71 190 -312 -440 0 0 1 0 1 0 -1 0 0 3010.dat
1 71 190 -312 -360 0 0 1 0 1 0 -1 0 0 3010.dat
1 71 190 -312 -310 1 0 0 0 1 0 -0 0 1 3005.dat
1 71 210 -312 -290 1 0 0 0 1 0 -0 0 1 3005.dat
1 71 210 -312 -220 0 0 1 0 1 0 -1 0 0 3010.dat
1 71 210 -312 -140 0 0 1 0 1 0 -1 0 0 3010.dat
1 71 210 -312 -60 0 0 1 0 1 0 -1 0 0 3010.dat
1 71 210 -312 20 0 0 1 0 1 0 -1 0 0 3010.dat
1 71 210 -312 100 0 0 1 0 1 0 -1 0 0 3010.dat
1 71 210 -296 180 0 0 1 0 1 0 -1 0 0 3710.dat
1 71 210 -296 260 0 0 1 0 1 0 -1 0 0 3710.dat
1 71 210 -296 340 0 0 1 0 1 0 -1 0 0 3710.dat
1 71 -210 -304 -580 0 0 1 0 1 0 -1 0 0 3710.dat
1 71 -210 -304 -510 0 0 1 0 1 0 -1 0 0 3623.dat
1 71 -210 -320 -360 0 0 1 0 1 0 -1 0 0 3010.dat
1 71 -210 -320 -310 1 0 0 0 1 0 -0 0 1 3005.dat
1 71 -210 -320 -220 0 0 1 0 1 0 -1 0 0 3010.dat
1 71 -210 -320 -140 0 0 1 0 1 0 -1 0 0 3010.dat
1 71 -210 -320 -60 0 0 1 0 1 0 -1 0 0 3010.dat
1 71 -210 -320 20 0 0 1 0 1 0 -1 0 0 3010.dat
1 71 -210 -304 100 0 0 1 0 1 0 -1 0 0 3710.dat
1 71 -210 -304 180 0 0 1 0 1 0 -1 0 0 3710.dat
1 71 -210 -304 230 1 0 0 0 1 0 -0 0 1 3024.dat
1 71 -190 -304 -510 1 0 0 0 1 0 -0 0 1 3024.dat
1 71 -190 -320 -290 1 0 0 0 1 0 -0 0 1 3005.dat
1 71 -190 -320 280 0 0 1 0 1 0 -1 0 0 3010.dat
1 71 -190 -320 330 1 0 0 0 1 0 -0 0 1 3005.dat
1 71 -140 -304 390 1 0 0 0 1 0 -0 0 1 3710.dat
1 71 -120 -304 420 1 0 0 0 1 0 -0 0 1 3020.dat
1 71 -60 -304 390 1 0 0 0 1 0 -0 0 1 3710.dat
1 71 -40 -304 420 1 0 0 0 1 0 -0 0 1 3020.dat
1 71 20 -304 390 1 0 0 0 1 0 -0 0 1 3710.dat
1 71 40 -304 420 1 0 0 0 1 0 -0 0 1 3020.dat
1 71 100 -304 390 1 0 0 0 1 0 -0 0 1 3710.dat
1 71 120 -304 420 1 0 0 0 1 0 -0 0 1 3020.dat
1 71 140 -320 -190 1 0 0 0 1 0 -0 0 1 3010.dat
1 71 170 -304 390 1 0 0 0 1 0 -0 0 1 3623.dat
1 71 180 -304 420 1 0 0 0 1 0 -0 0 1 3022.dat
1 71 200 -304 -520 1 0 0 0 1 0 -0 0 1 3022.dat
1 71 190 -320 -210 1 0 0 0 1 0 -0 0 1 3005.dat
1 71 190 -320 300 0 0 1 0 1 0 -1 0 0 3010.dat
1 71 190 -320 360 0 0 1 0 1 0 -1 0 0 3004.dat
1 71 210 -304 -460 0 0 1 0 1 0 -1 0 0 3710.dat
1 71 210 -320 -380 0 0 1 0 1 0 -1 0 0 3010.dat
1 71 210 -320 -320 0 0 1 0 1 0 -1 0 0 3004.dat
1 71 210 -304 180 0 0 1 0 1 0 -1 0 0 3710.dat
1 71 210 -304 240 0 0 1 0 1 0 -1 0 0 3023.dat
1 71 -210 -312 -550 0 0 1 0 1 0 -1 0 0 3623.dat
1 71 -210 -328 -280 0 0 1 0 1 0 -1 0 0 3004.dat
1 71 -210 -312 100 0 0 1 0 1 0 -1 0 0 3710.dat
1 71 -190 -312 -530 1 0 0 0 1 0 -0 0 1 3024.dat
1 71 -190 -312 -440 0 0 1 0 1 0 -1 0 0 3710.dat
1 71 -190 -312 -360 0 0 1 0 1 0 -1 0 0 3710.dat
1 71 -190 -328 -310 1 0 0 0 1 0 -0 0 1 3005.dat
1 71 -190 -328 -250 0 0 1 0 1 0 -1 0 0 3622.dat
1 71 -190 -328 180 0 0 1 0 1 0 -1 0 0 3010.dat
1 71 -190 -328 230 1 0 0 0 1 0 -0 0 1 3005.dat
1 71 -140 -312 380 1 0 0 0 1 0 -0 0 1 3020.dat
1 71 -60 -312 380 1 0 0 0 1 0 -0 0 1 3020.dat
1 71 20 -312 380 1 0 0 0 1 0 -0 0 1 3020.dat
1 71 60 -328 -190 1 0 0 0 1 0 -0 0 1 3010.dat
1 71 100 -312 380 1 0 0 0 1 0 -0 0 1 3020.dat
1 71 160 -312 380 1 0 0 0 1 0 -0 0 1 3022.dat
1 71 200 -312 -530 1 0 0 0 1 0 -0 0 1 3023.dat
1 71 190 -328 -260 0 0 1 0 1 0 -1 0 0 3010.dat
1 71 190 -328 200 0 0 1 0 1 0 -1 0 0 3010.dat
1 71 190 -328 250 1 0 0 0 1 0 -0 0 1 3005.dat
1 71 190 -312 390 1 0 0 0 1 0 -0 0 1 3024.dat
1 71 210 -312 -450 0 0 1 0 1 0 -1 0 0 3623.dat
1 71 210 -328 -270 1 0 0 0 1 0 -0 0 1 3005.dat
1 71 210 -312 150 1 0 0 0 1 0 -0 0 1 3024.dat
1 71 -200 -320 -470 1 0 0 0 1 0 -0 0 1 3023.dat
1 71 -200 -320 -410 1 0 0 0 1 0 -0 0 1 3023.dat
1 71 -190 -320 -360 0 0 1 0 1 0 -1 0 0 3710.dat
1 71 -190 -336 -210 1 0 0 0 1 0 -0 0 1 3005.dat
1 71 -190 -336 100 0 0 1 0 1 0 -1 0 0 3010.dat
1 71 -160 -320 360 1 0 0 0 1 0 -0 0 1 3020.dat
1 71 -140 -336 -190 1 0 0 0 1 0 -0 0 1 3010.dat
1 71 -80 -320 360 1 0 0 0 1 0 -0 0 1 3020.dat
1 71 -60 -336 -190 1 0 0 0 1 0 -0 0 1 3010.dat
1 71 0 -320 360 1 0 0 0 1 0 -0 0 1 3020.dat
1 71 0 -336 -190 1 0 0 0 1 0 -0 0 1 3004.dat
1 71 80 -320 360 1 0 0 0 1 0 -0 0 1 3020.dat
1 71 150 -320 360 1 0 0 0 1 0 -0 0 1 3021.dat
1 71 200 -320 -470 1 0 0 0 1 0 -0 0 1 3023.dat
1 71 190 -320 -380 0 0 1 0 1 0 -1 0 0 3710.dat
1 71 190 -320 -320 0 0 1 0 1 0 -1 0 0 3023.dat
1 71 190 -336 100 0 0 1 0 1 0 -1 0 0 3010.dat
1 71 190 -336 150 1 0 0 0 1 0 -0 0 1 3005.dat
1 71 210 -336 -290 1 0 0 0 1 0 -0 0 1 3005.dat
1 71 210 -336 -220 0 0 1 0 1 0 -1 0 0 3010.dat
1 71 210 -336 -150 0 0 1 0 1 0 -1 0 0 3622.dat
1 71 210 -320 -80 0 0 1 0 1 0 -1 0 0 3710.dat
1 71 210 -320 0 0 0 1 0 1 0 -1 0 0 3710.dat
1 71 210 -320 50 1 0 0 0 1 0 -0 0 1 3024.dat
1 71 -200 -328 -410 1 0 0 0 1 0 -0 0 1 3023.dat
1 71 -200 -328 -340 1 0 0 0 1 0 -0 0 1 3022.dat
1 71 -210 -344 -310 1 0 0 0 1 0 -0 0 1 3005.dat
1 71 -210 -344 -220 0 0 1 0 1 0 -1 0 0 3010.dat
1 71 -210 -328 -140 0 0 1 0 1 0 -1 0 0 3710.dat
1 71 -210 -328 -70 0 0 1 0 1 0 -1 0 0 3623.dat
1 71 -190 -344 -290 1 0 0 0 1 0 -0 0 1 3005.dat
1 71 -190 -344 0 0 0 1 0 1 0 -1 0 0 3010.dat
1 71 -190 -344 50 1 0 0 0 1 0 -0 0 1 3005.dat
1 71 -190 -344 270 0 0 1 0 1 0 -1 0 0 3622.dat
1 71 -160 -328 350 1 0 0 0 1 0 -0 0 1 3710.dat
1 71 -120 -328 320 1 0 0 0 1 0 -0 0 1 3020.dat
1 71 -80 -328 350 1 0 0 0 1 0 -0 0 1 3710.dat
1 71 -40 -328 320 1 0 0 0 1 0 -0 0 1 3020.dat
1 71 0 -328 350 1 0 0 0 1 0 -0 0 1 3710.dat
1 71 40 -328 320 1 0 0 0 1 0 -0 0 1 3020.dat
1 71 80 -328 350 1 0 0 0 1 0 -0 0 1 3710.dat
1 71 120 -328 320 1 0 0 0 1 0 -0 0 1 3020.dat
1 71 140 -344 -190 1 0 0 0 1 0 -0 0 1 3010.dat
1 71 160 -328 350 1 0 0 0 1 0 -0 0 1 3710.dat
1 71 200 -328 -410 1 0 0 0 1 0 -0 0 1 3023.dat
1 71 200 -328 -330 0 0 1 0 1 0 -1 0 0 3021.dat
1 71 190 -344 -210 1 0 0 0 1 0 -0 0 1 3005.dat
1 71 190 -344 20 0 0 1 0 1 0 -1 0 0 3010.dat
1 71 190 -344 280 0 0 1 0 1 0 -1 0 0 3004.dat
1 71 210 -328 -80 0 0 1 0 1 0 -1 0 0 3710.dat
1 71 210 -328 -30 1 0 0 0 1 0 -0 0 1 3024.dat
1 71 -210 -352 -290 1 0 0 0 1 0 -0 0 1 3005.dat
1 71 -200 -336 -270 1 0 0 0 1 0 -0 0 1 3023.dat
1 71 -210 -336 -160 0 0 1 0 1 0 -1 0 0 3023.dat
1 71 -190 -336 -310 1 0 0 0 1 0 -0 0 1 3024.dat
1 71 -190 -352 -240 0 0 1 0 1 0 -1 0 0 3004.dat
1 71 -190 -352 -100 0 0 1 0 1 0 -1 0 0 3010.dat
1 71 -190 -352 -50 1 0 0 0 1 0 -0 0 1 3005.dat
1 71 -190 -352 180 0 0 1 0 1 0 -1 0 0 3010.dat
1 71 -190 -352 230 1 0 0 0 1 0 -0 0 1 3005.dat
1 71 -140 -336 290 1 0 0 0 1 0 -0 0 1 3710.dat
1 71 -120 -336 320 1 0 0 0 1 0 -0 0 1 3020.dat
1 71 -60 -336 290 1 0 0 0 1 0 -0 0 1 3710.dat
1 71 -40 -336 320 1 0 0 0 1 0 -0 0 1 3020.dat
1 71 20 -336 290 1 0 0 0 1 0 -0 0 1 3710.dat
1 71 40 -336 320 1 0 0 0 1 0 -0 0 1 3020.dat
1 71 60 -352 -190 1 0 0 0 1 0 -0 0 1 3010.dat
1 71 100 -336 290 1 0 0 0 1 0 -0 0 1 3710.dat
1 71 120 -336 320 1 0 0 0 1 0 -0 0 1 3020.dat
1 71 160 -336 290 1 0 0 0 1 0 -0 0 1 3023.dat
1 71 190 -336 -280 0 0 1 0 1 0 -1 0 0 3710.dat
1 71 190 -352 -230 1 0 0 0 1 0 -0 0 1 3005.dat
1 71 190 -352 -80 0 0 1 0 1 0 -1 0 0 3010.dat
1 71 190 -352 -30 1 0 0 0 1 0 -0 0 1 3005.dat
1 71 190 -352 200 0 0 1 0 1 0 -1 0 0 3010.dat
1 71 190 -352 250 1 0 0 0 1 0 -0 0 1 3005.dat
1 71 210 -336 -310 1 0 0 0 1 0 -0 0 1 3024.dat
1 71 210 -336 -270 1 0 0 0 1 0 -0 0 1 3024.dat
1 71 -200 -344 -270 1 0 0 0 1 0 -0 0 1 3023.dat
1 71 -190 -344 -310 1 0 0 0 1 0 -0 0 1 3024.dat
1 71 -190 -360 -210 1 0 0 0 1 0 -0 0 1 3005.dat
1 71 -190 -344 -160 0 0 1 0 1 0 -1 0 0 3023.dat
1 71 -190 -360 100 0 0 1 0 1 0 -1 0 0 3010.dat
1 71 -140 -360 -190 1 0 0 0 1 0 -0 0 1 3010.dat
1 71 -140 -344 280 1 0 0 0 1 0 -0 0 1 3020.dat
1 71 -60 -360 -190 1 0 0 0 1 0 -0 0 1 3010.dat
1 71 -60 -344 280 1 0 0 0 1 0 -0 0 1 3020.dat
1 71 0 -360 -190 1 0 0 0 1 0 -0 0 1 3004.dat
1 71 20 -344 280 1 0 0 0 1 0 -0 0 1 3020.dat
1 71 100 -344 280 1 0 0 0 1 0 -0 0 1 3020.dat
1 71 160 -344 280 1 0 0 0 1 0 -0 0 1 3022.dat
1 71 200 -344 -280 0 0 1 0 1 0 -1 0 0 3020.dat
1 71 190 -344 -140 0 0 1 0 1 0 -1 0 0 3023.dat
1 71 190 -360 100 0 0 1 0 1 0 -1 0 0 3010.dat
1 71 190 -360 150 1 0 0 0 1 0 -0 0 1 3005.dat
1 71 210 -344 -200 0 0 1 0 1 0 -1 0 0 3710.dat
1 71 -190 -352 -280 0 0 1 0 1 0 -1 0 0 3023.dat
1 71 -190 -352 -170 0 0 1 0 1 0 -1 0 0 3623.dat
1 71 -190 -368 0 0 0 1 0 1 0 -1 0 0 3010.dat
1 71 -190 -368 50 1 0 0 0 1 0 -0 0 1 3005.dat
1 71 -160 -352 260 1 0 0 0 1 0 -0 0 1 3020.dat
1 71 -80 -352 260 1 0 0 0 1 0 -0 0 1 3020.dat
1 71 0 -352 260 1 0 0 0 1 0 -0 0 1 3020.dat
1 71 80 -352 260 1 0 0 0 1 0 -0 0 1 3020.dat
1 71 140 -352 -190 1 0 0 0 1 0 -0 0 1 3710.dat
1 71 150 -352 260 1 0 0 0 1 0 -0 0 1 3021.dat
1 71 190 -352 -270 0 0 1 0 1 0 -1 0 0 3623.dat
1 71 190 -352 -180 0 0 1 0 1 0 -1 0 0 3710.dat
1 71 190 -352 -130 1 0 0 0 1 0 -0 0 1 3024.dat
1 71 190 -368 20 0 0 1 0 1 0 -1 0 0 3010.dat
1 71 190 -352 270 1 0 0 0 1 0 -0 0 1 3024.dat
1 71 210 -352 -290 1 0 0 0 1 0 -0 0 1 3024.dat
1 71 -190 -360 -230 1 0 0 0 1 0 -0 0 1 3024.dat
1 71 -190 -360 -190 1 0 0 0 1 0 -0 0 1 3024.dat
1 71 -190 -360 -100 0 0 1 0 1 0 -1 0 0 3710.dat
1 71 -190 -360 -50 1 0 0 0 1 0 -0 0 1 3024.dat
1 71 -190 -376 160 0 0 1 0 1 0 -1 0 0 3004.dat
1 71 -190 -360 220 0 0 1 0 1 0 -1 0 0 3710.dat
1 71 -140 -360 240 1 0 0 0 1 0 -0 0 1 3020.dat
1 71 -120 -360 -160 1 0 0 0 1 0 -0 0 1 3020.dat
1 71 -60 -360 240 1 0 0 0 1 0 -0 0 1 3020.dat
1 71 -40 -360 -160 1 0 0 0 1 0 -0 0 1 3020.dat
1 71 20 -360 240 1 0 0 0 1 0 -0 0 1 3020.dat
1 71 40 -360 -160 1 0 0 0 1 0 -0 0 1 3020.dat
1 71 60 -360 -190 1 0 0 0 1 0 -0 0 1 3710.dat
1 71 100 -360 240 1 0 0 0 1 0 -0 0 1 3020.dat
1 71 120 -360 -160 1 0 0 0 1 0 -0 0 1 3020.dat
1 71 140 -360 -190 1 0 0 0 1 0 -0 0 1 3710.dat
1 71 170 -360 240 1 0 0 0 1 0 -0 0 1 3021.dat
1 71 190 -360 -210 0 0 1 0 1 0 -1 0 0 3623.dat
1 71 190 -360 -100 0 0 1 0 1 0 -1 0 0 3710.dat
1 71 190 -360 -40 0 0 1 0 1 0 -1 0 0 3023.dat
1 71 190 -376 170 1 0 0 0 1 0 -0 0 1 3005.dat
1 71 190 -360 200 0 0 1 0 1 0 -1 0 0 3023.dat
1 71 -160 -368 -90 1 0 0 0 1 0 -0 0 1 3710.dat
1 71 -190 -368 -60 0 0 1 0 1 0 -1 0 0 3023.dat
1 71 -190 -384 100 0 0 1 0 1 0 -1 0 0 3010.dat
1 71 -160 -368 230 1 0 0 0 1 0 -0 0 1 3710.dat
1 71 -120 -368 -160 1 0 0 0 1 0 -0 0 1 3020.dat
1 71 -120 -368 -120 1 0 0 0 1 0 -0 0 1 3020.dat
1 71 -120 -368 200 1 0 0 0 1 0 -0 0 1 3020.dat
1 71 -80 -368 -90 1 0 0 0 1 0 -0 0 1 3710.dat
1 71 -80 -368 230 1 0 0 0 1 0 -0 0 1 3710.dat
1 71 -40 -368 -160 1 0 0 0 1 0 -0 0 1 3020.dat
1 71 -40 -368 -120 1 0 0 0 1 0 -0 0 1 3020.dat
1 71 -40 -368 200 1 0 0 0 1 0 -0 0 1 3020.dat
1 71 0 -368 -90 1 0 0 0 1 0 -0 0 1 3710.dat
1 71 0 -368 230 1 0 0 0 1 0 -0 0 1 3710.dat
1 71 40 -368 -160 1 0 0 0 1 0 -0 0 1 3020.dat
1 71 40 -368 -120 1 0 0 0 1 0 -0 0 1 3020.dat
1 71 40 -368 200 1 0 0 0 1 0 -0 0 1 3020.dat
1 71 80 -368 -90 1 0 0 0 1 0 -0 0 1 3710.dat
1 71 80 -368 230 1 0 0 0 1 0 -0 0 1 3710.dat
1 71 120 -368 -160 1 0 0 0 1 0 -0 0 1 3020.dat
1 71 120 -368 -120 1 0 0 0 1 0 -0 0 1 3020.dat
1 71 120 -368 200 1 0 0 0 1 0 -0 0 1 3020.dat
1 71 160 -368 -90 1 0 0 0 1 0 -0 0 1 3710.dat
1 71 160 -368 230 1 0 0 0 1 0 -0 0 1 3710.dat
1 71 190 -368 -50 0 0 1 0 1 0 -1 0 0 3623.dat
1 71 190 -384 100 0 0 1 0 1 0 -1 0 0 3010.dat
1 71 190 -384 150 1 0 0 0 1 0 -0 0 1 3005.dat
1 71 -160 -376 -90 1 0 0 0 1 0 -0 0 1 3710.dat
1 71 -160 -376 -30 1 0 0 0 1 0 -0 0 1 3710.dat
1 71 -190 -376 20 0 0 1 0 1 0 -1 0 0 3710.dat
1 71 -140 -376 170 1 0 0 0 1 0 -0 0 1 3710.dat
1 71 -120 -376 -120 1 0 0 0 1 0 -0 0 1 3020.dat
1 71 -120 -376 -60 1 0 0 0 1 0 -0 0 1 3020.dat
1 71 -120 -376 200 1 0 0 0 1 0 -0 0 1 3020.dat
1 71 -80 -376 -90 1 0 0 0 1 0 -0 0 1 3710.dat
1 71 -80 -376 -30 1 0 0 0 1 0 -0 0 1 3710.dat
1 71 -60 -376 170 1 0 0 0 1 0 -0 0 1 3710.dat
1 71 -40 -376 -120 1 0 0 0 1 0 -0 0 1 3020.dat
1 71 -40 -376 -60 1 0 0 0 1 0 -0 0 1 3020.dat
1 71 -40 -376 200 1 0 0 0 1 0 -0 0 1 3020.dat
1 71 0 -376 -90 1 0 0 0 1 0 -0 0 1 3710.dat
1 71 0 -376 -30 1 0 0 0 1 0 -0 0 1 3710.dat
1 71 20 -376 170 1 0 0 0 1 0 -0 0 1 3710.dat
1 71 40 -376 -120 1 0 0 0 1 0 -0 0 1 3020.dat
1 71 40 -376 -60 1 0 0 0 1 0 -0 0 1 3020.dat
1 71 40 -376 200 1 0 0 0 1 0 -0 0 1 3020.dat
1 71 80 -376 -90 1 0 0 0 1 0 -0 0 1 3710.dat
1 71 80 -376 -30 1 0 0 0 1 0 -0 0 1 3710.dat
1 71 100 -376 170 1 0 0 0 1 0 -0 0 1 3710.dat
1 71 120 -376 -120 1 0 0 0 1 0 -0 0 1 3020.dat
1 71 120 -376 -60 1 0 0 0 1 0 -0 0 1 3020.dat
1 71 120 -376 200 1 0 0 0 1 0 -0 0 1 3020.dat
1 71 160 -376 -90 1 0 0 0 1 0 -0 0 1 3710.dat
1 71 160 -376 -30 1 0 0 0 1 0 -0 0 1 3710.dat
1 71 160 -376 170 1 0 0 0 1 0 -0 0 1 3023.dat
1 71 190 -376 20 0 0 1 0 1 0 -1 0 0 3710.dat
1 71 -160 -384 -30 1 0 0 0 1 0 -0 0 1 3710.dat
1 71 -160 -384 30 1 0 0 0 1 0 -0 0 1 3710.dat
1 71 -190 -384 50 1 0 0 0 1 0 -0 0 1 3024.dat
1 71 -160 -384 160 1 0 0 0 1 0 -0 0 1 3020.dat
1 71 -120 -384 -60 1 0 0 0 1 0 -0 0 1 3020.dat
1 71 -120 -384 0 1 0 0 0 1 0 -0 0 1 3020.dat
1 71 -80 -384 -30 1 0 0 0 1 0 -0 0 1 3710.dat
1 71 -80 -384 30 1 0 0 0 1 0 -0 0 1 3710.dat
1 71 -80 -384 160 1 0 0 0 1 0 -0 0 1 3020.dat
1 71 -40 -384 -60 1 0 0 0 1 0 -0 0 1 3020.dat
1 71 -40 -384 0 1 0 0 0 1 0 -0 0 1 3020.dat
1 71 0 -384 -30 1 0 0 0 1 0 -0 0 1 3710.dat
1 71 0 -384 30 1 0 0 0 1 0 -0 0 1 3710.dat
1 71 0 -384 160 1 0 0 0 1 0 -0 0 1 3020.dat
1 71 40 -384 -60 1 0 0 0 1 0 -0 0 1 3020.dat
1 71 40 -384 0 1 0 0 0 1 0 -0 0 1 3020.dat
1 71 80 -384 -30 1 0 0 0 1 0 -0 0 1 3710.dat
1 71 80 -384 30 1 0 0 0 1 0 -0 0 1 3710.dat
1 71 80 -384 160 1 0 0 0 1 0 -0 0 1 3020.dat
1 71 120 -384 -60 1 0 0 0 1 0 -0 0 1 3020.dat
1 71 120 -384 0 1 0 0 0 1 0 -0 0 1 3020.dat
1 71 160 -384 -30 1 0 0 0 1 0 -0 0 1 3710.dat
1 71 160 -384 30 1 0 0 0 1 0 -0 0 1 3710.dat
1 71 150 -384 160 1 0 0 0 1 0 -0 0 1 3021.dat
1 71 190 -384 50 1 0 0 0 1 0 -0 0 1 3024.dat
1 71 190 -384 170 1 0 0 0 1 0 -0 0 1 3024.dat
1 71 -160 -392 30 1 0 0 0 1 0 -0 0 1 3710.dat
1 71 -160 -392 90 1 0 0 0 1 0 -0 0 1 3710.dat
1 71 -190 -392 130 0 0 1 0 1 0 -1 0 0 3623.dat
1 71 -140 -392 140 1 0 0 0 1 0 -0 0 1 3020.dat
1 71 -120 -392 0 1 0 0 0 1 0 -0 0 1 3020.dat
1 71 -120 -392 60 1 0 0 0 1 0 -0 0 1 3020.dat
1 71 -80 -392 30 1 0 0 0 1 0 -0 0 1 3710.dat
1 71 -90 -392 90 1 0 0 0 1 0 -0 0 1 3623.dat
1 71 -60 -392 140 1 0 0 0 1 0 -0 0 1 3020.dat
1 71 -40 -392 0 1 0 0 0 1 0 -0 0 1 3020.dat
1 71 -40 -392 60 1 0 0 0 1 0 -0 0 1 3020.dat
1 71 0 -392 30 1 0 0 0 1 0 -0 0 1 3710.dat
1 71 20 -392 140 1 0 0 0 1 0 -0 0 1 3020.dat
1 71 40 -392 0 1 0 0 0 1 0 -0 0 1 3020.dat
1 71 40 -392 60 1 0 0 0 1 0 -0 0 1 3020.dat
1 71 80 -392 30 1 0 0 0 1 0 -0 0 1 3710.dat
1 71 100 -392 140 1 0 0 0 1 0 -0 0 1 3020.dat
1 71 120 -392 0 1 0 0 0 1 0 -0 0 1 3020.dat
1 71 120 -392 60 1 0 0 0 1 0 -0 0 1 3020.dat
1 71 160 -392 30 1 0 0 0 1 0 -0 0 1 3710.dat
1 71 170 -392 140 1 0 0 0 1 0 -0 0 1 3021.dat
1 71 190 -392 100 0 0 1 0 1 0 -1 0 0 3023.dat
1 71 -140 -400 100 1 0 0 0 1 0 -0 0 1 3020.dat
1 71 -140 -400 130 1 0 0 0 1 0 -0 0 1 3710.dat
1 71 -120 -400 60 1 0 0 0 1 0 -0 0 1 3020.dat
1 71 -60 -400 100 1 0 0 0 1 0 -0 0 1 3020.dat
1 71 -60 -400 130 1 0 0 0 1 0 -0 0 1 3710.dat
1 71 -40 -400 60 1 0 0 0 1 0 -0 0 1 3020.dat
1 71 20 -400 100 1 0 0 0 1 0 -0 0 1 3020.dat
1 71 20 -400 130 1 0 0 0 1 0 -0 0 1 3710.dat
1 71 40 -400 60 1 0 0 0 1 0 -0 0 1 3020.dat
1 71 100 -400 100 1 0 0 0 1 0 -0 0 1 3020.dat
1 71 100 -400 130 1 0 0 0 1 0 -0 0 1 3710.dat
1 71 120 -400 60 1 0 0 0 1 0 -0 0 1 3020.dat
1 71 160 -400 110 0 0 1 0 1 0 -1 0 0 3021.dat
1 71 190 -400 90 1 0 0 0 1 0 -0 0 1 3024.dat
1 71 -140 -408 110 1 0 0 0 1 0 -0 0 1 3710.dat
1 71 -60 -408 110 1 0 0 0 1 0 -0 0 1 3710.dat
1 71 -20 -408 90 1 0 0 0 1 0 -0 0 1 3710.dat
1 71 20 -408 110 1 0 0 0 1 0 -0 0 1 3710.dat
1 71 60 -408 90 1 0 0 0 1 0 -0 0 1 3710.dat
1 71 100 -408 110 1 0 0 0 1 0 -0 0 1 3710.dat
1 71 140 -408 90 1 0 0 0 1 0 -0 0 1 3710.dat
1 71 160 -408 110 1 0 0 0 1 0 -0 0 1 3023.dat
