0 Generic OBJ exterior sculpture
0 !LEGO_BUILDER_REVISION 4f2bc24ddfac0db1205556a94bef0e9b66f9669eb7b0d18c368f8dc4137d4788
0 Mechanical connections and assembly order are not verified.
0 // source-aligned slope shoulders
1 71 -100 -792 -470 1 0 0 0 1 0 -0 0 1 3039.dat
1 71 -10 -488 380 0 0 1 0 1 0 -1 0 0 3039.dat
1 71 -10 -480 440 0 0 1 0 1 0 -1 0 0 3039.dat
1 71 -10 -472 540 0 0 1 0 1 0 -1 0 0 3039.dat
1 71 -10 -504 300 -0 0 -1 0 1 0 1 0 -0 3039.dat
1 71 -10 -496 340 -0 0 -1 0 1 0 1 0 -0 3039.dat
1 71 -10 -480 480 -0 0 -1 0 1 0 1 0 -0 3039.dat
1 71 30 -584 -180 -0 0 -1 0 1 0 1 0 -0 3039.dat
1 71 30 -584 -140 -0 0 -1 0 1 0 1 0 -0 3039.dat
1 71 30 -584 -100 -0 0 -1 0 1 0 1 0 -0 3039.dat
0 // smooth exposed top tiles
1 71 -70 -32 -450 1 0 0 0 1 0 -0 0 1 3070b.dat
1 71 -70 -32 50 1 0 0 0 1 0 -0 0 1 3070b.dat
1 71 -50 -32 -430 1 0 0 0 1 0 -0 0 1 3070b.dat
1 71 -50 -32 70 1 0 0 0 1 0 -0 0 1 3070b.dat
1 71 30 -32 -410 1 0 0 0 1 0 -0 0 1 3070b.dat
1 71 130 -32 -400 0 0 1 0 1 0 -1 0 0 3069b.dat
1 71 -130 -40 70 1 0 0 0 1 0 -0 0 1 3070b.dat
1 71 -100 -40 50 1 0 0 0 1 0 -0 0 1 3069b.dat
1 71 -90 -40 -450 1 0 0 0 1 0 -0 0 1 3070b.dat
1 71 -50 -40 -410 1 0 0 0 1 0 -0 0 1 3070b.dat
1 71 -50 -40 110 0 0 1 0 1 0 -1 0 0 63864.dat
1 71 30 -40 -390 1 0 0 0 1 0 -0 0 1 3070b.dat
1 71 30 -40 -350 1 0 0 0 1 0 -0 0 1 3070b.dat
1 71 50 -40 -430 1 0 0 0 1 0 -0 0 1 3070b.dat
1 71 50 -40 70 1 0 0 0 1 0 -0 0 1 3070b.dat
1 71 70 -40 -450 1 0 0 0 1 0 -0 0 1 3070b.dat
1 71 80 -40 50 1 0 0 0 1 0 -0 0 1 3069b.dat
1 71 110 -40 -430 1 0 0 0 1 0 -0 0 1 3070b.dat
1 71 130 -40 100 0 0 1 0 1 0 -1 0 0 3069b.dat
1 71 -130 -48 -400 0 0 1 0 1 0 -1 0 0 3069b.dat
1 71 -130 -48 90 1 0 0 0 1 0 -0 0 1 3070b.dat
1 71 -70 -48 -430 1 0 0 0 1 0 -0 0 1 3070b.dat
1 71 -70 -48 70 1 0 0 0 1 0 -0 0 1 3070b.dat
1 71 -50 -48 -390 1 0 0 0 1 0 -0 0 1 3070b.dat
1 71 30 -48 -370 1 0 0 0 1 0 -0 0 1 3070b.dat
1 71 50 -48 -410 1 0 0 0 1 0 -0 0 1 3070b.dat
1 71 50 -48 90 1 0 0 0 1 0 -0 0 1 3070b.dat
1 71 110 -48 -410 1 0 0 0 1 0 -0 0 1 3070b.dat
1 71 110 -48 70 1 0 0 0 1 0 -0 0 1 3070b.dat
1 71 -130 -56 -350 1 0 0 0 1 0 -0 0 1 3070b.dat
1 71 -130 -56 110 1 0 0 0 1 0 -0 0 1 3070b.dat
1 71 -100 -56 -420 1 0 0 0 1 0 -0 0 1 3068b.dat
1 71 -100 -56 80 1 0 0 0 1 0 -0 0 1 3068b.dat
1 71 -70 -56 -410 1 0 0 0 1 0 -0 0 1 3070b.dat
1 71 -70 -56 90 1 0 0 0 1 0 -0 0 1 3070b.dat
1 71 -50 -56 -360 0 0 1 0 1 0 -1 0 0 3069b.dat
1 71 80 -56 -420 1 0 0 0 1 0 -0 0 1 3068b.dat
1 71 80 -56 80 1 0 0 0 1 0 -0 0 1 3068b.dat
1 71 110 -56 -390 1 0 0 0 1 0 -0 0 1 3070b.dat
1 71 110 -56 90 1 0 0 0 1 0 -0 0 1 3070b.dat
1 71 110 -64 110 1 0 0 0 1 0 -0 0 1 3070b.dat
1 71 -130 -80 140 0 0 1 0 1 0 -1 0 0 3069b.dat
1 71 -110 -88 110 1 0 0 0 1 0 -0 0 1 3070b.dat
1 71 50 -88 110 1 0 0 0 1 0 -0 0 1 3070b.dat
1 71 -70 -96 110 1 0 0 0 1 0 -0 0 1 3070b.dat
1 71 -130 -112 -360 0 0 1 0 1 0 -1 0 0 3069b.dat
1 71 110 -176 150 1 0 0 0 1 0 -0 0 1 3070b.dat
1 71 -110 -184 190 1 0 0 0 1 0 -0 0 1 3070b.dat
1 71 -70 -192 190 1 0 0 0 1 0 -0 0 1 3070b.dat
1 71 50 -192 190 1 0 0 0 1 0 -0 0 1 3070b.dat
1 71 90 -192 190 1 0 0 0 1 0 -0 0 1 3070b.dat
1 71 -90 -200 190 1 0 0 0 1 0 -0 0 1 3070b.dat
1 71 70 -200 190 1 0 0 0 1 0 -0 0 1 3070b.dat
1 71 -110 -216 170 1 0 0 0 1 0 -0 0 1 3070b.dat
1 71 -70 -224 170 1 0 0 0 1 0 -0 0 1 3070b.dat
1 71 50 -224 170 1 0 0 0 1 0 -0 0 1 3070b.dat
1 71 90 -224 170 1 0 0 0 1 0 -0 0 1 3070b.dat
1 71 -90 -232 170 1 0 0 0 1 0 -0 0 1 3070b.dat
1 71 70 -232 170 1 0 0 0 1 0 -0 0 1 3070b.dat
1 71 -50 -248 150 1 0 0 0 1 0 -0 0 1 3070b.dat
1 71 110 -264 -330 1 0 0 0 1 0 -0 0 1 3070b.dat
1 71 110 -432 -470 1 0 0 0 1 0 -0 0 1 3070b.dat
1 71 110 -440 -250 1 0 0 0 1 0 -0 0 1 3070b.dat
1 71 -130 -448 -450 1 0 0 0 1 0 -0 0 1 3070b.dat
1 71 30 -448 450 1 0 0 0 1 0 -0 0 1 3070b.dat
1 71 110 -448 -230 1 0 0 0 1 0 -0 0 1 3070b.dat
1 71 110 -448 130 1 0 0 0 1 0 -0 0 1 3070b.dat
1 71 -130 -456 -10 1 0 0 0 1 0 -0 0 1 3070b.dat
1 71 -130 -456 110 1 0 0 0 1 0 -0 0 1 3070b.dat
1 71 -30 -456 630 1 0 0 0 1 0 -0 0 1 3070b.dat
1 71 10 -456 630 1 0 0 0 1 0 -0 0 1 3070b.dat
1 71 30 -456 420 0 0 1 0 1 0 -1 0 0 3069b.dat
1 71 110 -456 -180 0 0 1 0 1 0 -1 0 0 2431.dat
1 71 110 -456 -100 0 0 1 0 1 0 -1 0 0 2431.dat
1 71 -130 -464 -430 1 0 0 0 1 0 -0 0 1 3070b.dat
1 71 -130 -464 10 1 0 0 0 1 0 -0 0 1 3070b.dat
1 71 -30 -464 590 0 0 1 0 1 0 -1 0 0 63864.dat
1 71 0 -464 610 1 0 0 0 1 0 -0 0 1 3069b.dat
1 71 -10 -464 630 1 0 0 0 1 0 -0 0 1 3070b.dat
1 71 10 -464 590 1 0 0 0 1 0 -0 0 1 3070b.dat
1 71 30 -464 380 0 0 1 0 1 0 -1 0 0 3069b.dat
1 71 110 -464 -50 1 0 0 0 1 0 -0 0 1 3070b.dat
1 71 -130 -472 -410 1 0 0 0 1 0 -0 0 1 3070b.dat
1 71 -130 -472 60 0 0 1 0 1 0 -1 0 0 2431.dat
1 71 -110 -472 -490 1 0 0 0 1 0 -0 0 1 3070b.dat
1 71 -90 -472 170 1 0 0 0 1 0 -0 0 1 3070b.dat
1 71 -30 -472 500 0 0 1 0 1 0 -1 0 0 3069b.dat
1 71 0 -472 570 1 0 0 0 1 0 -0 0 1 3069b.dat
1 71 -10 -472 590 1 0 0 0 1 0 -0 0 1 3070b.dat
1 71 10 -472 530 0 0 1 0 1 0 -1 0 0 63864.dat
1 71 30 -472 350 1 0 0 0 1 0 -0 0 1 3070b.dat
1 71 110 -472 -450 1 0 0 0 1 0 -0 0 1 3070b.dat
1 71 -130 -480 -370 0 0 1 0 1 0 -1 0 0 63864.dat
1 71 -110 -480 150 1 0 0 0 1 0 -0 0 1 3070b.dat
1 71 -50 -480 270 1 0 0 0 1 0 -0 0 1 3070b.dat
1 71 -30 -480 410 1 0 0 0 1 0 -0 0 1 3070b.dat
1 71 -30 -480 470 1 0 0 0 1 0 -0 0 1 3070b.dat
1 71 -10 -480 510 1 0 0 0 1 0 -0 0 1 3070b.dat
1 71 10 -480 440 0 0 1 0 1 0 -1 0 0 3069b.dat
1 71 30 -480 320 0 0 1 0 1 0 -1 0 0 3069b.dat
1 71 70 -480 170 1 0 0 0 1 0 -0 0 1 3070b.dat
1 71 110 -480 -430 1 0 0 0 1 0 -0 0 1 3070b.dat
1 71 110 -480 -30 1 0 0 0 1 0 -0 0 1 3070b.dat
1 71 110 -480 110 1 0 0 0 1 0 -0 0 1 3070b.dat
1 71 -50 -488 250 1 0 0 0 1 0 -0 0 1 3070b.dat
1 71 -30 -488 350 1 0 0 0 1 0 -0 0 1 3070b.dat
1 71 0 -488 410 1 0 0 0 1 0 -0 0 1 3069b.dat
1 71 10 -488 380 0 0 1 0 1 0 -1 0 0 3069b.dat
1 71 30 -488 290 1 0 0 0 1 0 -0 0 1 3070b.dat
1 71 90 -488 150 1 0 0 0 1 0 -0 0 1 3070b.dat
1 71 110 -488 10 0 0 1 0 1 0 -1 0 0 63864.dat
1 71 110 -488 90 1 0 0 0 1 0 -0 0 1 3070b.dat
1 71 -30 -496 320 0 0 1 0 1 0 -1 0 0 3069b.dat
1 71 30 -496 270 1 0 0 0 1 0 -0 0 1 3070b.dat
1 71 110 -496 -400 0 0 1 0 1 0 -1 0 0 3069b.dat
1 71 110 -496 -330 1 0 0 0 1 0 -0 0 1 3070b.dat
1 71 110 -496 60 0 0 1 0 1 0 -1 0 0 3069b.dat
1 71 -110 -504 130 1 0 0 0 1 0 -0 0 1 3070b.dat
1 71 -70 -504 170 1 0 0 0 1 0 -0 0 1 3070b.dat
1 71 -50 -504 230 1 0 0 0 1 0 -0 0 1 3070b.dat
1 71 -30 -504 290 1 0 0 0 1 0 -0 0 1 3070b.dat
1 71 30 -504 250 1 0 0 0 1 0 -0 0 1 3070b.dat
1 71 110 -504 -360 0 0 1 0 1 0 -1 0 0 3069b.dat
1 71 -90 -512 150 1 0 0 0 1 0 -0 0 1 3070b.dat
1 71 -50 -512 210 1 0 0 0 1 0 -0 0 1 3070b.dat
1 71 -10 -512 270 1 0 0 0 1 0 -0 0 1 63864.dat
1 71 30 -512 230 1 0 0 0 1 0 -0 0 1 3070b.dat
1 71 50 -512 170 1 0 0 0 1 0 -0 0 1 3070b.dat
1 71 70 -512 150 1 0 0 0 1 0 -0 0 1 3070b.dat
1 71 90 -512 130 1 0 0 0 1 0 -0 0 1 3070b.dat
1 71 -110 -520 110 1 0 0 0 1 0 -0 0 1 3070b.dat
1 71 -10 -520 250 1 0 0 0 1 0 -0 0 1 63864.dat
1 71 30 -520 210 1 0 0 0 1 0 -0 0 1 3070b.dat
1 71 -110 -528 -240 0 0 1 0 1 0 -1 0 0 2431.dat
1 71 -110 -528 90 1 0 0 0 1 0 -0 0 1 3070b.dat
1 71 -90 -528 130 1 0 0 0 1 0 -0 0 1 3070b.dat
1 71 -70 -528 150 1 0 0 0 1 0 -0 0 1 3070b.dat
1 71 -50 -528 190 1 0 0 0 1 0 -0 0 1 3070b.dat
1 71 -30 -528 220 0 0 1 0 1 0 -1 0 0 3069b.dat
1 71 0 -528 230 1 0 0 0 1 0 -0 0 1 3069b.dat
1 71 30 -528 190 1 0 0 0 1 0 -0 0 1 3070b.dat
1 71 90 -528 110 1 0 0 0 1 0 -0 0 1 3070b.dat
1 71 -110 -536 -320 0 0 1 0 1 0 -1 0 0 2431.dat
1 71 -110 -536 -160 0 0 1 0 1 0 -1 0 0 2431.dat
1 71 -110 -536 -80 0 0 1 0 1 0 -1 0 0 2431.dat
1 71 -110 -536 0 0 0 1 0 1 0 -1 0 0 2431.dat
1 71 -110 -536 60 0 0 1 0 1 0 -1 0 0 3069b.dat
1 71 -50 -536 170 1 0 0 0 1 0 -0 0 1 3070b.dat
1 71 0 -536 210 1 0 0 0 1 0 -0 0 1 3069b.dat
1 71 50 -536 150 1 0 0 0 1 0 -0 0 1 3070b.dat
1 71 70 -536 130 1 0 0 0 1 0 -0 0 1 3070b.dat
1 71 90 -536 -240 0 0 1 0 1 0 -1 0 0 2431.dat
1 71 90 -536 80 0 0 1 0 1 0 -1 0 0 3069b.dat
1 71 -90 -544 110 1 0 0 0 1 0 -0 0 1 3070b.dat
1 71 -70 -544 130 1 0 0 0 1 0 -0 0 1 3070b.dat
1 71 -10 -544 190 1 0 0 0 1 0 -0 0 1 63864.dat
1 71 30 -544 170 1 0 0 0 1 0 -0 0 1 3070b.dat
1 71 70 -544 110 1 0 0 0 1 0 -0 0 1 3070b.dat
1 71 90 -544 -320 0 0 1 0 1 0 -1 0 0 2431.dat
1 71 90 -544 -160 0 0 1 0 1 0 -1 0 0 2431.dat
1 71 90 -544 -80 0 0 1 0 1 0 -1 0 0 2431.dat
1 71 90 -544 0 0 0 1 0 1 0 -1 0 0 2431.dat
1 71 90 -544 50 1 0 0 0 1 0 -0 0 1 3070b.dat
1 71 -110 -552 -370 1 0 0 0 1 0 -0 0 1 3070b.dat
1 71 -90 -552 90 1 0 0 0 1 0 -0 0 1 3070b.dat
1 71 -50 -552 150 1 0 0 0 1 0 -0 0 1 3070b.dat
1 71 -10 -552 170 1 0 0 0 1 0 -0 0 1 63864.dat
1 71 30 -552 150 1 0 0 0 1 0 -0 0 1 3070b.dat
1 71 50 -552 130 1 0 0 0 1 0 -0 0 1 3070b.dat
1 71 70 -552 90 1 0 0 0 1 0 -0 0 1 3070b.dat
1 71 -90 -560 -300 0 0 1 0 1 0 -1 0 0 2431.dat
1 71 -90 -560 -230 0 0 1 0 1 0 -1 0 0 63864.dat
1 71 -90 -560 -70 0 0 1 0 1 0 -1 0 0 63864.dat
1 71 -90 -560 60 0 0 1 0 1 0 -1 0 0 3069b.dat
1 71 -70 -560 110 1 0 0 0 1 0 -0 0 1 3070b.dat
1 71 -50 -560 130 1 0 0 0 1 0 -0 0 1 3070b.dat
1 71 -10 -560 150 1 0 0 0 1 0 -0 0 1 63864.dat
1 71 30 -560 130 1 0 0 0 1 0 -0 0 1 3070b.dat
1 71 50 -560 110 1 0 0 0 1 0 -0 0 1 3070b.dat
1 71 70 -560 -300 0 0 1 0 1 0 -1 0 0 2431.dat
1 71 70 -560 -240 0 0 1 0 1 0 -1 0 0 3069b.dat
1 71 70 -560 70 1 0 0 0 1 0 -0 0 1 3070b.dat
1 71 90 -560 -370 1 0 0 0 1 0 -0 0 1 3070b.dat
1 71 -110 -568 -390 1 0 0 0 1 0 -0 0 1 3070b.dat
1 71 -90 -568 -160 0 0 1 0 1 0 -1 0 0 2431.dat
1 71 -90 -568 -110 1 0 0 0 1 0 -0 0 1 3070b.dat
1 71 -90 -568 0 0 0 1 0 1 0 -1 0 0 2431.dat
1 71 -70 -568 80 0 0 1 0 1 0 -1 0 0 3069b.dat
1 71 -40 -568 110 1 0 0 0 1 0 -0 0 1 3069b.dat
1 71 -10 -568 130 1 0 0 0 1 0 -0 0 1 63864.dat
1 71 20 -568 110 1 0 0 0 1 0 -0 0 1 3069b.dat
1 71 50 -568 90 1 0 0 0 1 0 -0 0 1 3070b.dat
1 71 70 -568 -180 0 0 1 0 1 0 -1 0 0 2431.dat
1 71 70 -568 -100 0 0 1 0 1 0 -1 0 0 2431.dat
1 71 70 -568 -20 0 0 1 0 1 0 -1 0 0 2431.dat
1 71 70 -568 40 0 0 1 0 1 0 -1 0 0 3069b.dat
1 71 -90 -576 -350 1 0 0 0 1 0 -0 0 1 3070b.dat
1 71 -70 -576 -300 0 0 1 0 1 0 -1 0 0 2431.dat
1 71 -70 -576 -220 0 0 1 0 1 0 -1 0 0 2431.dat
1 71 -70 -576 -140 0 0 1 0 1 0 -1 0 0 2431.dat
1 71 -70 -576 -70 0 0 1 0 1 0 -1 0 0 63864.dat
1 71 -70 -576 40 0 0 1 0 1 0 -1 0 0 3069b.dat
1 71 -50 -576 80 0 0 1 0 1 0 -1 0 0 3069b.dat
1 71 0 -576 90 1 0 0 0 1 0 -0 0 1 2431.dat
1 71 -10 -576 110 1 0 0 0 1 0 -0 0 1 3070b.dat
1 71 40 -576 70 1 0 0 0 1 0 -0 0 1 3069b.dat
1 71 50 -576 -280 0 0 1 0 1 0 -1 0 0 2431.dat
1 71 50 -576 -220 0 0 1 0 1 0 -1 0 0 3069b.dat
1 71 50 -576 50 1 0 0 0 1 0 -0 0 1 3070b.dat
1 71 70 -576 -350 1 0 0 0 1 0 -0 0 1 3070b.dat
1 71 -70 -584 -10 0 0 1 0 1 0 -1 0 0 63864.dat
1 71 -50 -584 -280 0 0 1 0 1 0 -1 0 0 2431.dat
1 71 -50 -584 -200 0 0 1 0 1 0 -1 0 0 2431.dat
1 71 -50 -584 -120 0 0 1 0 1 0 -1 0 0 2431.dat
1 71 -50 -584 -70 1 0 0 0 1 0 -0 0 1 3070b.dat
1 71 -50 -584 30 0 0 1 0 1 0 -1 0 0 63864.dat
1 71 -10 -584 60 1 0 0 0 1 0 -0 0 1 26603.dat
1 71 30 -584 -280 0 0 1 0 1 0 -1 0 0 2431.dat
1 71 30 -584 -220 0 0 1 0 1 0 -1 0 0 3069b.dat
1 71 40 -584 30 1 0 0 0 1 0 -0 0 1 3069b.dat
1 71 30 -584 50 1 0 0 0 1 0 -0 0 1 3070b.dat
1 71 50 -584 -330 1 0 0 0 1 0 -0 0 1 3070b.dat
1 71 50 -584 -40 0 0 1 0 1 0 -1 0 0 2431.dat
1 71 50 -584 10 1 0 0 0 1 0 -0 0 1 3070b.dat
1 71 -50 -592 -330 1 0 0 0 1 0 -0 0 1 3070b.dat
1 71 -20 -592 -40 1 0 0 0 1 0 -0 0 1 87079.dat
1 71 -20 -592 -10 1 0 0 0 1 0 -0 0 1 2431.dat
1 71 -20 -592 -280 0 0 1 0 1 0 -1 0 0 87079.dat
1 71 -20 -592 -200 0 0 1 0 1 0 -1 0 0 87079.dat
1 71 -20 -592 -120 0 0 1 0 1 0 -1 0 0 87079.dat
1 71 0 -592 -70 1 0 0 0 1 0 -0 0 1 2431.dat
1 71 -10 -592 20 1 0 0 0 1 0 -0 0 1 26603.dat
1 71 10 -592 -280 0 0 1 0 1 0 -1 0 0 2431.dat
1 71 10 -592 -200 0 0 1 0 1 0 -1 0 0 2431.dat
1 71 10 -592 -120 0 0 1 0 1 0 -1 0 0 2431.dat
1 71 30 -592 -20 0 0 1 0 1 0 -1 0 0 2431.dat
1 71 90 -592 -390 1 0 0 0 1 0 -0 0 1 3070b.dat
1 71 -90 -600 -370 1 0 0 0 1 0 -0 0 1 3070b.dat
1 71 -70 -600 -350 1 0 0 0 1 0 -0 0 1 3070b.dat
1 71 0 -600 -330 1 0 0 0 1 0 -0 0 1 2431.dat
1 71 50 -608 -350 1 0 0 0 1 0 -0 0 1 3070b.dat
1 71 -50 -616 -350 1 0 0 0 1 0 -0 0 1 3070b.dat
1 71 70 -616 -370 1 0 0 0 1 0 -0 0 1 3070b.dat
1 71 -30 -624 -350 1 0 0 0 1 0 -0 0 1 3070b.dat
1 71 30 -624 -350 1 0 0 0 1 0 -0 0 1 3070b.dat
1 71 0 -632 -350 1 0 0 0 1 0 -0 0 1 3069b.dat
1 71 50 -640 -610 1 0 0 0 1 0 -0 0 1 3070b.dat
1 71 110 -640 -510 1 0 0 0 1 0 -0 0 1 3070b.dat
1 71 -110 -648 -550 1 0 0 0 1 0 -0 0 1 3070b.dat
1 71 -70 -648 -370 1 0 0 0 1 0 -0 0 1 3070b.dat
1 71 -50 -648 -630 1 0 0 0 1 0 -0 0 1 3070b.dat
1 71 30 -648 -630 1 0 0 0 1 0 -0 0 1 3070b.dat
1 71 50 -648 -370 1 0 0 0 1 0 -0 0 1 3070b.dat
1 71 110 -648 -480 0 0 1 0 1 0 -1 0 0 3069b.dat
1 71 -50 -656 -610 1 0 0 0 1 0 -0 0 1 3070b.dat
1 71 -40 -664 -370 1 0 0 0 1 0 -0 0 1 3069b.dat
1 71 20 -664 -370 1 0 0 0 1 0 -0 0 1 3069b.dat
1 71 30 -664 -610 1 0 0 0 1 0 -0 0 1 3070b.dat
1 71 -110 -672 -410 1 0 0 0 1 0 -0 0 1 3070b.dat
1 71 -90 -672 -390 1 0 0 0 1 0 -0 0 1 3070b.dat
1 71 -10 -672 -630 1 0 0 0 1 0 -0 0 1 63864.dat
1 71 -10 -672 -370 1 0 0 0 1 0 -0 0 1 3070b.dat
1 71 70 -672 -390 1 0 0 0 1 0 -0 0 1 3070b.dat
1 71 90 -672 -550 1 0 0 0 1 0 -0 0 1 3070b.dat
1 71 -110 -680 -530 1 0 0 0 1 0 -0 0 1 3070b.dat
1 71 -10 -680 -610 1 0 0 0 1 0 -0 0 1 63864.dat
1 71 -110 -688 -510 1 0 0 0 1 0 -0 0 1 3070b.dat
1 71 -70 -688 -390 1 0 0 0 1 0 -0 0 1 3070b.dat
1 71 50 -688 -390 1 0 0 0 1 0 -0 0 1 3070b.dat
1 71 -110 -696 -480 0 0 1 0 1 0 -1 0 0 3069b.dat
1 71 -90 -696 -570 1 0 0 0 1 0 -0 0 1 3070b.dat
1 71 -20 -696 -390 1 0 0 0 1 0 -0 0 1 2431.dat
1 71 30 -696 -390 1 0 0 0 1 0 -0 0 1 3070b.dat
1 71 90 -696 -520 0 0 1 0 1 0 -1 0 0 3069b.dat
1 71 90 -696 -410 1 0 0 0 1 0 -0 0 1 3070b.dat
1 71 -80 -704 -410 1 0 0 0 1 0 -0 0 1 3069b.dat
1 71 -70 -704 -590 1 0 0 0 1 0 -0 0 1 3070b.dat
1 71 60 -704 -410 1 0 0 0 1 0 -0 0 1 3069b.dat
1 71 70 -704 -570 1 0 0 0 1 0 -0 0 1 3070b.dat
1 71 90 -704 -490 1 0 0 0 1 0 -0 0 1 3070b.dat
1 71 -90 -712 -550 1 0 0 0 1 0 -0 0 1 3070b.dat
1 71 -20 -712 -590 1 0 0 0 1 0 -0 0 1 2431.dat
1 71 -50 -712 -410 1 0 0 0 1 0 -0 0 1 3070b.dat
1 71 40 -712 -590 1 0 0 0 1 0 -0 0 1 3069b.dat
1 71 30 -712 -410 1 0 0 0 1 0 -0 0 1 3070b.dat
1 71 70 -712 -550 1 0 0 0 1 0 -0 0 1 3070b.dat
1 71 -90 -720 -530 1 0 0 0 1 0 -0 0 1 3070b.dat
1 71 -70 -720 -570 1 0 0 0 1 0 -0 0 1 3070b.dat
1 71 -10 -720 -410 1 0 0 0 1 0 -0 0 1 63864.dat
1 71 50 -720 -570 1 0 0 0 1 0 -0 0 1 3070b.dat
1 71 70 -720 -530 1 0 0 0 1 0 -0 0 1 3070b.dat
1 71 -70 -728 -550 1 0 0 0 1 0 -0 0 1 3070b.dat
1 71 -20 -728 -570 1 0 0 0 1 0 -0 0 1 2431.dat
1 71 30 -728 -570 1 0 0 0 1 0 -0 0 1 3070b.dat
1 71 50 -728 -550 1 0 0 0 1 0 -0 0 1 3070b.dat
1 71 -130 -736 -430 1 0 0 0 1 0 -0 0 1 3070b.dat
1 71 -70 -736 -530 1 0 0 0 1 0 -0 0 1 3070b.dat
1 71 -40 -736 -430 1 0 0 0 1 0 -0 0 1 2431.dat
1 71 -20 -736 -550 1 0 0 0 1 0 -0 0 1 2431.dat
1 71 30 -736 -430 1 0 0 0 1 0 -0 0 1 63864.dat
1 71 30 -736 -550 1 0 0 0 1 0 -0 0 1 3070b.dat
1 71 50 -736 -530 1 0 0 0 1 0 -0 0 1 3070b.dat
1 71 110 -736 -430 1 0 0 0 1 0 -0 0 1 3070b.dat
1 71 -100 -744 -430 1 0 0 0 1 0 -0 0 1 3069b.dat
1 71 -20 -744 -530 1 0 0 0 1 0 -0 0 1 2431.dat
1 71 -20 -744 -460 1 0 0 0 1 0 -0 0 1 87079.dat
1 71 30 -744 -530 1 0 0 0 1 0 -0 0 1 3070b.dat
1 71 30 -744 -460 0 0 1 0 1 0 -1 0 0 3069b.dat
1 71 80 -744 -430 1 0 0 0 1 0 -0 0 1 3069b.dat
1 71 -20 -752 -500 1 0 0 0 1 0 -0 0 1 87079.dat
1 71 30 -752 -500 0 0 1 0 1 0 -1 0 0 3069b.dat
1 71 -70 -760 -450 1 0 0 0 1 0 -0 0 1 3070b.dat
1 71 50 -760 -510 1 0 0 0 1 0 -0 0 1 3070b.dat
1 71 50 -760 -450 1 0 0 0 1 0 -0 0 1 3070b.dat
1 71 -80 -768 -510 1 0 0 0 1 0 -0 0 1 3069b.dat
1 71 -70 -768 -470 1 0 0 0 1 0 -0 0 1 3070b.dat
1 71 50 -768 -480 0 0 1 0 1 0 -1 0 0 3069b.dat
1 71 70 -768 -510 1 0 0 0 1 0 -0 0 1 3070b.dat
1 71 70 -768 -450 1 0 0 0 1 0 -0 0 1 3070b.dat
1 71 -110 -776 -450 1 0 0 0 1 0 -0 0 1 63864.dat
1 71 -70 -776 -490 1 0 0 0 1 0 -0 0 1 3070b.dat
1 71 100 -776 -450 1 0 0 0 1 0 -0 0 1 3069b.dat
1 71 70 -784 -480 0 0 1 0 1 0 -1 0 0 3069b.dat
1 71 -130 -792 -470 1 0 0 0 1 0 -0 0 1 3070b.dat
1 71 90 -792 -480 0 0 1 0 1 0 -1 0 0 3069b.dat
1 71 110 -792 -470 1 0 0 0 1 0 -0 0 1 3070b.dat
0 // exterior shell
1 71 -100 -24 -400 1 0 0 0 1 0 -0 0 1 3001.dat
1 71 -100 -24 -370 1 0 0 0 1 0 -0 0 1 3010.dat
1 71 -100 -24 80 1 0 0 0 1 0 -0 0 1 3001.dat
1 71 -100 -24 120 1 0 0 0 1 0 -0 0 1 3001.dat
1 71 -80 -24 -430 1 0 0 0 1 0 -0 0 1 3010.dat
1 71 -90 -24 50 1 0 0 0 1 0 -0 0 1 3005.dat
1 71 -50 -24 -400 0 0 1 0 1 0 -1 0 0 3004.dat
1 71 80 -24 -420 1 0 0 0 1 0 -0 0 1 3001.dat
1 71 80 -24 -380 1 0 0 0 1 0 -0 0 1 3001.dat
1 71 80 -24 80 1 0 0 0 1 0 -0 0 1 3001.dat
1 71 80 -24 110 1 0 0 0 1 0 -0 0 1 3010.dat
1 71 80 -24 50 1 0 0 0 1 0 -0 0 1 3004.dat
1 71 90 -24 130 1 0 0 0 1 0 -0 0 1 3622.dat
1 71 130 -24 90 1 0 0 0 1 0 -0 0 1 3005.dat
1 71 -100 -32 -350 1 0 0 0 1 0 -0 0 1 3010.dat
1 71 -110 -32 50 1 0 0 0 1 0 -0 0 1 3005.dat
1 71 -110 -32 150 1 0 0 0 1 0 -0 0 1 3005.dat
1 71 -90 -32 -450 1 0 0 0 1 0 -0 0 1 3005.dat
1 71 -70 -16 -450 1 0 0 0 1 0 -0 0 1 3024.dat
1 71 -70 -16 50 1 0 0 0 1 0 -0 0 1 3024.dat
1 71 -50 -32 -370 1 0 0 0 1 0 -0 0 1 3005.dat
1 71 -50 -16 100 0 0 1 0 1 0 -1 0 0 3710.dat
1 71 30 -16 -390 0 0 1 0 1 0 -1 0 0 3623.dat
1 71 80 -32 -350 1 0 0 0 1 0 -0 0 1 3010.dat
1 71 50 -32 130 1 0 0 0 1 0 -0 0 1 3005.dat
1 71 70 -32 -450 1 0 0 0 1 0 -0 0 1 3005.dat
1 71 100 -32 150 1 0 0 0 1 0 -0 0 1 3004.dat
1 71 130 -16 -400 0 0 1 0 1 0 -1 0 0 3023.dat
1 71 130 -32 110 1 0 0 0 1 0 -0 0 1 3005.dat
1 71 -130 -40 150 1 0 0 0 1 0 -0 0 1 3005.dat
1 71 -80 -40 150 1 0 0 0 1 0 -0 0 1 3004.dat
1 71 -70 -24 -450 1 0 0 0 1 0 -0 0 1 3024.dat
1 71 -70 -24 50 1 0 0 0 1 0 -0 0 1 3024.dat
1 71 -50 -40 -350 1 0 0 0 1 0 -0 0 1 3005.dat
1 71 -50 -24 100 0 0 1 0 1 0 -1 0 0 3710.dat
1 71 30 -24 -390 0 0 1 0 1 0 -1 0 0 3623.dat
1 71 60 -40 150 1 0 0 0 1 0 -0 0 1 3004.dat
1 71 130 -24 -400 0 0 1 0 1 0 -1 0 0 3023.dat
1 71 -130 -32 -390 0 0 1 0 1 0 -1 0 0 3623.dat
1 71 -130 -32 100 0 0 1 0 1 0 -1 0 0 3710.dat
1 71 -110 -48 -430 1 0 0 0 1 0 -0 0 1 3005.dat
1 71 -100 -48 -330 1 0 0 0 1 0 -0 0 1 3004.dat
1 71 -90 -32 50 1 0 0 0 1 0 -0 0 1 3024.dat
1 71 -70 -32 -430 1 0 0 0 1 0 -0 0 1 3024.dat
1 71 -70 -32 70 1 0 0 0 1 0 -0 0 1 3024.dat
1 71 -50 -32 -400 0 0 1 0 1 0 -1 0 0 3023.dat
1 71 -50 -32 110 0 0 1 0 1 0 -1 0 0 3623.dat
1 71 30 -32 -370 0 0 1 0 1 0 -1 0 0 3623.dat
1 71 50 -32 -420 0 0 1 0 1 0 -1 0 0 3023.dat
1 71 50 -32 90 0 0 1 0 1 0 -1 0 0 3623.dat
1 71 80 -48 -330 1 0 0 0 1 0 -0 0 1 3004.dat
1 71 80 -32 50 1 0 0 0 1 0 -0 0 1 3023.dat
1 71 90 -48 -430 1 0 0 0 1 0 -0 0 1 3005.dat
1 71 110 -32 -400 0 0 1 0 1 0 -1 0 0 3710.dat
1 71 110 -32 70 1 0 0 0 1 0 -0 0 1 3024.dat
1 71 110 -48 130 1 0 0 0 1 0 -0 0 1 3005.dat
1 71 130 -32 90 1 0 0 0 1 0 -0 0 1 3024.dat
1 71 -100 -40 -410 1 0 0 0 1 0 -0 0 1 3710.dat
1 71 -130 -40 -370 0 0 1 0 1 0 -1 0 0 3623.dat
1 71 -100 -40 90 1 0 0 0 1 0 -0 0 1 3710.dat
1 71 -130 -40 120 0 0 1 0 1 0 -1 0 0 3023.dat
1 71 -90 -40 70 1 0 0 0 1 0 -0 0 1 3623.dat
1 71 -110 -40 160 0 0 1 0 1 0 -1 0 0 3023.dat
1 71 -80 -40 -430 1 0 0 0 1 0 -0 0 1 3023.dat
1 71 -80 -56 170 1 0 0 0 1 0 -0 0 1 3004.dat
1 71 -70 -40 -340 0 0 1 0 1 0 -1 0 0 3023.dat
1 71 -70 -56 120 0 0 1 0 1 0 -1 0 0 3004.dat
1 71 -50 -40 -380 0 0 1 0 1 0 -1 0 0 3023.dat
1 71 30 -40 -370 1 0 0 0 1 0 -0 0 1 3024.dat
1 71 80 -40 -410 1 0 0 0 1 0 -0 0 1 3710.dat
1 71 50 -56 -390 1 0 0 0 1 0 -0 0 1 3005.dat
1 71 50 -56 -340 0 0 1 0 1 0 -1 0 0 3004.dat
1 71 80 -40 90 1 0 0 0 1 0 -0 0 1 3710.dat
1 71 50 -56 120 0 0 1 0 1 0 -1 0 0 3004.dat
1 71 70 -40 -430 1 0 0 0 1 0 -0 0 1 3024.dat
1 71 90 -40 70 1 0 0 0 1 0 -0 0 1 3623.dat
1 71 80 -56 170 1 0 0 0 1 0 -0 0 1 3004.dat
1 71 100 -40 150 1 0 0 0 1 0 -0 0 1 3023.dat
1 71 110 -40 -370 0 0 1 0 1 0 -1 0 0 3623.dat
1 71 110 -56 110 1 0 0 0 1 0 -0 0 1 3005.dat
1 71 -130 -64 -370 1 0 0 0 1 0 -0 0 1 3005.dat
1 71 -130 -48 -350 1 0 0 0 1 0 -0 0 1 3024.dat
1 71 -130 -48 130 0 0 1 0 1 0 -1 0 0 3623.dat
1 71 -90 -48 -410 1 0 0 0 1 0 -0 0 1 3623.dat
1 71 -110 -64 -390 1 0 0 0 1 0 -0 0 1 3005.dat
1 71 -100 -48 80 1 0 0 0 1 0 -0 0 1 3022.dat
1 71 -110 -64 170 1 0 0 0 1 0 -0 0 1 3005.dat
1 71 -90 -48 -430 1 0 0 0 1 0 -0 0 1 3024.dat
1 71 -70 -64 -390 1 0 0 0 1 0 -0 0 1 3005.dat
1 71 -70 -64 -330 1 0 0 0 1 0 -0 0 1 3005.dat
1 71 -70 -48 90 1 0 0 0 1 0 -0 0 1 3024.dat
1 71 -70 -64 150 1 0 0 0 1 0 -0 0 1 3005.dat
1 71 -50 -48 -360 0 0 1 0 1 0 -1 0 0 3023.dat
1 71 50 -64 -370 1 0 0 0 1 0 -0 0 1 3005.dat
1 71 50 -64 160 0 0 1 0 1 0 -1 0 0 3004.dat
1 71 70 -48 -420 0 0 1 0 1 0 -1 0 0 3023.dat
1 71 80 -48 80 1 0 0 0 1 0 -0 0 1 3022.dat
1 71 90 -48 -410 1 0 0 0 1 0 -0 0 1 3024.dat
1 71 110 -48 -370 0 0 1 0 1 0 -1 0 0 3623.dat
1 71 110 -48 90 1 0 0 0 1 0 -0 0 1 3024.dat
1 71 110 -64 150 1 0 0 0 1 0 -0 0 1 3005.dat
1 71 -130 -72 140 0 0 1 0 1 0 -1 0 0 3004.dat
1 71 -110 -72 -340 0 0 1 0 1 0 -1 0 0 3004.dat
1 71 -100 -72 110 1 0 0 0 1 0 -0 0 1 3004.dat
1 71 -90 -72 -390 1 0 0 0 1 0 -0 0 1 3005.dat
1 71 -90 -72 -330 1 0 0 0 1 0 -0 0 1 3005.dat
1 71 -70 -72 -360 0 0 1 0 1 0 -1 0 0 3004.dat
1 71 80 -72 -390 1 0 0 0 1 0 -0 0 1 3004.dat
1 71 80 -72 -330 1 0 0 0 1 0 -0 0 1 3004.dat
1 71 80 -72 110 1 0 0 0 1 0 -0 0 1 3004.dat
1 71 110 -72 -360 0 0 1 0 1 0 -1 0 0 3004.dat
1 71 110 -72 130 1 0 0 0 1 0 -0 0 1 3005.dat
1 71 -80 -80 170 1 0 0 0 1 0 -0 0 1 3004.dat
1 71 -70 -80 120 0 0 1 0 1 0 -1 0 0 3004.dat
1 71 50 -80 -390 1 0 0 0 1 0 -0 0 1 3005.dat
1 71 50 -80 -340 0 0 1 0 1 0 -1 0 0 3004.dat
1 71 50 -80 120 0 0 1 0 1 0 -1 0 0 3004.dat
1 71 80 -80 170 1 0 0 0 1 0 -0 0 1 3004.dat
1 71 -130 -88 -370 1 0 0 0 1 0 -0 0 1 3005.dat
1 71 -110 -88 -390 1 0 0 0 1 0 -0 0 1 3005.dat
1 71 -110 -88 170 1 0 0 0 1 0 -0 0 1 3005.dat
1 71 -70 -88 -390 1 0 0 0 1 0 -0 0 1 3005.dat
1 71 -70 -88 -330 1 0 0 0 1 0 -0 0 1 3005.dat
1 71 -70 -88 150 1 0 0 0 1 0 -0 0 1 3005.dat
1 71 50 -88 -370 1 0 0 0 1 0 -0 0 1 3005.dat
1 71 50 -88 160 0 0 1 0 1 0 -1 0 0 3004.dat
1 71 110 -88 150 1 0 0 0 1 0 -0 0 1 3005.dat
1 71 -110 -80 -340 0 0 1 0 1 0 -1 0 0 3023.dat
1 71 -110 -80 130 0 0 1 0 1 0 -1 0 0 3623.dat
1 71 -90 -96 -390 1 0 0 0 1 0 -0 0 1 3005.dat
1 71 -90 -96 -330 1 0 0 0 1 0 -0 0 1 3005.dat
1 71 -90 -96 110 1 0 0 0 1 0 -0 0 1 3005.dat
1 71 -70 -96 -360 0 0 1 0 1 0 -1 0 0 3004.dat
1 71 80 -96 -390 1 0 0 0 1 0 -0 0 1 3004.dat
1 71 80 -96 -330 1 0 0 0 1 0 -0 0 1 3004.dat
1 71 80 -96 110 1 0 0 0 1 0 -0 0 1 3004.dat
1 71 110 -96 -360 0 0 1 0 1 0 -1 0 0 3004.dat
1 71 110 -96 130 1 0 0 0 1 0 -0 0 1 3005.dat
1 71 -130 -104 -350 1 0 0 0 1 0 -0 0 1 3005.dat
1 71 -110 -88 -340 0 0 1 0 1 0 -1 0 0 3023.dat
1 71 -110 -104 140 0 0 1 0 1 0 -1 0 0 3004.dat
1 71 -80 -104 170 1 0 0 0 1 0 -0 0 1 3004.dat
1 71 -70 -88 120 0 0 1 0 1 0 -1 0 0 3023.dat
1 71 50 -104 -390 1 0 0 0 1 0 -0 0 1 3005.dat
1 71 50 -104 -340 0 0 1 0 1 0 -1 0 0 3004.dat
1 71 50 -104 130 1 0 0 0 1 0 -0 0 1 3005.dat
1 71 80 -104 170 1 0 0 0 1 0 -0 0 1 3004.dat
1 71 110 -104 -390 1 0 0 0 1 0 -0 0 1 3005.dat
1 71 -130 -96 -370 1 0 0 0 1 0 -0 0 1 3024.dat
1 71 -110 -112 -390 1 0 0 0 1 0 -0 0 1 3005.dat
1 71 -110 -112 -330 1 0 0 0 1 0 -0 0 1 3005.dat
1 71 -110 -112 170 1 0 0 0 1 0 -0 0 1 3005.dat
1 71 -70 -112 -390 1 0 0 0 1 0 -0 0 1 3005.dat
1 71 -70 -112 -330 1 0 0 0 1 0 -0 0 1 3005.dat
1 71 -70 -112 140 0 0 1 0 1 0 -1 0 0 3004.dat
1 71 50 -112 -370 1 0 0 0 1 0 -0 0 1 3005.dat
1 71 50 -112 160 0 0 1 0 1 0 -1 0 0 3004.dat
1 71 110 -112 150 1 0 0 0 1 0 -0 0 1 3005.dat
1 71 -130 -104 -370 1 0 0 0 1 0 -0 0 1 3024.dat
1 71 -90 -120 -390 1 0 0 0 1 0 -0 0 1 3005.dat
1 71 -90 -120 -330 1 0 0 0 1 0 -0 0 1 3005.dat
1 71 -90 -120 110 1 0 0 0 1 0 -0 0 1 3005.dat
1 71 -70 -104 -360 0 0 1 0 1 0 -1 0 0 3023.dat
1 71 -50 -120 -350 1 0 0 0 1 0 -0 0 1 3005.dat
1 71 80 -120 -390 1 0 0 0 1 0 -0 0 1 3004.dat
1 71 80 -120 -330 1 0 0 0 1 0 -0 0 1 3004.dat
1 71 80 -120 110 1 0 0 0 1 0 -0 0 1 3004.dat
1 71 110 -120 -360 0 0 1 0 1 0 -1 0 0 3004.dat
1 71 110 -120 130 1 0 0 0 1 0 -0 0 1 3005.dat
1 71 -110 -128 -360 0 0 1 0 1 0 -1 0 0 3004.dat
1 71 -110 -128 140 0 0 1 0 1 0 -1 0 0 3004.dat
1 71 -80 -128 170 1 0 0 0 1 0 -0 0 1 3004.dat
1 71 -60 -112 -370 1 0 0 0 1 0 -0 0 1 3023.dat
1 71 50 -128 -390 1 0 0 0 1 0 -0 0 1 3005.dat
1 71 50 -128 -340 0 0 1 0 1 0 -1 0 0 3004.dat
1 71 50 -128 130 1 0 0 0 1 0 -0 0 1 3005.dat
1 71 80 -128 170 1 0 0 0 1 0 -0 0 1 3004.dat
1 71 110 -128 -390 1 0 0 0 1 0 -0 0 1 3005.dat
1 71 -110 -136 -390 1 0 0 0 1 0 -0 0 1 3005.dat
1 71 -110 -136 -330 1 0 0 0 1 0 -0 0 1 3005.dat
1 71 -110 -136 170 1 0 0 0 1 0 -0 0 1 3005.dat
1 71 -70 -136 -390 1 0 0 0 1 0 -0 0 1 3005.dat
1 71 -70 -136 -330 1 0 0 0 1 0 -0 0 1 3005.dat
1 71 -70 -136 140 0 0 1 0 1 0 -1 0 0 3004.dat
1 71 -50 -136 -370 1 0 0 0 1 0 -0 0 1 3005.dat
1 71 50 -136 -370 1 0 0 0 1 0 -0 0 1 3005.dat
1 71 50 -136 160 0 0 1 0 1 0 -1 0 0 3004.dat
1 71 110 -136 150 1 0 0 0 1 0 -0 0 1 3005.dat
1 71 -90 -144 -390 1 0 0 0 1 0 -0 0 1 3005.dat
1 71 -90 -144 -330 1 0 0 0 1 0 -0 0 1 3005.dat
1 71 -90 -144 110 1 0 0 0 1 0 -0 0 1 3005.dat
1 71 -50 -144 -350 1 0 0 0 1 0 -0 0 1 3005.dat
1 71 80 -144 -390 1 0 0 0 1 0 -0 0 1 3004.dat
1 71 80 -144 -330 1 0 0 0 1 0 -0 0 1 3004.dat
1 71 80 -144 110 1 0 0 0 1 0 -0 0 1 3004.dat
1 71 110 -144 -360 0 0 1 0 1 0 -1 0 0 3004.dat
1 71 110 -144 130 1 0 0 0 1 0 -0 0 1 3005.dat
1 71 -110 -136 -360 0 0 1 0 1 0 -1 0 0 3023.dat
1 71 -110 -152 140 0 0 1 0 1 0 -1 0 0 3004.dat
1 71 -80 -136 170 1 0 0 0 1 0 -0 0 1 3023.dat
1 71 -70 -152 110 1 0 0 0 1 0 -0 0 1 3005.dat
1 71 50 -152 -390 1 0 0 0 1 0 -0 0 1 3005.dat
1 71 50 -152 -340 0 0 1 0 1 0 -1 0 0 3004.dat
1 71 50 -152 130 1 0 0 0 1 0 -0 0 1 3005.dat
1 71 80 -136 170 1 0 0 0 1 0 -0 0 1 3023.dat
1 71 110 -152 -390 1 0 0 0 1 0 -0 0 1 3005.dat
1 71 -130 -160 -370 1 0 0 0 1 0 -0 0 1 3005.dat
1 71 -110 -144 -360 0 0 1 0 1 0 -1 0 0 3710.dat
1 71 -110 -160 110 1 0 0 0 1 0 -0 0 1 3005.dat
1 71 -110 -160 170 1 0 0 0 1 0 -0 0 1 3005.dat
1 71 -80 -144 180 1 0 0 0 1 0 -0 0 1 3022.dat
1 71 -70 -160 -390 1 0 0 0 1 0 -0 0 1 3005.dat
1 71 -70 -160 -330 1 0 0 0 1 0 -0 0 1 3005.dat
1 71 -70 -160 140 0 0 1 0 1 0 -1 0 0 3004.dat
1 71 -50 -160 -370 1 0 0 0 1 0 -0 0 1 3005.dat
1 71 50 -144 -370 1 0 0 0 1 0 -0 0 1 3024.dat
1 71 50 -160 160 0 0 1 0 1 0 -1 0 0 3004.dat
1 71 80 -144 170 1 0 0 0 1 0 -0 0 1 3023.dat
1 71 70 -160 190 1 0 0 0 1 0 -0 0 1 3005.dat
1 71 110 -160 150 1 0 0 0 1 0 -0 0 1 3005.dat
1 71 -110 -168 -390 1 0 0 0 1 0 -0 0 1 3005.dat
1 71 -110 -168 -340 0 0 1 0 1 0 -1 0 0 3004.dat
1 71 -90 -152 -390 1 0 0 0 1 0 -0 0 1 3024.dat
1 71 -90 -168 -330 1 0 0 0 1 0 -0 0 1 3005.dat
1 71 -90 -168 110 1 0 0 0 1 0 -0 0 1 3005.dat
1 71 -80 -168 190 1 0 0 0 1 0 -0 0 1 3004.dat
1 71 -70 -168 170 1 0 0 0 1 0 -0 0 1 3005.dat
1 71 -50 -168 -390 1 0 0 0 1 0 -0 0 1 3005.dat
1 71 -50 -168 -350 1 0 0 0 1 0 -0 0 1 3005.dat
1 71 30 -168 -370 1 0 0 0 1 0 -0 0 1 3005.dat
1 71 50 -152 -370 1 0 0 0 1 0 -0 0 1 3024.dat
1 71 70 -168 110 1 0 0 0 1 0 -0 0 1 3622.dat
1 71 50 -168 190 1 0 0 0 1 0 -0 0 1 3005.dat
1 71 80 -152 -390 1 0 0 0 1 0 -0 0 1 3023.dat
1 71 80 -168 -330 1 0 0 0 1 0 -0 0 1 3004.dat
1 71 90 -168 170 1 0 0 0 1 0 -0 0 1 3005.dat
1 71 110 -168 -360 0 0 1 0 1 0 -1 0 0 3004.dat
1 71 110 -168 130 1 0 0 0 1 0 -0 0 1 3005.dat
1 71 -130 -176 -390 1 0 0 0 1 0 -0 0 1 3005.dat
1 71 -110 -176 140 0 0 1 0 1 0 -1 0 0 3004.dat
1 71 -80 -176 -410 1 0 0 0 1 0 -0 0 1 3004.dat
1 71 -90 -160 -390 1 0 0 0 1 0 -0 0 1 3024.dat
1 71 -70 -176 110 1 0 0 0 1 0 -0 0 1 3005.dat
1 71 30 -176 -350 1 0 0 0 1 0 -0 0 1 3005.dat
1 71 80 -160 -390 1 0 0 0 1 0 -0 0 1 3710.dat
1 71 50 -160 -340 0 0 1 0 1 0 -1 0 0 3023.dat
1 71 50 -176 130 1 0 0 0 1 0 -0 0 1 3005.dat
1 71 80 -176 -410 1 0 0 0 1 0 -0 0 1 3004.dat
1 71 90 -176 190 1 0 0 0 1 0 -0 0 1 3005.dat
1 71 -130 -184 -370 1 0 0 0 1 0 -0 0 1 3005.dat
1 71 -110 -184 -410 1 0 0 0 1 0 -0 0 1 3005.dat
1 71 -110 -184 110 1 0 0 0 1 0 -0 0 1 3005.dat
1 71 -110 -184 170 1 0 0 0 1 0 -0 0 1 3005.dat
1 71 -70 -184 -330 1 0 0 0 1 0 -0 0 1 3005.dat
1 71 -60 -168 140 1 0 0 0 1 0 -0 0 1 3022.dat
1 71 -50 -184 -370 1 0 0 0 1 0 -0 0 1 3005.dat
1 71 50 -184 -410 1 0 0 0 1 0 -0 0 1 3005.dat
1 71 50 -168 -390 1 0 0 0 1 0 -0 0 1 3024.dat
1 71 50 -184 -330 1 0 0 0 1 0 -0 0 1 3005.dat
1 71 50 -184 160 0 0 1 0 1 0 -1 0 0 3004.dat
1 71 70 -184 190 1 0 0 0 1 0 -0 0 1 3005.dat
1 71 110 -184 -390 1 0 0 0 1 0 -0 0 1 3005.dat
1 71 110 -168 150 1 0 0 0 1 0 -0 0 1 3024.dat
1 71 -130 -192 -350 1 0 0 0 1 0 -0 0 1 3005.dat
1 71 -110 -176 -340 0 0 1 0 1 0 -1 0 0 3023.dat
1 71 -90 -176 190 1 0 0 0 1 0 -0 0 1 3623.dat
1 71 -90 -192 -330 1 0 0 0 1 0 -0 0 1 3005.dat
1 71 -80 -192 90 1 0 0 0 1 0 -0 0 1 3004.dat
1 71 -90 -176 110 1 0 0 0 1 0 -0 0 1 3024.dat
1 71 -70 -192 170 1 0 0 0 1 0 -0 0 1 3005.dat
1 71 -50 -192 -390 1 0 0 0 1 0 -0 0 1 3005.dat
1 71 -50 -192 -350 1 0 0 0 1 0 -0 0 1 3005.dat
1 71 -50 -192 140 0 0 1 0 1 0 -1 0 0 3004.dat
1 71 30 -192 -380 0 0 1 0 1 0 -1 0 0 3004.dat
1 71 50 -176 -390 1 0 0 0 1 0 -0 0 1 3024.dat
1 71 70 -192 90 1 0 0 0 1 0 -0 0 1 3622.dat
1 71 50 -192 110 1 0 0 0 1 0 -0 0 1 3005.dat
1 71 50 -176 190 1 0 0 0 1 0 -0 0 1 3024.dat
1 71 80 -192 -330 1 0 0 0 1 0 -0 0 1 3004.dat
1 71 80 -176 110 1 0 0 0 1 0 -0 0 1 3023.dat
1 71 90 -192 160 0 0 1 0 1 0 -1 0 0 3004.dat
1 71 110 -192 -360 0 0 1 0 1 0 -1 0 0 3004.dat
1 71 110 -192 130 1 0 0 0 1 0 -0 0 1 3005.dat
1 71 -130 -200 -390 1 0 0 0 1 0 -0 0 1 3005.dat
1 71 -110 -200 -330 1 0 0 0 1 0 -0 0 1 3005.dat
1 71 -110 -200 90 1 0 0 0 1 0 -0 0 1 3005.dat
1 71 -110 -200 140 0 0 1 0 1 0 -1 0 0 3004.dat
1 71 -80 -200 -410 1 0 0 0 1 0 -0 0 1 3004.dat
1 71 -80 -184 190 1 0 0 0 1 0 -0 0 1 3023.dat
1 71 -60 -184 110 1 0 0 0 1 0 -0 0 1 3023.dat
1 71 30 -200 -350 1 0 0 0 1 0 -0 0 1 3005.dat
1 71 50 -184 130 1 0 0 0 1 0 -0 0 1 3024.dat
1 71 50 -184 190 1 0 0 0 1 0 -0 0 1 3024.dat
1 71 80 -200 -410 1 0 0 0 1 0 -0 0 1 3004.dat
1 71 100 -184 110 1 0 0 0 1 0 -0 0 1 3023.dat
1 71 90 -184 190 1 0 0 0 1 0 -0 0 1 3024.dat
1 71 -130 -208 -370 1 0 0 0 1 0 -0 0 1 3005.dat
1 71 -110 -208 -410 1 0 0 0 1 0 -0 0 1 3005.dat
1 71 -110 -208 110 1 0 0 0 1 0 -0 0 1 3005.dat
1 71 -110 -208 170 1 0 0 0 1 0 -0 0 1 3005.dat
1 71 -90 -192 190 1 0 0 0 1 0 -0 0 1 3024.dat
1 71 -70 -208 -330 1 0 0 0 1 0 -0 0 1 3005.dat
1 71 -50 -208 -370 1 0 0 0 1 0 -0 0 1 3005.dat
1 71 -50 -208 110 1 0 0 0 1 0 -0 0 1 3005.dat
1 71 30 -208 120 0 0 1 0 1 0 -1 0 0 3004.dat
1 71 50 -208 -410 1 0 0 0 1 0 -0 0 1 3005.dat
1 71 50 -208 -330 1 0 0 0 1 0 -0 0 1 3005.dat
1 71 50 -192 150 0 0 1 0 1 0 -1 0 0 3623.dat
1 71 70 -192 190 1 0 0 0 1 0 -0 0 1 3024.dat
1 71 110 -208 -390 1 0 0 0 1 0 -0 0 1 3005.dat
1 71 110 -208 110 1 0 0 0 1 0 -0 0 1 3005.dat
1 71 -130 -216 -350 1 0 0 0 1 0 -0 0 1 3005.dat
1 71 -90 -216 -330 1 0 0 0 1 0 -0 0 1 3005.dat
1 71 -80 -216 70 1 0 0 0 1 0 -0 0 1 3004.dat
1 71 -70 -200 90 1 0 0 0 1 0 -0 0 1 3623.dat
1 71 -80 -216 170 1 0 0 0 1 0 -0 0 1 3004.dat
1 71 -50 -216 -390 1 0 0 0 1 0 -0 0 1 3005.dat
1 71 -50 -216 -350 1 0 0 0 1 0 -0 0 1 3005.dat
1 71 -50 -216 140 0 0 1 0 1 0 -1 0 0 3004.dat
1 71 30 -216 -380 0 0 1 0 1 0 -1 0 0 3004.dat
1 71 60 -200 90 1 0 0 0 1 0 -0 0 1 3710.dat
1 71 70 -216 70 1 0 0 0 1 0 -0 0 1 3622.dat
1 71 50 -216 160 0 0 1 0 1 0 -1 0 0 3004.dat
1 71 80 -216 -330 1 0 0 0 1 0 -0 0 1 3004.dat
1 71 80 -216 170 1 0 0 0 1 0 -0 0 1 3004.dat
1 71 90 -216 150 1 0 0 0 1 0 -0 0 1 3005.dat
1 71 110 -216 -410 1 0 0 0 1 0 -0 0 1 3005.dat
1 71 110 -216 -360 0 0 1 0 1 0 -1 0 0 3004.dat
1 71 110 -216 130 1 0 0 0 1 0 -0 0 1 3005.dat
1 71 -130 -224 -390 1 0 0 0 1 0 -0 0 1 3005.dat
1 71 -110 -224 -330 1 0 0 0 1 0 -0 0 1 3005.dat
1 71 -110 -224 80 0 0 1 0 1 0 -1 0 0 3004.dat
1 71 -110 -224 140 0 0 1 0 1 0 -1 0 0 3004.dat
1 71 -80 -224 -410 1 0 0 0 1 0 -0 0 1 3004.dat
1 71 -50 -224 90 1 0 0 0 1 0 -0 0 1 3005.dat
1 71 30 -224 -350 1 0 0 0 1 0 -0 0 1 3005.dat
1 71 30 -224 90 1 0 0 0 1 0 -0 0 1 3005.dat
1 71 80 -224 -410 1 0 0 0 1 0 -0 0 1 3004.dat
1 71 90 -208 90 1 0 0 0 1 0 -0 0 1 3024.dat
1 71 -120 -232 -410 1 0 0 0 1 0 -0 0 1 3004.dat
1 71 -130 -232 -370 1 0 0 0 1 0 -0 0 1 3005.dat
1 71 -110 -232 110 1 0 0 0 1 0 -0 0 1 3005.dat
1 71 -70 -232 -330 1 0 0 0 1 0 -0 0 1 3005.dat
1 71 -50 -232 -370 1 0 0 0 1 0 -0 0 1 3005.dat
1 71 -50 -232 70 1 0 0 0 1 0 -0 0 1 3005.dat
1 71 -50 -232 110 1 0 0 0 1 0 -0 0 1 3005.dat
1 71 30 -232 70 1 0 0 0 1 0 -0 0 1 3005.dat
1 71 30 -232 120 0 0 1 0 1 0 -1 0 0 3004.dat
1 71 50 -232 -410 1 0 0 0 1 0 -0 0 1 3005.dat
1 71 50 -232 -330 1 0 0 0 1 0 -0 0 1 3005.dat
1 71 100 -216 90 1 0 0 0 1 0 -0 0 1 3023.dat
1 71 110 -232 -390 1 0 0 0 1 0 -0 0 1 3005.dat
1 71 110 -232 110 1 0 0 0 1 0 -0 0 1 3005.dat
1 71 -130 -240 -350 1 0 0 0 1 0 -0 0 1 3005.dat
1 71 -90 -240 -330 1 0 0 0 1 0 -0 0 1 3005.dat
1 71 -80 -240 50 1 0 0 0 1 0 -0 0 1 3004.dat
1 71 -80 -224 70 1 0 0 0 1 0 -0 0 1 3023.dat
1 71 -90 -224 170 1 0 0 0 1 0 -0 0 1 3024.dat
1 71 -60 -240 150 1 0 0 0 1 0 -0 0 1 3004.dat
1 71 -50 -240 -400 0 0 1 0 1 0 -1 0 0 3004.dat
1 71 -50 -240 -350 1 0 0 0 1 0 -0 0 1 3005.dat
1 71 -50 -240 130 1 0 0 0 1 0 -0 0 1 3005.dat
1 71 30 -240 -380 0 0 1 0 1 0 -1 0 0 3004.dat
1 71 60 -240 50 1 0 0 0 1 0 -0 0 1 3004.dat
1 71 70 -224 70 1 0 0 0 1 0 -0 0 1 3623.dat
1 71 50 -240 150 1 0 0 0 1 0 -0 0 1 3005.dat
1 71 80 -240 -330 1 0 0 0 1 0 -0 0 1 3004.dat
1 71 70 -224 170 1 0 0 0 1 0 -0 0 1 3024.dat
1 71 90 -240 150 1 0 0 0 1 0 -0 0 1 3005.dat
1 71 110 -240 -410 1 0 0 0 1 0 -0 0 1 3005.dat
1 71 110 -240 -360 0 0 1 0 1 0 -1 0 0 3004.dat
1 71 110 -240 90 1 0 0 0 1 0 -0 0 1 3005.dat
1 71 110 -240 130 1 0 0 0 1 0 -0 0 1 3005.dat
1 71 -130 -248 -390 1 0 0 0 1 0 -0 0 1 3005.dat
1 71 -110 -248 -330 1 0 0 0 1 0 -0 0 1 3005.dat
1 71 -110 -248 60 0 0 1 0 1 0 -1 0 0 3004.dat
1 71 -110 -232 90 1 0 0 0 1 0 -0 0 1 3024.dat
1 71 -110 -248 140 0 0 1 0 1 0 -1 0 0 3004.dat
1 71 -80 -248 -410 1 0 0 0 1 0 -0 0 1 3004.dat
1 71 -90 -248 150 1 0 0 0 1 0 -0 0 1 3005.dat
1 71 -50 -248 50 1 0 0 0 1 0 -0 0 1 3005.dat
1 71 -50 -248 90 1 0 0 0 1 0 -0 0 1 3005.dat
1 71 30 -248 -350 1 0 0 0 1 0 -0 0 1 3005.dat
1 71 30 -248 90 1 0 0 0 1 0 -0 0 1 3005.dat
1 71 80 -248 -410 1 0 0 0 1 0 -0 0 1 3004.dat
1 71 70 -248 150 1 0 0 0 1 0 -0 0 1 3005.dat
1 71 90 -248 50 1 0 0 0 1 0 -0 0 1 3005.dat
1 71 90 -232 70 1 0 0 0 1 0 -0 0 1 3024.dat
1 71 -120 -256 -410 1 0 0 0 1 0 -0 0 1 3004.dat
1 71 -130 -256 -370 1 0 0 0 1 0 -0 0 1 3005.dat
1 71 -130 -256 100 0 0 1 0 1 0 -1 0 0 3004.dat
1 71 -110 -240 100 0 0 1 0 1 0 -1 0 0 3023.dat
1 71 -70 -256 -330 1 0 0 0 1 0 -0 0 1 3005.dat
1 71 -50 -256 -370 1 0 0 0 1 0 -0 0 1 3005.dat
1 71 -50 -256 70 1 0 0 0 1 0 -0 0 1 3005.dat
1 71 -50 -256 110 1 0 0 0 1 0 -0 0 1 3005.dat
1 71 30 -256 60 0 0 1 0 1 0 -1 0 0 3004.dat
1 71 30 -256 120 0 0 1 0 1 0 -1 0 0 3004.dat
1 71 50 -256 -410 1 0 0 0 1 0 -0 0 1 3005.dat
1 71 50 -256 -330 1 0 0 0 1 0 -0 0 1 3005.dat
1 71 100 -240 70 1 0 0 0 1 0 -0 0 1 3023.dat
1 71 110 -256 -390 1 0 0 0 1 0 -0 0 1 3005.dat
1 71 110 -256 110 1 0 0 0 1 0 -0 0 1 3005.dat
1 71 -130 -264 -350 1 0 0 0 1 0 -0 0 1 3005.dat
1 71 -90 -264 -430 1 0 0 0 1 0 -0 0 1 3005.dat
1 71 -90 -264 -330 1 0 0 0 1 0 -0 0 1 3005.dat
1 71 -80 -264 30 1 0 0 0 1 0 -0 0 1 3004.dat
1 71 -80 -248 50 1 0 0 0 1 0 -0 0 1 3023.dat
1 71 -70 -264 150 1 0 0 0 1 0 -0 0 1 3005.dat
1 71 -50 -264 -400 0 0 1 0 1 0 -1 0 0 3004.dat
1 71 -50 -248 -350 1 0 0 0 1 0 -0 0 1 3024.dat
1 71 -50 -264 130 1 0 0 0 1 0 -0 0 1 3005.dat
1 71 30 -264 -390 1 0 0 0 1 0 -0 0 1 3005.dat
1 71 30 -248 -370 1 0 0 0 1 0 -0 0 1 3024.dat
1 71 60 -264 30 1 0 0 0 1 0 -0 0 1 3004.dat
1 71 60 -248 50 1 0 0 0 1 0 -0 0 1 3023.dat
1 71 50 -264 150 1 0 0 0 1 0 -0 0 1 3005.dat
1 71 80 -264 -430 1 0 0 0 1 0 -0 0 1 3004.dat
1 71 80 -264 -330 1 0 0 0 1 0 -0 0 1 3004.dat
1 71 90 -264 150 1 0 0 0 1 0 -0 0 1 3005.dat
1 71 110 -264 -410 1 0 0 0 1 0 -0 0 1 3005.dat
1 71 110 -264 -360 0 0 1 0 1 0 -1 0 0 3004.dat
1 71 110 -264 80 0 0 1 0 1 0 -1 0 0 3004.dat
1 71 110 -264 130 1 0 0 0 1 0 -0 0 1 3005.dat
1 71 -130 -272 -390 1 0 0 0 1 0 -0 0 1 3005.dat
1 71 -130 -272 70 1 0 0 0 1 0 -0 0 1 3005.dat
1 71 -110 -272 -430 1 0 0 0 1 0 -0 0 1 3005.dat
1 71 -110 -272 -330 1 0 0 0 1 0 -0 0 1 3005.dat
1 71 -110 -272 50 1 0 0 0 1 0 -0 0 1 3005.dat
1 71 -110 -256 70 1 0 0 0 1 0 -0 0 1 3024.dat
1 71 -110 -272 140 0 0 1 0 1 0 -1 0 0 3004.dat
1 71 -90 -272 150 1 0 0 0 1 0 -0 0 1 3005.dat
1 71 -70 -272 -430 1 0 0 0 1 0 -0 0 1 3005.dat
1 71 -70 -256 -410 1 0 0 0 1 0 -0 0 1 3024.dat
1 71 -20 -256 -340 1 0 0 0 1 0 -0 0 1 3020.dat
1 71 -50 -272 40 0 0 1 0 1 0 -1 0 0 3004.dat
1 71 -50 -272 90 1 0 0 0 1 0 -0 0 1 3005.dat
1 71 -10 -272 -370 1 0 0 0 1 0 -0 0 1 3622.dat
1 71 0 -272 -300 1 0 0 0 1 0 -0 0 1 3001.dat
1 71 0 -272 -260 1 0 0 0 1 0 -0 0 1 3001.dat
1 71 -20 -272 -220 1 0 0 0 1 0 -0 0 1 3003.dat
1 71 -10 -272 -190 1 0 0 0 1 0 -0 0 1 3622.dat
1 71 10 -272 -220 0 0 1 0 1 0 -1 0 0 3004.dat
1 71 30 -272 -410 1 0 0 0 1 0 -0 0 1 3005.dat
1 71 30 -256 -350 0 0 1 0 1 0 -1 0 0 3623.dat
1 71 30 -272 30 1 0 0 0 1 0 -0 0 1 3005.dat
1 71 30 -272 90 1 0 0 0 1 0 -0 0 1 3005.dat
1 71 70 -272 150 1 0 0 0 1 0 -0 0 1 3005.dat
1 71 90 -272 50 1 0 0 0 1 0 -0 0 1 3005.dat
1 71 -130 -280 -410 1 0 0 0 1 0 -0 0 1 3005.dat
1 71 -130 -280 -370 1 0 0 0 1 0 -0 0 1 3005.dat
1 71 -130 -280 100 0 0 1 0 1 0 -1 0 0 3004.dat
1 71 -70 -280 10 1 0 0 0 1 0 -0 0 1 3622.dat
1 71 -40 -264 -330 1 0 0 0 1 0 -0 0 1 3710.dat
1 71 -50 -280 -280 0 0 1 0 1 0 -1 0 0 3010.dat
1 71 -50 -280 -200 0 0 1 0 1 0 -1 0 0 3010.dat
1 71 -20 -280 -140 1 0 0 0 1 0 -0 0 1 3001.dat
1 71 -20 -280 -100 1 0 0 0 1 0 -0 0 1 3001.dat
1 71 -50 -264 70 1 0 0 0 1 0 -0 0 1 3024.dat
1 71 -50 -280 110 1 0 0 0 1 0 -0 0 1 3005.dat
1 71 -10 -280 -390 1 0 0 0 1 0 -0 0 1 3622.dat
1 71 -10 -264 -350 1 0 0 0 1 0 -0 0 1 3623.dat
1 71 0 -280 -170 1 0 0 0 1 0 -0 0 1 3010.dat
1 71 30 -264 -330 1 0 0 0 1 0 -0 0 1 3623.dat
1 71 30 -280 -210 0 0 1 0 1 0 -1 0 0 3622.dat
1 71 30 -280 -120 0 0 1 0 1 0 -1 0 0 3010.dat
1 71 50 -280 10 1 0 0 0 1 0 -0 0 1 3622.dat
1 71 30 -264 60 0 0 1 0 1 0 -1 0 0 3023.dat
1 71 30 -280 120 0 0 1 0 1 0 -1 0 0 3004.dat
1 71 50 -280 -430 1 0 0 0 1 0 -0 0 1 3005.dat
1 71 50 -264 -410 1 0 0 0 1 0 -0 0 1 3024.dat
1 71 50 -280 -280 0 0 1 0 1 0 -1 0 0 3010.dat
1 71 50 -280 -230 1 0 0 0 1 0 -0 0 1 3005.dat
1 71 90 -280 30 1 0 0 0 1 0 -0 0 1 3005.dat
1 71 110 -280 -390 1 0 0 0 1 0 -0 0 1 3005.dat
1 71 110 -280 110 1 0 0 0 1 0 -0 0 1 3005.dat
1 71 -130 -288 -350 1 0 0 0 1 0 -0 0 1 3005.dat
1 71 -110 -288 30 1 0 0 0 1 0 -0 0 1 3005.dat
1 71 -90 -288 -430 1 0 0 0 1 0 -0 0 1 3005.dat
1 71 -60 -272 -330 1 0 0 0 1 0 -0 0 1 3710.dat
1 71 -90 -272 30 1 0 0 0 1 0 -0 0 1 3024.dat
1 71 -70 -288 -280 0 0 1 0 1 0 -1 0 0 3010.dat
1 71 -70 -288 -200 0 0 1 0 1 0 -1 0 0 3010.dat
1 71 -70 -288 -120 0 0 1 0 1 0 -1 0 0 3010.dat
1 71 -40 -288 -60 1 0 0 0 1 0 -0 0 1 3001.dat
1 71 -60 -288 -20 1 0 0 0 1 0 -0 0 1 3003.dat
1 71 -70 -288 150 1 0 0 0 1 0 -0 0 1 3005.dat
1 71 -20 -272 -410 1 0 0 0 1 0 -0 0 1 3710.dat
1 71 -20 -272 70 1 0 0 0 1 0 -0 0 1 3710.dat
1 71 -50 -288 130 1 0 0 0 1 0 -0 0 1 3005.dat
1 71 -10 -272 -350 1 0 0 0 1 0 -0 0 1 3623.dat
1 71 -20 -288 40 1 0 0 0 1 0 -0 0 1 3003.dat
1 71 -10 -288 90 1 0 0 0 1 0 -0 0 1 3622.dat
1 71 10 -272 -330 1 0 0 0 1 0 -0 0 1 3623.dat
1 71 20 -288 -60 1 0 0 0 1 0 -0 0 1 3003.dat
1 71 10 -288 40 0 0 1 0 1 0 -1 0 0 3004.dat
1 71 40 -288 -20 1 0 0 0 1 0 -0 0 1 3003.dat
1 71 30 -272 60 0 0 1 0 1 0 -1 0 0 3023.dat
1 71 50 -288 -180 0 0 1 0 1 0 -1 0 0 3010.dat
1 71 50 -288 -100 0 0 1 0 1 0 -1 0 0 3010.dat
1 71 50 -288 -50 1 0 0 0 1 0 -0 0 1 3005.dat
1 71 50 -288 150 1 0 0 0 1 0 -0 0 1 3005.dat
1 71 80 -288 -430 1 0 0 0 1 0 -0 0 1 3004.dat
1 71 80 -272 -330 1 0 0 0 1 0 -0 0 1 3023.dat
1 71 90 -288 150 1 0 0 0 1 0 -0 0 1 3005.dat
1 71 110 -288 -410 1 0 0 0 1 0 -0 0 1 3005.dat
1 71 110 -288 -360 0 0 1 0 1 0 -1 0 0 3004.dat
1 71 110 -288 70 0 0 1 0 1 0 -1 0 0 3622.dat
1 71 110 -288 130 1 0 0 0 1 0 -0 0 1 3005.dat
1 71 -130 -296 -390 1 0 0 0 1 0 -0 0 1 3005.dat
1 71 -130 -296 70 1 0 0 0 1 0 -0 0 1 3005.dat
1 71 -110 -296 -430 1 0 0 0 1 0 -0 0 1 3005.dat
1 71 -110 -296 -330 1 0 0 0 1 0 -0 0 1 3005.dat
1 71 -110 -280 50 1 0 0 0 1 0 -0 0 1 3024.dat
1 71 -110 -296 140 0 0 1 0 1 0 -1 0 0 3004.dat
1 71 -90 -280 -330 1 0 0 0 1 0 -0 0 1 3024.dat
1 71 -90 -296 -10 1 0 0 0 1 0 -0 0 1 3005.dat
1 71 -90 -296 150 1 0 0 0 1 0 -0 0 1 3005.dat
1 71 -40 -280 -430 1 0 0 0 1 0 -0 0 1 3710.dat
1 71 -20 -280 -410 1 0 0 0 1 0 -0 0 1 3710.dat
1 71 -20 -296 -20 1 0 0 0 1 0 -0 0 1 3003.dat
1 71 -10 -296 10 1 0 0 0 1 0 -0 0 1 3622.dat
1 71 -10 -280 70 1 0 0 0 1 0 -0 0 1 3623.dat
1 71 20 -296 -430 1 0 0 0 1 0 -0 0 1 3004.dat
1 71 10 -296 -20 0 0 1 0 1 0 -1 0 0 3004.dat
1 71 30 -280 -410 1 0 0 0 1 0 -0 0 1 3024.dat
1 71 70 -280 -300 0 0 1 0 1 0 -1 0 0 3710.dat
1 71 70 -296 -240 0 0 1 0 1 0 -1 0 0 3004.dat
1 71 70 -296 -10 1 0 0 0 1 0 -0 0 1 3005.dat
1 71 70 -296 150 1 0 0 0 1 0 -0 0 1 3005.dat
1 71 90 -296 -330 1 0 0 0 1 0 -0 0 1 3005.dat
1 71 90 -296 10 1 0 0 0 1 0 -0 0 1 3005.dat
1 71 110 -296 -430 1 0 0 0 1 0 -0 0 1 3005.dat
1 71 -130 -304 -420 0 0 1 0 1 0 -1 0 0 3004.dat
1 71 -130 -304 -370 1 0 0 0 1 0 -0 0 1 3005.dat
1 71 -130 -304 50 1 0 0 0 1 0 -0 0 1 3005.dat
1 71 -130 -304 100 0 0 1 0 1 0 -1 0 0 3004.dat
1 71 -110 -304 10 1 0 0 0 1 0 -0 0 1 3005.dat
1 71 -110 -288 50 1 0 0 0 1 0 -0 0 1 3024.dat
1 71 -60 -304 -450 1 0 0 0 1 0 -0 0 1 3010.dat
1 71 -90 -288 -300 0 0 1 0 1 0 -1 0 0 3710.dat
1 71 -90 -304 -230 0 0 1 0 1 0 -1 0 0 3622.dat
1 71 -90 -304 -80 0 0 1 0 1 0 -1 0 0 3010.dat
1 71 -90 -304 -30 1 0 0 0 1 0 -0 0 1 3005.dat
1 71 -90 -288 10 1 0 0 0 1 0 -0 0 1 3024.dat
1 71 -40 -288 -430 1 0 0 0 1 0 -0 0 1 3710.dat
1 71 -20 -288 110 1 0 0 0 1 0 -0 0 1 3710.dat
1 71 -50 -304 150 1 0 0 0 1 0 -0 0 1 3005.dat
1 71 -10 -288 -410 1 0 0 0 1 0 -0 0 1 3623.dat
1 71 -10 -288 70 1 0 0 0 1 0 -0 0 1 3623.dat
1 71 20 -304 -450 1 0 0 0 1 0 -0 0 1 3010.dat
1 71 30 -288 120 0 0 1 0 1 0 -1 0 0 3023.dat
1 71 50 -288 -430 1 0 0 0 1 0 -0 0 1 3024.dat
1 71 80 -304 -450 1 0 0 0 1 0 -0 0 1 3004.dat
1 71 70 -304 -290 0 0 1 0 1 0 -1 0 0 3622.dat
1 71 70 -304 -180 0 0 1 0 1 0 -1 0 0 3010.dat
1 71 70 -304 -100 0 0 1 0 1 0 -1 0 0 3010.dat
1 71 70 -304 -40 0 0 1 0 1 0 -1 0 0 3004.dat
1 71 90 -304 30 1 0 0 0 1 0 -0 0 1 3005.dat
1 71 110 -304 -390 1 0 0 0 1 0 -0 0 1 3005.dat
1 71 110 -304 110 1 0 0 0 1 0 -0 0 1 3005.dat
1 71 -130 -312 -350 1 0 0 0 1 0 -0 0 1 3005.dat
1 71 -110 -312 -450 1 0 0 0 1 0 -0 0 1 3005.dat
1 71 -110 -312 30 1 0 0 0 1 0 -0 0 1 3005.dat
1 71 -90 -296 -290 0 0 1 0 1 0 -1 0 0 3623.dat
1 71 -90 -312 -160 0 0 1 0 1 0 -1 0 0 3010.dat
1 71 -40 -312 -470 1 0 0 0 1 0 -0 0 1 3010.dat
1 71 -70 -296 -160 0 0 1 0 1 0 -1 0 0 3710.dat
1 71 -70 -312 150 1 0 0 0 1 0 -0 0 1 3005.dat
1 71 -30 -296 -430 1 0 0 0 1 0 -0 0 1 3623.dat
1 71 -50 -312 130 1 0 0 0 1 0 -0 0 1 3005.dat
1 71 -10 -312 110 1 0 0 0 1 0 -0 0 1 3622.dat
1 71 30 -312 -470 1 0 0 0 1 0 -0 0 1 3622.dat
1 71 30 -312 130 1 0 0 0 1 0 -0 0 1 3005.dat
1 71 50 -312 150 1 0 0 0 1 0 -0 0 1 3005.dat
1 71 90 -312 -10 1 0 0 0 1 0 -0 0 1 3005.dat
1 71 90 -312 150 1 0 0 0 1 0 -0 0 1 3005.dat
1 71 110 -312 -410 1 0 0 0 1 0 -0 0 1 3005.dat
1 71 110 -312 -360 0 0 1 0 1 0 -1 0 0 3004.dat
1 71 110 -312 70 0 0 1 0 1 0 -1 0 0 3622.dat
1 71 110 -312 130 1 0 0 0 1 0 -0 0 1 3005.dat
1 71 -130 -320 -390 1 0 0 0 1 0 -0 0 1 3005.dat
1 71 -130 -320 70 1 0 0 0 1 0 -0 0 1 3005.dat
1 71 -110 -320 -320 0 0 1 0 1 0 -1 0 0 3004.dat
1 71 -110 -320 -10 1 0 0 0 1 0 -0 0 1 3005.dat
1 71 -110 -320 140 0 0 1 0 1 0 -1 0 0 3004.dat
1 71 -90 -320 -470 1 0 0 0 1 0 -0 0 1 3005.dat
1 71 -90 -304 -290 0 0 1 0 1 0 -1 0 0 3623.dat
1 71 -90 -304 -10 1 0 0 0 1 0 -0 0 1 3024.dat
1 71 -90 -320 150 1 0 0 0 1 0 -0 0 1 3005.dat
1 71 70 -320 -470 1 0 0 0 1 0 -0 0 1 3005.dat
1 71 70 -320 -240 0 0 1 0 1 0 -1 0 0 3004.dat
1 71 70 -320 150 1 0 0 0 1 0 -0 0 1 3005.dat
1 71 100 -304 -330 1 0 0 0 1 0 -0 0 1 3023.dat
1 71 90 -320 -310 1 0 0 0 1 0 -0 0 1 3005.dat
1 71 90 -320 -30 1 0 0 0 1 0 -0 0 1 3005.dat
1 71 90 -320 10 1 0 0 0 1 0 -0 0 1 3005.dat
1 71 110 -320 -430 1 0 0 0 1 0 -0 0 1 3005.dat
1 71 110 -320 30 1 0 0 0 1 0 -0 0 1 3005.dat
1 71 -130 -328 -420 0 0 1 0 1 0 -1 0 0 3004.dat
1 71 -130 -328 -370 1 0 0 0 1 0 -0 0 1 3005.dat
1 71 -130 -328 40 0 0 1 0 1 0 -1 0 0 3004.dat
1 71 -130 -328 100 0 0 1 0 1 0 -1 0 0 3004.dat
1 71 -110 -328 -30 1 0 0 0 1 0 -0 0 1 3005.dat
1 71 -110 -328 10 1 0 0 0 1 0 -0 0 1 3005.dat
1 71 -90 -328 -260 0 0 1 0 1 0 -1 0 0 3010.dat
1 71 -90 -328 -210 1 0 0 0 1 0 -0 0 1 3005.dat
1 71 -90 -328 -90 0 0 1 0 1 0 -1 0 0 3622.dat
1 71 -90 -312 -40 0 0 1 0 1 0 -1 0 0 3023.dat
1 71 -40 -328 -490 1 0 0 0 1 0 -0 0 1 3010.dat
1 71 -50 -328 150 1 0 0 0 1 0 -0 0 1 3005.dat
1 71 30 -328 -490 1 0 0 0 1 0 -0 0 1 3622.dat
1 71 30 -328 150 1 0 0 0 1 0 -0 0 1 3005.dat
1 71 80 -312 -280 1 0 0 0 1 0 -0 0 1 3022.dat
1 71 70 -312 -180 0 0 1 0 1 0 -1 0 0 3710.dat
1 71 70 -312 -100 0 0 1 0 1 0 -1 0 0 3710.dat
1 71 80 -312 -50 1 0 0 0 1 0 -0 0 1 3023.dat
1 71 90 -328 -470 1 0 0 0 1 0 -0 0 1 3005.dat
1 71 90 -312 -450 1 0 0 0 1 0 -0 0 1 3024.dat
1 71 90 -328 -70 1 0 0 0 1 0 -0 0 1 3005.dat
1 71 110 -328 -390 1 0 0 0 1 0 -0 0 1 3005.dat
1 71 110 -328 -330 1 0 0 0 1 0 -0 0 1 3005.dat
1 71 110 -328 110 1 0 0 0 1 0 -0 0 1 3005.dat
1 71 -130 -336 -350 1 0 0 0 1 0 -0 0 1 3005.dat
1 71 -110 -336 -460 0 0 1 0 1 0 -1 0 0 3004.dat
1 71 -110 -336 -50 1 0 0 0 1 0 -0 0 1 3005.dat
1 71 -90 -320 -160 0 0 1 0 1 0 -1 0 0 3710.dat
1 71 -90 -320 -50 1 0 0 0 1 0 -0 0 1 3024.dat
1 71 -70 -336 150 1 0 0 0 1 0 -0 0 1 3005.dat
1 71 -20 -320 130 1 0 0 0 1 0 -0 0 1 3710.dat
1 71 -10 -320 110 1 0 0 0 1 0 -0 0 1 3623.dat
1 71 30 -320 130 1 0 0 0 1 0 -0 0 1 3024.dat
1 71 50 -336 150 1 0 0 0 1 0 -0 0 1 3005.dat
1 71 70 -336 -490 1 0 0 0 1 0 -0 0 1 3005.dat
1 71 80 -320 -180 0 0 1 0 1 0 -1 0 0 3020.dat
1 71 80 -320 -110 0 0 1 0 1 0 -1 0 0 3021.dat
1 71 100 -320 -450 1 0 0 0 1 0 -0 0 1 3023.dat
1 71 90 -336 -260 0 0 1 0 1 0 -1 0 0 3010.dat
1 71 90 -336 -50 1 0 0 0 1 0 -0 0 1 3005.dat
1 71 90 -336 -10 1 0 0 0 1 0 -0 0 1 3005.dat
1 71 90 -336 150 1 0 0 0 1 0 -0 0 1 3005.dat
1 71 110 -336 -410 1 0 0 0 1 0 -0 0 1 3005.dat
1 71 110 -336 -360 0 0 1 0 1 0 -1 0 0 3004.dat
1 71 110 -336 70 0 0 1 0 1 0 -1 0 0 3622.dat
1 71 110 -336 130 1 0 0 0 1 0 -0 0 1 3005.dat
1 71 -130 -344 -390 1 0 0 0 1 0 -0 0 1 3005.dat
1 71 -130 -344 70 1 0 0 0 1 0 -0 0 1 3005.dat
1 71 -110 -344 -300 0 0 1 0 1 0 -1 0 0 3010.dat
1 71 -110 -344 -220 0 0 1 0 1 0 -1 0 0 3010.dat
1 71 -110 -344 -140 0 0 1 0 1 0 -1 0 0 3010.dat
1 71 -110 -344 -80 0 0 1 0 1 0 -1 0 0 3004.dat
1 71 -110 -344 -10 1 0 0 0 1 0 -0 0 1 3005.dat
1 71 -110 -344 140 0 0 1 0 1 0 -1 0 0 3004.dat
1 71 -90 -344 -490 1 0 0 0 1 0 -0 0 1 3005.dat
1 71 -90 -328 -470 1 0 0 0 1 0 -0 0 1 3024.dat
1 71 -90 -328 -160 0 0 1 0 1 0 -1 0 0 3710.dat
1 71 -90 -344 150 1 0 0 0 1 0 -0 0 1 3005.dat
1 71 -10 -344 -510 1 0 0 0 1 0 -0 0 1 3622.dat
1 71 -10 -344 130 1 0 0 0 1 0 -0 0 1 3622.dat
1 71 70 -344 150 1 0 0 0 1 0 -0 0 1 3005.dat
1 71 90 -344 -310 1 0 0 0 1 0 -0 0 1 3005.dat
1 71 90 -344 -180 0 0 1 0 1 0 -1 0 0 3010.dat
1 71 90 -344 -110 0 0 1 0 1 0 -1 0 0 3622.dat
1 71 90 -344 -30 1 0 0 0 1 0 -0 0 1 3005.dat
1 71 100 -328 10 1 0 0 0 1 0 -0 0 1 3023.dat
1 71 110 -344 -440 0 0 1 0 1 0 -1 0 0 3004.dat
1 71 110 -344 30 1 0 0 0 1 0 -0 0 1 3005.dat
1 71 -130 -352 -430 0 0 1 0 1 0 -1 0 0 3622.dat
1 71 -130 -352 -370 1 0 0 0 1 0 -0 0 1 3005.dat
1 71 -130 -352 40 0 0 1 0 1 0 -1 0 0 3004.dat
1 71 -130 -352 100 0 0 1 0 1 0 -1 0 0 3004.dat
1 71 -110 -352 -30 1 0 0 0 1 0 -0 0 1 3005.dat
1 71 -110 -336 10 1 0 0 0 1 0 -0 0 1 3024.dat
1 71 -60 -352 -510 1 0 0 0 1 0 -0 0 1 3004.dat
1 71 -60 -336 -490 1 0 0 0 1 0 -0 0 1 3023.dat
1 71 -50 -352 150 1 0 0 0 1 0 -0 0 1 3005.dat
1 71 40 -352 -510 1 0 0 0 1 0 -0 0 1 3004.dat
1 71 40 -336 -490 1 0 0 0 1 0 -0 0 1 3023.dat
1 71 30 -352 150 1 0 0 0 1 0 -0 0 1 3005.dat
1 71 90 -352 -470 1 0 0 0 1 0 -0 0 1 3005.dat
1 71 90 -352 -70 1 0 0 0 1 0 -0 0 1 3005.dat
1 71 110 -352 -390 1 0 0 0 1 0 -0 0 1 3005.dat
1 71 110 -352 -330 1 0 0 0 1 0 -0 0 1 3005.dat
1 71 110 -352 10 1 0 0 0 1 0 -0 0 1 3005.dat
1 71 110 -352 110 1 0 0 0 1 0 -0 0 1 3005.dat
1 71 -130 -360 -350 1 0 0 0 1 0 -0 0 1 3005.dat
1 71 -130 -360 10 1 0 0 0 1 0 -0 0 1 3005.dat
1 71 -110 -360 -470 1 0 0 0 1 0 -0 0 1 3005.dat
1 71 -110 -360 -50 1 0 0 0 1 0 -0 0 1 3005.dat
1 71 -110 -344 10 1 0 0 0 1 0 -0 0 1 3024.dat
1 71 -70 -360 150 1 0 0 0 1 0 -0 0 1 3005.dat
1 71 -10 -360 150 1 0 0 0 1 0 -0 0 1 3622.dat
1 71 50 -360 150 1 0 0 0 1 0 -0 0 1 3005.dat
1 71 70 -344 -490 1 0 0 0 1 0 -0 0 1 3024.dat
1 71 90 -360 -260 0 0 1 0 1 0 -1 0 0 3010.dat
1 71 90 -360 -50 1 0 0 0 1 0 -0 0 1 3005.dat
1 71 90 -344 -10 1 0 0 0 1 0 -0 0 1 3024.dat
1 71 90 -360 150 1 0 0 0 1 0 -0 0 1 3005.dat
1 71 110 -360 -410 1 0 0 0 1 0 -0 0 1 3005.dat
1 71 110 -360 -360 0 0 1 0 1 0 -1 0 0 3004.dat
1 71 110 -360 70 0 0 1 0 1 0 -1 0 0 3622.dat
1 71 110 -360 130 1 0 0 0 1 0 -0 0 1 3005.dat
1 71 -130 -368 -390 1 0 0 0 1 0 -0 0 1 3005.dat
1 71 -130 -368 70 1 0 0 0 1 0 -0 0 1 3005.dat
1 71 -110 -368 -300 0 0 1 0 1 0 -1 0 0 3010.dat
1 71 -110 -368 -220 0 0 1 0 1 0 -1 0 0 3010.dat
1 71 -110 -368 -140 0 0 1 0 1 0 -1 0 0 3010.dat
1 71 -110 -368 -80 0 0 1 0 1 0 -1 0 0 3004.dat
1 71 -110 -368 -10 1 0 0 0 1 0 -0 0 1 3005.dat
1 71 -110 -368 140 0 0 1 0 1 0 -1 0 0 3004.dat
1 71 -90 -352 -490 1 0 0 0 1 0 -0 0 1 3024.dat
1 71 -90 -368 150 1 0 0 0 1 0 -0 0 1 3005.dat
1 71 -10 -368 -530 1 0 0 0 1 0 -0 0 1 3622.dat
1 71 -10 -352 -510 1 0 0 0 1 0 -0 0 1 3623.dat
1 71 70 -368 -510 1 0 0 0 1 0 -0 0 1 3005.dat
1 71 80 -352 -490 1 0 0 0 1 0 -0 0 1 3023.dat
1 71 70 -368 150 1 0 0 0 1 0 -0 0 1 3005.dat
1 71 90 -368 -310 1 0 0 0 1 0 -0 0 1 3005.dat
1 71 90 -368 -180 0 0 1 0 1 0 -1 0 0 3010.dat
1 71 90 -368 -110 0 0 1 0 1 0 -1 0 0 3622.dat
1 71 90 -368 -30 1 0 0 0 1 0 -0 0 1 3005.dat
1 71 100 -352 -10 1 0 0 0 1 0 -0 0 1 3023.dat
1 71 110 -368 -440 0 0 1 0 1 0 -1 0 0 3004.dat
1 71 110 -368 30 1 0 0 0 1 0 -0 0 1 3005.dat
1 71 -130 -376 -430 0 0 1 0 1 0 -1 0 0 3622.dat
1 71 -130 -376 -370 1 0 0 0 1 0 -0 0 1 3005.dat
1 71 -130 -376 40 0 0 1 0 1 0 -1 0 0 3004.dat
1 71 -130 -376 100 0 0 1 0 1 0 -1 0 0 3004.dat
1 71 -110 -376 -490 1 0 0 0 1 0 -0 0 1 3005.dat
1 71 -110 -376 -30 1 0 0 0 1 0 -0 0 1 3005.dat
1 71 -80 -376 -510 1 0 0 0 1 0 -0 0 1 3004.dat
1 71 -90 -360 -490 1 0 0 0 1 0 -0 0 1 3024.dat
1 71 -50 -376 -530 1 0 0 0 1 0 -0 0 1 3005.dat
1 71 -50 -360 -510 1 0 0 0 1 0 -0 0 1 3024.dat
1 71 -50 -360 150 1 0 0 0 1 0 -0 0 1 3024.dat
1 71 30 -376 -530 1 0 0 0 1 0 -0 0 1 3005.dat
1 71 40 -360 -510 1 0 0 0 1 0 -0 0 1 3023.dat
1 71 30 -360 150 1 0 0 0 1 0 -0 0 1 3024.dat
1 71 90 -376 -490 1 0 0 0 1 0 -0 0 1 3005.dat
1 71 90 -360 -470 1 0 0 0 1 0 -0 0 1 3024.dat
1 71 90 -376 -70 1 0 0 0 1 0 -0 0 1 3005.dat
1 71 110 -376 -390 1 0 0 0 1 0 -0 0 1 3005.dat
1 71 110 -376 -330 1 0 0 0 1 0 -0 0 1 3005.dat
1 71 110 -376 0 0 0 1 0 1 0 -1 0 0 3004.dat
1 71 110 -376 110 1 0 0 0 1 0 -0 0 1 3005.dat
1 71 -130 -384 -350 1 0 0 0 1 0 -0 0 1 3005.dat
1 71 -130 -384 10 1 0 0 0 1 0 -0 0 1 3005.dat
1 71 -110 -384 -470 1 0 0 0 1 0 -0 0 1 3005.dat
1 71 -110 -384 -50 1 0 0 0 1 0 -0 0 1 3005.dat
1 71 -60 -368 160 1 0 0 0 1 0 -0 0 1 3022.dat
1 71 -10 -384 150 1 0 0 0 1 0 -0 0 1 3622.dat
1 71 40 -368 160 1 0 0 0 1 0 -0 0 1 3022.dat
1 71 50 -368 -510 1 0 0 0 1 0 -0 0 1 3024.dat
1 71 70 -384 170 1 0 0 0 1 0 -0 0 1 3005.dat
1 71 100 -368 -470 1 0 0 0 1 0 -0 0 1 3023.dat
1 71 90 -384 -260 0 0 1 0 1 0 -1 0 0 3010.dat
1 71 90 -384 -50 1 0 0 0 1 0 -0 0 1 3005.dat
1 71 90 -384 150 1 0 0 0 1 0 -0 0 1 3005.dat
1 71 110 -384 -410 1 0 0 0 1 0 -0 0 1 3005.dat
1 71 110 -384 -360 0 0 1 0 1 0 -1 0 0 3004.dat
1 71 110 -384 70 0 0 1 0 1 0 -1 0 0 3622.dat
1 71 110 -384 130 1 0 0 0 1 0 -0 0 1 3005.dat
1 71 -130 -392 -390 1 0 0 0 1 0 -0 0 1 3005.dat
1 71 -130 -392 70 1 0 0 0 1 0 -0 0 1 3005.dat
1 71 -110 -392 -300 0 0 1 0 1 0 -1 0 0 3010.dat
1 71 -110 -392 -220 0 0 1 0 1 0 -1 0 0 3010.dat
1 71 -110 -392 -140 0 0 1 0 1 0 -1 0 0 3010.dat
1 71 -110 -392 -80 0 0 1 0 1 0 -1 0 0 3004.dat
1 71 -110 -376 -10 1 0 0 0 1 0 -0 0 1 3024.dat
1 71 -110 -392 140 0 0 1 0 1 0 -1 0 0 3004.dat
1 71 -90 -376 160 0 0 1 0 1 0 -1 0 0 3023.dat
1 71 -60 -392 170 1 0 0 0 1 0 -0 0 1 3004.dat
1 71 -10 -392 -530 1 0 0 0 1 0 -0 0 1 3622.dat
1 71 40 -392 170 1 0 0 0 1 0 -0 0 1 3004.dat
1 71 50 -392 -530 1 0 0 0 1 0 -0 0 1 3005.dat
1 71 60 -376 -510 1 0 0 0 1 0 -0 0 1 3023.dat
1 71 90 -392 -310 1 0 0 0 1 0 -0 0 1 3005.dat
1 71 90 -392 -180 0 0 1 0 1 0 -1 0 0 3010.dat
1 71 90 -392 -110 0 0 1 0 1 0 -1 0 0 3622.dat
1 71 100 -376 -30 1 0 0 0 1 0 -0 0 1 3023.dat
1 71 110 -392 -450 0 0 1 0 1 0 -1 0 0 3622.dat
1 71 110 -392 30 1 0 0 0 1 0 -0 0 1 3005.dat
1 71 -130 -400 -430 0 0 1 0 1 0 -1 0 0 3622.dat
1 71 -130 -400 -370 1 0 0 0 1 0 -0 0 1 3005.dat
1 71 -130 -400 -10 1 0 0 0 1 0 -0 0 1 3005.dat
1 71 -130 -400 40 0 0 1 0 1 0 -1 0 0 3004.dat
1 71 -130 -400 100 0 0 1 0 1 0 -1 0 0 3004.dat
1 71 -110 -400 -490 1 0 0 0 1 0 -0 0 1 3005.dat
1 71 -110 -400 -30 1 0 0 0 1 0 -0 0 1 3005.dat
1 71 -110 -384 -10 1 0 0 0 1 0 -0 0 1 3024.dat
1 71 -90 -400 -510 1 0 0 0 1 0 -0 0 1 3005.dat
1 71 -90 -400 170 1 0 0 0 1 0 -0 0 1 3005.dat
1 71 -60 -400 -530 1 0 0 0 1 0 -0 0 1 3004.dat
1 71 -70 -384 -510 1 0 0 0 1 0 -0 0 1 3024.dat
1 71 -10 -400 170 1 0 0 0 1 0 -0 0 1 3622.dat
1 71 30 -400 -530 1 0 0 0 1 0 -0 0 1 3005.dat
1 71 70 -400 -510 1 0 0 0 1 0 -0 0 1 3005.dat
1 71 90 -400 -490 1 0 0 0 1 0 -0 0 1 3005.dat
1 71 90 -400 -70 1 0 0 0 1 0 -0 0 1 3005.dat
1 71 110 -400 -390 1 0 0 0 1 0 -0 0 1 3005.dat
1 71 110 -400 -330 1 0 0 0 1 0 -0 0 1 3005.dat
1 71 110 -400 -10 0 0 1 0 1 0 -1 0 0 3622.dat
1 71 110 -400 110 1 0 0 0 1 0 -0 0 1 3005.dat
1 71 -130 -408 -350 1 0 0 0 1 0 -0 0 1 3005.dat
1 71 -130 -408 10 1 0 0 0 1 0 -0 0 1 3005.dat
1 71 -110 -408 -470 1 0 0 0 1 0 -0 0 1 3005.dat
1 71 -110 -408 -50 1 0 0 0 1 0 -0 0 1 3005.dat
1 71 70 -408 170 1 0 0 0 1 0 -0 0 1 3005.dat
1 71 90 -408 -280 0 0 1 0 1 0 -1 0 0 3004.dat
1 71 90 -392 -240 0 0 1 0 1 0 -1 0 0 3023.dat
1 71 90 -392 -50 1 0 0 0 1 0 -0 0 1 3024.dat
1 71 90 -408 150 1 0 0 0 1 0 -0 0 1 3005.dat
1 71 110 -408 -410 1 0 0 0 1 0 -0 0 1 3005.dat
1 71 110 -408 -360 0 0 1 0 1 0 -1 0 0 3004.dat
1 71 110 -408 -210 0 0 1 0 1 0 -1 0 0 3622.dat
1 71 110 -408 70 0 0 1 0 1 0 -1 0 0 3622.dat
1 71 110 -408 130 1 0 0 0 1 0 -0 0 1 3005.dat
1 71 -130 -416 -390 1 0 0 0 1 0 -0 0 1 3005.dat
1 71 -130 -416 70 1 0 0 0 1 0 -0 0 1 3005.dat
1 71 -110 -416 -300 0 0 1 0 1 0 -1 0 0 3010.dat
1 71 -110 -416 -220 0 0 1 0 1 0 -1 0 0 3010.dat
1 71 -110 -416 -140 0 0 1 0 1 0 -1 0 0 3010.dat
1 71 -110 -416 -80 0 0 1 0 1 0 -1 0 0 3004.dat
1 71 -110 -416 140 0 0 1 0 1 0 -1 0 0 3004.dat
1 71 -60 -416 170 1 0 0 0 1 0 -0 0 1 3004.dat
1 71 -10 -400 -530 1 0 0 0 1 0 -0 0 1 3623.dat
1 71 40 -416 170 1 0 0 0 1 0 -0 0 1 3004.dat
1 71 50 -416 -530 1 0 0 0 1 0 -0 0 1 3005.dat
1 71 90 -416 -310 1 0 0 0 1 0 -0 0 1 3005.dat
1 71 100 -400 -250 1 0 0 0 1 0 -0 0 1 3023.dat
1 71 100 -400 -160 1 0 0 0 1 0 -0 0 1 3022.dat
1 71 90 -400 -110 0 0 1 0 1 0 -1 0 0 3623.dat
1 71 100 -400 -50 1 0 0 0 1 0 -0 0 1 3023.dat
1 71 110 -416 -450 0 0 1 0 1 0 -1 0 0 3622.dat
1 71 110 -416 30 1 0 0 0 1 0 -0 0 1 3005.dat
1 71 -130 -424 -430 0 0 1 0 1 0 -1 0 0 3622.dat
1 71 -130 -424 -370 1 0 0 0 1 0 -0 0 1 3005.dat
1 71 -130 -424 -10 1 0 0 0 1 0 -0 0 1 3005.dat
1 71 -130 -424 40 0 0 1 0 1 0 -1 0 0 3004.dat
1 71 -130 -424 100 0 0 1 0 1 0 -1 0 0 3004.dat
1 71 -110 -424 -490 1 0 0 0 1 0 -0 0 1 3005.dat
1 71 -110 -424 -30 1 0 0 0 1 0 -0 0 1 3005.dat
1 71 -90 -424 -510 1 0 0 0 1 0 -0 0 1 3005.dat
1 71 -90 -424 170 1 0 0 0 1 0 -0 0 1 3005.dat
1 71 -60 -424 -530 1 0 0 0 1 0 -0 0 1 3004.dat
1 71 -10 -424 -550 1 0 0 0 1 0 -0 0 1 3622.dat
1 71 0 -408 -530 1 0 0 0 1 0 -0 0 1 3710.dat
1 71 -10 -424 170 1 0 0 0 1 0 -0 0 1 3622.dat
1 71 70 -424 -510 1 0 0 0 1 0 -0 0 1 3005.dat
1 71 90 -424 -490 1 0 0 0 1 0 -0 0 1 3005.dat
1 71 100 -408 -100 0 0 1 0 1 0 -1 0 0 3020.dat
1 71 110 -424 -390 1 0 0 0 1 0 -0 0 1 3005.dat
1 71 110 -424 -330 1 0 0 0 1 0 -0 0 1 3005.dat
1 71 110 -424 -250 1 0 0 0 1 0 -0 0 1 3005.dat
1 71 110 -424 -160 0 0 1 0 1 0 -1 0 0 3004.dat
1 71 110 -424 -20 0 0 1 0 1 0 -1 0 0 3010.dat
1 71 110 -424 110 1 0 0 0 1 0 -0 0 1 3005.dat
1 71 -130 -432 -350 1 0 0 0 1 0 -0 0 1 3005.dat
1 71 -130 -432 10 1 0 0 0 1 0 -0 0 1 3005.dat
1 71 -110 -432 -470 1 0 0 0 1 0 -0 0 1 3005.dat
1 71 -110 -432 -50 1 0 0 0 1 0 -0 0 1 3005.dat
1 71 -10 -432 460 0 0 1 0 1 0 -1 0 0 3010.dat
1 71 0 -432 540 0 0 1 0 1 0 -1 0 0 3001.dat
1 71 0 -432 600 1 0 0 0 1 0 -0 0 1 3003.dat
1 71 -10 -432 630 1 0 0 0 1 0 -0 0 1 3005.dat
1 71 10 -432 480 0 0 1 0 1 0 -1 0 0 3004.dat
1 71 30 -432 -530 1 0 0 0 1 0 -0 0 1 3005.dat
1 71 70 -432 170 1 0 0 0 1 0 -0 0 1 3005.dat
1 71 90 -432 -280 0 0 1 0 1 0 -1 0 0 3004.dat
1 71 90 -432 150 1 0 0 0 1 0 -0 0 1 3005.dat
1 71 110 -432 -410 1 0 0 0 1 0 -0 0 1 3005.dat
1 71 110 -432 -360 0 0 1 0 1 0 -1 0 0 3004.dat
1 71 110 -432 -210 0 0 1 0 1 0 -1 0 0 3622.dat
1 71 110 -432 -100 0 0 1 0 1 0 -1 0 0 3010.dat
1 71 110 -432 70 0 0 1 0 1 0 -1 0 0 3622.dat
1 71 110 -432 130 1 0 0 0 1 0 -0 0 1 3005.dat
1 71 -130 -440 -390 1 0 0 0 1 0 -0 0 1 3005.dat
1 71 -130 -440 70 1 0 0 0 1 0 -0 0 1 3005.dat
1 71 -110 -440 -300 0 0 1 0 1 0 -1 0 0 3010.dat
1 71 -110 -440 -220 0 0 1 0 1 0 -1 0 0 3010.dat
1 71 -110 -440 -140 0 0 1 0 1 0 -1 0 0 3010.dat
1 71 -110 -440 -80 0 0 1 0 1 0 -1 0 0 3004.dat
1 71 -110 -440 140 0 0 1 0 1 0 -1 0 0 3004.dat
1 71 -60 -440 170 1 0 0 0 1 0 -0 0 1 3004.dat
1 71 -20 -440 400 1 0 0 0 1 0 -0 0 1 3003.dat
1 71 -30 -440 460 0 0 1 0 1 0 -1 0 0 3010.dat
1 71 -30 -440 540 0 0 1 0 1 0 -1 0 0 3010.dat
1 71 -30 -440 600 0 0 1 0 1 0 -1 0 0 3004.dat
1 71 -10 -440 360 0 0 1 0 1 0 -1 0 0 3004.dat
1 71 10 -440 400 0 0 1 0 1 0 -1 0 0 3010.dat
1 71 10 -440 450 1 0 0 0 1 0 -0 0 1 3005.dat
1 71 10 -440 630 1 0 0 0 1 0 -0 0 1 3005.dat
1 71 40 -440 170 1 0 0 0 1 0 -0 0 1 3004.dat
1 71 50 -440 -530 1 0 0 0 1 0 -0 0 1 3005.dat
1 71 90 -440 -310 1 0 0 0 1 0 -0 0 1 3005.dat
1 71 110 -424 -450 0 0 1 0 1 0 -1 0 0 3623.dat
1 71 110 -440 30 1 0 0 0 1 0 -0 0 1 3005.dat
1 71 -130 -432 -430 0 0 1 0 1 0 -1 0 0 3623.dat
1 71 -130 -448 -370 1 0 0 0 1 0 -0 0 1 3005.dat
1 71 -130 -448 -10 1 0 0 0 1 0 -0 0 1 3005.dat
1 71 -130 -448 40 0 0 1 0 1 0 -1 0 0 3004.dat
1 71 -130 -448 100 0 0 1 0 1 0 -1 0 0 3004.dat
1 71 -110 -448 -490 1 0 0 0 1 0 -0 0 1 3005.dat
1 71 -110 -448 -30 1 0 0 0 1 0 -0 0 1 3005.dat
1 71 -90 -448 -510 1 0 0 0 1 0 -0 0 1 3005.dat
1 71 -90 -448 170 1 0 0 0 1 0 -0 0 1 3005.dat
1 71 -60 -448 -530 1 0 0 0 1 0 -0 0 1 3004.dat
1 71 0 -448 -550 1 0 0 0 1 0 -0 0 1 3010.dat
1 71 -10 -448 170 1 0 0 0 1 0 -0 0 1 3622.dat
1 71 -10 -448 330 1 0 0 0 1 0 -0 0 1 3622.dat
1 71 -30 -448 360 0 0 1 0 1 0 -1 0 0 3004.dat
1 71 -30 -448 630 1 0 0 0 1 0 -0 0 1 3005.dat
1 71 0 -448 310 1 0 0 0 1 0 -0 0 1 3004.dat
1 71 10 -448 350 1 0 0 0 1 0 -0 0 1 3005.dat
1 71 70 -448 -510 1 0 0 0 1 0 -0 0 1 3005.dat
1 71 90 -448 -480 0 0 1 0 1 0 -1 0 0 3004.dat
1 71 110 -448 -440 0 0 1 0 1 0 -1 0 0 3004.dat
1 71 110 -448 -390 1 0 0 0 1 0 -0 0 1 3005.dat
1 71 110 -448 -330 1 0 0 0 1 0 -0 0 1 3005.dat
1 71 110 -432 -250 1 0 0 0 1 0 -0 0 1 3024.dat
1 71 110 -448 -160 0 0 1 0 1 0 -1 0 0 3004.dat
1 71 110 -448 -20 0 0 1 0 1 0 -1 0 0 3010.dat
1 71 110 -448 110 1 0 0 0 1 0 -0 0 1 3005.dat
1 71 -130 -440 -430 0 0 1 0 1 0 -1 0 0 3623.dat
1 71 -130 -456 -350 1 0 0 0 1 0 -0 0 1 3005.dat
1 71 -130 -456 10 1 0 0 0 1 0 -0 0 1 3005.dat
1 71 -110 -456 -470 1 0 0 0 1 0 -0 0 1 3005.dat
1 71 -110 -456 -50 1 0 0 0 1 0 -0 0 1 3005.dat
1 71 -20 -456 280 1 0 0 0 1 0 -0 0 1 3003.dat
1 71 -30 -456 310 1 0 0 0 1 0 -0 0 1 3005.dat
1 71 -10 -456 630 1 0 0 0 1 0 -0 0 1 3005.dat
1 71 10 -456 280 0 0 1 0 1 0 -1 0 0 3004.dat
1 71 10 -456 500 0 0 1 0 1 0 -1 0 0 3010.dat
1 71 10 -456 580 0 0 1 0 1 0 -1 0 0 3010.dat
1 71 70 -456 170 1 0 0 0 1 0 -0 0 1 3005.dat
1 71 90 -456 -270 0 0 1 0 1 0 -1 0 0 3622.dat
1 71 90 -456 150 1 0 0 0 1 0 -0 0 1 3005.dat
1 71 110 -456 -410 1 0 0 0 1 0 -0 0 1 3005.dat
1 71 110 -456 -360 0 0 1 0 1 0 -1 0 0 3004.dat
1 71 110 -440 -210 0 0 1 0 1 0 -1 0 0 3623.dat
1 71 110 -440 -100 0 0 1 0 1 0 -1 0 0 3710.dat
1 71 110 -456 70 0 0 1 0 1 0 -1 0 0 3622.dat
1 71 110 -440 130 1 0 0 0 1 0 -0 0 1 3024.dat
1 71 -130 -448 -410 0 0 1 0 1 0 -1 0 0 3623.dat
1 71 -130 -464 70 1 0 0 0 1 0 -0 0 1 3005.dat
1 71 -110 -464 -450 1 0 0 0 1 0 -0 0 1 3005.dat
1 71 -110 -464 -300 0 0 1 0 1 0 -1 0 0 3010.dat
1 71 -110 -464 -220 0 0 1 0 1 0 -1 0 0 3010.dat
1 71 -110 -464 -140 0 0 1 0 1 0 -1 0 0 3010.dat
1 71 -110 -464 -80 0 0 1 0 1 0 -1 0 0 3004.dat
1 71 -110 -464 140 0 0 1 0 1 0 -1 0 0 3004.dat
1 71 -60 -464 170 1 0 0 0 1 0 -0 0 1 3004.dat
1 71 -50 -464 -550 1 0 0 0 1 0 -0 0 1 3005.dat
1 71 -10 -464 250 1 0 0 0 1 0 -0 0 1 3622.dat
1 71 -30 -464 400 0 0 1 0 1 0 -1 0 0 3004.dat
1 71 -30 -448 460 0 0 1 0 1 0 -1 0 0 3710.dat
1 71 -30 -448 540 0 0 1 0 1 0 -1 0 0 3710.dat
1 71 -30 -448 600 0 0 1 0 1 0 -1 0 0 3023.dat
1 71 0 -464 200 1 0 0 0 1 0 -0 0 1 3003.dat
1 71 0 -464 230 1 0 0 0 1 0 -0 0 1 3004.dat
1 71 -10 -448 610 1 0 0 0 1 0 -0 0 1 3024.dat
1 71 10 -448 400 0 0 1 0 1 0 -1 0 0 3710.dat
1 71 10 -464 450 1 0 0 0 1 0 -0 0 1 3005.dat
1 71 10 -448 630 1 0 0 0 1 0 -0 0 1 3024.dat
1 71 40 -464 170 1 0 0 0 1 0 -0 0 1 3004.dat
1 71 30 -448 410 0 0 1 0 1 0 -1 0 0 3623.dat
1 71 50 -464 -530 1 0 0 0 1 0 -0 0 1 3005.dat
1 71 90 -464 -310 1 0 0 0 1 0 -0 0 1 3005.dat
1 71 90 -464 -230 1 0 0 0 1 0 -0 0 1 3005.dat
1 71 90 -464 130 1 0 0 0 1 0 -0 0 1 3005.dat
1 71 110 -448 -200 0 0 1 0 1 0 -1 0 0 3023.dat
1 71 110 -448 -100 0 0 1 0 1 0 -1 0 0 3710.dat
1 71 110 -464 30 1 0 0 0 1 0 -0 0 1 3005.dat
1 71 -130 -456 -400 0 0 1 0 1 0 -1 0 0 3710.dat
1 71 -130 -456 40 0 0 1 0 1 0 -1 0 0 3023.dat
1 71 -130 -456 90 1 0 0 0 1 0 -0 0 1 3024.dat
1 71 -110 -456 -490 1 0 0 0 1 0 -0 0 1 3024.dat
1 71 -110 -472 -20 0 0 1 0 1 0 -1 0 0 3004.dat
1 71 -110 -472 110 1 0 0 0 1 0 -0 0 1 3005.dat
1 71 -90 -472 -510 1 0 0 0 1 0 -0 0 1 3005.dat
1 71 -90 -456 170 1 0 0 0 1 0 -0 0 1 3024.dat
1 71 -70 -472 -530 1 0 0 0 1 0 -0 0 1 3005.dat
1 71 0 -472 -550 1 0 0 0 1 0 -0 0 1 3010.dat
1 71 -30 -456 200 0 0 1 0 1 0 -1 0 0 3710.dat
1 71 -30 -472 340 0 0 1 0 1 0 -1 0 0 3004.dat
1 71 -30 -456 370 1 0 0 0 1 0 -0 0 1 3024.dat
1 71 -30 -456 460 0 0 1 0 1 0 -1 0 0 3710.dat
1 71 -30 -456 510 1 0 0 0 1 0 -0 0 1 3024.dat
1 71 -20 -456 590 0 0 1 0 1 0 -1 0 0 3021.dat
1 71 20 -456 340 0 0 1 0 1 0 -1 0 0 3020.dat
1 71 10 -472 420 0 0 1 0 1 0 -1 0 0 3004.dat
1 71 30 -472 280 0 0 1 0 1 0 -1 0 0 3004.dat
1 71 30 -456 390 1 0 0 0 1 0 -0 0 1 3024.dat
1 71 70 -472 -510 1 0 0 0 1 0 -0 0 1 3005.dat
1 71 90 -472 -480 0 0 1 0 1 0 -1 0 0 3004.dat
1 71 90 -472 -180 0 0 1 0 1 0 -1 0 0 3010.dat
1 71 90 -472 -100 0 0 1 0 1 0 -1 0 0 3010.dat
1 71 110 -456 -440 0 0 1 0 1 0 -1 0 0 3023.dat
1 71 110 -472 -390 1 0 0 0 1 0 -0 0 1 3005.dat
1 71 110 -472 -330 1 0 0 0 1 0 -0 0 1 3005.dat
1 71 110 -456 -20 0 0 1 0 1 0 -1 0 0 3710.dat
1 71 110 -472 110 1 0 0 0 1 0 -0 0 1 3005.dat
1 71 -130 -464 -380 0 0 1 0 1 0 -1 0 0 3710.dat
1 71 -130 -464 40 0 0 1 0 1 0 -1 0 0 3023.dat
1 71 -130 -464 90 1 0 0 0 1 0 -0 0 1 3024.dat
1 71 -110 -464 -480 0 0 1 0 1 0 -1 0 0 3023.dat
1 71 -110 -480 -430 1 0 0 0 1 0 -0 0 1 3005.dat
1 71 -110 -480 -50 1 0 0 0 1 0 -0 0 1 3005.dat
1 71 -110 -480 10 1 0 0 0 1 0 -0 0 1 3005.dat
1 71 -90 -464 170 1 0 0 0 1 0 -0 0 1 3024.dat
1 71 -30 -464 210 0 0 1 0 1 0 -1 0 0 3623.dat
1 71 -30 -480 290 0 0 1 0 1 0 -1 0 0 3622.dat
1 71 -30 -464 370 1 0 0 0 1 0 -0 0 1 3024.dat
1 71 -30 -464 490 0 0 1 0 1 0 -1 0 0 3623.dat
1 71 0 -464 510 1 0 0 0 1 0 -0 0 1 3023.dat
1 71 0 -464 570 1 0 0 0 1 0 -0 0 1 3023.dat
1 71 -10 -464 590 1 0 0 0 1 0 -0 0 1 3024.dat
1 71 10 -480 380 0 0 1 0 1 0 -1 0 0 3004.dat
1 71 10 -464 540 0 0 1 0 1 0 -1 0 0 3023.dat
1 71 30 -480 220 0 0 1 0 1 0 -1 0 0 3010.dat
1 71 30 -464 330 0 0 1 0 1 0 -1 0 0 3623.dat
1 71 70 -464 170 1 0 0 0 1 0 -0 0 1 3024.dat
1 71 90 -480 -270 0 0 1 0 1 0 -1 0 0 3622.dat
1 71 90 -480 -50 1 0 0 0 1 0 -0 0 1 3005.dat
1 71 90 -480 150 1 0 0 0 1 0 -0 0 1 3005.dat
1 71 110 -464 -430 0 0 1 0 1 0 -1 0 0 3623.dat
1 71 110 -480 -360 0 0 1 0 1 0 -1 0 0 3004.dat
1 71 110 -464 -10 0 0 1 0 1 0 -1 0 0 3623.dat
1 71 110 -480 70 0 0 1 0 1 0 -1 0 0 3622.dat
1 71 -130 -472 -370 0 0 1 0 1 0 -1 0 0 3623.dat
1 71 -110 -488 -460 0 0 1 0 1 0 -1 0 0 3004.dat
1 71 -110 -488 -410 1 0 0 0 1 0 -0 0 1 3005.dat
1 71 -110 -488 -300 0 0 1 0 1 0 -1 0 0 3010.dat
1 71 -110 -488 -220 0 0 1 0 1 0 -1 0 0 3010.dat
1 71 -110 -488 -140 0 0 1 0 1 0 -1 0 0 3010.dat
1 71 -110 -488 -80 0 0 1 0 1 0 -1 0 0 3004.dat
1 71 -110 -488 60 0 0 1 0 1 0 -1 0 0 3010.dat
1 71 -110 -488 130 1 0 0 0 1 0 -0 0 1 3005.dat
1 71 -100 -472 150 1 0 0 0 1 0 -0 0 1 3023.dat
1 71 -90 -488 -490 1 0 0 0 1 0 -0 0 1 3005.dat
1 71 -70 -488 170 1 0 0 0 1 0 -0 0 1 3005.dat
1 71 -50 -488 -550 1 0 0 0 1 0 -0 0 1 3005.dat
1 71 -50 -472 200 0 0 1 0 1 0 -1 0 0 3710.dat
1 71 -40 -472 250 1 0 0 0 1 0 -0 0 1 3023.dat
1 71 -50 -472 270 1 0 0 0 1 0 -0 0 1 3024.dat
1 71 -30 -472 210 0 0 1 0 1 0 -1 0 0 3623.dat
1 71 -20 -472 410 1 0 0 0 1 0 -0 0 1 3023.dat
1 71 -30 -472 470 1 0 0 0 1 0 -0 0 1 3024.dat
1 71 -10 -472 510 1 0 0 0 1 0 -0 0 1 3024.dat
1 71 10 -472 350 1 0 0 0 1 0 -0 0 1 3024.dat
1 71 10 -472 450 1 0 0 0 1 0 -0 0 1 3024.dat
1 71 30 -472 320 0 0 1 0 1 0 -1 0 0 3023.dat
1 71 50 -488 -530 1 0 0 0 1 0 -0 0 1 3005.dat
1 71 50 -488 170 1 0 0 0 1 0 -0 0 1 3005.dat
1 71 70 -472 170 1 0 0 0 1 0 -0 0 1 3024.dat
1 71 90 -488 -450 1 0 0 0 1 0 -0 0 1 3005.dat
1 71 90 -488 -310 1 0 0 0 1 0 -0 0 1 3005.dat
1 71 90 -488 -230 1 0 0 0 1 0 -0 0 1 3005.dat
1 71 90 -488 130 1 0 0 0 1 0 -0 0 1 3005.dat
1 71 110 -472 -420 0 0 1 0 1 0 -1 0 0 3023.dat
1 71 110 -472 0 0 0 1 0 1 0 -1 0 0 3710.dat
1 71 -110 -496 -370 0 0 1 0 1 0 -1 0 0 3622.dat
1 71 -110 -496 -20 0 0 1 0 1 0 -1 0 0 3004.dat
1 71 -110 -496 110 1 0 0 0 1 0 -0 0 1 3005.dat
1 71 -90 -496 -510 1 0 0 0 1 0 -0 0 1 3005.dat
1 71 -90 -496 150 1 0 0 0 1 0 -0 0 1 3005.dat
1 71 -70 -496 -530 1 0 0 0 1 0 -0 0 1 3005.dat
1 71 -50 -496 210 0 0 1 0 1 0 -1 0 0 3622.dat
1 71 -50 -480 250 1 0 0 0 1 0 -0 0 1 3024.dat
1 71 0 -496 -550 1 0 0 0 1 0 -0 0 1 3010.dat
1 71 -30 -480 340 0 0 1 0 1 0 -1 0 0 3023.dat
1 71 0 -480 410 1 0 0 0 1 0 -0 0 1 3023.dat
1 71 10 -480 310 1 0 0 0 1 0 -0 0 1 3024.dat
1 71 30 -480 280 0 0 1 0 1 0 -1 0 0 3023.dat
1 71 70 -496 -510 1 0 0 0 1 0 -0 0 1 3005.dat
1 71 70 -496 150 1 0 0 0 1 0 -0 0 1 3005.dat
1 71 90 -496 -480 0 0 1 0 1 0 -1 0 0 3004.dat
1 71 90 -496 -430 1 0 0 0 1 0 -0 0 1 3005.dat
1 71 90 -496 -180 0 0 1 0 1 0 -1 0 0 3010.dat
1 71 90 -496 -100 0 0 1 0 1 0 -1 0 0 3010.dat
1 71 90 -496 -30 1 0 0 0 1 0 -0 0 1 3005.dat
1 71 90 -496 110 1 0 0 0 1 0 -0 0 1 3005.dat
1 71 110 -480 -400 0 0 1 0 1 0 -1 0 0 3023.dat
1 71 110 -480 -330 1 0 0 0 1 0 -0 0 1 3024.dat
1 71 110 -480 10 0 0 1 0 1 0 -1 0 0 3623.dat
1 71 -110 -504 -430 1 0 0 0 1 0 -0 0 1 3005.dat
1 71 -110 -504 -50 1 0 0 0 1 0 -0 0 1 3005.dat
1 71 -110 -504 10 1 0 0 0 1 0 -0 0 1 3005.dat
1 71 -30 -504 260 0 0 1 0 1 0 -1 0 0 3004.dat
1 71 -30 -488 310 0 0 1 0 1 0 -1 0 0 3623.dat
1 71 30 -504 210 0 0 1 0 1 0 -1 0 0 3622.dat
1 71 30 -488 260 0 0 1 0 1 0 -1 0 0 3023.dat
1 71 90 -504 -270 0 0 1 0 1 0 -1 0 0 3622.dat
1 71 90 -504 -50 1 0 0 0 1 0 -0 0 1 3005.dat
1 71 90 -504 10 0 0 1 0 1 0 -1 0 0 3622.dat
1 71 90 -504 90 1 0 0 0 1 0 -0 0 1 3005.dat
1 71 110 -488 -380 0 0 1 0 1 0 -1 0 0 3710.dat
1 71 110 -488 -330 1 0 0 0 1 0 -0 0 1 3024.dat
1 71 110 -488 60 0 0 1 0 1 0 -1 0 0 3023.dat
1 71 -110 -512 -460 0 0 1 0 1 0 -1 0 0 3004.dat
1 71 -110 -512 -410 1 0 0 0 1 0 -0 0 1 3005.dat
1 71 -110 -512 -300 0 0 1 0 1 0 -1 0 0 3010.dat
1 71 -110 -512 -220 0 0 1 0 1 0 -1 0 0 3010.dat
1 71 -110 -512 -140 0 0 1 0 1 0 -1 0 0 3010.dat
1 71 -110 -512 -80 0 0 1 0 1 0 -1 0 0 3004.dat
1 71 -110 -512 60 0 0 1 0 1 0 -1 0 0 3010.dat
1 71 -110 -496 130 1 0 0 0 1 0 -0 0 1 3024.dat
1 71 -90 -512 -490 1 0 0 0 1 0 -0 0 1 3005.dat
1 71 -70 -496 170 1 0 0 0 1 0 -0 0 1 3024.dat
1 71 -50 -512 -550 1 0 0 0 1 0 -0 0 1 3005.dat
1 71 -30 -496 290 1 0 0 0 1 0 -0 0 1 3024.dat
1 71 0 -496 270 1 0 0 0 1 0 -0 0 1 3023.dat
1 71 30 -496 250 1 0 0 0 1 0 -0 0 1 3024.dat
1 71 50 -512 -530 1 0 0 0 1 0 -0 0 1 3005.dat
1 71 50 -496 170 1 0 0 0 1 0 -0 0 1 3024.dat
1 71 90 -512 -450 1 0 0 0 1 0 -0 0 1 3005.dat
1 71 90 -512 -400 0 0 1 0 1 0 -1 0 0 3004.dat
1 71 90 -512 -320 0 0 1 0 1 0 -1 0 0 3004.dat
1 71 90 -512 -230 1 0 0 0 1 0 -0 0 1 3005.dat
1 71 90 -512 60 0 0 1 0 1 0 -1 0 0 3004.dat
1 71 90 -496 130 1 0 0 0 1 0 -0 0 1 3024.dat
1 71 110 -496 -360 0 0 1 0 1 0 -1 0 0 3023.dat
1 71 -110 -520 -370 0 0 1 0 1 0 -1 0 0 3622.dat
1 71 -110 -520 -20 0 0 1 0 1 0 -1 0 0 3004.dat
1 71 -110 -504 110 1 0 0 0 1 0 -0 0 1 3024.dat
1 71 -90 -520 -510 1 0 0 0 1 0 -0 0 1 3005.dat
1 71 -90 -520 130 1 0 0 0 1 0 -0 0 1 3005.dat
1 71 -80 -504 150 1 0 0 0 1 0 -0 0 1 3023.dat
1 71 -70 -520 -530 1 0 0 0 1 0 -0 0 1 3005.dat
1 71 -50 -520 180 0 0 1 0 1 0 -1 0 0 3004.dat
1 71 -50 -504 210 1 0 0 0 1 0 -0 0 1 3024.dat
1 71 0 -520 -550 1 0 0 0 1 0 -0 0 1 3010.dat
1 71 -30 -520 230 1 0 0 0 1 0 -0 0 1 3005.dat
1 71 0 -504 260 1 0 0 0 1 0 -0 0 1 3022.dat
1 71 50 -504 170 1 0 0 0 1 0 -0 0 1 3024.dat
1 71 70 -520 -510 1 0 0 0 1 0 -0 0 1 3005.dat
1 71 70 -504 150 1 0 0 0 1 0 -0 0 1 3024.dat
1 71 90 -520 -480 0 0 1 0 1 0 -1 0 0 3004.dat
1 71 90 -520 -430 1 0 0 0 1 0 -0 0 1 3005.dat
1 71 90 -520 -360 0 0 1 0 1 0 -1 0 0 3004.dat
1 71 90 -520 -180 0 0 1 0 1 0 -1 0 0 3010.dat
1 71 90 -520 -100 0 0 1 0 1 0 -1 0 0 3010.dat
1 71 90 -520 -30 1 0 0 0 1 0 -0 0 1 3005.dat
1 71 90 -520 110 1 0 0 0 1 0 -0 0 1 3005.dat
1 71 90 -504 130 1 0 0 0 1 0 -0 0 1 3024.dat
1 71 -110 -528 -430 1 0 0 0 1 0 -0 0 1 3005.dat
1 71 -110 -528 -50 1 0 0 0 1 0 -0 0 1 3005.dat
1 71 -110 -528 10 1 0 0 0 1 0 -0 0 1 3005.dat
1 71 -110 -512 110 1 0 0 0 1 0 -0 0 1 3024.dat
1 71 -70 -512 150 1 0 0 0 1 0 -0 0 1 3024.dat
1 71 -30 -512 210 1 0 0 0 1 0 -0 0 1 3024.dat
1 71 -10 -512 250 1 0 0 0 1 0 -0 0 1 3623.dat
1 71 0 -512 230 1 0 0 0 1 0 -0 0 1 3023.dat
1 71 30 -528 170 1 0 0 0 1 0 -0 0 1 3005.dat
1 71 30 -512 200 0 0 1 0 1 0 -1 0 0 3023.dat
1 71 50 -528 150 1 0 0 0 1 0 -0 0 1 3005.dat
1 71 70 -528 130 1 0 0 0 1 0 -0 0 1 3005.dat
1 71 90 -528 -270 0 0 1 0 1 0 -1 0 0 3622.dat
1 71 90 -528 -50 1 0 0 0 1 0 -0 0 1 3005.dat
1 71 90 -528 10 0 0 1 0 1 0 -1 0 0 3622.dat
1 71 90 -528 90 1 0 0 0 1 0 -0 0 1 3005.dat
1 71 -110 -536 -460 0 0 1 0 1 0 -1 0 0 3004.dat
1 71 -110 -536 -410 1 0 0 0 1 0 -0 0 1 3005.dat
1 71 -110 -520 -300 0 0 1 0 1 0 -1 0 0 3710.dat
1 71 -110 -520 -220 0 0 1 0 1 0 -1 0 0 3710.dat
1 71 -110 -520 -140 0 0 1 0 1 0 -1 0 0 3710.dat
1 71 -110 -520 -80 0 0 1 0 1 0 -1 0 0 3023.dat
1 71 -110 -520 60 0 0 1 0 1 0 -1 0 0 3710.dat
1 71 -90 -536 -490 1 0 0 0 1 0 -0 0 1 3005.dat
1 71 -90 -536 110 1 0 0 0 1 0 -0 0 1 3005.dat
1 71 -70 -520 150 1 0 0 0 1 0 -0 0 1 3024.dat
1 71 -50 -536 -550 1 0 0 0 1 0 -0 0 1 3005.dat
1 71 -10 -520 210 1 0 0 0 1 0 -0 0 1 3623.dat
1 71 0 -520 230 1 0 0 0 1 0 -0 0 1 3023.dat
1 71 30 -520 190 1 0 0 0 1 0 -0 0 1 3024.dat
1 71 50 -536 -530 1 0 0 0 1 0 -0 0 1 3005.dat
1 71 90 -536 -450 1 0 0 0 1 0 -0 0 1 3005.dat
1 71 90 -536 -400 0 0 1 0 1 0 -1 0 0 3004.dat
1 71 90 -536 -320 0 0 1 0 1 0 -1 0 0 3004.dat
1 71 90 -520 -230 1 0 0 0 1 0 -0 0 1 3024.dat
1 71 90 -536 50 1 0 0 0 1 0 -0 0 1 3005.dat
1 71 90 -520 70 1 0 0 0 1 0 -0 0 1 3024.dat
1 71 -110 -544 -380 0 0 1 0 1 0 -1 0 0 3004.dat
1 71 -110 -528 -320 0 0 1 0 1 0 -1 0 0 3710.dat
1 71 -110 -528 -160 0 0 1 0 1 0 -1 0 0 3710.dat
1 71 -110 -528 -90 0 0 1 0 1 0 -1 0 0 3623.dat
1 71 -110 -528 -20 0 0 1 0 1 0 -1 0 0 3023.dat
1 71 -110 -528 50 0 0 1 0 1 0 -1 0 0 3623.dat
1 71 -90 -544 -510 1 0 0 0 1 0 -0 0 1 3005.dat
1 71 -90 -544 -240 0 0 1 0 1 0 -1 0 0 3010.dat
1 71 -90 -544 90 1 0 0 0 1 0 -0 0 1 3005.dat
1 71 -70 -544 -530 1 0 0 0 1 0 -0 0 1 3005.dat
1 71 -70 -528 130 1 0 0 0 1 0 -0 0 1 3024.dat
1 71 -50 -544 150 1 0 0 0 1 0 -0 0 1 3005.dat
1 71 -50 -528 170 1 0 0 0 1 0 -0 0 1 3024.dat
1 71 0 -528 -550 1 0 0 0 1 0 -0 0 1 3710.dat
1 71 -10 -528 190 1 0 0 0 1 0 -0 0 1 3623.dat
1 71 0 -528 210 1 0 0 0 1 0 -0 0 1 3023.dat
1 71 70 -544 -510 1 0 0 0 1 0 -0 0 1 3005.dat
1 71 70 -528 110 1 0 0 0 1 0 -0 0 1 3024.dat
1 71 90 -544 -480 0 0 1 0 1 0 -1 0 0 3004.dat
1 71 90 -544 -430 1 0 0 0 1 0 -0 0 1 3005.dat
1 71 90 -544 -370 1 0 0 0 1 0 -0 0 1 3005.dat
1 71 90 -528 -350 1 0 0 0 1 0 -0 0 1 3024.dat
1 71 90 -528 -200 0 0 1 0 1 0 -1 0 0 3710.dat
1 71 90 -528 -120 0 0 1 0 1 0 -1 0 0 3710.dat
1 71 90 -528 -70 1 0 0 0 1 0 -0 0 1 3024.dat
1 71 90 -528 -30 1 0 0 0 1 0 -0 0 1 3024.dat
1 71 90 -528 70 1 0 0 0 1 0 -0 0 1 3024.dat
1 71 -110 -552 -430 1 0 0 0 1 0 -0 0 1 3005.dat
1 71 -90 -552 -320 0 0 1 0 1 0 -1 0 0 3010.dat
1 71 -90 -552 -160 0 0 1 0 1 0 -1 0 0 3010.dat
1 71 -90 -552 -80 0 0 1 0 1 0 -1 0 0 3010.dat
1 71 -90 -552 0 0 0 1 0 1 0 -1 0 0 3010.dat
1 71 -90 -552 60 0 0 1 0 1 0 -1 0 0 3004.dat
1 71 -70 -536 130 1 0 0 0 1 0 -0 0 1 3024.dat
1 71 0 -536 -550 1 0 0 0 1 0 -0 0 1 3710.dat
1 71 -10 -536 180 1 0 0 0 1 0 -0 0 1 3021.dat
1 71 0 -552 -570 1 0 0 0 1 0 -0 0 1 3004.dat
1 71 30 -536 160 0 0 1 0 1 0 -1 0 0 3023.dat
1 71 50 -552 -550 1 0 0 0 1 0 -0 0 1 3005.dat
1 71 50 -536 130 1 0 0 0 1 0 -0 0 1 3024.dat
1 71 70 -552 -530 1 0 0 0 1 0 -0 0 1 3005.dat
1 71 70 -552 -240 0 0 1 0 1 0 -1 0 0 3010.dat
1 71 70 -552 70 1 0 0 0 1 0 -0 0 1 3005.dat
1 71 70 -536 100 0 0 1 0 1 0 -1 0 0 3023.dat
1 71 90 -536 -350 1 0 0 0 1 0 -0 0 1 3024.dat
1 71 90 -536 -290 1 0 0 0 1 0 -0 0 1 3024.dat
1 71 90 -536 -160 0 0 1 0 1 0 -1 0 0 3710.dat
1 71 90 -536 -80 0 0 1 0 1 0 -1 0 0 3710.dat
1 71 90 -536 0 0 0 1 0 1 0 -1 0 0 3710.dat
1 71 -110 -560 -470 0 0 1 0 1 0 -1 0 0 3622.dat
1 71 -110 -560 -410 1 0 0 0 1 0 -0 0 1 3005.dat
1 71 -90 -560 -530 1 0 0 0 1 0 -0 0 1 3005.dat
1 71 -90 -544 -490 1 0 0 0 1 0 -0 0 1 3024.dat
1 71 -70 -560 -550 1 0 0 0 1 0 -0 0 1 3005.dat
1 71 -70 -544 110 1 0 0 0 1 0 -0 0 1 3024.dat
1 71 -40 -544 -550 1 0 0 0 1 0 -0 0 1 3023.dat
1 71 -50 -544 130 1 0 0 0 1 0 -0 0 1 3024.dat
1 71 -30 -560 -570 1 0 0 0 1 0 -0 0 1 3005.dat
1 71 -10 -544 160 1 0 0 0 1 0 -0 0 1 3021.dat
1 71 30 -560 -570 1 0 0 0 1 0 -0 0 1 3005.dat
1 71 30 -544 -550 1 0 0 0 1 0 -0 0 1 3024.dat
1 71 40 -544 130 1 0 0 0 1 0 -0 0 1 3023.dat
1 71 30 -544 150 1 0 0 0 1 0 -0 0 1 3024.dat
1 71 50 -544 110 1 0 0 0 1 0 -0 0 1 3024.dat
1 71 70 -544 -320 0 0 1 0 1 0 -1 0 0 3710.dat
1 71 70 -560 -160 0 0 1 0 1 0 -1 0 0 3010.dat
1 71 70 -560 -80 0 0 1 0 1 0 -1 0 0 3010.dat
1 71 70 -560 0 0 0 1 0 1 0 -1 0 0 3010.dat
1 71 70 -560 50 1 0 0 0 1 0 -0 0 1 3005.dat
1 71 70 -544 90 1 0 0 0 1 0 -0 0 1 3024.dat
1 71 90 -560 -450 1 0 0 0 1 0 -0 0 1 3005.dat
1 71 90 -560 -400 0 0 1 0 1 0 -1 0 0 3004.dat
1 71 -110 -552 -390 1 0 0 0 1 0 -0 0 1 3024.dat
1 71 -90 -568 -510 1 0 0 0 1 0 -0 0 1 3005.dat
1 71 -90 -568 -370 1 0 0 0 1 0 -0 0 1 3005.dat
1 71 -90 -552 -240 0 0 1 0 1 0 -1 0 0 3710.dat
1 71 -70 -552 90 0 0 1 0 1 0 -1 0 0 3623.dat
1 71 -50 -568 -570 1 0 0 0 1 0 -0 0 1 3005.dat
1 71 -50 -552 -550 1 0 0 0 1 0 -0 0 1 3024.dat
1 71 -40 -552 120 1 0 0 0 1 0 -0 0 1 3022.dat
1 71 -10 -552 150 1 0 0 0 1 0 -0 0 1 3623.dat
1 71 10 -552 130 1 0 0 0 1 0 -0 0 1 3623.dat
1 71 30 -552 110 1 0 0 0 1 0 -0 0 1 3623.dat
1 71 50 -552 90 1 0 0 0 1 0 -0 0 1 3024.dat
1 71 70 -552 -510 1 0 0 0 1 0 -0 0 1 3024.dat
1 71 70 -552 -320 0 0 1 0 1 0 -1 0 0 3710.dat
1 71 90 -568 -480 0 0 1 0 1 0 -1 0 0 3004.dat
1 71 90 -568 -430 1 0 0 0 1 0 -0 0 1 3005.dat
1 71 90 -552 -370 1 0 0 0 1 0 -0 0 1 3024.dat
1 71 -110 -576 -430 1 0 0 0 1 0 -0 0 1 3005.dat
1 71 -110 -560 -390 1 0 0 0 1 0 -0 0 1 3024.dat
1 71 -90 -560 -350 1 0 0 0 1 0 -0 0 1 3024.dat
1 71 -80 -560 -160 0 0 1 0 1 0 -1 0 0 3020.dat
1 71 -80 -560 -110 1 0 0 0 1 0 -0 0 1 3023.dat
1 71 -90 -560 0 0 0 1 0 1 0 -1 0 0 3710.dat
1 71 -70 -560 -300 0 0 1 0 1 0 -1 0 0 3710.dat
1 71 -70 -560 -230 0 0 1 0 1 0 -1 0 0 3623.dat
1 71 -70 -560 -70 0 0 1 0 1 0 -1 0 0 3623.dat
1 71 -70 -560 60 0 0 1 0 1 0 -1 0 0 3710.dat
1 71 -50 -560 90 0 0 1 0 1 0 -1 0 0 3623.dat
1 71 -10 -576 -590 1 0 0 0 1 0 -0 0 1 3622.dat
1 71 0 -560 100 1 0 0 0 1 0 -0 0 1 3020.dat
1 71 -10 -560 130 1 0 0 0 1 0 -0 0 1 3623.dat
1 71 0 -560 -570 1 0 0 0 1 0 -0 0 1 3023.dat
1 71 40 -560 70 1 0 0 0 1 0 -0 0 1 3023.dat
1 71 50 -576 -570 1 0 0 0 1 0 -0 0 1 3005.dat
1 71 60 -560 -550 1 0 0 0 1 0 -0 0 1 3023.dat
1 71 50 -560 -300 0 0 1 0 1 0 -1 0 0 3710.dat
1 71 50 -560 -230 0 0 1 0 1 0 -1 0 0 3623.dat
1 71 50 -560 50 1 0 0 0 1 0 -0 0 1 3024.dat
1 71 50 -560 90 1 0 0 0 1 0 -0 0 1 3024.dat
1 71 70 -576 -530 1 0 0 0 1 0 -0 0 1 3005.dat
1 71 80 -560 -510 1 0 0 0 1 0 -0 0 1 3023.dat
1 71 70 -576 -370 1 0 0 0 1 0 -0 0 1 3005.dat
1 71 70 -560 -350 1 0 0 0 1 0 -0 0 1 3024.dat
1 71 70 -560 -210 1 0 0 0 1 0 -0 0 1 3024.dat
1 71 -110 -584 -480 0 0 1 0 1 0 -1 0 0 3010.dat
1 71 -110 -584 -410 1 0 0 0 1 0 -0 0 1 3005.dat
1 71 -90 -584 -550 1 0 0 0 1 0 -0 0 1 3005.dat
1 71 -90 -568 -530 1 0 0 0 1 0 -0 0 1 3024.dat
1 71 -90 -584 -390 1 0 0 0 1 0 -0 0 1 3005.dat
1 71 -90 -568 -350 1 0 0 0 1 0 -0 0 1 3024.dat
1 71 -70 -584 -570 1 0 0 0 1 0 -0 0 1 3005.dat
1 71 -70 -568 -550 1 0 0 0 1 0 -0 0 1 3024.dat
1 71 -70 -568 -300 0 0 1 0 1 0 -1 0 0 3710.dat
1 71 -60 -568 -220 0 0 1 0 1 0 -1 0 0 3020.dat
1 71 -60 -568 -140 0 0 1 0 1 0 -1 0 0 3020.dat
1 71 -60 -568 -80 1 0 0 0 1 0 -0 0 1 3022.dat
1 71 -70 -568 -20 0 0 1 0 1 0 -1 0 0 3710.dat
1 71 -60 -568 40 1 0 0 0 1 0 -0 0 1 3022.dat
1 71 -50 -584 -590 1 0 0 0 1 0 -0 0 1 3005.dat
1 71 -50 -568 -290 0 0 1 0 1 0 -1 0 0 3623.dat
1 71 -50 -568 10 1 0 0 0 1 0 -0 0 1 3024.dat
1 71 -20 -568 80 1 0 0 0 1 0 -0 0 1 3020.dat
1 71 0 -568 50 1 0 0 0 1 0 -0 0 1 3710.dat
1 71 -10 -584 -610 1 0 0 0 1 0 -0 0 1 3005.dat
1 71 -10 -568 110 1 0 0 0 1 0 -0 0 1 3024.dat
1 71 30 -584 -590 1 0 0 0 1 0 -0 0 1 3005.dat
1 71 30 -568 -570 1 0 0 0 1 0 -0 0 1 3024.dat
1 71 40 -568 -280 0 0 1 0 1 0 -1 0 0 3020.dat
1 71 40 -568 -220 1 0 0 0 1 0 -0 0 1 3022.dat
1 71 40 -568 30 1 0 0 0 1 0 -0 0 1 3023.dat
1 71 40 -568 70 1 0 0 0 1 0 -0 0 1 3023.dat
1 71 30 -568 90 1 0 0 0 1 0 -0 0 1 3024.dat
1 71 50 -568 -330 1 0 0 0 1 0 -0 0 1 3024.dat
1 71 50 -568 -40 0 0 1 0 1 0 -1 0 0 3710.dat
1 71 50 -568 10 1 0 0 0 1 0 -0 0 1 3024.dat
1 71 50 -568 50 1 0 0 0 1 0 -0 0 1 3024.dat
1 71 70 -584 -550 1 0 0 0 1 0 -0 0 1 3005.dat
1 71 70 -568 -350 1 0 0 0 1 0 -0 0 1 3024.dat
1 71 90 -584 -510 1 0 0 0 1 0 -0 0 1 3005.dat
1 71 90 -584 -450 1 0 0 0 1 0 -0 0 1 3005.dat
1 71 90 -584 -400 0 0 1 0 1 0 -1 0 0 3004.dat
1 71 -110 -592 -530 1 0 0 0 1 0 -0 0 1 3005.dat
1 71 -90 -576 -530 1 0 0 0 1 0 -0 0 1 3024.dat
1 71 -90 -592 -370 1 0 0 0 1 0 -0 0 1 3005.dat
1 71 -70 -592 -350 1 0 0 0 1 0 -0 0 1 3005.dat
1 71 -40 -576 -20 1 0 0 0 1 0 -0 0 1 3020.dat
1 71 -40 -576 10 1 0 0 0 1 0 -0 0 1 3710.dat
1 71 -50 -576 -300 0 0 1 0 1 0 -1 0 0 3710.dat
1 71 -20 -576 -240 1 0 0 0 1 0 -0 0 1 3020.dat
1 71 -20 -576 -200 1 0 0 0 1 0 -0 0 1 3020.dat
1 71 -20 -576 -160 1 0 0 0 1 0 -0 0 1 3020.dat
1 71 -20 -576 -120 1 0 0 0 1 0 -0 0 1 3020.dat
1 71 -20 -576 -80 1 0 0 0 1 0 -0 0 1 3020.dat
1 71 -20 -576 -50 1 0 0 0 1 0 -0 0 1 3710.dat
1 71 -20 -576 40 1 0 0 0 1 0 -0 0 1 3020.dat
1 71 -30 -592 -610 1 0 0 0 1 0 -0 0 1 3005.dat
1 71 0 -576 -300 1 0 0 0 1 0 -0 0 1 3020.dat
1 71 0 -576 -270 1 0 0 0 1 0 -0 0 1 3710.dat
1 71 -10 -576 70 1 0 0 0 1 0 -0 0 1 3623.dat
1 71 10 -592 -610 1 0 0 0 1 0 -0 0 1 3005.dat
1 71 30 -576 -20 1 0 0 0 1 0 -0 0 1 3021.dat
1 71 30 -576 10 1 0 0 0 1 0 -0 0 1 3623.dat
1 71 30 -576 -230 0 0 1 0 1 0 -1 0 0 3623.dat
1 71 40 -576 -60 1 0 0 0 1 0 -0 0 1 3022.dat
1 71 40 -576 30 1 0 0 0 1 0 -0 0 1 3023.dat
1 71 30 -576 50 1 0 0 0 1 0 -0 0 1 3024.dat
1 71 50 -592 -350 1 0 0 0 1 0 -0 0 1 3005.dat
1 71 50 -576 -330 1 0 0 0 1 0 -0 0 1 3024.dat
1 71 90 -592 -530 1 0 0 0 1 0 -0 0 1 3005.dat
1 71 90 -592 -480 0 0 1 0 1 0 -1 0 0 3004.dat
1 71 90 -592 -430 1 0 0 0 1 0 -0 0 1 3005.dat
1 71 -110 -600 -430 1 0 0 0 1 0 -0 0 1 3005.dat
1 71 -20 -584 -330 1 0 0 0 1 0 -0 0 1 3710.dat
1 71 -20 -584 -40 1 0 0 0 1 0 -0 0 1 3020.dat
1 71 -20 -584 -10 1 0 0 0 1 0 -0 0 1 3710.dat
1 71 -10 -600 -630 1 0 0 0 1 0 -0 0 1 3622.dat
1 71 -20 -584 -280 0 0 1 0 1 0 -1 0 0 3020.dat
1 71 -20 -584 -200 0 0 1 0 1 0 -1 0 0 3020.dat
1 71 -20 -584 -120 0 0 1 0 1 0 -1 0 0 3020.dat
1 71 0 -584 -70 1 0 0 0 1 0 -0 0 1 3710.dat
1 71 -10 -584 20 1 0 0 0 1 0 -0 0 1 3021.dat
1 71 10 -584 -280 0 0 1 0 1 0 -1 0 0 3710.dat
1 71 10 -584 -200 0 0 1 0 1 0 -1 0 0 3710.dat
1 71 10 -584 -120 0 0 1 0 1 0 -1 0 0 3710.dat
1 71 30 -600 -610 1 0 0 0 1 0 -0 0 1 3005.dat
1 71 30 -584 -330 1 0 0 0 1 0 -0 0 1 3024.dat
1 71 30 -584 -20 0 0 1 0 1 0 -1 0 0 3710.dat
1 71 60 -584 -570 1 0 0 0 1 0 -0 0 1 3023.dat
1 71 70 -600 -370 1 0 0 0 1 0 -0 0 1 3005.dat
1 71 -110 -608 -480 0 0 1 0 1 0 -1 0 0 3010.dat
1 71 -110 -608 -410 1 0 0 0 1 0 -0 0 1 3005.dat
1 71 -90 -608 -560 0 0 1 0 1 0 -1 0 0 3004.dat
1 71 -90 -608 -390 1 0 0 0 1 0 -0 0 1 3005.dat
1 71 -70 -608 -590 1 0 0 0 1 0 -0 0 1 3005.dat
1 71 -70 -592 -570 1 0 0 0 1 0 -0 0 1 3024.dat
1 71 -50 -608 -610 1 0 0 0 1 0 -0 0 1 3005.dat
1 71 -50 -592 -590 1 0 0 0 1 0 -0 0 1 3024.dat
1 71 -50 -608 -350 1 0 0 0 1 0 -0 0 1 3005.dat
1 71 0 -592 -330 1 0 0 0 1 0 -0 0 1 3710.dat
1 71 40 -592 -590 1 0 0 0 1 0 -0 0 1 3023.dat
1 71 60 -592 -570 1 0 0 0 1 0 -0 0 1 3023.dat
1 71 80 -592 -550 1 0 0 0 1 0 -0 0 1 3023.dat
1 71 70 -608 -390 1 0 0 0 1 0 -0 0 1 3005.dat
1 71 90 -592 -510 1 0 0 0 1 0 -0 0 1 3024.dat
1 71 100 -592 -450 1 0 0 0 1 0 -0 0 1 3023.dat
1 71 90 -608 -410 1 0 0 0 1 0 -0 0 1 3005.dat
1 71 110 -608 -480 0 0 1 0 1 0 -1 0 0 3004.dat
1 71 -110 -616 -530 1 0 0 0 1 0 -0 0 1 3005.dat
1 71 -70 -616 -370 1 0 0 0 1 0 -0 0 1 3005.dat
1 71 -50 -616 -630 1 0 0 0 1 0 -0 0 1 3005.dat
1 71 0 -616 -350 1 0 0 0 1 0 -0 0 1 3010.dat
1 71 30 -616 -630 1 0 0 0 1 0 -0 0 1 3005.dat
1 71 50 -616 -590 1 0 0 0 1 0 -0 0 1 3005.dat
1 71 50 -600 -350 1 0 0 0 1 0 -0 0 1 3024.dat
1 71 70 -616 -570 1 0 0 0 1 0 -0 0 1 3005.dat
1 71 90 -616 -540 0 0 1 0 1 0 -1 0 0 3004.dat
1 71 100 -600 -510 1 0 0 0 1 0 -0 0 1 3023.dat
1 71 90 -616 -430 1 0 0 0 1 0 -0 0 1 3005.dat
1 71 110 -616 -450 1 0 0 0 1 0 -0 0 1 3005.dat
1 71 -110 -624 -550 1 0 0 0 1 0 -0 0 1 3005.dat
1 71 -110 -624 -430 1 0 0 0 1 0 -0 0 1 3005.dat
1 71 -10 -624 -630 1 0 0 0 1 0 -0 0 1 3622.dat
1 71 40 -608 -610 1 0 0 0 1 0 -0 0 1 3023.dat
1 71 50 -624 -370 1 0 0 0 1 0 -0 0 1 3005.dat
1 71 70 -608 -370 1 0 0 0 1 0 -0 0 1 3024.dat
1 71 110 -624 -510 1 0 0 0 1 0 -0 0 1 3005.dat
1 71 -110 -632 -480 0 0 1 0 1 0 -1 0 0 3010.dat
1 71 -110 -632 -410 1 0 0 0 1 0 -0 0 1 3005.dat
1 71 -90 -632 -570 1 0 0 0 1 0 -0 0 1 3005.dat
1 71 -90 -632 -390 1 0 0 0 1 0 -0 0 1 3005.dat
1 71 -70 -632 -590 1 0 0 0 1 0 -0 0 1 3005.dat
1 71 -50 -632 -610 1 0 0 0 1 0 -0 0 1 3005.dat
1 71 -50 -632 -370 1 0 0 0 1 0 -0 0 1 3005.dat
1 71 50 -632 -610 1 0 0 0 1 0 -0 0 1 3005.dat
1 71 70 -632 -390 1 0 0 0 1 0 -0 0 1 3005.dat
1 71 90 -632 -410 1 0 0 0 1 0 -0 0 1 3005.dat
1 71 110 -632 -480 0 0 1 0 1 0 -1 0 0 3004.dat
1 71 -110 -640 -530 1 0 0 0 1 0 -0 0 1 3005.dat
1 71 -70 -640 -370 1 0 0 0 1 0 -0 0 1 3005.dat
1 71 -50 -640 -630 1 0 0 0 1 0 -0 0 1 3005.dat
1 71 -30 -640 -370 1 0 0 0 1 0 -0 0 1 3005.dat
1 71 0 -624 -350 1 0 0 0 1 0 -0 0 1 3023.dat
1 71 30 -640 -630 1 0 0 0 1 0 -0 0 1 3005.dat
1 71 30 -640 -370 1 0 0 0 1 0 -0 0 1 3005.dat
1 71 50 -640 -590 1 0 0 0 1 0 -0 0 1 3005.dat
1 71 70 -640 -570 1 0 0 0 1 0 -0 0 1 3005.dat
1 71 90 -640 -540 0 0 1 0 1 0 -1 0 0 3004.dat
1 71 90 -640 -430 1 0 0 0 1 0 -0 0 1 3005.dat
1 71 110 -640 -450 1 0 0 0 1 0 -0 0 1 3005.dat
1 71 -110 -632 -550 1 0 0 0 1 0 -0 0 1 3024.dat
1 71 -110 -648 -430 1 0 0 0 1 0 -0 0 1 3005.dat
1 71 -10 -648 -630 1 0 0 0 1 0 -0 0 1 3622.dat
1 71 0 -648 -370 1 0 0 0 1 0 -0 0 1 3004.dat
1 71 50 -632 -370 1 0 0 0 1 0 -0 0 1 3024.dat
1 71 110 -632 -510 1 0 0 0 1 0 -0 0 1 3024.dat
1 71 -110 -640 -550 1 0 0 0 1 0 -0 0 1 3024.dat
1 71 -110 -656 -480 0 0 1 0 1 0 -1 0 0 3010.dat
1 71 -110 -656 -410 1 0 0 0 1 0 -0 0 1 3005.dat
1 71 -90 -656 -570 1 0 0 0 1 0 -0 0 1 3005.dat
1 71 -90 -656 -390 1 0 0 0 1 0 -0 0 1 3005.dat
1 71 -70 -656 -590 1 0 0 0 1 0 -0 0 1 3005.dat
1 71 -50 -640 -610 1 0 0 0 1 0 -0 0 1 3024.dat
1 71 -50 -656 -370 1 0 0 0 1 0 -0 0 1 3005.dat
1 71 30 -656 -610 1 0 0 0 1 0 -0 0 1 3005.dat
1 71 50 -640 -370 1 0 0 0 1 0 -0 0 1 3024.dat
1 71 70 -656 -390 1 0 0 0 1 0 -0 0 1 3005.dat
1 71 90 -656 -510 1 0 0 0 1 0 -0 0 1 3005.dat
1 71 90 -656 -410 1 0 0 0 1 0 -0 0 1 3005.dat
1 71 110 -640 -480 0 0 1 0 1 0 -1 0 0 3023.dat
1 71 -110 -664 -530 1 0 0 0 1 0 -0 0 1 3005.dat
1 71 -90 -664 -550 1 0 0 0 1 0 -0 0 1 3005.dat
1 71 -70 -664 -390 1 0 0 0 1 0 -0 0 1 3005.dat
1 71 -50 -648 -610 1 0 0 0 1 0 -0 0 1 3024.dat
1 71 -30 -648 -370 1 0 0 0 1 0 -0 0 1 3024.dat
1 71 30 -648 -370 1 0 0 0 1 0 -0 0 1 3024.dat
1 71 50 -664 -590 1 0 0 0 1 0 -0 0 1 3005.dat
1 71 50 -664 -390 1 0 0 0 1 0 -0 0 1 3005.dat
1 71 70 -664 -570 1 0 0 0 1 0 -0 0 1 3005.dat
1 71 90 -664 -540 0 0 1 0 1 0 -1 0 0 3004.dat
1 71 90 -664 -480 0 0 1 0 1 0 -1 0 0 3004.dat
1 71 90 -664 -430 1 0 0 0 1 0 -0 0 1 3005.dat
1 71 110 -664 -450 1 0 0 0 1 0 -0 0 1 3005.dat
1 71 -110 -672 -430 1 0 0 0 1 0 -0 0 1 3005.dat
1 71 -50 -672 -590 1 0 0 0 1 0 -0 0 1 3005.dat
1 71 -10 -656 -630 1 0 0 0 1 0 -0 0 1 3623.dat
1 71 -30 -672 -610 1 0 0 0 1 0 -0 0 1 3005.dat
1 71 0 -656 -370 1 0 0 0 1 0 -0 0 1 3710.dat
1 71 -110 -680 -480 0 0 1 0 1 0 -1 0 0 3010.dat
1 71 -110 -664 -410 1 0 0 0 1 0 -0 0 1 3024.dat
1 71 -90 -680 -570 1 0 0 0 1 0 -0 0 1 3005.dat
1 71 -90 -664 -390 1 0 0 0 1 0 -0 0 1 3024.dat
1 71 -70 -680 -590 1 0 0 0 1 0 -0 0 1 3005.dat
1 71 -40 -680 -390 1 0 0 0 1 0 -0 0 1 3004.dat
1 71 -10 -664 -630 1 0 0 0 1 0 -0 0 1 3623.dat
1 71 0 -664 -610 1 0 0 0 1 0 -0 0 1 3023.dat
1 71 -10 -664 -370 1 0 0 0 1 0 -0 0 1 3024.dat
1 71 20 -680 -390 1 0 0 0 1 0 -0 0 1 3004.dat
1 71 30 -680 -590 1 0 0 0 1 0 -0 0 1 3005.dat
1 71 70 -664 -390 1 0 0 0 1 0 -0 0 1 3024.dat
1 71 90 -680 -510 1 0 0 0 1 0 -0 0 1 3005.dat
1 71 90 -680 -410 1 0 0 0 1 0 -0 0 1 3005.dat
1 71 -110 -672 -530 1 0 0 0 1 0 -0 0 1 3024.dat
1 71 -90 -688 -550 1 0 0 0 1 0 -0 0 1 3005.dat
1 71 -90 -688 -410 1 0 0 0 1 0 -0 0 1 3005.dat
1 71 -70 -672 -390 1 0 0 0 1 0 -0 0 1 3024.dat
1 71 0 -672 -610 1 0 0 0 1 0 -0 0 1 3023.dat
1 71 -10 -688 -390 1 0 0 0 1 0 -0 0 1 3005.dat
1 71 50 -688 -590 1 0 0 0 1 0 -0 0 1 3005.dat
1 71 50 -672 -390 1 0 0 0 1 0 -0 0 1 3024.dat
1 71 70 -688 -560 0 0 1 0 1 0 -1 0 0 3004.dat
1 71 70 -688 -410 1 0 0 0 1 0 -0 0 1 3005.dat
1 71 90 -688 -530 1 0 0 0 1 0 -0 0 1 3005.dat
1 71 90 -688 -480 0 0 1 0 1 0 -1 0 0 3004.dat
1 71 100 -672 -430 1 0 0 0 1 0 -0 0 1 3023.dat
1 71 110 -688 -450 1 0 0 0 1 0 -0 0 1 3005.dat
1 71 -130 -696 -440 0 0 1 0 1 0 -1 0 0 3004.dat
1 71 -110 -696 -430 1 0 0 0 1 0 -0 0 1 3005.dat
1 71 -90 -696 -530 1 0 0 0 1 0 -0 0 1 3005.dat
1 71 -70 -680 -390 1 0 0 0 1 0 -0 0 1 3024.dat
1 71 -20 -696 -590 1 0 0 0 1 0 -0 0 1 3010.dat
1 71 50 -680 -390 1 0 0 0 1 0 -0 0 1 3024.dat
1 71 110 -696 -430 1 0 0 0 1 0 -0 0 1 3005.dat
1 71 -110 -688 -480 0 0 1 0 1 0 -1 0 0 3023.dat
1 71 -90 -688 -570 1 0 0 0 1 0 -0 0 1 3024.dat
1 71 -90 -704 -510 1 0 0 0 1 0 -0 0 1 3005.dat
1 71 -70 -688 -590 1 0 0 0 1 0 -0 0 1 3024.dat
1 71 -70 -688 -410 1 0 0 0 1 0 -0 0 1 3024.dat
1 71 -40 -688 -390 1 0 0 0 1 0 -0 0 1 3023.dat
1 71 20 -688 -390 1 0 0 0 1 0 -0 0 1 3023.dat
1 71 30 -704 -590 1 0 0 0 1 0 -0 0 1 3005.dat
1 71 50 -688 -410 1 0 0 0 1 0 -0 0 1 3024.dat
1 71 90 -688 -510 1 0 0 0 1 0 -0 0 1 3024.dat
1 71 90 -688 -410 1 0 0 0 1 0 -0 0 1 3024.dat
1 71 -110 -712 -450 1 0 0 0 1 0 -0 0 1 3005.dat
1 71 -90 -696 -550 1 0 0 0 1 0 -0 0 1 3024.dat
1 71 -90 -712 -480 0 0 1 0 1 0 -1 0 0 3004.dat
1 71 -60 -696 -410 1 0 0 0 1 0 -0 0 1 3710.dat
1 71 -70 -696 -580 0 0 1 0 1 0 -1 0 0 3023.dat
1 71 0 -712 -410 1 0 0 0 1 0 -0 0 1 3004.dat
1 71 50 -696 -410 1 0 0 0 1 0 -0 0 1 3623.dat
1 71 50 -696 -590 1 0 0 0 1 0 -0 0 1 3024.dat
1 71 70 -696 -540 0 0 1 0 1 0 -1 0 0 3710.dat
1 71 90 -696 -480 0 0 1 0 1 0 -1 0 0 3023.dat
1 71 90 -712 -430 1 0 0 0 1 0 -0 0 1 3005.dat
1 71 110 -712 -450 1 0 0 0 1 0 -0 0 1 3005.dat
1 71 -130 -720 -440 0 0 1 0 1 0 -1 0 0 3004.dat
1 71 -90 -720 -430 1 0 0 0 1 0 -0 0 1 3622.dat
1 71 -90 -704 -540 0 0 1 0 1 0 -1 0 0 3023.dat
1 71 -70 -704 -570 1 0 0 0 1 0 -0 0 1 3024.dat
1 71 -20 -704 -590 1 0 0 0 1 0 -0 0 1 3710.dat
1 71 -40 -704 -410 1 0 0 0 1 0 -0 0 1 3023.dat
1 71 30 -704 -410 1 0 0 0 1 0 -0 0 1 3024.dat
1 71 50 -704 -580 0 0 1 0 1 0 -1 0 0 3023.dat
1 71 60 -720 -430 1 0 0 0 1 0 -0 0 1 3004.dat
1 71 70 -704 -520 0 0 1 0 1 0 -1 0 0 3710.dat
1 71 90 -720 -470 1 0 0 0 1 0 -0 0 1 3005.dat
1 71 110 -720 -430 1 0 0 0 1 0 -0 0 1 3005.dat
1 71 -90 -712 -520 0 0 1 0 1 0 -1 0 0 3023.dat
1 71 -40 -712 -570 1 0 0 0 1 0 -0 0 1 3710.dat
1 71 -70 -712 -550 1 0 0 0 1 0 -0 0 1 3024.dat
1 71 -50 -728 -430 1 0 0 0 1 0 -0 0 1 3005.dat
1 71 -30 -712 -410 1 0 0 0 1 0 -0 0 1 3024.dat
1 71 30 -712 -570 1 0 0 0 1 0 -0 0 1 3623.dat
1 71 30 -728 -430 1 0 0 0 1 0 -0 0 1 3005.dat
1 71 50 -712 -550 1 0 0 0 1 0 -0 0 1 3024.dat
1 71 70 -712 -510 0 0 1 0 1 0 -1 0 0 3623.dat
1 71 -110 -736 -450 1 0 0 0 1 0 -0 0 1 3005.dat
1 71 -90 -736 -490 0 0 1 0 1 0 -1 0 0 3622.dat
1 71 -40 -720 -550 1 0 0 0 1 0 -0 0 1 3710.dat
1 71 -70 -720 -530 1 0 0 0 1 0 -0 0 1 3024.dat
1 71 -20 -720 -570 1 0 0 0 1 0 -0 0 1 3710.dat
1 71 -10 -720 -430 1 0 0 0 1 0 -0 0 1 3623.dat
1 71 30 -720 -550 1 0 0 0 1 0 -0 0 1 3623.dat
1 71 30 -720 -570 1 0 0 0 1 0 -0 0 1 3024.dat
1 71 50 -720 -530 1 0 0 0 1 0 -0 0 1 3024.dat
1 71 70 -736 -500 0 0 1 0 1 0 -1 0 0 3004.dat
1 71 90 -736 -430 1 0 0 0 1 0 -0 0 1 3005.dat
1 71 110 -736 -450 1 0 0 0 1 0 -0 0 1 3005.dat
1 71 -130 -744 -450 1 0 0 0 1 0 -0 0 1 3005.dat
1 71 -100 -728 -430 1 0 0 0 1 0 -0 0 1 3710.dat
1 71 -40 -728 -530 1 0 0 0 1 0 -0 0 1 3710.dat
1 71 -20 -728 -550 1 0 0 0 1 0 -0 0 1 3710.dat
1 71 -20 -728 -460 1 0 0 0 1 0 -0 0 1 3020.dat
1 71 -10 -728 -430 1 0 0 0 1 0 -0 0 1 3623.dat
1 71 30 -728 -530 1 0 0 0 1 0 -0 0 1 3623.dat
1 71 30 -728 -550 1 0 0 0 1 0 -0 0 1 3024.dat
1 71 30 -728 -460 0 0 1 0 1 0 -1 0 0 3023.dat
1 71 60 -728 -430 1 0 0 0 1 0 -0 0 1 3023.dat
1 71 90 -744 -470 1 0 0 0 1 0 -0 0 1 3005.dat
1 71 110 -728 -430 1 0 0 0 1 0 -0 0 1 3024.dat
1 71 -100 -736 -430 1 0 0 0 1 0 -0 0 1 3023.dat
1 71 -40 -736 -510 1 0 0 0 1 0 -0 0 1 3710.dat
1 71 -40 -736 -450 1 0 0 0 1 0 -0 0 1 3710.dat
1 71 -20 -736 -530 1 0 0 0 1 0 -0 0 1 3710.dat
1 71 -20 -736 -480 1 0 0 0 1 0 -0 0 1 3020.dat
1 71 30 -736 -510 1 0 0 0 1 0 -0 0 1 3623.dat
1 71 30 -736 -450 1 0 0 0 1 0 -0 0 1 3623.dat
1 71 30 -736 -530 1 0 0 0 1 0 -0 0 1 3024.dat
1 71 30 -736 -480 0 0 1 0 1 0 -1 0 0 3023.dat
1 71 70 -736 -430 1 0 0 0 1 0 -0 0 1 3024.dat
1 71 -110 -760 -460 0 0 1 0 1 0 -1 0 0 3004.dat
1 71 -80 -760 -510 1 0 0 0 1 0 -0 0 1 3004.dat
1 71 -90 -760 -490 1 0 0 0 1 0 -0 0 1 3005.dat
1 71 -80 -744 -460 1 0 0 0 1 0 -0 0 1 3022.dat
1 71 -20 -744 -500 1 0 0 0 1 0 -0 0 1 3020.dat
1 71 50 -744 -510 1 0 0 0 1 0 -0 0 1 3623.dat
1 71 30 -744 -490 1 0 0 0 1 0 -0 0 1 3024.dat
1 71 50 -760 -470 1 0 0 0 1 0 -0 0 1 3005.dat
1 71 80 -744 -450 1 0 0 0 1 0 -0 0 1 3710.dat
1 71 80 -744 -490 1 0 0 0 1 0 -0 0 1 3023.dat
1 71 -130 -768 -460 0 0 1 0 1 0 -1 0 0 3004.dat
1 71 -90 -768 -450 1 0 0 0 1 0 -0 0 1 3005.dat
1 71 -70 -768 -490 1 0 0 0 1 0 -0 0 1 3005.dat
1 71 -70 -752 -460 0 0 1 0 1 0 -1 0 0 3023.dat
1 71 60 -752 -510 1 0 0 0 1 0 -0 0 1 3023.dat
1 71 50 -752 -490 1 0 0 0 1 0 -0 0 1 3024.dat
1 71 80 -752 -450 1 0 0 0 1 0 -0 0 1 3710.dat
1 71 90 -768 -490 1 0 0 0 1 0 -0 0 1 3005.dat
1 71 100 -752 -470 1 0 0 0 1 0 -0 0 1 3023.dat
1 71 -110 -760 -490 1 0 0 0 1 0 -0 0 1 3024.dat
1 71 -70 -760 -470 1 0 0 0 1 0 -0 0 1 3024.dat
1 71 50 -760 -490 1 0 0 0 1 0 -0 0 1 3024.dat
1 71 70 -760 -510 1 0 0 0 1 0 -0 0 1 3024.dat
1 71 90 -760 -450 1 0 0 0 1 0 -0 0 1 3623.dat
1 71 110 -776 -470 1 0 0 0 1 0 -0 0 1 3005.dat
1 71 -100 -768 -490 1 0 0 0 1 0 -0 0 1 3023.dat
1 71 -110 -768 -450 1 0 0 0 1 0 -0 0 1 3024.dat
1 71 -90 -768 -470 1 0 0 0 1 0 -0 0 1 3024.dat
1 71 70 -768 -480 0 0 1 0 1 0 -1 0 0 3023.dat
1 71 100 -768 -450 1 0 0 0 1 0 -0 0 1 3023.dat
1 71 -130 -776 -470 1 0 0 0 1 0 -0 0 1 3024.dat
1 71 80 -776 -480 1 0 0 0 1 0 -0 0 1 3022.dat
1 71 -130 -784 -470 1 0 0 0 1 0 -0 0 1 3024.dat
1 71 90 -784 -480 0 0 1 0 1 0 -1 0 0 3023.dat
1 71 110 -784 -470 1 0 0 0 1 0 -0 0 1 3024.dat
