0 Generic OBJ exterior sculpture
0 !LEGO_BUILDER_REVISION b9f4e669a7ef4cb1e2a75f2d0df13e9509cc4cbc66063692cea4a10dc858d5f8
0 Mechanical connections and assembly order are not verified.
0 // source-aligned slope shoulders
1 71 -70 -1064 -60 0 0 1 0 1 0 -1 0 0 3039.dat
1 71 -70 -1064 -20 0 0 1 0 1 0 -1 0 0 3039.dat
1 71 -70 -1064 20 0 0 1 0 1 0 -1 0 0 3039.dat
1 71 -60 -1064 50 -1 0 0 0 1 0 -0 0 -1 3039.dat
1 71 -40 -1064 -70 1 0 0 0 1 0 -0 0 1 3039.dat
1 71 -20 -1064 70 -1 0 0 0 1 0 -0 0 -1 3039.dat
1 71 0 -1064 -70 1 0 0 0 1 0 -0 0 1 3039.dat
1 71 40 -1064 -70 1 0 0 0 1 0 -0 0 1 3039.dat
1 71 40 -1064 50 -1 0 0 0 1 0 -0 0 -1 3039.dat
1 71 70 -1064 -20 -0 0 -1 0 1 0 1 0 -0 3039.dat
0 // smooth exposed top tiles
1 71 -110 -736 170 1 0 0 0 1 0 -0 0 1 3070b.dat
1 71 170 -736 -110 1 0 0 0 1 0 -0 0 1 3070b.dat
1 71 -50 -744 190 1 0 0 0 1 0 -0 0 1 3070b.dat
1 71 30 -744 190 1 0 0 0 1 0 -0 0 1 3070b.dat
1 71 190 -744 -50 1 0 0 0 1 0 -0 0 1 3070b.dat
1 71 190 -744 30 1 0 0 0 1 0 -0 0 1 3070b.dat
1 71 -170 -752 -130 1 0 0 0 1 0 -0 0 1 3070b.dat
1 71 -130 -752 -170 1 0 0 0 1 0 -0 0 1 3070b.dat
1 71 -30 -752 190 1 0 0 0 1 0 -0 0 1 3070b.dat
1 71 90 -752 170 1 0 0 0 1 0 -0 0 1 3070b.dat
1 71 170 -752 90 1 0 0 0 1 0 -0 0 1 3070b.dat
1 71 190 -752 -30 1 0 0 0 1 0 -0 0 1 3070b.dat
1 71 0 -760 190 1 0 0 0 1 0 -0 0 1 3069b.dat
1 71 190 -760 0 0 0 1 0 1 0 -1 0 0 3069b.dat
1 71 -190 -768 -90 1 0 0 0 1 0 -0 0 1 3070b.dat
1 71 -170 -768 110 1 0 0 0 1 0 -0 0 1 3070b.dat
1 71 -150 -768 -150 1 0 0 0 1 0 -0 0 1 3070b.dat
1 71 -90 -768 -190 1 0 0 0 1 0 -0 0 1 3070b.dat
1 71 110 -768 -170 1 0 0 0 1 0 -0 0 1 3070b.dat
1 71 -190 -776 70 1 0 0 0 1 0 -0 0 1 3070b.dat
1 71 -130 -776 150 1 0 0 0 1 0 -0 0 1 3070b.dat
1 71 70 -776 -190 1 0 0 0 1 0 -0 0 1 3070b.dat
1 71 150 -776 -130 1 0 0 0 1 0 -0 0 1 3070b.dat
1 71 -150 -784 130 1 0 0 0 1 0 -0 0 1 3070b.dat
1 71 -90 -784 170 1 0 0 0 1 0 -0 0 1 3070b.dat
1 71 70 -784 170 1 0 0 0 1 0 -0 0 1 3070b.dat
1 71 110 -784 150 1 0 0 0 1 0 -0 0 1 3070b.dat
1 71 130 -784 -150 1 0 0 0 1 0 -0 0 1 3070b.dat
1 71 130 -784 130 1 0 0 0 1 0 -0 0 1 3070b.dat
1 71 150 -784 110 1 0 0 0 1 0 -0 0 1 3070b.dat
1 71 170 -784 -90 1 0 0 0 1 0 -0 0 1 3070b.dat
1 71 170 -784 70 1 0 0 0 1 0 -0 0 1 3070b.dat
1 71 -190 -792 -60 0 0 1 0 1 0 -1 0 0 3069b.dat
1 71 -190 -792 50 1 0 0 0 1 0 -0 0 1 3070b.dat
1 71 -170 -792 -110 1 0 0 0 1 0 -0 0 1 3070b.dat
1 71 -170 -792 90 1 0 0 0 1 0 -0 0 1 3070b.dat
1 71 -110 -792 -170 1 0 0 0 1 0 -0 0 1 3070b.dat
1 71 -60 -792 -190 1 0 0 0 1 0 -0 0 1 3069b.dat
1 71 -70 -792 170 1 0 0 0 1 0 -0 0 1 3070b.dat
1 71 50 -792 -190 1 0 0 0 1 0 -0 0 1 3070b.dat
1 71 50 -792 170 1 0 0 0 1 0 -0 0 1 3070b.dat
1 71 90 -792 -170 1 0 0 0 1 0 -0 0 1 3070b.dat
1 71 170 -792 -70 1 0 0 0 1 0 -0 0 1 3070b.dat
1 71 170 -792 50 1 0 0 0 1 0 -0 0 1 3070b.dat
1 71 -190 -800 0 0 0 1 0 1 0 -1 0 0 2431.dat
1 71 -150 -800 -130 1 0 0 0 1 0 -0 0 1 3070b.dat
1 71 -150 -800 110 1 0 0 0 1 0 -0 0 1 3070b.dat
1 71 -130 -800 -150 1 0 0 0 1 0 -0 0 1 3070b.dat
1 71 -130 -800 130 1 0 0 0 1 0 -0 0 1 3070b.dat
1 71 -110 -800 150 1 0 0 0 1 0 -0 0 1 3070b.dat
1 71 -50 -800 170 1 0 0 0 1 0 -0 0 1 3070b.dat
1 71 0 -800 -190 1 0 0 0 1 0 -0 0 1 2431.dat
1 71 30 -800 170 1 0 0 0 1 0 -0 0 1 3070b.dat
1 71 90 -800 150 1 0 0 0 1 0 -0 0 1 3070b.dat
1 71 110 -800 -150 1 0 0 0 1 0 -0 0 1 3070b.dat
1 71 130 -800 -130 1 0 0 0 1 0 -0 0 1 3070b.dat
1 71 150 -800 -110 1 0 0 0 1 0 -0 0 1 3070b.dat
1 71 150 -800 90 1 0 0 0 1 0 -0 0 1 3070b.dat
1 71 170 -800 -50 1 0 0 0 1 0 -0 0 1 3070b.dat
1 71 170 -800 30 1 0 0 0 1 0 -0 0 1 3070b.dat
1 71 -170 -808 -90 1 0 0 0 1 0 -0 0 1 3070b.dat
1 71 -170 -808 70 1 0 0 0 1 0 -0 0 1 3070b.dat
1 71 -90 -808 -170 1 0 0 0 1 0 -0 0 1 3070b.dat
1 71 -90 -808 150 1 0 0 0 1 0 -0 0 1 3070b.dat
1 71 -10 -808 170 1 0 0 0 1 0 -0 0 1 63864.dat
1 71 70 -808 -170 1 0 0 0 1 0 -0 0 1 3070b.dat
1 71 110 -808 130 1 0 0 0 1 0 -0 0 1 3070b.dat
1 71 130 -808 110 1 0 0 0 1 0 -0 0 1 3070b.dat
1 71 150 -808 -90 1 0 0 0 1 0 -0 0 1 3070b.dat
1 71 170 -808 -10 0 0 1 0 1 0 -1 0 0 63864.dat
1 71 -170 -816 -70 1 0 0 0 1 0 -0 0 1 3070b.dat
1 71 -170 -816 50 1 0 0 0 1 0 -0 0 1 3070b.dat
1 71 -150 -816 -110 1 0 0 0 1 0 -0 0 1 3070b.dat
1 71 -150 -816 90 1 0 0 0 1 0 -0 0 1 3070b.dat
1 71 -130 -816 -130 1 0 0 0 1 0 -0 0 1 3070b.dat
1 71 -110 -816 -150 1 0 0 0 1 0 -0 0 1 3070b.dat
1 71 -70 -816 -170 1 0 0 0 1 0 -0 0 1 3070b.dat
1 71 50 -816 -170 1 0 0 0 1 0 -0 0 1 3070b.dat
1 71 70 -816 150 1 0 0 0 1 0 -0 0 1 3070b.dat
1 71 90 -816 -150 1 0 0 0 1 0 -0 0 1 3070b.dat
1 71 150 -816 70 1 0 0 0 1 0 -0 0 1 3070b.dat
1 71 -170 -824 -40 0 0 1 0 1 0 -1 0 0 3069b.dat
1 71 -170 -824 30 1 0 0 0 1 0 -0 0 1 3070b.dat
1 71 -130 -824 110 1 0 0 0 1 0 -0 0 1 3070b.dat
1 71 -110 -824 130 1 0 0 0 1 0 -0 0 1 3070b.dat
1 71 -70 -824 150 1 0 0 0 1 0 -0 0 1 3070b.dat
1 71 -40 -824 -170 1 0 0 0 1 0 -0 0 1 3069b.dat
1 71 30 -824 -170 1 0 0 0 1 0 -0 0 1 3070b.dat
1 71 50 -824 150 1 0 0 0 1 0 -0 0 1 3070b.dat
1 71 90 -824 130 1 0 0 0 1 0 -0 0 1 3070b.dat
1 71 110 -824 -130 1 0 0 0 1 0 -0 0 1 3070b.dat
1 71 110 -824 110 1 0 0 0 1 0 -0 0 1 3070b.dat
1 71 130 -824 -110 1 0 0 0 1 0 -0 0 1 3070b.dat
1 71 130 -824 90 1 0 0 0 1 0 -0 0 1 3070b.dat
1 71 150 -824 -70 1 0 0 0 1 0 -0 0 1 3070b.dat
1 71 150 -824 50 1 0 0 0 1 0 -0 0 1 3070b.dat
1 71 -170 -832 0 0 0 1 0 1 0 -1 0 0 3069b.dat
1 71 -150 -832 -90 1 0 0 0 1 0 -0 0 1 3070b.dat
1 71 -150 -832 70 1 0 0 0 1 0 -0 0 1 3070b.dat
1 71 -90 -832 -150 1 0 0 0 1 0 -0 0 1 3070b.dat
1 71 -20 -832 150 1 0 0 0 1 0 -0 0 1 2431.dat
1 71 0 -832 -170 1 0 0 0 1 0 -0 0 1 3069b.dat
1 71 30 -832 150 1 0 0 0 1 0 -0 0 1 3070b.dat
1 71 70 -832 -150 1 0 0 0 1 0 -0 0 1 3070b.dat
1 71 150 -832 -20 0 0 1 0 1 0 -1 0 0 2431.dat
1 71 150 -832 30 1 0 0 0 1 0 -0 0 1 3070b.dat
1 71 -150 -840 -70 1 0 0 0 1 0 -0 0 1 3070b.dat
1 71 -130 -840 -110 1 0 0 0 1 0 -0 0 1 3070b.dat
1 71 -130 -840 90 1 0 0 0 1 0 -0 0 1 3070b.dat
1 71 -110 -840 -130 1 0 0 0 1 0 -0 0 1 3070b.dat
1 71 -110 -840 110 1 0 0 0 1 0 -0 0 1 3070b.dat
1 71 -90 -840 130 1 0 0 0 1 0 -0 0 1 3070b.dat
1 71 -70 -840 -150 1 0 0 0 1 0 -0 0 1 3070b.dat
1 71 70 -840 130 1 0 0 0 1 0 -0 0 1 3070b.dat
1 71 90 -840 -130 1 0 0 0 1 0 -0 0 1 3070b.dat
1 71 110 -840 -110 1 0 0 0 1 0 -0 0 1 3070b.dat
1 71 130 -840 -90 1 0 0 0 1 0 -0 0 1 3070b.dat
1 71 130 -840 70 1 0 0 0 1 0 -0 0 1 3070b.dat
1 71 -150 -848 -50 1 0 0 0 1 0 -0 0 1 3070b.dat
1 71 -150 -848 40 0 0 1 0 1 0 -1 0 0 3069b.dat
1 71 -70 -848 130 1 0 0 0 1 0 -0 0 1 3070b.dat
1 71 -50 -848 -150 1 0 0 0 1 0 -0 0 1 3070b.dat
1 71 40 -848 -150 1 0 0 0 1 0 -0 0 1 3069b.dat
1 71 50 -848 130 1 0 0 0 1 0 -0 0 1 3070b.dat
1 71 90 -848 110 1 0 0 0 1 0 -0 0 1 3070b.dat
1 71 110 -848 90 1 0 0 0 1 0 -0 0 1 3070b.dat
1 71 130 -848 -70 1 0 0 0 1 0 -0 0 1 3070b.dat
1 71 130 -848 50 1 0 0 0 1 0 -0 0 1 3070b.dat
1 71 -150 -856 -10 0 0 1 0 1 0 -1 0 0 63864.dat
1 71 -130 -856 -80 0 0 1 0 1 0 -1 0 0 3069b.dat
1 71 -130 -856 60 0 0 1 0 1 0 -1 0 0 3069b.dat
1 71 -110 -856 -110 1 0 0 0 1 0 -0 0 1 3070b.dat
1 71 -110 -856 90 1 0 0 0 1 0 -0 0 1 3070b.dat
1 71 -80 -856 -130 1 0 0 0 1 0 -0 0 1 3069b.dat
1 71 -90 -856 110 1 0 0 0 1 0 -0 0 1 3070b.dat
1 71 -20 -856 130 1 0 0 0 1 0 -0 0 1 2431.dat
1 71 -10 -856 -150 1 0 0 0 1 0 -0 0 1 63864.dat
1 71 30 -856 130 1 0 0 0 1 0 -0 0 1 3070b.dat
1 71 60 -856 -130 1 0 0 0 1 0 -0 0 1 3069b.dat
1 71 70 -856 110 1 0 0 0 1 0 -0 0 1 3070b.dat
1 71 90 -856 -110 1 0 0 0 1 0 -0 0 1 3070b.dat
1 71 90 -856 90 1 0 0 0 1 0 -0 0 1 3070b.dat
1 71 110 -856 -90 1 0 0 0 1 0 -0 0 1 3070b.dat
1 71 110 -856 70 1 0 0 0 1 0 -0 0 1 3070b.dat
1 71 130 -856 -20 0 0 1 0 1 0 -1 0 0 2431.dat
1 71 130 -856 30 1 0 0 0 1 0 -0 0 1 3070b.dat
1 71 -130 -864 -20 0 0 1 0 1 0 -1 0 0 2431.dat
1 71 -130 -864 30 1 0 0 0 1 0 -0 0 1 3070b.dat
1 71 -110 -864 -90 1 0 0 0 1 0 -0 0 1 3070b.dat
1 71 -110 -864 70 1 0 0 0 1 0 -0 0 1 3070b.dat
1 71 -90 -864 -110 1 0 0 0 1 0 -0 0 1 3070b.dat
1 71 -90 -864 90 1 0 0 0 1 0 -0 0 1 3070b.dat
1 71 -60 -864 110 1 0 0 0 1 0 -0 0 1 3069b.dat
1 71 -20 -864 -130 1 0 0 0 1 0 -0 0 1 2431.dat
1 71 30 -864 -130 1 0 0 0 1 0 -0 0 1 3070b.dat
1 71 40 -864 110 1 0 0 0 1 0 -0 0 1 3069b.dat
1 71 70 -864 -110 1 0 0 0 1 0 -0 0 1 3070b.dat
1 71 70 -864 90 1 0 0 0 1 0 -0 0 1 3070b.dat
1 71 90 -864 -90 1 0 0 0 1 0 -0 0 1 3070b.dat
1 71 90 -864 70 1 0 0 0 1 0 -0 0 1 3070b.dat
1 71 110 -864 -60 0 0 1 0 1 0 -1 0 0 3069b.dat
1 71 110 -864 40 0 0 1 0 1 0 -1 0 0 3069b.dat
1 71 -110 -872 -70 1 0 0 0 1 0 -0 0 1 3070b.dat
1 71 -110 -872 50 1 0 0 0 1 0 -0 0 1 3070b.dat
1 71 -90 -872 -90 1 0 0 0 1 0 -0 0 1 3070b.dat
1 71 -90 -872 70 1 0 0 0 1 0 -0 0 1 3070b.dat
1 71 -70 -872 -110 1 0 0 0 1 0 -0 0 1 3070b.dat
1 71 -70 -872 90 1 0 0 0 1 0 -0 0 1 3070b.dat
1 71 -10 -872 110 1 0 0 0 1 0 -0 0 1 63864.dat
1 71 50 -872 -110 1 0 0 0 1 0 -0 0 1 3070b.dat
1 71 50 -872 90 1 0 0 0 1 0 -0 0 1 3070b.dat
1 71 70 -872 -90 1 0 0 0 1 0 -0 0 1 3070b.dat
1 71 90 -872 -70 1 0 0 0 1 0 -0 0 1 3070b.dat
1 71 90 -872 50 1 0 0 0 1 0 -0 0 1 3070b.dat
1 71 110 -872 -10 0 0 1 0 1 0 -1 0 0 63864.dat
1 71 -110 -880 -20 0 0 1 0 1 0 -1 0 0 2431.dat
1 71 -110 -880 30 1 0 0 0 1 0 -0 0 1 3070b.dat
1 71 -90 -880 -70 1 0 0 0 1 0 -0 0 1 3070b.dat
1 71 -90 -880 50 1 0 0 0 1 0 -0 0 1 3070b.dat
1 71 -70 -880 -90 1 0 0 0 1 0 -0 0 1 3070b.dat
1 71 -70 -880 70 1 0 0 0 1 0 -0 0 1 3070b.dat
1 71 -20 -880 -110 1 0 0 0 1 0 -0 0 1 2431.dat
1 71 -20 -880 90 1 0 0 0 1 0 -0 0 1 2431.dat
1 71 30 -880 -110 1 0 0 0 1 0 -0 0 1 3070b.dat
1 71 30 -880 90 1 0 0 0 1 0 -0 0 1 3070b.dat
1 71 50 -880 -90 1 0 0 0 1 0 -0 0 1 3070b.dat
1 71 70 -880 -70 1 0 0 0 1 0 -0 0 1 3070b.dat
1 71 70 -880 70 1 0 0 0 1 0 -0 0 1 3070b.dat
1 71 90 -880 -20 0 0 1 0 1 0 -1 0 0 2431.dat
1 71 90 -880 30 1 0 0 0 1 0 -0 0 1 3070b.dat
1 71 50 -888 70 1 0 0 0 1 0 -0 0 1 3070b.dat
1 71 70 -888 50 1 0 0 0 1 0 -0 0 1 3070b.dat
1 71 -90 -1064 50 1 0 0 0 1 0 -0 0 1 3070b.dat
1 71 -70 -1064 -90 1 0 0 0 1 0 -0 0 1 3070b.dat
1 71 -20 -1064 -40 1 0 0 0 1 0 -0 0 1 87079.dat
1 71 -20 -1064 0 1 0 0 0 1 0 -0 0 1 87079.dat
1 71 -20 -1064 30 1 0 0 0 1 0 -0 0 1 2431.dat
1 71 -10 -1064 50 1 0 0 0 1 0 -0 0 1 63864.dat
1 71 10 -1064 80 0 0 1 0 1 0 -1 0 0 3069b.dat
1 71 40 -1064 -20 0 0 1 0 1 0 -1 0 0 87079.dat
1 71 50 -1064 30 1 0 0 0 1 0 -0 0 1 63864.dat
1 71 70 -1064 -60 0 0 1 0 1 0 -1 0 0 3069b.dat
1 71 80 -1064 10 1 0 0 0 1 0 -0 0 1 3069b.dat
1 71 70 -1064 50 1 0 0 0 1 0 -0 0 1 3070b.dat
0 // exterior shell
1 71 -140 -24 -80 1 0 0 0 1 0 -0 0 1 3001.dat
1 71 -140 -24 -40 1 0 0 0 1 0 -0 0 1 3001.dat
1 71 -140 -24 0 1 0 0 0 1 0 -0 0 1 3001.dat
1 71 -140 -24 40 1 0 0 0 1 0 -0 0 1 3001.dat
1 71 -140 -24 70 1 0 0 0 1 0 -0 0 1 3010.dat
1 71 -120 -24 -110 1 0 0 0 1 0 -0 0 1 3010.dat
1 71 -120 -24 100 1 0 0 0 1 0 -0 0 1 3001.dat
1 71 -100 -24 -130 1 0 0 0 1 0 -0 0 1 3010.dat
1 71 -100 -24 130 1 0 0 0 1 0 -0 0 1 3010.dat
1 71 -80 -24 -150 1 0 0 0 1 0 -0 0 1 3010.dat
1 71 -60 -24 -170 1 0 0 0 1 0 -0 0 1 3010.dat
1 71 -60 -24 -80 1 0 0 0 1 0 -0 0 1 3001.dat
1 71 -60 -24 -40 1 0 0 0 1 0 -0 0 1 3001.dat
1 71 -60 -24 0 1 0 0 0 1 0 -0 0 1 3001.dat
1 71 -60 -24 40 1 0 0 0 1 0 -0 0 1 3001.dat
1 71 -60 -24 70 1 0 0 0 1 0 -0 0 1 3010.dat
1 71 -60 -24 150 1 0 0 0 1 0 -0 0 1 3010.dat
1 71 -40 -24 -110 1 0 0 0 1 0 -0 0 1 3010.dat
1 71 -40 -24 100 1 0 0 0 1 0 -0 0 1 3001.dat
1 71 -20 -24 -130 1 0 0 0 1 0 -0 0 1 3010.dat
1 71 -20 -24 130 1 0 0 0 1 0 -0 0 1 3010.dat
1 71 0 -24 -150 1 0 0 0 1 0 -0 0 1 3010.dat
1 71 0 -24 170 1 0 0 0 1 0 -0 0 1 3010.dat
1 71 20 -24 -170 1 0 0 0 1 0 -0 0 1 3010.dat
1 71 20 -24 -80 1 0 0 0 1 0 -0 0 1 3001.dat
1 71 20 -24 -40 1 0 0 0 1 0 -0 0 1 3001.dat
1 71 20 -24 0 1 0 0 0 1 0 -0 0 1 3001.dat
1 71 20 -24 40 1 0 0 0 1 0 -0 0 1 3001.dat
1 71 20 -24 70 1 0 0 0 1 0 -0 0 1 3010.dat
1 71 20 -24 150 1 0 0 0 1 0 -0 0 1 3010.dat
1 71 40 -24 -110 1 0 0 0 1 0 -0 0 1 3010.dat
1 71 40 -24 100 1 0 0 0 1 0 -0 0 1 3001.dat
1 71 60 -24 -130 1 0 0 0 1 0 -0 0 1 3010.dat
1 71 60 -24 130 1 0 0 0 1 0 -0 0 1 3010.dat
1 71 80 -24 -150 1 0 0 0 1 0 -0 0 1 3010.dat
1 71 70 -24 -170 1 0 0 0 1 0 -0 0 1 3005.dat
1 71 100 -24 -80 1 0 0 0 1 0 -0 0 1 3001.dat
1 71 100 -24 -40 1 0 0 0 1 0 -0 0 1 3001.dat
1 71 100 -24 0 1 0 0 0 1 0 -0 0 1 3001.dat
1 71 100 -24 40 1 0 0 0 1 0 -0 0 1 3001.dat
1 71 100 -24 70 1 0 0 0 1 0 -0 0 1 3010.dat
1 71 70 -24 150 1 0 0 0 1 0 -0 0 1 3005.dat
1 71 110 -24 -110 1 0 0 0 1 0 -0 0 1 3622.dat
1 71 100 -24 100 1 0 0 0 1 0 -0 0 1 3003.dat
1 71 120 -24 -130 1 0 0 0 1 0 -0 0 1 3004.dat
1 71 110 -24 130 1 0 0 0 1 0 -0 0 1 3005.dat
1 71 130 -24 100 0 0 1 0 1 0 -1 0 0 3004.dat
1 71 150 -24 -60 0 0 1 0 1 0 -1 0 0 3010.dat
1 71 160 -24 0 1 0 0 0 1 0 -0 0 1 3003.dat
1 71 150 -24 50 0 0 1 0 1 0 -1 0 0 3622.dat
1 71 170 -24 -30 1 0 0 0 1 0 -0 0 1 3005.dat
1 71 170 -24 30 1 0 0 0 1 0 -0 0 1 3005.dat
1 71 -190 -32 -20 0 0 1 0 1 0 -1 0 0 3010.dat
1 71 -190 -32 30 1 0 0 0 1 0 -0 0 1 3005.dat
1 71 -170 -32 -110 1 0 0 0 1 0 -0 0 1 3005.dat
1 71 -170 -32 90 1 0 0 0 1 0 -0 0 1 3005.dat
1 71 -150 -32 -130 1 0 0 0 1 0 -0 0 1 3005.dat
1 71 -130 -32 -150 1 0 0 0 1 0 -0 0 1 3005.dat
1 71 -110 -32 -170 1 0 0 0 1 0 -0 0 1 3005.dat
1 71 -110 -32 150 1 0 0 0 1 0 -0 0 1 3005.dat
1 71 -60 -32 170 1 0 0 0 1 0 -0 0 1 3004.dat
1 71 -20 -32 -190 1 0 0 0 1 0 -0 0 1 3010.dat
1 71 30 -32 -190 1 0 0 0 1 0 -0 0 1 3005.dat
1 71 50 -32 170 1 0 0 0 1 0 -0 0 1 3005.dat
1 71 90 -32 -170 1 0 0 0 1 0 -0 0 1 3005.dat
1 71 90 -32 150 1 0 0 0 1 0 -0 0 1 3005.dat
1 71 150 -32 -110 1 0 0 0 1 0 -0 0 1 3005.dat
1 71 150 -32 90 1 0 0 0 1 0 -0 0 1 3005.dat
1 71 170 -32 -60 0 0 1 0 1 0 -1 0 0 3004.dat
1 71 170 -32 50 1 0 0 0 1 0 -0 0 1 3005.dat
1 71 -190 -40 -70 1 0 0 0 1 0 -0 0 1 3005.dat
1 71 -190 -40 60 0 0 1 0 1 0 -1 0 0 3004.dat
1 71 -150 -40 130 1 0 0 0 1 0 -0 0 1 3005.dat
1 71 -90 -40 170 1 0 0 0 1 0 -0 0 1 3005.dat
1 71 -70 -40 -190 1 0 0 0 1 0 -0 0 1 3005.dat
1 71 60 -40 -190 1 0 0 0 1 0 -0 0 1 3004.dat
1 71 70 -40 170 1 0 0 0 1 0 -0 0 1 3005.dat
1 71 110 -40 150 1 0 0 0 1 0 -0 0 1 3005.dat
1 71 130 -40 -150 1 0 0 0 1 0 -0 0 1 3005.dat
1 71 130 -40 130 1 0 0 0 1 0 -0 0 1 3005.dat
1 71 150 -40 110 1 0 0 0 1 0 -0 0 1 3005.dat
1 71 170 -40 -90 1 0 0 0 1 0 -0 0 1 3005.dat
1 71 170 -40 70 1 0 0 0 1 0 -0 0 1 3005.dat
1 71 -190 -48 -90 1 0 0 0 1 0 -0 0 1 3005.dat
1 71 -170 -48 -130 1 0 0 0 1 0 -0 0 1 3005.dat
1 71 -170 -32 -90 1 0 0 0 1 0 -0 0 1 3024.dat
1 71 -170 -48 110 1 0 0 0 1 0 -0 0 1 3005.dat
1 71 -150 -48 -150 1 0 0 0 1 0 -0 0 1 3005.dat
1 71 -150 -32 110 1 0 0 0 1 0 -0 0 1 3024.dat
1 71 -130 -48 -170 1 0 0 0 1 0 -0 0 1 3005.dat
1 71 -130 -32 140 0 0 1 0 1 0 -1 0 0 3023.dat
1 71 -110 -48 170 1 0 0 0 1 0 -0 0 1 3005.dat
1 71 -90 -48 -190 1 0 0 0 1 0 -0 0 1 3005.dat
1 71 -90 -32 -170 1 0 0 0 1 0 -0 0 1 3024.dat
1 71 -20 -48 190 1 0 0 0 1 0 -0 0 1 3010.dat
1 71 0 -32 170 1 0 0 0 1 0 -0 0 1 3710.dat
1 71 30 -48 190 1 0 0 0 1 0 -0 0 1 3005.dat
1 71 90 -48 170 1 0 0 0 1 0 -0 0 1 3005.dat
1 71 110 -48 -170 1 0 0 0 1 0 -0 0 1 3005.dat
1 71 110 -32 -150 1 0 0 0 1 0 -0 0 1 3024.dat
1 71 140 -32 -130 1 0 0 0 1 0 -0 0 1 3023.dat
1 71 170 -48 -110 1 0 0 0 1 0 -0 0 1 3005.dat
1 71 180 -32 0 0 0 1 0 1 0 -1 0 0 3020.dat
1 71 170 -48 90 1 0 0 0 1 0 -0 0 1 3005.dat
1 71 190 -48 -50 1 0 0 0 1 0 -0 0 1 3005.dat
1 71 -190 -56 -20 0 0 1 0 1 0 -1 0 0 3010.dat
1 71 -190 -56 30 1 0 0 0 1 0 -0 0 1 3005.dat
1 71 -170 -56 -110 1 0 0 0 1 0 -0 0 1 3005.dat
1 71 -170 -56 90 1 0 0 0 1 0 -0 0 1 3005.dat
1 71 -130 -56 150 1 0 0 0 1 0 -0 0 1 3005.dat
1 71 -110 -56 -170 1 0 0 0 1 0 -0 0 1 3005.dat
1 71 -70 -56 170 1 0 0 0 1 0 -0 0 1 3005.dat
1 71 -20 -56 -190 1 0 0 0 1 0 -0 0 1 3010.dat
1 71 30 -56 -190 1 0 0 0 1 0 -0 0 1 3005.dat
1 71 50 -56 170 1 0 0 0 1 0 -0 0 1 3005.dat
1 71 90 -56 -170 1 0 0 0 1 0 -0 0 1 3005.dat
1 71 150 -56 -130 1 0 0 0 1 0 -0 0 1 3005.dat
1 71 170 -56 -70 1 0 0 0 1 0 -0 0 1 3005.dat
1 71 170 -56 50 1 0 0 0 1 0 -0 0 1 3005.dat
1 71 190 -56 0 0 0 1 0 1 0 -1 0 0 3010.dat
1 71 -190 -64 -70 1 0 0 0 1 0 -0 0 1 3005.dat
1 71 -190 -64 60 0 0 1 0 1 0 -1 0 0 3004.dat
1 71 -150 -64 130 1 0 0 0 1 0 -0 0 1 3005.dat
1 71 -90 -64 170 1 0 0 0 1 0 -0 0 1 3005.dat
1 71 -70 -64 -190 1 0 0 0 1 0 -0 0 1 3005.dat
1 71 60 -64 -190 1 0 0 0 1 0 -0 0 1 3004.dat
1 71 70 -64 170 1 0 0 0 1 0 -0 0 1 3005.dat
1 71 110 -64 150 1 0 0 0 1 0 -0 0 1 3005.dat
1 71 130 -64 -150 1 0 0 0 1 0 -0 0 1 3005.dat
1 71 130 -64 130 1 0 0 0 1 0 -0 0 1 3005.dat
1 71 150 -64 110 1 0 0 0 1 0 -0 0 1 3005.dat
1 71 170 -64 -90 1 0 0 0 1 0 -0 0 1 3005.dat
1 71 170 -64 70 1 0 0 0 1 0 -0 0 1 3005.dat
1 71 -190 -72 -90 1 0 0 0 1 0 -0 0 1 3005.dat
1 71 -170 -72 -130 1 0 0 0 1 0 -0 0 1 3005.dat
1 71 -170 -72 110 1 0 0 0 1 0 -0 0 1 3005.dat
1 71 -150 -72 -150 1 0 0 0 1 0 -0 0 1 3005.dat
1 71 -130 -72 -170 1 0 0 0 1 0 -0 0 1 3005.dat
1 71 -110 -72 170 1 0 0 0 1 0 -0 0 1 3005.dat
1 71 -90 -72 -190 1 0 0 0 1 0 -0 0 1 3005.dat
1 71 -20 -72 190 1 0 0 0 1 0 -0 0 1 3010.dat
1 71 30 -72 190 1 0 0 0 1 0 -0 0 1 3005.dat
1 71 90 -72 170 1 0 0 0 1 0 -0 0 1 3005.dat
1 71 110 -72 -170 1 0 0 0 1 0 -0 0 1 3005.dat
1 71 170 -72 -110 1 0 0 0 1 0 -0 0 1 3005.dat
1 71 170 -72 90 1 0 0 0 1 0 -0 0 1 3005.dat
1 71 190 -72 -50 1 0 0 0 1 0 -0 0 1 3005.dat
1 71 -190 -80 -20 0 0 1 0 1 0 -1 0 0 3010.dat
1 71 -190 -80 30 1 0 0 0 1 0 -0 0 1 3005.dat
1 71 -170 -80 -110 1 0 0 0 1 0 -0 0 1 3005.dat
1 71 -170 -80 90 1 0 0 0 1 0 -0 0 1 3005.dat
1 71 -130 -80 150 1 0 0 0 1 0 -0 0 1 3005.dat
1 71 -110 -80 -170 1 0 0 0 1 0 -0 0 1 3005.dat
1 71 -70 -80 170 1 0 0 0 1 0 -0 0 1 3005.dat
1 71 -20 -80 -190 1 0 0 0 1 0 -0 0 1 3010.dat
1 71 30 -80 -190 1 0 0 0 1 0 -0 0 1 3005.dat
1 71 50 -80 170 1 0 0 0 1 0 -0 0 1 3005.dat
1 71 90 -80 -170 1 0 0 0 1 0 -0 0 1 3005.dat
1 71 150 -80 -130 1 0 0 0 1 0 -0 0 1 3005.dat
1 71 170 -80 -70 1 0 0 0 1 0 -0 0 1 3005.dat
1 71 170 -80 50 1 0 0 0 1 0 -0 0 1 3005.dat
1 71 190 -80 0 0 0 1 0 1 0 -1 0 0 3010.dat
1 71 -190 -88 -70 1 0 0 0 1 0 -0 0 1 3005.dat
1 71 -190 -88 60 0 0 1 0 1 0 -1 0 0 3004.dat
1 71 -150 -88 130 1 0 0 0 1 0 -0 0 1 3005.dat
1 71 -90 -88 170 1 0 0 0 1 0 -0 0 1 3005.dat
1 71 -70 -88 -190 1 0 0 0 1 0 -0 0 1 3005.dat
1 71 60 -88 -190 1 0 0 0 1 0 -0 0 1 3004.dat
1 71 70 -88 170 1 0 0 0 1 0 -0 0 1 3005.dat
1 71 110 -88 150 1 0 0 0 1 0 -0 0 1 3005.dat
1 71 130 -88 -150 1 0 0 0 1 0 -0 0 1 3005.dat
1 71 130 -88 130 1 0 0 0 1 0 -0 0 1 3005.dat
1 71 150 -88 110 1 0 0 0 1 0 -0 0 1 3005.dat
1 71 170 -88 -90 1 0 0 0 1 0 -0 0 1 3005.dat
1 71 170 -88 70 1 0 0 0 1 0 -0 0 1 3005.dat
1 71 -190 -96 -90 1 0 0 0 1 0 -0 0 1 3005.dat
1 71 -170 -96 -130 1 0 0 0 1 0 -0 0 1 3005.dat
1 71 -170 -96 110 1 0 0 0 1 0 -0 0 1 3005.dat
1 71 -150 -96 -150 1 0 0 0 1 0 -0 0 1 3005.dat
1 71 -130 -96 -170 1 0 0 0 1 0 -0 0 1 3005.dat
1 71 -110 -96 170 1 0 0 0 1 0 -0 0 1 3005.dat
1 71 -90 -96 -190 1 0 0 0 1 0 -0 0 1 3005.dat
1 71 -20 -96 190 1 0 0 0 1 0 -0 0 1 3010.dat
1 71 30 -96 190 1 0 0 0 1 0 -0 0 1 3005.dat
1 71 90 -96 170 1 0 0 0 1 0 -0 0 1 3005.dat
1 71 110 -96 -170 1 0 0 0 1 0 -0 0 1 3005.dat
1 71 170 -96 -110 1 0 0 0 1 0 -0 0 1 3005.dat
1 71 170 -96 90 1 0 0 0 1 0 -0 0 1 3005.dat
1 71 190 -96 -50 1 0 0 0 1 0 -0 0 1 3005.dat
1 71 -190 -104 -20 0 0 1 0 1 0 -1 0 0 3010.dat
1 71 -190 -104 30 1 0 0 0 1 0 -0 0 1 3005.dat
1 71 -170 -104 -110 1 0 0 0 1 0 -0 0 1 3005.dat
1 71 -170 -104 90 1 0 0 0 1 0 -0 0 1 3005.dat
1 71 -130 -104 150 1 0 0 0 1 0 -0 0 1 3005.dat
1 71 -110 -104 -170 1 0 0 0 1 0 -0 0 1 3005.dat
1 71 -70 -104 170 1 0 0 0 1 0 -0 0 1 3005.dat
1 71 -20 -104 -190 1 0 0 0 1 0 -0 0 1 3010.dat
1 71 30 -104 -190 1 0 0 0 1 0 -0 0 1 3005.dat
1 71 50 -104 170 1 0 0 0 1 0 -0 0 1 3005.dat
1 71 90 -104 -170 1 0 0 0 1 0 -0 0 1 3005.dat
1 71 150 -104 -130 1 0 0 0 1 0 -0 0 1 3005.dat
1 71 170 -104 -70 1 0 0 0 1 0 -0 0 1 3005.dat
1 71 170 -104 50 1 0 0 0 1 0 -0 0 1 3005.dat
1 71 190 -104 0 0 0 1 0 1 0 -1 0 0 3010.dat
1 71 -190 -112 -70 1 0 0 0 1 0 -0 0 1 3005.dat
1 71 -190 -112 60 0 0 1 0 1 0 -1 0 0 3004.dat
1 71 -150 -112 130 1 0 0 0 1 0 -0 0 1 3005.dat
1 71 -90 -112 170 1 0 0 0 1 0 -0 0 1 3005.dat
1 71 -70 -112 -190 1 0 0 0 1 0 -0 0 1 3005.dat
1 71 60 -112 -190 1 0 0 0 1 0 -0 0 1 3004.dat
1 71 70 -112 170 1 0 0 0 1 0 -0 0 1 3005.dat
1 71 110 -112 150 1 0 0 0 1 0 -0 0 1 3005.dat
1 71 130 -112 -150 1 0 0 0 1 0 -0 0 1 3005.dat
1 71 130 -112 130 1 0 0 0 1 0 -0 0 1 3005.dat
1 71 150 -112 110 1 0 0 0 1 0 -0 0 1 3005.dat
1 71 170 -112 -90 1 0 0 0 1 0 -0 0 1 3005.dat
1 71 170 -112 70 1 0 0 0 1 0 -0 0 1 3005.dat
1 71 -190 -120 -90 1 0 0 0 1 0 -0 0 1 3005.dat
1 71 -170 -120 -130 1 0 0 0 1 0 -0 0 1 3005.dat
1 71 -170 -120 110 1 0 0 0 1 0 -0 0 1 3005.dat
1 71 -150 -120 -150 1 0 0 0 1 0 -0 0 1 3005.dat
1 71 -130 -120 -170 1 0 0 0 1 0 -0 0 1 3005.dat
1 71 -110 -120 170 1 0 0 0 1 0 -0 0 1 3005.dat
1 71 -90 -120 -190 1 0 0 0 1 0 -0 0 1 3005.dat
1 71 -20 -120 190 1 0 0 0 1 0 -0 0 1 3010.dat
1 71 30 -120 190 1 0 0 0 1 0 -0 0 1 3005.dat
1 71 90 -120 170 1 0 0 0 1 0 -0 0 1 3005.dat
1 71 110 -120 -170 1 0 0 0 1 0 -0 0 1 3005.dat
1 71 170 -120 -110 1 0 0 0 1 0 -0 0 1 3005.dat
1 71 170 -120 90 1 0 0 0 1 0 -0 0 1 3005.dat
1 71 190 -120 -50 1 0 0 0 1 0 -0 0 1 3005.dat
1 71 -190 -128 -20 0 0 1 0 1 0 -1 0 0 3010.dat
1 71 -190 -128 30 1 0 0 0 1 0 -0 0 1 3005.dat
1 71 -170 -128 -110 1 0 0 0 1 0 -0 0 1 3005.dat
1 71 -170 -128 90 1 0 0 0 1 0 -0 0 1 3005.dat
1 71 -130 -128 150 1 0 0 0 1 0 -0 0 1 3005.dat
1 71 -110 -128 -170 1 0 0 0 1 0 -0 0 1 3005.dat
1 71 -70 -128 170 1 0 0 0 1 0 -0 0 1 3005.dat
1 71 -20 -128 -190 1 0 0 0 1 0 -0 0 1 3010.dat
1 71 30 -128 -190 1 0 0 0 1 0 -0 0 1 3005.dat
1 71 50 -128 170 1 0 0 0 1 0 -0 0 1 3005.dat
1 71 90 -128 -170 1 0 0 0 1 0 -0 0 1 3005.dat
1 71 150 -128 -130 1 0 0 0 1 0 -0 0 1 3005.dat
1 71 170 -128 -70 1 0 0 0 1 0 -0 0 1 3005.dat
1 71 170 -128 50 1 0 0 0 1 0 -0 0 1 3005.dat
1 71 190 -128 0 0 0 1 0 1 0 -1 0 0 3010.dat
1 71 -190 -136 -70 1 0 0 0 1 0 -0 0 1 3005.dat
1 71 -190 -136 60 0 0 1 0 1 0 -1 0 0 3004.dat
1 71 -150 -136 130 1 0 0 0 1 0 -0 0 1 3005.dat
1 71 -90 -136 170 1 0 0 0 1 0 -0 0 1 3005.dat
1 71 -70 -136 -190 1 0 0 0 1 0 -0 0 1 3005.dat
1 71 60 -136 -190 1 0 0 0 1 0 -0 0 1 3004.dat
1 71 70 -136 170 1 0 0 0 1 0 -0 0 1 3005.dat
1 71 110 -136 150 1 0 0 0 1 0 -0 0 1 3005.dat
1 71 130 -136 -150 1 0 0 0 1 0 -0 0 1 3005.dat
1 71 130 -136 130 1 0 0 0 1 0 -0 0 1 3005.dat
1 71 150 -136 110 1 0 0 0 1 0 -0 0 1 3005.dat
1 71 170 -136 -90 1 0 0 0 1 0 -0 0 1 3005.dat
1 71 170 -136 70 1 0 0 0 1 0 -0 0 1 3005.dat
1 71 -190 -144 -90 1 0 0 0 1 0 -0 0 1 3005.dat
1 71 -170 -144 -130 1 0 0 0 1 0 -0 0 1 3005.dat
1 71 -170 -144 110 1 0 0 0 1 0 -0 0 1 3005.dat
1 71 -150 -144 -150 1 0 0 0 1 0 -0 0 1 3005.dat
1 71 -130 -144 -170 1 0 0 0 1 0 -0 0 1 3005.dat
1 71 -110 -144 170 1 0 0 0 1 0 -0 0 1 3005.dat
1 71 -90 -144 -190 1 0 0 0 1 0 -0 0 1 3005.dat
1 71 -20 -144 190 1 0 0 0 1 0 -0 0 1 3010.dat
1 71 30 -144 190 1 0 0 0 1 0 -0 0 1 3005.dat
1 71 90 -144 170 1 0 0 0 1 0 -0 0 1 3005.dat
1 71 110 -144 -170 1 0 0 0 1 0 -0 0 1 3005.dat
1 71 170 -144 -110 1 0 0 0 1 0 -0 0 1 3005.dat
1 71 170 -144 90 1 0 0 0 1 0 -0 0 1 3005.dat
1 71 190 -144 -50 1 0 0 0 1 0 -0 0 1 3005.dat
1 71 -190 -152 -20 0 0 1 0 1 0 -1 0 0 3010.dat
1 71 -190 -152 30 1 0 0 0 1 0 -0 0 1 3005.dat
1 71 -170 -152 -110 1 0 0 0 1 0 -0 0 1 3005.dat
1 71 -170 -152 90 1 0 0 0 1 0 -0 0 1 3005.dat
1 71 -130 -152 150 1 0 0 0 1 0 -0 0 1 3005.dat
1 71 -110 -152 -170 1 0 0 0 1 0 -0 0 1 3005.dat
1 71 -70 -152 170 1 0 0 0 1 0 -0 0 1 3005.dat
1 71 -20 -152 -190 1 0 0 0 1 0 -0 0 1 3010.dat
1 71 30 -152 -190 1 0 0 0 1 0 -0 0 1 3005.dat
1 71 50 -152 170 1 0 0 0 1 0 -0 0 1 3005.dat
1 71 90 -152 -170 1 0 0 0 1 0 -0 0 1 3005.dat
1 71 150 -152 -130 1 0 0 0 1 0 -0 0 1 3005.dat
1 71 170 -152 -70 1 0 0 0 1 0 -0 0 1 3005.dat
1 71 170 -152 50 1 0 0 0 1 0 -0 0 1 3005.dat
1 71 190 -152 0 0 0 1 0 1 0 -1 0 0 3010.dat
1 71 -190 -160 -70 1 0 0 0 1 0 -0 0 1 3005.dat
1 71 -190 -160 60 0 0 1 0 1 0 -1 0 0 3004.dat
1 71 -150 -160 130 1 0 0 0 1 0 -0 0 1 3005.dat
1 71 -90 -160 170 1 0 0 0 1 0 -0 0 1 3005.dat
1 71 -70 -160 -190 1 0 0 0 1 0 -0 0 1 3005.dat
1 71 60 -160 -190 1 0 0 0 1 0 -0 0 1 3004.dat
1 71 70 -160 170 1 0 0 0 1 0 -0 0 1 3005.dat
1 71 110 -160 150 1 0 0 0 1 0 -0 0 1 3005.dat
1 71 130 -160 -150 1 0 0 0 1 0 -0 0 1 3005.dat
1 71 130 -160 130 1 0 0 0 1 0 -0 0 1 3005.dat
1 71 150 -160 110 1 0 0 0 1 0 -0 0 1 3005.dat
1 71 170 -160 -90 1 0 0 0 1 0 -0 0 1 3005.dat
1 71 170 -160 70 1 0 0 0 1 0 -0 0 1 3005.dat
1 71 -190 -168 -90 1 0 0 0 1 0 -0 0 1 3005.dat
1 71 -170 -168 -130 1 0 0 0 1 0 -0 0 1 3005.dat
1 71 -170 -168 110 1 0 0 0 1 0 -0 0 1 3005.dat
1 71 -150 -168 -150 1 0 0 0 1 0 -0 0 1 3005.dat
1 71 -130 -168 -170 1 0 0 0 1 0 -0 0 1 3005.dat
1 71 -110 -168 170 1 0 0 0 1 0 -0 0 1 3005.dat
1 71 -90 -168 -190 1 0 0 0 1 0 -0 0 1 3005.dat
1 71 -20 -168 190 1 0 0 0 1 0 -0 0 1 3010.dat
1 71 30 -168 190 1 0 0 0 1 0 -0 0 1 3005.dat
1 71 90 -168 170 1 0 0 0 1 0 -0 0 1 3005.dat
1 71 110 -168 -170 1 0 0 0 1 0 -0 0 1 3005.dat
1 71 170 -168 -110 1 0 0 0 1 0 -0 0 1 3005.dat
1 71 170 -168 90 1 0 0 0 1 0 -0 0 1 3005.dat
1 71 190 -168 -50 1 0 0 0 1 0 -0 0 1 3005.dat
1 71 -190 -176 -20 0 0 1 0 1 0 -1 0 0 3010.dat
1 71 -190 -176 30 1 0 0 0 1 0 -0 0 1 3005.dat
1 71 -170 -176 -110 1 0 0 0 1 0 -0 0 1 3005.dat
1 71 -170 -176 90 1 0 0 0 1 0 -0 0 1 3005.dat
1 71 -130 -176 150 1 0 0 0 1 0 -0 0 1 3005.dat
1 71 -110 -176 -170 1 0 0 0 1 0 -0 0 1 3005.dat
1 71 -70 -176 170 1 0 0 0 1 0 -0 0 1 3005.dat
1 71 -20 -176 -190 1 0 0 0 1 0 -0 0 1 3010.dat
1 71 30 -176 -190 1 0 0 0 1 0 -0 0 1 3005.dat
1 71 50 -176 170 1 0 0 0 1 0 -0 0 1 3005.dat
1 71 90 -176 -170 1 0 0 0 1 0 -0 0 1 3005.dat
1 71 150 -176 -130 1 0 0 0 1 0 -0 0 1 3005.dat
1 71 170 -176 -70 1 0 0 0 1 0 -0 0 1 3005.dat
1 71 170 -176 50 1 0 0 0 1 0 -0 0 1 3005.dat
1 71 190 -176 0 0 0 1 0 1 0 -1 0 0 3010.dat
1 71 -190 -184 -70 1 0 0 0 1 0 -0 0 1 3005.dat
1 71 -190 -184 60 0 0 1 0 1 0 -1 0 0 3004.dat
1 71 -150 -184 130 1 0 0 0 1 0 -0 0 1 3005.dat
1 71 -90 -184 170 1 0 0 0 1 0 -0 0 1 3005.dat
1 71 -70 -184 -190 1 0 0 0 1 0 -0 0 1 3005.dat
1 71 60 -184 -190 1 0 0 0 1 0 -0 0 1 3004.dat
1 71 70 -184 170 1 0 0 0 1 0 -0 0 1 3005.dat
1 71 110 -184 150 1 0 0 0 1 0 -0 0 1 3005.dat
1 71 130 -184 -150 1 0 0 0 1 0 -0 0 1 3005.dat
1 71 130 -184 130 1 0 0 0 1 0 -0 0 1 3005.dat
1 71 150 -184 110 1 0 0 0 1 0 -0 0 1 3005.dat
1 71 170 -184 -90 1 0 0 0 1 0 -0 0 1 3005.dat
1 71 170 -184 70 1 0 0 0 1 0 -0 0 1 3005.dat
1 71 -190 -192 -90 1 0 0 0 1 0 -0 0 1 3005.dat
1 71 -170 -192 -130 1 0 0 0 1 0 -0 0 1 3005.dat
1 71 -170 -192 110 1 0 0 0 1 0 -0 0 1 3005.dat
1 71 -150 -192 -150 1 0 0 0 1 0 -0 0 1 3005.dat
1 71 -130 -192 -170 1 0 0 0 1 0 -0 0 1 3005.dat
1 71 -110 -192 170 1 0 0 0 1 0 -0 0 1 3005.dat
1 71 -90 -192 -190 1 0 0 0 1 0 -0 0 1 3005.dat
1 71 -20 -192 190 1 0 0 0 1 0 -0 0 1 3010.dat
1 71 30 -192 190 1 0 0 0 1 0 -0 0 1 3005.dat
1 71 90 -192 170 1 0 0 0 1 0 -0 0 1 3005.dat
1 71 110 -192 -170 1 0 0 0 1 0 -0 0 1 3005.dat
1 71 170 -192 -110 1 0 0 0 1 0 -0 0 1 3005.dat
1 71 170 -192 90 1 0 0 0 1 0 -0 0 1 3005.dat
1 71 190 -192 -50 1 0 0 0 1 0 -0 0 1 3005.dat
1 71 -190 -200 -20 0 0 1 0 1 0 -1 0 0 3010.dat
1 71 -190 -200 30 1 0 0 0 1 0 -0 0 1 3005.dat
1 71 -170 -200 -110 1 0 0 0 1 0 -0 0 1 3005.dat
1 71 -170 -200 90 1 0 0 0 1 0 -0 0 1 3005.dat
1 71 -130 -200 150 1 0 0 0 1 0 -0 0 1 3005.dat
1 71 -110 -200 -170 1 0 0 0 1 0 -0 0 1 3005.dat
1 71 -70 -200 170 1 0 0 0 1 0 -0 0 1 3005.dat
1 71 -20 -200 -190 1 0 0 0 1 0 -0 0 1 3010.dat
1 71 30 -200 -190 1 0 0 0 1 0 -0 0 1 3005.dat
1 71 50 -200 170 1 0 0 0 1 0 -0 0 1 3005.dat
1 71 90 -200 -170 1 0 0 0 1 0 -0 0 1 3005.dat
1 71 150 -200 -130 1 0 0 0 1 0 -0 0 1 3005.dat
1 71 170 -200 -70 1 0 0 0 1 0 -0 0 1 3005.dat
1 71 170 -200 50 1 0 0 0 1 0 -0 0 1 3005.dat
1 71 190 -200 0 0 0 1 0 1 0 -1 0 0 3010.dat
1 71 -190 -208 -70 1 0 0 0 1 0 -0 0 1 3005.dat
1 71 -190 -208 60 0 0 1 0 1 0 -1 0 0 3004.dat
1 71 -150 -208 130 1 0 0 0 1 0 -0 0 1 3005.dat
1 71 -90 -208 170 1 0 0 0 1 0 -0 0 1 3005.dat
1 71 -70 -208 -190 1 0 0 0 1 0 -0 0 1 3005.dat
1 71 60 -208 -190 1 0 0 0 1 0 -0 0 1 3004.dat
1 71 70 -208 170 1 0 0 0 1 0 -0 0 1 3005.dat
1 71 110 -208 150 1 0 0 0 1 0 -0 0 1 3005.dat
1 71 130 -208 -150 1 0 0 0 1 0 -0 0 1 3005.dat
1 71 130 -208 130 1 0 0 0 1 0 -0 0 1 3005.dat
1 71 150 -208 110 1 0 0 0 1 0 -0 0 1 3005.dat
1 71 170 -208 -90 1 0 0 0 1 0 -0 0 1 3005.dat
1 71 170 -208 70 1 0 0 0 1 0 -0 0 1 3005.dat
1 71 -190 -216 -90 1 0 0 0 1 0 -0 0 1 3005.dat
1 71 -170 -216 -130 1 0 0 0 1 0 -0 0 1 3005.dat
1 71 -170 -216 110 1 0 0 0 1 0 -0 0 1 3005.dat
1 71 -150 -216 -150 1 0 0 0 1 0 -0 0 1 3005.dat
1 71 -130 -216 -170 1 0 0 0 1 0 -0 0 1 3005.dat
1 71 -110 -216 170 1 0 0 0 1 0 -0 0 1 3005.dat
1 71 -90 -216 -190 1 0 0 0 1 0 -0 0 1 3005.dat
1 71 -20 -216 190 1 0 0 0 1 0 -0 0 1 3010.dat
1 71 30 -216 190 1 0 0 0 1 0 -0 0 1 3005.dat
1 71 90 -216 170 1 0 0 0 1 0 -0 0 1 3005.dat
1 71 110 -216 -170 1 0 0 0 1 0 -0 0 1 3005.dat
1 71 170 -216 -110 1 0 0 0 1 0 -0 0 1 3005.dat
1 71 170 -216 90 1 0 0 0 1 0 -0 0 1 3005.dat
1 71 190 -216 -50 1 0 0 0 1 0 -0 0 1 3005.dat
1 71 -190 -224 -20 0 0 1 0 1 0 -1 0 0 3010.dat
1 71 -190 -224 30 1 0 0 0 1 0 -0 0 1 3005.dat
1 71 -170 -224 -110 1 0 0 0 1 0 -0 0 1 3005.dat
1 71 -170 -224 90 1 0 0 0 1 0 -0 0 1 3005.dat
1 71 -130 -224 150 1 0 0 0 1 0 -0 0 1 3005.dat
1 71 -110 -224 -170 1 0 0 0 1 0 -0 0 1 3005.dat
1 71 -70 -224 170 1 0 0 0 1 0 -0 0 1 3005.dat
1 71 -20 -224 -190 1 0 0 0 1 0 -0 0 1 3010.dat
1 71 30 -224 -190 1 0 0 0 1 0 -0 0 1 3005.dat
1 71 50 -224 170 1 0 0 0 1 0 -0 0 1 3005.dat
1 71 90 -224 -170 1 0 0 0 1 0 -0 0 1 3005.dat
1 71 150 -224 -130 1 0 0 0 1 0 -0 0 1 3005.dat
1 71 170 -224 -70 1 0 0 0 1 0 -0 0 1 3005.dat
1 71 170 -224 50 1 0 0 0 1 0 -0 0 1 3005.dat
1 71 190 -224 0 0 0 1 0 1 0 -1 0 0 3010.dat
1 71 -190 -232 -70 1 0 0 0 1 0 -0 0 1 3005.dat
1 71 -190 -232 60 0 0 1 0 1 0 -1 0 0 3004.dat
1 71 -150 -232 130 1 0 0 0 1 0 -0 0 1 3005.dat
1 71 -90 -232 170 1 0 0 0 1 0 -0 0 1 3005.dat
1 71 -70 -232 -190 1 0 0 0 1 0 -0 0 1 3005.dat
1 71 60 -232 -190 1 0 0 0 1 0 -0 0 1 3004.dat
1 71 70 -232 170 1 0 0 0 1 0 -0 0 1 3005.dat
1 71 110 -232 150 1 0 0 0 1 0 -0 0 1 3005.dat
1 71 130 -232 -150 1 0 0 0 1 0 -0 0 1 3005.dat
1 71 130 -232 130 1 0 0 0 1 0 -0 0 1 3005.dat
1 71 150 -232 110 1 0 0 0 1 0 -0 0 1 3005.dat
1 71 170 -232 -90 1 0 0 0 1 0 -0 0 1 3005.dat
1 71 170 -232 70 1 0 0 0 1 0 -0 0 1 3005.dat
1 71 -190 -240 -90 1 0 0 0 1 0 -0 0 1 3005.dat
1 71 -170 -240 -130 1 0 0 0 1 0 -0 0 1 3005.dat
1 71 -170 -240 110 1 0 0 0 1 0 -0 0 1 3005.dat
1 71 -150 -240 -150 1 0 0 0 1 0 -0 0 1 3005.dat
1 71 -130 -240 -170 1 0 0 0 1 0 -0 0 1 3005.dat
1 71 -110 -240 170 1 0 0 0 1 0 -0 0 1 3005.dat
1 71 -90 -240 -190 1 0 0 0 1 0 -0 0 1 3005.dat
1 71 -20 -240 190 1 0 0 0 1 0 -0 0 1 3010.dat
1 71 30 -240 190 1 0 0 0 1 0 -0 0 1 3005.dat
1 71 90 -240 170 1 0 0 0 1 0 -0 0 1 3005.dat
1 71 110 -240 -170 1 0 0 0 1 0 -0 0 1 3005.dat
1 71 170 -240 -110 1 0 0 0 1 0 -0 0 1 3005.dat
1 71 170 -240 90 1 0 0 0 1 0 -0 0 1 3005.dat
1 71 190 -240 -50 1 0 0 0 1 0 -0 0 1 3005.dat
1 71 -190 -248 -20 0 0 1 0 1 0 -1 0 0 3010.dat
1 71 -190 -248 30 1 0 0 0 1 0 -0 0 1 3005.dat
1 71 -170 -248 -110 1 0 0 0 1 0 -0 0 1 3005.dat
1 71 -170 -248 90 1 0 0 0 1 0 -0 0 1 3005.dat
1 71 -130 -248 150 1 0 0 0 1 0 -0 0 1 3005.dat
1 71 -110 -248 -170 1 0 0 0 1 0 -0 0 1 3005.dat
1 71 -70 -248 170 1 0 0 0 1 0 -0 0 1 3005.dat
1 71 -20 -248 -190 1 0 0 0 1 0 -0 0 1 3010.dat
1 71 30 -248 -190 1 0 0 0 1 0 -0 0 1 3005.dat
1 71 50 -248 170 1 0 0 0 1 0 -0 0 1 3005.dat
1 71 90 -248 -170 1 0 0 0 1 0 -0 0 1 3005.dat
1 71 150 -248 -130 1 0 0 0 1 0 -0 0 1 3005.dat
1 71 170 -248 -70 1 0 0 0 1 0 -0 0 1 3005.dat
1 71 170 -248 50 1 0 0 0 1 0 -0 0 1 3005.dat
1 71 190 -248 0 0 0 1 0 1 0 -1 0 0 3010.dat
1 71 -190 -256 -70 1 0 0 0 1 0 -0 0 1 3005.dat
1 71 -190 -256 60 0 0 1 0 1 0 -1 0 0 3004.dat
1 71 -150 -256 130 1 0 0 0 1 0 -0 0 1 3005.dat
1 71 -90 -256 170 1 0 0 0 1 0 -0 0 1 3005.dat
1 71 -70 -256 -190 1 0 0 0 1 0 -0 0 1 3005.dat
1 71 60 -256 -190 1 0 0 0 1 0 -0 0 1 3004.dat
1 71 70 -256 170 1 0 0 0 1 0 -0 0 1 3005.dat
1 71 110 -256 150 1 0 0 0 1 0 -0 0 1 3005.dat
1 71 130 -256 -150 1 0 0 0 1 0 -0 0 1 3005.dat
1 71 130 -256 130 1 0 0 0 1 0 -0 0 1 3005.dat
1 71 150 -256 110 1 0 0 0 1 0 -0 0 1 3005.dat
1 71 170 -256 -90 1 0 0 0 1 0 -0 0 1 3005.dat
1 71 170 -256 70 1 0 0 0 1 0 -0 0 1 3005.dat
1 71 -190 -264 -90 1 0 0 0 1 0 -0 0 1 3005.dat
1 71 -170 -264 -130 1 0 0 0 1 0 -0 0 1 3005.dat
1 71 -170 -264 110 1 0 0 0 1 0 -0 0 1 3005.dat
1 71 -150 -264 -150 1 0 0 0 1 0 -0 0 1 3005.dat
1 71 -130 -264 -170 1 0 0 0 1 0 -0 0 1 3005.dat
1 71 -110 -264 170 1 0 0 0 1 0 -0 0 1 3005.dat
1 71 -90 -264 -190 1 0 0 0 1 0 -0 0 1 3005.dat
1 71 -20 -264 190 1 0 0 0 1 0 -0 0 1 3010.dat
1 71 30 -264 190 1 0 0 0 1 0 -0 0 1 3005.dat
1 71 90 -264 170 1 0 0 0 1 0 -0 0 1 3005.dat
1 71 110 -264 -170 1 0 0 0 1 0 -0 0 1 3005.dat
1 71 170 -264 -110 1 0 0 0 1 0 -0 0 1 3005.dat
1 71 170 -264 90 1 0 0 0 1 0 -0 0 1 3005.dat
1 71 190 -264 -50 1 0 0 0 1 0 -0 0 1 3005.dat
1 71 -190 -272 -20 0 0 1 0 1 0 -1 0 0 3010.dat
1 71 -190 -272 30 1 0 0 0 1 0 -0 0 1 3005.dat
1 71 -170 -272 -110 1 0 0 0 1 0 -0 0 1 3005.dat
1 71 -170 -272 90 1 0 0 0 1 0 -0 0 1 3005.dat
1 71 -130 -272 150 1 0 0 0 1 0 -0 0 1 3005.dat
1 71 -110 -272 -170 1 0 0 0 1 0 -0 0 1 3005.dat
1 71 -70 -272 170 1 0 0 0 1 0 -0 0 1 3005.dat
1 71 -20 -272 -190 1 0 0 0 1 0 -0 0 1 3010.dat
1 71 30 -272 -190 1 0 0 0 1 0 -0 0 1 3005.dat
1 71 50 -272 170 1 0 0 0 1 0 -0 0 1 3005.dat
1 71 90 -272 -170 1 0 0 0 1 0 -0 0 1 3005.dat
1 71 150 -272 -130 1 0 0 0 1 0 -0 0 1 3005.dat
1 71 170 -272 -70 1 0 0 0 1 0 -0 0 1 3005.dat
1 71 170 -272 50 1 0 0 0 1 0 -0 0 1 3005.dat
1 71 190 -272 0 0 0 1 0 1 0 -1 0 0 3010.dat
1 71 -190 -280 -70 1 0 0 0 1 0 -0 0 1 3005.dat
1 71 -190 -280 60 0 0 1 0 1 0 -1 0 0 3004.dat
1 71 -150 -280 130 1 0 0 0 1 0 -0 0 1 3005.dat
1 71 -90 -280 170 1 0 0 0 1 0 -0 0 1 3005.dat
1 71 -70 -280 -190 1 0 0 0 1 0 -0 0 1 3005.dat
1 71 60 -280 -190 1 0 0 0 1 0 -0 0 1 3004.dat
1 71 70 -280 170 1 0 0 0 1 0 -0 0 1 3005.dat
1 71 110 -280 150 1 0 0 0 1 0 -0 0 1 3005.dat
1 71 130 -280 -150 1 0 0 0 1 0 -0 0 1 3005.dat
1 71 130 -280 130 1 0 0 0 1 0 -0 0 1 3005.dat
1 71 150 -280 110 1 0 0 0 1 0 -0 0 1 3005.dat
1 71 170 -280 -90 1 0 0 0 1 0 -0 0 1 3005.dat
1 71 170 -280 70 1 0 0 0 1 0 -0 0 1 3005.dat
1 71 -190 -288 -90 1 0 0 0 1 0 -0 0 1 3005.dat
1 71 -170 -288 -130 1 0 0 0 1 0 -0 0 1 3005.dat
1 71 -170 -288 110 1 0 0 0 1 0 -0 0 1 3005.dat
1 71 -150 -288 -150 1 0 0 0 1 0 -0 0 1 3005.dat
1 71 -130 -288 -170 1 0 0 0 1 0 -0 0 1 3005.dat
1 71 -110 -288 170 1 0 0 0 1 0 -0 0 1 3005.dat
1 71 -90 -288 -190 1 0 0 0 1 0 -0 0 1 3005.dat
1 71 -20 -288 190 1 0 0 0 1 0 -0 0 1 3010.dat
1 71 30 -288 190 1 0 0 0 1 0 -0 0 1 3005.dat
1 71 90 -288 170 1 0 0 0 1 0 -0 0 1 3005.dat
1 71 110 -288 -170 1 0 0 0 1 0 -0 0 1 3005.dat
1 71 170 -288 -110 1 0 0 0 1 0 -0 0 1 3005.dat
1 71 170 -288 90 1 0 0 0 1 0 -0 0 1 3005.dat
1 71 190 -288 -50 1 0 0 0 1 0 -0 0 1 3005.dat
1 71 -190 -296 -20 0 0 1 0 1 0 -1 0 0 3010.dat
1 71 -190 -296 30 1 0 0 0 1 0 -0 0 1 3005.dat
1 71 -170 -296 -110 1 0 0 0 1 0 -0 0 1 3005.dat
1 71 -170 -296 90 1 0 0 0 1 0 -0 0 1 3005.dat
1 71 -130 -296 150 1 0 0 0 1 0 -0 0 1 3005.dat
1 71 -110 -296 -170 1 0 0 0 1 0 -0 0 1 3005.dat
1 71 -70 -296 170 1 0 0 0 1 0 -0 0 1 3005.dat
1 71 -20 -296 -190 1 0 0 0 1 0 -0 0 1 3010.dat
1 71 30 -296 -190 1 0 0 0 1 0 -0 0 1 3005.dat
1 71 50 -296 170 1 0 0 0 1 0 -0 0 1 3005.dat
1 71 90 -296 -170 1 0 0 0 1 0 -0 0 1 3005.dat
1 71 150 -296 -130 1 0 0 0 1 0 -0 0 1 3005.dat
1 71 170 -296 -70 1 0 0 0 1 0 -0 0 1 3005.dat
1 71 170 -296 50 1 0 0 0 1 0 -0 0 1 3005.dat
1 71 190 -296 0 0 0 1 0 1 0 -1 0 0 3010.dat
1 71 -190 -304 -70 1 0 0 0 1 0 -0 0 1 3005.dat
1 71 -190 -304 60 0 0 1 0 1 0 -1 0 0 3004.dat
1 71 -150 -304 130 1 0 0 0 1 0 -0 0 1 3005.dat
1 71 -90 -304 170 1 0 0 0 1 0 -0 0 1 3005.dat
1 71 -70 -304 -190 1 0 0 0 1 0 -0 0 1 3005.dat
1 71 60 -304 -190 1 0 0 0 1 0 -0 0 1 3004.dat
1 71 70 -304 170 1 0 0 0 1 0 -0 0 1 3005.dat
1 71 110 -304 150 1 0 0 0 1 0 -0 0 1 3005.dat
1 71 130 -304 -150 1 0 0 0 1 0 -0 0 1 3005.dat
1 71 130 -304 130 1 0 0 0 1 0 -0 0 1 3005.dat
1 71 150 -304 110 1 0 0 0 1 0 -0 0 1 3005.dat
1 71 170 -304 -90 1 0 0 0 1 0 -0 0 1 3005.dat
1 71 170 -304 70 1 0 0 0 1 0 -0 0 1 3005.dat
1 71 -190 -312 -90 1 0 0 0 1 0 -0 0 1 3005.dat
1 71 -170 -312 -130 1 0 0 0 1 0 -0 0 1 3005.dat
1 71 -170 -312 110 1 0 0 0 1 0 -0 0 1 3005.dat
1 71 -150 -312 -150 1 0 0 0 1 0 -0 0 1 3005.dat
1 71 -130 -312 -170 1 0 0 0 1 0 -0 0 1 3005.dat
1 71 -110 -312 170 1 0 0 0 1 0 -0 0 1 3005.dat
1 71 -90 -312 -190 1 0 0 0 1 0 -0 0 1 3005.dat
1 71 -20 -312 190 1 0 0 0 1 0 -0 0 1 3010.dat
1 71 30 -312 190 1 0 0 0 1 0 -0 0 1 3005.dat
1 71 90 -312 170 1 0 0 0 1 0 -0 0 1 3005.dat
1 71 110 -312 -170 1 0 0 0 1 0 -0 0 1 3005.dat
1 71 170 -312 -110 1 0 0 0 1 0 -0 0 1 3005.dat
1 71 170 -312 90 1 0 0 0 1 0 -0 0 1 3005.dat
1 71 190 -312 -50 1 0 0 0 1 0 -0 0 1 3005.dat
1 71 -190 -320 -20 0 0 1 0 1 0 -1 0 0 3010.dat
1 71 -190 -320 30 1 0 0 0 1 0 -0 0 1 3005.dat
1 71 -170 -320 -110 1 0 0 0 1 0 -0 0 1 3005.dat
1 71 -170 -320 90 1 0 0 0 1 0 -0 0 1 3005.dat
1 71 -130 -320 150 1 0 0 0 1 0 -0 0 1 3005.dat
1 71 -110 -320 -170 1 0 0 0 1 0 -0 0 1 3005.dat
1 71 -70 -320 170 1 0 0 0 1 0 -0 0 1 3005.dat
1 71 -20 -320 -190 1 0 0 0 1 0 -0 0 1 3010.dat
1 71 30 -320 -190 1 0 0 0 1 0 -0 0 1 3005.dat
1 71 50 -320 170 1 0 0 0 1 0 -0 0 1 3005.dat
1 71 90 -320 -170 1 0 0 0 1 0 -0 0 1 3005.dat
1 71 150 -320 -130 1 0 0 0 1 0 -0 0 1 3005.dat
1 71 170 -320 -70 1 0 0 0 1 0 -0 0 1 3005.dat
1 71 170 -320 50 1 0 0 0 1 0 -0 0 1 3005.dat
1 71 190 -320 0 0 0 1 0 1 0 -1 0 0 3010.dat
1 71 -190 -328 -70 1 0 0 0 1 0 -0 0 1 3005.dat
1 71 -190 -328 60 0 0 1 0 1 0 -1 0 0 3004.dat
1 71 -150 -328 130 1 0 0 0 1 0 -0 0 1 3005.dat
1 71 -90 -328 170 1 0 0 0 1 0 -0 0 1 3005.dat
1 71 -70 -328 -190 1 0 0 0 1 0 -0 0 1 3005.dat
1 71 60 -328 -190 1 0 0 0 1 0 -0 0 1 3004.dat
1 71 70 -328 170 1 0 0 0 1 0 -0 0 1 3005.dat
1 71 110 -328 150 1 0 0 0 1 0 -0 0 1 3005.dat
1 71 130 -328 -150 1 0 0 0 1 0 -0 0 1 3005.dat
1 71 130 -328 130 1 0 0 0 1 0 -0 0 1 3005.dat
1 71 150 -328 110 1 0 0 0 1 0 -0 0 1 3005.dat
1 71 170 -328 -90 1 0 0 0 1 0 -0 0 1 3005.dat
1 71 170 -328 70 1 0 0 0 1 0 -0 0 1 3005.dat
1 71 -190 -336 -90 1 0 0 0 1 0 -0 0 1 3005.dat
1 71 -170 -336 -130 1 0 0 0 1 0 -0 0 1 3005.dat
1 71 -170 -336 110 1 0 0 0 1 0 -0 0 1 3005.dat
1 71 -150 -336 -150 1 0 0 0 1 0 -0 0 1 3005.dat
1 71 -130 -336 -170 1 0 0 0 1 0 -0 0 1 3005.dat
1 71 -110 -336 170 1 0 0 0 1 0 -0 0 1 3005.dat
1 71 -90 -336 -190 1 0 0 0 1 0 -0 0 1 3005.dat
1 71 -20 -336 190 1 0 0 0 1 0 -0 0 1 3010.dat
1 71 30 -336 190 1 0 0 0 1 0 -0 0 1 3005.dat
1 71 90 -336 170 1 0 0 0 1 0 -0 0 1 3005.dat
1 71 110 -336 -170 1 0 0 0 1 0 -0 0 1 3005.dat
1 71 170 -336 -110 1 0 0 0 1 0 -0 0 1 3005.dat
1 71 170 -336 90 1 0 0 0 1 0 -0 0 1 3005.dat
1 71 190 -336 -50 1 0 0 0 1 0 -0 0 1 3005.dat
1 71 -190 -344 -20 0 0 1 0 1 0 -1 0 0 3010.dat
1 71 -190 -344 30 1 0 0 0 1 0 -0 0 1 3005.dat
1 71 -170 -344 -110 1 0 0 0 1 0 -0 0 1 3005.dat
1 71 -170 -344 90 1 0 0 0 1 0 -0 0 1 3005.dat
1 71 -130 -344 150 1 0 0 0 1 0 -0 0 1 3005.dat
1 71 -110 -344 -170 1 0 0 0 1 0 -0 0 1 3005.dat
1 71 -70 -344 170 1 0 0 0 1 0 -0 0 1 3005.dat
1 71 -20 -344 -190 1 0 0 0 1 0 -0 0 1 3010.dat
1 71 30 -344 -190 1 0 0 0 1 0 -0 0 1 3005.dat
1 71 50 -344 170 1 0 0 0 1 0 -0 0 1 3005.dat
1 71 90 -344 -170 1 0 0 0 1 0 -0 0 1 3005.dat
1 71 150 -344 -130 1 0 0 0 1 0 -0 0 1 3005.dat
1 71 170 -344 -70 1 0 0 0 1 0 -0 0 1 3005.dat
1 71 170 -344 50 1 0 0 0 1 0 -0 0 1 3005.dat
1 71 190 -344 0 0 0 1 0 1 0 -1 0 0 3010.dat
1 71 -190 -352 -70 1 0 0 0 1 0 -0 0 1 3005.dat
1 71 -190 -352 60 0 0 1 0 1 0 -1 0 0 3004.dat
1 71 -150 -352 130 1 0 0 0 1 0 -0 0 1 3005.dat
1 71 -90 -352 170 1 0 0 0 1 0 -0 0 1 3005.dat
1 71 -70 -352 -190 1 0 0 0 1 0 -0 0 1 3005.dat
1 71 60 -352 -190 1 0 0 0 1 0 -0 0 1 3004.dat
1 71 70 -352 170 1 0 0 0 1 0 -0 0 1 3005.dat
1 71 110 -352 150 1 0 0 0 1 0 -0 0 1 3005.dat
1 71 130 -352 -150 1 0 0 0 1 0 -0 0 1 3005.dat
1 71 130 -352 130 1 0 0 0 1 0 -0 0 1 3005.dat
1 71 150 -352 110 1 0 0 0 1 0 -0 0 1 3005.dat
1 71 170 -352 -90 1 0 0 0 1 0 -0 0 1 3005.dat
1 71 170 -352 70 1 0 0 0 1 0 -0 0 1 3005.dat
1 71 -190 -360 -90 1 0 0 0 1 0 -0 0 1 3005.dat
1 71 -170 -360 -130 1 0 0 0 1 0 -0 0 1 3005.dat
1 71 -170 -360 110 1 0 0 0 1 0 -0 0 1 3005.dat
1 71 -150 -360 -150 1 0 0 0 1 0 -0 0 1 3005.dat
1 71 -130 -360 -170 1 0 0 0 1 0 -0 0 1 3005.dat
1 71 -110 -360 170 1 0 0 0 1 0 -0 0 1 3005.dat
1 71 -90 -360 -190 1 0 0 0 1 0 -0 0 1 3005.dat
1 71 -20 -360 190 1 0 0 0 1 0 -0 0 1 3010.dat
1 71 30 -360 190 1 0 0 0 1 0 -0 0 1 3005.dat
1 71 90 -360 170 1 0 0 0 1 0 -0 0 1 3005.dat
1 71 110 -360 -170 1 0 0 0 1 0 -0 0 1 3005.dat
1 71 170 -360 -110 1 0 0 0 1 0 -0 0 1 3005.dat
1 71 170 -360 90 1 0 0 0 1 0 -0 0 1 3005.dat
1 71 190 -360 -50 1 0 0 0 1 0 -0 0 1 3005.dat
1 71 -190 -368 -20 0 0 1 0 1 0 -1 0 0 3010.dat
1 71 -190 -368 30 1 0 0 0 1 0 -0 0 1 3005.dat
1 71 -170 -368 -110 1 0 0 0 1 0 -0 0 1 3005.dat
1 71 -170 -368 90 1 0 0 0 1 0 -0 0 1 3005.dat
1 71 -130 -368 150 1 0 0 0 1 0 -0 0 1 3005.dat
1 71 -110 -368 -170 1 0 0 0 1 0 -0 0 1 3005.dat
1 71 -70 -368 170 1 0 0 0 1 0 -0 0 1 3005.dat
1 71 -20 -368 -190 1 0 0 0 1 0 -0 0 1 3010.dat
1 71 30 -368 -190 1 0 0 0 1 0 -0 0 1 3005.dat
1 71 50 -368 170 1 0 0 0 1 0 -0 0 1 3005.dat
1 71 90 -368 -170 1 0 0 0 1 0 -0 0 1 3005.dat
1 71 150 -368 -130 1 0 0 0 1 0 -0 0 1 3005.dat
1 71 170 -368 -70 1 0 0 0 1 0 -0 0 1 3005.dat
1 71 170 -368 50 1 0 0 0 1 0 -0 0 1 3005.dat
1 71 190 -368 0 0 0 1 0 1 0 -1 0 0 3010.dat
1 71 -190 -376 -70 1 0 0 0 1 0 -0 0 1 3005.dat
1 71 -190 -376 60 0 0 1 0 1 0 -1 0 0 3004.dat
1 71 -150 -376 130 1 0 0 0 1 0 -0 0 1 3005.dat
1 71 -90 -376 170 1 0 0 0 1 0 -0 0 1 3005.dat
1 71 -70 -376 -190 1 0 0 0 1 0 -0 0 1 3005.dat
1 71 60 -376 -190 1 0 0 0 1 0 -0 0 1 3004.dat
1 71 70 -376 170 1 0 0 0 1 0 -0 0 1 3005.dat
1 71 110 -376 150 1 0 0 0 1 0 -0 0 1 3005.dat
1 71 130 -376 -150 1 0 0 0 1 0 -0 0 1 3005.dat
1 71 130 -376 130 1 0 0 0 1 0 -0 0 1 3005.dat
1 71 150 -376 110 1 0 0 0 1 0 -0 0 1 3005.dat
1 71 170 -376 -90 1 0 0 0 1 0 -0 0 1 3005.dat
1 71 170 -376 70 1 0 0 0 1 0 -0 0 1 3005.dat
1 71 -190 -384 -90 1 0 0 0 1 0 -0 0 1 3005.dat
1 71 -170 -384 -130 1 0 0 0 1 0 -0 0 1 3005.dat
1 71 -170 -384 110 1 0 0 0 1 0 -0 0 1 3005.dat
1 71 -150 -384 -150 1 0 0 0 1 0 -0 0 1 3005.dat
1 71 -130 -384 -170 1 0 0 0 1 0 -0 0 1 3005.dat
1 71 -110 -384 170 1 0 0 0 1 0 -0 0 1 3005.dat
1 71 -90 -384 -190 1 0 0 0 1 0 -0 0 1 3005.dat
1 71 -20 -384 190 1 0 0 0 1 0 -0 0 1 3010.dat
1 71 30 -384 190 1 0 0 0 1 0 -0 0 1 3005.dat
1 71 90 -384 170 1 0 0 0 1 0 -0 0 1 3005.dat
1 71 110 -384 -170 1 0 0 0 1 0 -0 0 1 3005.dat
1 71 170 -384 -110 1 0 0 0 1 0 -0 0 1 3005.dat
1 71 170 -384 90 1 0 0 0 1 0 -0 0 1 3005.dat
1 71 190 -384 -50 1 0 0 0 1 0 -0 0 1 3005.dat
1 71 -190 -392 -20 0 0 1 0 1 0 -1 0 0 3010.dat
1 71 -190 -392 30 1 0 0 0 1 0 -0 0 1 3005.dat
1 71 -170 -392 -110 1 0 0 0 1 0 -0 0 1 3005.dat
1 71 -170 -392 90 1 0 0 0 1 0 -0 0 1 3005.dat
1 71 -130 -392 150 1 0 0 0 1 0 -0 0 1 3005.dat
1 71 -110 -392 -170 1 0 0 0 1 0 -0 0 1 3005.dat
1 71 -70 -392 170 1 0 0 0 1 0 -0 0 1 3005.dat
1 71 -20 -392 -190 1 0 0 0 1 0 -0 0 1 3010.dat
1 71 30 -392 -190 1 0 0 0 1 0 -0 0 1 3005.dat
1 71 50 -392 170 1 0 0 0 1 0 -0 0 1 3005.dat
1 71 90 -392 -170 1 0 0 0 1 0 -0 0 1 3005.dat
1 71 150 -392 -130 1 0 0 0 1 0 -0 0 1 3005.dat
1 71 170 -392 -70 1 0 0 0 1 0 -0 0 1 3005.dat
1 71 170 -392 50 1 0 0 0 1 0 -0 0 1 3005.dat
1 71 190 -392 0 0 0 1 0 1 0 -1 0 0 3010.dat
1 71 -190 -400 -70 1 0 0 0 1 0 -0 0 1 3005.dat
1 71 -190 -400 60 0 0 1 0 1 0 -1 0 0 3004.dat
1 71 -150 -400 130 1 0 0 0 1 0 -0 0 1 3005.dat
1 71 -90 -400 170 1 0 0 0 1 0 -0 0 1 3005.dat
1 71 -70 -400 -190 1 0 0 0 1 0 -0 0 1 3005.dat
1 71 60 -400 -190 1 0 0 0 1 0 -0 0 1 3004.dat
1 71 70 -400 170 1 0 0 0 1 0 -0 0 1 3005.dat
1 71 110 -400 150 1 0 0 0 1 0 -0 0 1 3005.dat
1 71 130 -400 -150 1 0 0 0 1 0 -0 0 1 3005.dat
1 71 130 -400 130 1 0 0 0 1 0 -0 0 1 3005.dat
1 71 150 -400 110 1 0 0 0 1 0 -0 0 1 3005.dat
1 71 170 -400 -90 1 0 0 0 1 0 -0 0 1 3005.dat
1 71 170 -400 70 1 0 0 0 1 0 -0 0 1 3005.dat
1 71 -190 -408 -90 1 0 0 0 1 0 -0 0 1 3005.dat
1 71 -170 -408 -130 1 0 0 0 1 0 -0 0 1 3005.dat
1 71 -170 -408 110 1 0 0 0 1 0 -0 0 1 3005.dat
1 71 -150 -408 -150 1 0 0 0 1 0 -0 0 1 3005.dat
1 71 -130 -408 -170 1 0 0 0 1 0 -0 0 1 3005.dat
1 71 -110 -408 170 1 0 0 0 1 0 -0 0 1 3005.dat
1 71 -90 -408 -190 1 0 0 0 1 0 -0 0 1 3005.dat
1 71 -20 -408 190 1 0 0 0 1 0 -0 0 1 3010.dat
1 71 30 -408 190 1 0 0 0 1 0 -0 0 1 3005.dat
1 71 90 -408 170 1 0 0 0 1 0 -0 0 1 3005.dat
1 71 110 -408 -170 1 0 0 0 1 0 -0 0 1 3005.dat
1 71 170 -408 -110 1 0 0 0 1 0 -0 0 1 3005.dat
1 71 170 -408 90 1 0 0 0 1 0 -0 0 1 3005.dat
1 71 190 -408 -50 1 0 0 0 1 0 -0 0 1 3005.dat
1 71 -190 -416 -20 0 0 1 0 1 0 -1 0 0 3010.dat
1 71 -190 -416 30 1 0 0 0 1 0 -0 0 1 3005.dat
1 71 -170 -416 -110 1 0 0 0 1 0 -0 0 1 3005.dat
1 71 -170 -416 90 1 0 0 0 1 0 -0 0 1 3005.dat
1 71 -130 -416 150 1 0 0 0 1 0 -0 0 1 3005.dat
1 71 -110 -416 -170 1 0 0 0 1 0 -0 0 1 3005.dat
1 71 -70 -416 170 1 0 0 0 1 0 -0 0 1 3005.dat
1 71 -20 -416 -190 1 0 0 0 1 0 -0 0 1 3010.dat
1 71 30 -416 -190 1 0 0 0 1 0 -0 0 1 3005.dat
1 71 50 -416 170 1 0 0 0 1 0 -0 0 1 3005.dat
1 71 90 -416 -170 1 0 0 0 1 0 -0 0 1 3005.dat
1 71 150 -416 -130 1 0 0 0 1 0 -0 0 1 3005.dat
1 71 170 -416 -70 1 0 0 0 1 0 -0 0 1 3005.dat
1 71 170 -416 50 1 0 0 0 1 0 -0 0 1 3005.dat
1 71 190 -416 0 0 0 1 0 1 0 -1 0 0 3010.dat
1 71 -190 -424 -70 1 0 0 0 1 0 -0 0 1 3005.dat
1 71 -190 -424 60 0 0 1 0 1 0 -1 0 0 3004.dat
1 71 -150 -424 130 1 0 0 0 1 0 -0 0 1 3005.dat
1 71 -90 -424 170 1 0 0 0 1 0 -0 0 1 3005.dat
1 71 -70 -424 -190 1 0 0 0 1 0 -0 0 1 3005.dat
1 71 60 -424 -190 1 0 0 0 1 0 -0 0 1 3004.dat
1 71 70 -424 170 1 0 0 0 1 0 -0 0 1 3005.dat
1 71 110 -424 150 1 0 0 0 1 0 -0 0 1 3005.dat
1 71 130 -424 -150 1 0 0 0 1 0 -0 0 1 3005.dat
1 71 130 -424 130 1 0 0 0 1 0 -0 0 1 3005.dat
1 71 150 -424 110 1 0 0 0 1 0 -0 0 1 3005.dat
1 71 170 -424 -90 1 0 0 0 1 0 -0 0 1 3005.dat
1 71 170 -424 70 1 0 0 0 1 0 -0 0 1 3005.dat
1 71 -190 -432 -90 1 0 0 0 1 0 -0 0 1 3005.dat
1 71 -170 -432 -130 1 0 0 0 1 0 -0 0 1 3005.dat
1 71 -170 -432 110 1 0 0 0 1 0 -0 0 1 3005.dat
1 71 -150 -432 -150 1 0 0 0 1 0 -0 0 1 3005.dat
1 71 -130 -432 -170 1 0 0 0 1 0 -0 0 1 3005.dat
1 71 -110 -432 170 1 0 0 0 1 0 -0 0 1 3005.dat
1 71 -90 -432 -190 1 0 0 0 1 0 -0 0 1 3005.dat
1 71 -20 -432 190 1 0 0 0 1 0 -0 0 1 3010.dat
1 71 30 -432 190 1 0 0 0 1 0 -0 0 1 3005.dat
1 71 90 -432 170 1 0 0 0 1 0 -0 0 1 3005.dat
1 71 110 -432 -170 1 0 0 0 1 0 -0 0 1 3005.dat
1 71 170 -432 -110 1 0 0 0 1 0 -0 0 1 3005.dat
1 71 170 -432 90 1 0 0 0 1 0 -0 0 1 3005.dat
1 71 190 -432 -50 1 0 0 0 1 0 -0 0 1 3005.dat
1 71 -190 -440 -20 0 0 1 0 1 0 -1 0 0 3010.dat
1 71 -190 -440 30 1 0 0 0 1 0 -0 0 1 3005.dat
1 71 -170 -440 -110 1 0 0 0 1 0 -0 0 1 3005.dat
1 71 -170 -440 90 1 0 0 0 1 0 -0 0 1 3005.dat
1 71 -130 -440 150 1 0 0 0 1 0 -0 0 1 3005.dat
1 71 -110 -440 -170 1 0 0 0 1 0 -0 0 1 3005.dat
1 71 -70 -440 170 1 0 0 0 1 0 -0 0 1 3005.dat
1 71 -20 -440 -190 1 0 0 0 1 0 -0 0 1 3010.dat
1 71 30 -440 -190 1 0 0 0 1 0 -0 0 1 3005.dat
1 71 50 -440 170 1 0 0 0 1 0 -0 0 1 3005.dat
1 71 90 -440 -170 1 0 0 0 1 0 -0 0 1 3005.dat
1 71 150 -440 -130 1 0 0 0 1 0 -0 0 1 3005.dat
1 71 170 -440 -70 1 0 0 0 1 0 -0 0 1 3005.dat
1 71 170 -440 50 1 0 0 0 1 0 -0 0 1 3005.dat
1 71 190 -440 0 0 0 1 0 1 0 -1 0 0 3010.dat
1 71 -190 -448 -70 1 0 0 0 1 0 -0 0 1 3005.dat
1 71 -190 -448 60 0 0 1 0 1 0 -1 0 0 3004.dat
1 71 -150 -448 130 1 0 0 0 1 0 -0 0 1 3005.dat
1 71 -90 -448 170 1 0 0 0 1 0 -0 0 1 3005.dat
1 71 -70 -448 -190 1 0 0 0 1 0 -0 0 1 3005.dat
1 71 60 -448 -190 1 0 0 0 1 0 -0 0 1 3004.dat
1 71 70 -448 170 1 0 0 0 1 0 -0 0 1 3005.dat
1 71 110 -448 150 1 0 0 0 1 0 -0 0 1 3005.dat
1 71 130 -448 -150 1 0 0 0 1 0 -0 0 1 3005.dat
1 71 130 -448 130 1 0 0 0 1 0 -0 0 1 3005.dat
1 71 150 -448 110 1 0 0 0 1 0 -0 0 1 3005.dat
1 71 170 -448 -90 1 0 0 0 1 0 -0 0 1 3005.dat
1 71 170 -448 70 1 0 0 0 1 0 -0 0 1 3005.dat
1 71 -190 -456 -90 1 0 0 0 1 0 -0 0 1 3005.dat
1 71 -170 -456 -130 1 0 0 0 1 0 -0 0 1 3005.dat
1 71 -170 -456 110 1 0 0 0 1 0 -0 0 1 3005.dat
1 71 -150 -456 -150 1 0 0 0 1 0 -0 0 1 3005.dat
1 71 -130 -456 -170 1 0 0 0 1 0 -0 0 1 3005.dat
1 71 -110 -456 170 1 0 0 0 1 0 -0 0 1 3005.dat
1 71 -90 -456 -190 1 0 0 0 1 0 -0 0 1 3005.dat
1 71 -20 -456 190 1 0 0 0 1 0 -0 0 1 3010.dat
1 71 30 -456 190 1 0 0 0 1 0 -0 0 1 3005.dat
1 71 90 -456 170 1 0 0 0 1 0 -0 0 1 3005.dat
1 71 110 -456 -170 1 0 0 0 1 0 -0 0 1 3005.dat
1 71 170 -456 -110 1 0 0 0 1 0 -0 0 1 3005.dat
1 71 170 -456 90 1 0 0 0 1 0 -0 0 1 3005.dat
1 71 190 -456 -50 1 0 0 0 1 0 -0 0 1 3005.dat
1 71 -190 -464 -20 0 0 1 0 1 0 -1 0 0 3010.dat
1 71 -190 -464 30 1 0 0 0 1 0 -0 0 1 3005.dat
1 71 -170 -464 -110 1 0 0 0 1 0 -0 0 1 3005.dat
1 71 -170 -464 90 1 0 0 0 1 0 -0 0 1 3005.dat
1 71 -130 -464 150 1 0 0 0 1 0 -0 0 1 3005.dat
1 71 -110 -464 -170 1 0 0 0 1 0 -0 0 1 3005.dat
1 71 -70 -464 170 1 0 0 0 1 0 -0 0 1 3005.dat
1 71 -20 -464 -190 1 0 0 0 1 0 -0 0 1 3010.dat
1 71 30 -464 -190 1 0 0 0 1 0 -0 0 1 3005.dat
1 71 50 -464 170 1 0 0 0 1 0 -0 0 1 3005.dat
1 71 90 -464 -170 1 0 0 0 1 0 -0 0 1 3005.dat
1 71 150 -464 -130 1 0 0 0 1 0 -0 0 1 3005.dat
1 71 170 -464 -70 1 0 0 0 1 0 -0 0 1 3005.dat
1 71 170 -464 50 1 0 0 0 1 0 -0 0 1 3005.dat
1 71 190 -464 0 0 0 1 0 1 0 -1 0 0 3010.dat
1 71 -190 -472 -70 1 0 0 0 1 0 -0 0 1 3005.dat
1 71 -190 -472 60 0 0 1 0 1 0 -1 0 0 3004.dat
1 71 -150 -472 130 1 0 0 0 1 0 -0 0 1 3005.dat
1 71 -90 -472 170 1 0 0 0 1 0 -0 0 1 3005.dat
1 71 -70 -472 -190 1 0 0 0 1 0 -0 0 1 3005.dat
1 71 60 -472 -190 1 0 0 0 1 0 -0 0 1 3004.dat
1 71 70 -472 170 1 0 0 0 1 0 -0 0 1 3005.dat
1 71 110 -472 150 1 0 0 0 1 0 -0 0 1 3005.dat
1 71 130 -472 -150 1 0 0 0 1 0 -0 0 1 3005.dat
1 71 130 -472 130 1 0 0 0 1 0 -0 0 1 3005.dat
1 71 150 -472 110 1 0 0 0 1 0 -0 0 1 3005.dat
1 71 170 -472 -90 1 0 0 0 1 0 -0 0 1 3005.dat
1 71 170 -472 70 1 0 0 0 1 0 -0 0 1 3005.dat
1 71 -190 -480 -90 1 0 0 0 1 0 -0 0 1 3005.dat
1 71 -170 -480 -130 1 0 0 0 1 0 -0 0 1 3005.dat
1 71 -170 -480 110 1 0 0 0 1 0 -0 0 1 3005.dat
1 71 -150 -480 -150 1 0 0 0 1 0 -0 0 1 3005.dat
1 71 -130 -480 -170 1 0 0 0 1 0 -0 0 1 3005.dat
1 71 -110 -480 170 1 0 0 0 1 0 -0 0 1 3005.dat
1 71 -90 -480 -190 1 0 0 0 1 0 -0 0 1 3005.dat
1 71 -20 -480 190 1 0 0 0 1 0 -0 0 1 3010.dat
1 71 30 -480 190 1 0 0 0 1 0 -0 0 1 3005.dat
1 71 90 -480 170 1 0 0 0 1 0 -0 0 1 3005.dat
1 71 110 -480 -170 1 0 0 0 1 0 -0 0 1 3005.dat
1 71 170 -480 -110 1 0 0 0 1 0 -0 0 1 3005.dat
1 71 170 -480 90 1 0 0 0 1 0 -0 0 1 3005.dat
1 71 190 -480 -50 1 0 0 0 1 0 -0 0 1 3005.dat
1 71 -190 -488 -20 0 0 1 0 1 0 -1 0 0 3010.dat
1 71 -190 -488 30 1 0 0 0 1 0 -0 0 1 3005.dat
1 71 -170 -488 -110 1 0 0 0 1 0 -0 0 1 3005.dat
1 71 -170 -488 90 1 0 0 0 1 0 -0 0 1 3005.dat
1 71 -130 -488 150 1 0 0 0 1 0 -0 0 1 3005.dat
1 71 -110 -488 -170 1 0 0 0 1 0 -0 0 1 3005.dat
1 71 -70 -488 170 1 0 0 0 1 0 -0 0 1 3005.dat
1 71 -20 -488 -190 1 0 0 0 1 0 -0 0 1 3010.dat
1 71 30 -488 -190 1 0 0 0 1 0 -0 0 1 3005.dat
1 71 50 -488 170 1 0 0 0 1 0 -0 0 1 3005.dat
1 71 90 -488 -170 1 0 0 0 1 0 -0 0 1 3005.dat
1 71 150 -488 -130 1 0 0 0 1 0 -0 0 1 3005.dat
1 71 170 -488 -70 1 0 0 0 1 0 -0 0 1 3005.dat
1 71 170 -488 50 1 0 0 0 1 0 -0 0 1 3005.dat
1 71 190 -488 0 0 0 1 0 1 0 -1 0 0 3010.dat
1 71 -190 -496 -70 1 0 0 0 1 0 -0 0 1 3005.dat
1 71 -190 -496 60 0 0 1 0 1 0 -1 0 0 3004.dat
1 71 -150 -496 130 1 0 0 0 1 0 -0 0 1 3005.dat
1 71 -90 -496 170 1 0 0 0 1 0 -0 0 1 3005.dat
1 71 -70 -496 -190 1 0 0 0 1 0 -0 0 1 3005.dat
1 71 60 -496 -190 1 0 0 0 1 0 -0 0 1 3004.dat
1 71 70 -496 170 1 0 0 0 1 0 -0 0 1 3005.dat
1 71 110 -496 150 1 0 0 0 1 0 -0 0 1 3005.dat
1 71 130 -496 -150 1 0 0 0 1 0 -0 0 1 3005.dat
1 71 130 -496 130 1 0 0 0 1 0 -0 0 1 3005.dat
1 71 150 -496 110 1 0 0 0 1 0 -0 0 1 3005.dat
1 71 170 -496 -90 1 0 0 0 1 0 -0 0 1 3005.dat
1 71 170 -496 70 1 0 0 0 1 0 -0 0 1 3005.dat
1 71 -190 -504 -90 1 0 0 0 1 0 -0 0 1 3005.dat
1 71 -170 -504 -130 1 0 0 0 1 0 -0 0 1 3005.dat
1 71 -170 -504 110 1 0 0 0 1 0 -0 0 1 3005.dat
1 71 -150 -504 -150 1 0 0 0 1 0 -0 0 1 3005.dat
1 71 -130 -504 -170 1 0 0 0 1 0 -0 0 1 3005.dat
1 71 -110 -504 170 1 0 0 0 1 0 -0 0 1 3005.dat
1 71 -90 -504 -190 1 0 0 0 1 0 -0 0 1 3005.dat
1 71 -20 -504 190 1 0 0 0 1 0 -0 0 1 3010.dat
1 71 30 -504 190 1 0 0 0 1 0 -0 0 1 3005.dat
1 71 90 -504 170 1 0 0 0 1 0 -0 0 1 3005.dat
1 71 110 -504 -170 1 0 0 0 1 0 -0 0 1 3005.dat
1 71 170 -504 -110 1 0 0 0 1 0 -0 0 1 3005.dat
1 71 170 -504 90 1 0 0 0 1 0 -0 0 1 3005.dat
1 71 190 -504 -50 1 0 0 0 1 0 -0 0 1 3005.dat
1 71 -190 -512 -20 0 0 1 0 1 0 -1 0 0 3010.dat
1 71 -190 -512 30 1 0 0 0 1 0 -0 0 1 3005.dat
1 71 -170 -512 -110 1 0 0 0 1 0 -0 0 1 3005.dat
1 71 -170 -512 90 1 0 0 0 1 0 -0 0 1 3005.dat
1 71 -130 -512 150 1 0 0 0 1 0 -0 0 1 3005.dat
1 71 -110 -512 -170 1 0 0 0 1 0 -0 0 1 3005.dat
1 71 -70 -512 170 1 0 0 0 1 0 -0 0 1 3005.dat
1 71 -20 -512 -190 1 0 0 0 1 0 -0 0 1 3010.dat
1 71 30 -512 -190 1 0 0 0 1 0 -0 0 1 3005.dat
1 71 50 -512 170 1 0 0 0 1 0 -0 0 1 3005.dat
1 71 90 -512 -170 1 0 0 0 1 0 -0 0 1 3005.dat
1 71 150 -512 -130 1 0 0 0 1 0 -0 0 1 3005.dat
1 71 170 -512 -70 1 0 0 0 1 0 -0 0 1 3005.dat
1 71 170 -512 50 1 0 0 0 1 0 -0 0 1 3005.dat
1 71 190 -512 0 0 0 1 0 1 0 -1 0 0 3010.dat
1 71 -190 -520 -70 1 0 0 0 1 0 -0 0 1 3005.dat
1 71 -190 -520 60 0 0 1 0 1 0 -1 0 0 3004.dat
1 71 -150 -520 130 1 0 0 0 1 0 -0 0 1 3005.dat
1 71 -90 -520 170 1 0 0 0 1 0 -0 0 1 3005.dat
1 71 -70 -520 -190 1 0 0 0 1 0 -0 0 1 3005.dat
1 71 60 -520 -190 1 0 0 0 1 0 -0 0 1 3004.dat
1 71 70 -520 170 1 0 0 0 1 0 -0 0 1 3005.dat
1 71 110 -520 150 1 0 0 0 1 0 -0 0 1 3005.dat
1 71 130 -520 -150 1 0 0 0 1 0 -0 0 1 3005.dat
1 71 130 -520 130 1 0 0 0 1 0 -0 0 1 3005.dat
1 71 150 -520 110 1 0 0 0 1 0 -0 0 1 3005.dat
1 71 170 -520 -90 1 0 0 0 1 0 -0 0 1 3005.dat
1 71 170 -520 70 1 0 0 0 1 0 -0 0 1 3005.dat
1 71 -190 -528 -90 1 0 0 0 1 0 -0 0 1 3005.dat
1 71 -170 -528 -130 1 0 0 0 1 0 -0 0 1 3005.dat
1 71 -170 -528 110 1 0 0 0 1 0 -0 0 1 3005.dat
1 71 -150 -528 -150 1 0 0 0 1 0 -0 0 1 3005.dat
1 71 -130 -528 -170 1 0 0 0 1 0 -0 0 1 3005.dat
1 71 -110 -528 170 1 0 0 0 1 0 -0 0 1 3005.dat
1 71 -90 -528 -190 1 0 0 0 1 0 -0 0 1 3005.dat
1 71 -20 -528 190 1 0 0 0 1 0 -0 0 1 3010.dat
1 71 30 -528 190 1 0 0 0 1 0 -0 0 1 3005.dat
1 71 90 -528 170 1 0 0 0 1 0 -0 0 1 3005.dat
1 71 110 -528 -170 1 0 0 0 1 0 -0 0 1 3005.dat
1 71 170 -528 -110 1 0 0 0 1 0 -0 0 1 3005.dat
1 71 170 -528 90 1 0 0 0 1 0 -0 0 1 3005.dat
1 71 190 -528 -50 1 0 0 0 1 0 -0 0 1 3005.dat
1 71 -190 -536 -20 0 0 1 0 1 0 -1 0 0 3010.dat
1 71 -190 -536 30 1 0 0 0 1 0 -0 0 1 3005.dat
1 71 -170 -536 -110 1 0 0 0 1 0 -0 0 1 3005.dat
1 71 -170 -536 90 1 0 0 0 1 0 -0 0 1 3005.dat
1 71 -130 -536 150 1 0 0 0 1 0 -0 0 1 3005.dat
1 71 -110 -536 -170 1 0 0 0 1 0 -0 0 1 3005.dat
1 71 -70 -536 170 1 0 0 0 1 0 -0 0 1 3005.dat
1 71 -20 -536 -190 1 0 0 0 1 0 -0 0 1 3010.dat
1 71 30 -536 -190 1 0 0 0 1 0 -0 0 1 3005.dat
1 71 50 -536 170 1 0 0 0 1 0 -0 0 1 3005.dat
1 71 90 -536 -170 1 0 0 0 1 0 -0 0 1 3005.dat
1 71 150 -536 -130 1 0 0 0 1 0 -0 0 1 3005.dat
1 71 170 -536 -70 1 0 0 0 1 0 -0 0 1 3005.dat
1 71 170 -536 50 1 0 0 0 1 0 -0 0 1 3005.dat
1 71 190 -536 0 0 0 1 0 1 0 -1 0 0 3010.dat
1 71 -190 -544 -70 1 0 0 0 1 0 -0 0 1 3005.dat
1 71 -190 -544 60 0 0 1 0 1 0 -1 0 0 3004.dat
1 71 -150 -544 130 1 0 0 0 1 0 -0 0 1 3005.dat
1 71 -90 -544 170 1 0 0 0 1 0 -0 0 1 3005.dat
1 71 -70 -544 -190 1 0 0 0 1 0 -0 0 1 3005.dat
1 71 60 -544 -190 1 0 0 0 1 0 -0 0 1 3004.dat
1 71 70 -544 170 1 0 0 0 1 0 -0 0 1 3005.dat
1 71 110 -544 150 1 0 0 0 1 0 -0 0 1 3005.dat
1 71 130 -544 -150 1 0 0 0 1 0 -0 0 1 3005.dat
1 71 130 -544 130 1 0 0 0 1 0 -0 0 1 3005.dat
1 71 150 -544 110 1 0 0 0 1 0 -0 0 1 3005.dat
1 71 170 -544 -90 1 0 0 0 1 0 -0 0 1 3005.dat
1 71 170 -544 70 1 0 0 0 1 0 -0 0 1 3005.dat
1 71 -190 -552 -90 1 0 0 0 1 0 -0 0 1 3005.dat
1 71 -170 -552 -130 1 0 0 0 1 0 -0 0 1 3005.dat
1 71 -170 -552 110 1 0 0 0 1 0 -0 0 1 3005.dat
1 71 -150 -552 -150 1 0 0 0 1 0 -0 0 1 3005.dat
1 71 -130 -552 -170 1 0 0 0 1 0 -0 0 1 3005.dat
1 71 -110 -552 170 1 0 0 0 1 0 -0 0 1 3005.dat
1 71 -90 -552 -190 1 0 0 0 1 0 -0 0 1 3005.dat
1 71 -20 -552 190 1 0 0 0 1 0 -0 0 1 3010.dat
1 71 30 -552 190 1 0 0 0 1 0 -0 0 1 3005.dat
1 71 90 -552 170 1 0 0 0 1 0 -0 0 1 3005.dat
1 71 110 -552 -170 1 0 0 0 1 0 -0 0 1 3005.dat
1 71 170 -552 -110 1 0 0 0 1 0 -0 0 1 3005.dat
1 71 170 -552 90 1 0 0 0 1 0 -0 0 1 3005.dat
1 71 190 -552 -50 1 0 0 0 1 0 -0 0 1 3005.dat
1 71 -190 -560 -20 0 0 1 0 1 0 -1 0 0 3010.dat
1 71 -190 -560 30 1 0 0 0 1 0 -0 0 1 3005.dat
1 71 -170 -560 -110 1 0 0 0 1 0 -0 0 1 3005.dat
1 71 -170 -560 90 1 0 0 0 1 0 -0 0 1 3005.dat
1 71 -130 -560 150 1 0 0 0 1 0 -0 0 1 3005.dat
1 71 -110 -560 -170 1 0 0 0 1 0 -0 0 1 3005.dat
1 71 -70 -560 170 1 0 0 0 1 0 -0 0 1 3005.dat
1 71 -20 -560 -190 1 0 0 0 1 0 -0 0 1 3010.dat
1 71 30 -560 -190 1 0 0 0 1 0 -0 0 1 3005.dat
1 71 50 -560 170 1 0 0 0 1 0 -0 0 1 3005.dat
1 71 90 -560 -170 1 0 0 0 1 0 -0 0 1 3005.dat
1 71 150 -560 -130 1 0 0 0 1 0 -0 0 1 3005.dat
1 71 170 -560 -70 1 0 0 0 1 0 -0 0 1 3005.dat
1 71 170 -560 50 1 0 0 0 1 0 -0 0 1 3005.dat
1 71 190 -560 0 0 0 1 0 1 0 -1 0 0 3010.dat
1 71 -190 -568 -70 1 0 0 0 1 0 -0 0 1 3005.dat
1 71 -190 -568 60 0 0 1 0 1 0 -1 0 0 3004.dat
1 71 -150 -568 130 1 0 0 0 1 0 -0 0 1 3005.dat
1 71 -90 -568 170 1 0 0 0 1 0 -0 0 1 3005.dat
1 71 -70 -568 -190 1 0 0 0 1 0 -0 0 1 3005.dat
1 71 60 -568 -190 1 0 0 0 1 0 -0 0 1 3004.dat
1 71 70 -568 170 1 0 0 0 1 0 -0 0 1 3005.dat
1 71 110 -568 150 1 0 0 0 1 0 -0 0 1 3005.dat
1 71 130 -568 -150 1 0 0 0 1 0 -0 0 1 3005.dat
1 71 130 -568 130 1 0 0 0 1 0 -0 0 1 3005.dat
1 71 150 -568 110 1 0 0 0 1 0 -0 0 1 3005.dat
1 71 170 -568 -90 1 0 0 0 1 0 -0 0 1 3005.dat
1 71 170 -568 70 1 0 0 0 1 0 -0 0 1 3005.dat
1 71 -190 -576 -90 1 0 0 0 1 0 -0 0 1 3005.dat
1 71 -170 -576 -130 1 0 0 0 1 0 -0 0 1 3005.dat
1 71 -170 -576 110 1 0 0 0 1 0 -0 0 1 3005.dat
1 71 -150 -576 -150 1 0 0 0 1 0 -0 0 1 3005.dat
1 71 -130 -576 -170 1 0 0 0 1 0 -0 0 1 3005.dat
1 71 -110 -576 170 1 0 0 0 1 0 -0 0 1 3005.dat
1 71 -90 -576 -190 1 0 0 0 1 0 -0 0 1 3005.dat
1 71 -20 -576 190 1 0 0 0 1 0 -0 0 1 3010.dat
1 71 30 -576 190 1 0 0 0 1 0 -0 0 1 3005.dat
1 71 90 -576 170 1 0 0 0 1 0 -0 0 1 3005.dat
1 71 110 -576 -170 1 0 0 0 1 0 -0 0 1 3005.dat
1 71 170 -576 -110 1 0 0 0 1 0 -0 0 1 3005.dat
1 71 170 -576 90 1 0 0 0 1 0 -0 0 1 3005.dat
1 71 190 -576 -50 1 0 0 0 1 0 -0 0 1 3005.dat
1 71 -190 -584 -20 0 0 1 0 1 0 -1 0 0 3010.dat
1 71 -190 -584 30 1 0 0 0 1 0 -0 0 1 3005.dat
1 71 -170 -584 -110 1 0 0 0 1 0 -0 0 1 3005.dat
1 71 -170 -584 90 1 0 0 0 1 0 -0 0 1 3005.dat
1 71 -130 -584 150 1 0 0 0 1 0 -0 0 1 3005.dat
1 71 -110 -584 -170 1 0 0 0 1 0 -0 0 1 3005.dat
1 71 -70 -584 170 1 0 0 0 1 0 -0 0 1 3005.dat
1 71 -20 -584 -190 1 0 0 0 1 0 -0 0 1 3010.dat
1 71 30 -584 -190 1 0 0 0 1 0 -0 0 1 3005.dat
1 71 50 -584 170 1 0 0 0 1 0 -0 0 1 3005.dat
1 71 90 -584 -170 1 0 0 0 1 0 -0 0 1 3005.dat
1 71 150 -584 -130 1 0 0 0 1 0 -0 0 1 3005.dat
1 71 170 -584 -70 1 0 0 0 1 0 -0 0 1 3005.dat
1 71 170 -584 50 1 0 0 0 1 0 -0 0 1 3005.dat
1 71 190 -584 0 0 0 1 0 1 0 -1 0 0 3010.dat
1 71 -190 -592 -70 1 0 0 0 1 0 -0 0 1 3005.dat
1 71 -190 -592 60 0 0 1 0 1 0 -1 0 0 3004.dat
1 71 -150 -592 130 1 0 0 0 1 0 -0 0 1 3005.dat
1 71 -90 -592 170 1 0 0 0 1 0 -0 0 1 3005.dat
1 71 -70 -592 -190 1 0 0 0 1 0 -0 0 1 3005.dat
1 71 60 -592 -190 1 0 0 0 1 0 -0 0 1 3004.dat
1 71 70 -592 170 1 0 0 0 1 0 -0 0 1 3005.dat
1 71 110 -592 150 1 0 0 0 1 0 -0 0 1 3005.dat
1 71 130 -592 -150 1 0 0 0 1 0 -0 0 1 3005.dat
1 71 130 -592 130 1 0 0 0 1 0 -0 0 1 3005.dat
1 71 150 -592 110 1 0 0 0 1 0 -0 0 1 3005.dat
1 71 170 -592 -90 1 0 0 0 1 0 -0 0 1 3005.dat
1 71 170 -592 70 1 0 0 0 1 0 -0 0 1 3005.dat
1 71 -190 -600 -90 1 0 0 0 1 0 -0 0 1 3005.dat
1 71 -170 -600 -130 1 0 0 0 1 0 -0 0 1 3005.dat
1 71 -170 -600 110 1 0 0 0 1 0 -0 0 1 3005.dat
1 71 -150 -600 -150 1 0 0 0 1 0 -0 0 1 3005.dat
1 71 -130 -600 -170 1 0 0 0 1 0 -0 0 1 3005.dat
1 71 -110 -600 170 1 0 0 0 1 0 -0 0 1 3005.dat
1 71 -90 -600 -190 1 0 0 0 1 0 -0 0 1 3005.dat
1 71 -20 -600 190 1 0 0 0 1 0 -0 0 1 3010.dat
1 71 30 -600 190 1 0 0 0 1 0 -0 0 1 3005.dat
1 71 90 -600 170 1 0 0 0 1 0 -0 0 1 3005.dat
1 71 110 -600 -170 1 0 0 0 1 0 -0 0 1 3005.dat
1 71 170 -600 -110 1 0 0 0 1 0 -0 0 1 3005.dat
1 71 170 -600 90 1 0 0 0 1 0 -0 0 1 3005.dat
1 71 190 -600 -50 1 0 0 0 1 0 -0 0 1 3005.dat
1 71 -190 -608 -20 0 0 1 0 1 0 -1 0 0 3010.dat
1 71 -190 -608 30 1 0 0 0 1 0 -0 0 1 3005.dat
1 71 -170 -608 -110 1 0 0 0 1 0 -0 0 1 3005.dat
1 71 -170 -608 90 1 0 0 0 1 0 -0 0 1 3005.dat
1 71 -130 -608 150 1 0 0 0 1 0 -0 0 1 3005.dat
1 71 -110 -608 -170 1 0 0 0 1 0 -0 0 1 3005.dat
1 71 -70 -608 170 1 0 0 0 1 0 -0 0 1 3005.dat
1 71 -20 -608 -190 1 0 0 0 1 0 -0 0 1 3010.dat
1 71 30 -608 -190 1 0 0 0 1 0 -0 0 1 3005.dat
1 71 50 -608 170 1 0 0 0 1 0 -0 0 1 3005.dat
1 71 90 -608 -170 1 0 0 0 1 0 -0 0 1 3005.dat
1 71 150 -608 -130 1 0 0 0 1 0 -0 0 1 3005.dat
1 71 170 -608 -70 1 0 0 0 1 0 -0 0 1 3005.dat
1 71 170 -608 50 1 0 0 0 1 0 -0 0 1 3005.dat
1 71 190 -608 0 0 0 1 0 1 0 -1 0 0 3010.dat
1 71 -190 -616 -70 1 0 0 0 1 0 -0 0 1 3005.dat
1 71 -190 -616 60 0 0 1 0 1 0 -1 0 0 3004.dat
1 71 -150 -616 130 1 0 0 0 1 0 -0 0 1 3005.dat
1 71 -90 -616 170 1 0 0 0 1 0 -0 0 1 3005.dat
1 71 -70 -616 -190 1 0 0 0 1 0 -0 0 1 3005.dat
1 71 60 -616 -190 1 0 0 0 1 0 -0 0 1 3004.dat
1 71 70 -616 170 1 0 0 0 1 0 -0 0 1 3005.dat
1 71 110 -616 150 1 0 0 0 1 0 -0 0 1 3005.dat
1 71 130 -616 -150 1 0 0 0 1 0 -0 0 1 3005.dat
1 71 130 -616 130 1 0 0 0 1 0 -0 0 1 3005.dat
1 71 150 -616 110 1 0 0 0 1 0 -0 0 1 3005.dat
1 71 170 -616 -90 1 0 0 0 1 0 -0 0 1 3005.dat
1 71 170 -616 70 1 0 0 0 1 0 -0 0 1 3005.dat
1 71 -190 -624 -90 1 0 0 0 1 0 -0 0 1 3005.dat
1 71 -170 -624 -130 1 0 0 0 1 0 -0 0 1 3005.dat
1 71 -170 -624 110 1 0 0 0 1 0 -0 0 1 3005.dat
1 71 -150 -624 -150 1 0 0 0 1 0 -0 0 1 3005.dat
1 71 -130 -624 -170 1 0 0 0 1 0 -0 0 1 3005.dat
1 71 -110 -624 170 1 0 0 0 1 0 -0 0 1 3005.dat
1 71 -90 -624 -190 1 0 0 0 1 0 -0 0 1 3005.dat
1 71 -20 -624 190 1 0 0 0 1 0 -0 0 1 3010.dat
1 71 30 -624 190 1 0 0 0 1 0 -0 0 1 3005.dat
1 71 90 -624 170 1 0 0 0 1 0 -0 0 1 3005.dat
1 71 110 -624 -170 1 0 0 0 1 0 -0 0 1 3005.dat
1 71 170 -624 -110 1 0 0 0 1 0 -0 0 1 3005.dat
1 71 170 -624 90 1 0 0 0 1 0 -0 0 1 3005.dat
1 71 190 -624 -50 1 0 0 0 1 0 -0 0 1 3005.dat
1 71 -190 -632 -20 0 0 1 0 1 0 -1 0 0 3010.dat
1 71 -190 -632 30 1 0 0 0 1 0 -0 0 1 3005.dat
1 71 -170 -632 -110 1 0 0 0 1 0 -0 0 1 3005.dat
1 71 -170 -632 90 1 0 0 0 1 0 -0 0 1 3005.dat
1 71 -130 -632 150 1 0 0 0 1 0 -0 0 1 3005.dat
1 71 -110 -632 -170 1 0 0 0 1 0 -0 0 1 3005.dat
1 71 -70 -632 170 1 0 0 0 1 0 -0 0 1 3005.dat
1 71 -20 -632 -190 1 0 0 0 1 0 -0 0 1 3010.dat
1 71 30 -632 -190 1 0 0 0 1 0 -0 0 1 3005.dat
1 71 50 -632 170 1 0 0 0 1 0 -0 0 1 3005.dat
1 71 90 -632 -170 1 0 0 0 1 0 -0 0 1 3005.dat
1 71 150 -632 -130 1 0 0 0 1 0 -0 0 1 3005.dat
1 71 170 -632 -70 1 0 0 0 1 0 -0 0 1 3005.dat
1 71 170 -632 50 1 0 0 0 1 0 -0 0 1 3005.dat
1 71 190 -632 0 0 0 1 0 1 0 -1 0 0 3010.dat
1 71 -190 -640 -70 1 0 0 0 1 0 -0 0 1 3005.dat
1 71 -190 -640 60 0 0 1 0 1 0 -1 0 0 3004.dat
1 71 -150 -640 130 1 0 0 0 1 0 -0 0 1 3005.dat
1 71 -90 -640 170 1 0 0 0 1 0 -0 0 1 3005.dat
1 71 -70 -640 -190 1 0 0 0 1 0 -0 0 1 3005.dat
1 71 60 -640 -190 1 0 0 0 1 0 -0 0 1 3004.dat
1 71 70 -640 170 1 0 0 0 1 0 -0 0 1 3005.dat
1 71 110 -640 150 1 0 0 0 1 0 -0 0 1 3005.dat
1 71 130 -640 -150 1 0 0 0 1 0 -0 0 1 3005.dat
1 71 130 -640 130 1 0 0 0 1 0 -0 0 1 3005.dat
1 71 150 -640 110 1 0 0 0 1 0 -0 0 1 3005.dat
1 71 170 -640 -90 1 0 0 0 1 0 -0 0 1 3005.dat
1 71 170 -640 70 1 0 0 0 1 0 -0 0 1 3005.dat
1 71 -190 -648 -90 1 0 0 0 1 0 -0 0 1 3005.dat
1 71 -170 -648 -130 1 0 0 0 1 0 -0 0 1 3005.dat
1 71 -170 -648 110 1 0 0 0 1 0 -0 0 1 3005.dat
1 71 -150 -648 -150 1 0 0 0 1 0 -0 0 1 3005.dat
1 71 -130 -648 -170 1 0 0 0 1 0 -0 0 1 3005.dat
1 71 -110 -648 170 1 0 0 0 1 0 -0 0 1 3005.dat
1 71 -90 -648 -190 1 0 0 0 1 0 -0 0 1 3005.dat
1 71 -20 -648 190 1 0 0 0 1 0 -0 0 1 3010.dat
1 71 30 -648 190 1 0 0 0 1 0 -0 0 1 3005.dat
1 71 90 -648 170 1 0 0 0 1 0 -0 0 1 3005.dat
1 71 110 -648 -170 1 0 0 0 1 0 -0 0 1 3005.dat
1 71 170 -648 -110 1 0 0 0 1 0 -0 0 1 3005.dat
1 71 170 -648 90 1 0 0 0 1 0 -0 0 1 3005.dat
1 71 190 -648 -50 1 0 0 0 1 0 -0 0 1 3005.dat
1 71 -190 -656 -20 0 0 1 0 1 0 -1 0 0 3010.dat
1 71 -190 -656 30 1 0 0 0 1 0 -0 0 1 3005.dat
1 71 -170 -656 -110 1 0 0 0 1 0 -0 0 1 3005.dat
1 71 -170 -656 90 1 0 0 0 1 0 -0 0 1 3005.dat
1 71 -130 -656 150 1 0 0 0 1 0 -0 0 1 3005.dat
1 71 -110 -656 -170 1 0 0 0 1 0 -0 0 1 3005.dat
1 71 -70 -656 170 1 0 0 0 1 0 -0 0 1 3005.dat
1 71 -20 -656 -190 1 0 0 0 1 0 -0 0 1 3010.dat
1 71 30 -656 -190 1 0 0 0 1 0 -0 0 1 3005.dat
1 71 50 -656 170 1 0 0 0 1 0 -0 0 1 3005.dat
1 71 90 -656 -170 1 0 0 0 1 0 -0 0 1 3005.dat
1 71 150 -656 -130 1 0 0 0 1 0 -0 0 1 3005.dat
1 71 170 -656 -70 1 0 0 0 1 0 -0 0 1 3005.dat
1 71 170 -656 50 1 0 0 0 1 0 -0 0 1 3005.dat
1 71 190 -656 0 0 0 1 0 1 0 -1 0 0 3010.dat
1 71 -190 -664 -70 1 0 0 0 1 0 -0 0 1 3005.dat
1 71 -190 -664 60 0 0 1 0 1 0 -1 0 0 3004.dat
1 71 -150 -664 130 1 0 0 0 1 0 -0 0 1 3005.dat
1 71 -90 -664 170 1 0 0 0 1 0 -0 0 1 3005.dat
1 71 -70 -664 -190 1 0 0 0 1 0 -0 0 1 3005.dat
1 71 60 -664 -190 1 0 0 0 1 0 -0 0 1 3004.dat
1 71 70 -664 170 1 0 0 0 1 0 -0 0 1 3005.dat
1 71 110 -664 150 1 0 0 0 1 0 -0 0 1 3005.dat
1 71 130 -664 -150 1 0 0 0 1 0 -0 0 1 3005.dat
1 71 130 -664 130 1 0 0 0 1 0 -0 0 1 3005.dat
1 71 150 -664 110 1 0 0 0 1 0 -0 0 1 3005.dat
1 71 170 -664 -90 1 0 0 0 1 0 -0 0 1 3005.dat
1 71 170 -664 70 1 0 0 0 1 0 -0 0 1 3005.dat
1 71 -190 -672 -90 1 0 0 0 1 0 -0 0 1 3005.dat
1 71 -170 -672 -130 1 0 0 0 1 0 -0 0 1 3005.dat
1 71 -170 -672 110 1 0 0 0 1 0 -0 0 1 3005.dat
1 71 -150 -672 -150 1 0 0 0 1 0 -0 0 1 3005.dat
1 71 -130 -672 -170 1 0 0 0 1 0 -0 0 1 3005.dat
1 71 -110 -672 170 1 0 0 0 1 0 -0 0 1 3005.dat
1 71 -90 -672 -190 1 0 0 0 1 0 -0 0 1 3005.dat
1 71 -20 -672 190 1 0 0 0 1 0 -0 0 1 3010.dat
1 71 30 -672 190 1 0 0 0 1 0 -0 0 1 3005.dat
1 71 90 -672 170 1 0 0 0 1 0 -0 0 1 3005.dat
1 71 110 -672 -170 1 0 0 0 1 0 -0 0 1 3005.dat
1 71 170 -672 -110 1 0 0 0 1 0 -0 0 1 3005.dat
1 71 170 -672 90 1 0 0 0 1 0 -0 0 1 3005.dat
1 71 190 -672 -50 1 0 0 0 1 0 -0 0 1 3005.dat
1 71 -190 -680 -20 0 0 1 0 1 0 -1 0 0 3010.dat
1 71 -190 -680 30 1 0 0 0 1 0 -0 0 1 3005.dat
1 71 -170 -680 -110 1 0 0 0 1 0 -0 0 1 3005.dat
1 71 -170 -680 90 1 0 0 0 1 0 -0 0 1 3005.dat
1 71 -130 -680 150 1 0 0 0 1 0 -0 0 1 3005.dat
1 71 -110 -680 -170 1 0 0 0 1 0 -0 0 1 3005.dat
1 71 -70 -680 170 1 0 0 0 1 0 -0 0 1 3005.dat
1 71 -20 -680 -190 1 0 0 0 1 0 -0 0 1 3010.dat
1 71 30 -680 -190 1 0 0 0 1 0 -0 0 1 3005.dat
1 71 50 -680 170 1 0 0 0 1 0 -0 0 1 3005.dat
1 71 90 -680 -170 1 0 0 0 1 0 -0 0 1 3005.dat
1 71 150 -680 -130 1 0 0 0 1 0 -0 0 1 3005.dat
1 71 170 -680 -70 1 0 0 0 1 0 -0 0 1 3005.dat
1 71 170 -680 50 1 0 0 0 1 0 -0 0 1 3005.dat
1 71 190 -680 0 0 0 1 0 1 0 -1 0 0 3010.dat
1 71 -190 -688 -70 1 0 0 0 1 0 -0 0 1 3005.dat
1 71 -190 -688 60 0 0 1 0 1 0 -1 0 0 3004.dat
1 71 -150 -688 130 1 0 0 0 1 0 -0 0 1 3005.dat
1 71 -90 -688 170 1 0 0 0 1 0 -0 0 1 3005.dat
1 71 -70 -688 -190 1 0 0 0 1 0 -0 0 1 3005.dat
1 71 60 -688 -190 1 0 0 0 1 0 -0 0 1 3004.dat
1 71 70 -688 170 1 0 0 0 1 0 -0 0 1 3005.dat
1 71 110 -688 150 1 0 0 0 1 0 -0 0 1 3005.dat
1 71 130 -688 -150 1 0 0 0 1 0 -0 0 1 3005.dat
1 71 130 -688 130 1 0 0 0 1 0 -0 0 1 3005.dat
1 71 150 -688 110 1 0 0 0 1 0 -0 0 1 3005.dat
1 71 170 -688 -90 1 0 0 0 1 0 -0 0 1 3005.dat
1 71 170 -688 70 1 0 0 0 1 0 -0 0 1 3005.dat
1 71 -190 -696 -90 1 0 0 0 1 0 -0 0 1 3005.dat
1 71 -170 -696 -130 1 0 0 0 1 0 -0 0 1 3005.dat
1 71 -170 -696 110 1 0 0 0 1 0 -0 0 1 3005.dat
1 71 -150 -696 -150 1 0 0 0 1 0 -0 0 1 3005.dat
1 71 -130 -696 -170 1 0 0 0 1 0 -0 0 1 3005.dat
1 71 -110 -696 170 1 0 0 0 1 0 -0 0 1 3005.dat
1 71 -90 -696 -190 1 0 0 0 1 0 -0 0 1 3005.dat
1 71 -20 -696 190 1 0 0 0 1 0 -0 0 1 3010.dat
1 71 30 -696 190 1 0 0 0 1 0 -0 0 1 3005.dat
1 71 90 -696 170 1 0 0 0 1 0 -0 0 1 3005.dat
1 71 110 -696 -170 1 0 0 0 1 0 -0 0 1 3005.dat
1 71 170 -696 -110 1 0 0 0 1 0 -0 0 1 3005.dat
1 71 170 -696 90 1 0 0 0 1 0 -0 0 1 3005.dat
1 71 190 -696 -50 1 0 0 0 1 0 -0 0 1 3005.dat
1 71 -190 -704 -20 0 0 1 0 1 0 -1 0 0 3010.dat
1 71 -190 -704 30 1 0 0 0 1 0 -0 0 1 3005.dat
1 71 -170 -704 -110 1 0 0 0 1 0 -0 0 1 3005.dat
1 71 -170 -704 90 1 0 0 0 1 0 -0 0 1 3005.dat
1 71 -130 -704 150 1 0 0 0 1 0 -0 0 1 3005.dat
1 71 -110 -704 -170 1 0 0 0 1 0 -0 0 1 3005.dat
1 71 -70 -704 170 1 0 0 0 1 0 -0 0 1 3005.dat
1 71 -20 -704 -190 1 0 0 0 1 0 -0 0 1 3010.dat
1 71 30 -704 -190 1 0 0 0 1 0 -0 0 1 3005.dat
1 71 50 -704 170 1 0 0 0 1 0 -0 0 1 3005.dat
1 71 90 -704 -170 1 0 0 0 1 0 -0 0 1 3005.dat
1 71 150 -704 -130 1 0 0 0 1 0 -0 0 1 3005.dat
1 71 170 -704 -70 1 0 0 0 1 0 -0 0 1 3005.dat
1 71 170 -704 50 1 0 0 0 1 0 -0 0 1 3005.dat
1 71 190 -704 0 0 0 1 0 1 0 -1 0 0 3010.dat
1 71 -190 -712 -70 1 0 0 0 1 0 -0 0 1 3005.dat
1 71 -190 -712 60 0 0 1 0 1 0 -1 0 0 3004.dat
1 71 -150 -712 130 1 0 0 0 1 0 -0 0 1 3005.dat
1 71 -90 -712 170 1 0 0 0 1 0 -0 0 1 3005.dat
1 71 -70 -712 -190 1 0 0 0 1 0 -0 0 1 3005.dat
1 71 60 -712 -190 1 0 0 0 1 0 -0 0 1 3004.dat
1 71 70 -712 170 1 0 0 0 1 0 -0 0 1 3005.dat
1 71 110 -712 150 1 0 0 0 1 0 -0 0 1 3005.dat
1 71 130 -712 -150 1 0 0 0 1 0 -0 0 1 3005.dat
1 71 130 -712 130 1 0 0 0 1 0 -0 0 1 3005.dat
1 71 150 -712 110 1 0 0 0 1 0 -0 0 1 3005.dat
1 71 170 -712 -90 1 0 0 0 1 0 -0 0 1 3005.dat
1 71 170 -712 70 1 0 0 0 1 0 -0 0 1 3005.dat
1 71 -190 -720 -90 1 0 0 0 1 0 -0 0 1 3005.dat
1 71 -170 -720 -130 1 0 0 0 1 0 -0 0 1 3005.dat
1 71 -170 -720 110 1 0 0 0 1 0 -0 0 1 3005.dat
1 71 -150 -720 -150 1 0 0 0 1 0 -0 0 1 3005.dat
1 71 -130 -720 -170 1 0 0 0 1 0 -0 0 1 3005.dat
1 71 -110 -720 170 1 0 0 0 1 0 -0 0 1 3005.dat
1 71 -90 -720 -190 1 0 0 0 1 0 -0 0 1 3005.dat
1 71 -20 -720 190 1 0 0 0 1 0 -0 0 1 3010.dat
1 71 30 -720 190 1 0 0 0 1 0 -0 0 1 3005.dat
1 71 90 -720 170 1 0 0 0 1 0 -0 0 1 3005.dat
1 71 110 -720 -170 1 0 0 0 1 0 -0 0 1 3005.dat
1 71 170 -720 -110 1 0 0 0 1 0 -0 0 1 3005.dat
1 71 170 -720 90 1 0 0 0 1 0 -0 0 1 3005.dat
1 71 190 -720 -50 1 0 0 0 1 0 -0 0 1 3005.dat
1 71 -190 -728 -20 0 0 1 0 1 0 -1 0 0 3010.dat
1 71 -190 -728 30 1 0 0 0 1 0 -0 0 1 3005.dat
1 71 -170 -728 -110 1 0 0 0 1 0 -0 0 1 3005.dat
1 71 -170 -728 90 1 0 0 0 1 0 -0 0 1 3005.dat
1 71 -130 -728 150 1 0 0 0 1 0 -0 0 1 3005.dat
1 71 -110 -728 -170 1 0 0 0 1 0 -0 0 1 3005.dat
1 71 -70 -728 170 1 0 0 0 1 0 -0 0 1 3005.dat
1 71 -20 -728 -190 1 0 0 0 1 0 -0 0 1 3010.dat
1 71 30 -728 -190 1 0 0 0 1 0 -0 0 1 3005.dat
1 71 50 -728 170 1 0 0 0 1 0 -0 0 1 3005.dat
1 71 90 -728 -170 1 0 0 0 1 0 -0 0 1 3005.dat
1 71 150 -728 -130 1 0 0 0 1 0 -0 0 1 3005.dat
1 71 170 -728 -70 1 0 0 0 1 0 -0 0 1 3005.dat
1 71 170 -728 50 1 0 0 0 1 0 -0 0 1 3005.dat
1 71 190 -728 0 0 0 1 0 1 0 -1 0 0 3010.dat
1 71 -190 -736 -70 1 0 0 0 1 0 -0 0 1 3005.dat
1 71 -190 -736 60 0 0 1 0 1 0 -1 0 0 3004.dat
1 71 -150 -736 130 1 0 0 0 1 0 -0 0 1 3005.dat
1 71 -90 -736 170 1 0 0 0 1 0 -0 0 1 3005.dat
1 71 -70 -736 -190 1 0 0 0 1 0 -0 0 1 3005.dat
1 71 60 -736 -190 1 0 0 0 1 0 -0 0 1 3004.dat
1 71 70 -736 170 1 0 0 0 1 0 -0 0 1 3005.dat
1 71 110 -736 150 1 0 0 0 1 0 -0 0 1 3005.dat
1 71 130 -736 -150 1 0 0 0 1 0 -0 0 1 3005.dat
1 71 130 -736 130 1 0 0 0 1 0 -0 0 1 3005.dat
1 71 150 -736 110 1 0 0 0 1 0 -0 0 1 3005.dat
1 71 170 -736 -90 1 0 0 0 1 0 -0 0 1 3005.dat
1 71 170 -736 70 1 0 0 0 1 0 -0 0 1 3005.dat
1 71 -190 -744 -90 1 0 0 0 1 0 -0 0 1 3005.dat
1 71 -170 -744 -130 1 0 0 0 1 0 -0 0 1 3005.dat
1 71 -170 -744 110 1 0 0 0 1 0 -0 0 1 3005.dat
1 71 -150 -744 -150 1 0 0 0 1 0 -0 0 1 3005.dat
1 71 -130 -744 -170 1 0 0 0 1 0 -0 0 1 3005.dat
1 71 -110 -728 170 1 0 0 0 1 0 -0 0 1 3024.dat
1 71 -90 -744 -190 1 0 0 0 1 0 -0 0 1 3005.dat
1 71 -20 -728 190 1 0 0 0 1 0 -0 0 1 3710.dat
1 71 30 -728 190 1 0 0 0 1 0 -0 0 1 3024.dat
1 71 90 -744 170 1 0 0 0 1 0 -0 0 1 3005.dat
1 71 110 -744 -170 1 0 0 0 1 0 -0 0 1 3005.dat
1 71 170 -728 -110 1 0 0 0 1 0 -0 0 1 3024.dat
1 71 170 -744 90 1 0 0 0 1 0 -0 0 1 3005.dat
1 71 190 -728 -50 1 0 0 0 1 0 -0 0 1 3024.dat
1 71 -190 -752 -20 0 0 1 0 1 0 -1 0 0 3010.dat
1 71 -190 -752 30 1 0 0 0 1 0 -0 0 1 3005.dat
1 71 -170 -752 -110 1 0 0 0 1 0 -0 0 1 3005.dat
1 71 -170 -752 90 1 0 0 0 1 0 -0 0 1 3005.dat
1 71 -120 -752 150 1 0 0 0 1 0 -0 0 1 3004.dat
1 71 -110 -752 -170 1 0 0 0 1 0 -0 0 1 3005.dat
1 71 -70 -752 170 1 0 0 0 1 0 -0 0 1 3005.dat
1 71 -20 -752 -190 1 0 0 0 1 0 -0 0 1 3010.dat
1 71 -20 -736 190 1 0 0 0 1 0 -0 0 1 3710.dat
1 71 30 -752 -190 1 0 0 0 1 0 -0 0 1 3005.dat
1 71 30 -736 190 1 0 0 0 1 0 -0 0 1 3024.dat
1 71 50 -752 170 1 0 0 0 1 0 -0 0 1 3005.dat
1 71 90 -752 -170 1 0 0 0 1 0 -0 0 1 3005.dat
1 71 150 -752 -120 0 0 1 0 1 0 -1 0 0 3004.dat
1 71 170 -752 -70 1 0 0 0 1 0 -0 0 1 3005.dat
1 71 170 -752 50 1 0 0 0 1 0 -0 0 1 3005.dat
1 71 190 -736 -20 0 0 1 0 1 0 -1 0 0 3710.dat
1 71 190 -736 30 1 0 0 0 1 0 -0 0 1 3024.dat
1 71 -190 -760 -70 1 0 0 0 1 0 -0 0 1 3005.dat
1 71 -190 -760 60 0 0 1 0 1 0 -1 0 0 3004.dat
1 71 -150 -760 130 1 0 0 0 1 0 -0 0 1 3005.dat
1 71 -90 -760 170 1 0 0 0 1 0 -0 0 1 3005.dat
1 71 -70 -760 -190 1 0 0 0 1 0 -0 0 1 3005.dat
1 71 -50 -760 170 1 0 0 0 1 0 -0 0 1 3005.dat
1 71 -10 -744 190 1 0 0 0 1 0 -0 0 1 3623.dat
1 71 30 -760 170 1 0 0 0 1 0 -0 0 1 3005.dat
1 71 60 -760 -190 1 0 0 0 1 0 -0 0 1 3004.dat
1 71 70 -760 170 1 0 0 0 1 0 -0 0 1 3005.dat
1 71 110 -760 150 1 0 0 0 1 0 -0 0 1 3005.dat
1 71 130 -760 -150 1 0 0 0 1 0 -0 0 1 3005.dat
1 71 130 -760 130 1 0 0 0 1 0 -0 0 1 3005.dat
1 71 150 -760 110 1 0 0 0 1 0 -0 0 1 3005.dat
1 71 170 -760 -90 1 0 0 0 1 0 -0 0 1 3005.dat
1 71 170 -760 -50 1 0 0 0 1 0 -0 0 1 3005.dat
1 71 170 -760 30 1 0 0 0 1 0 -0 0 1 3005.dat
1 71 170 -760 70 1 0 0 0 1 0 -0 0 1 3005.dat
1 71 190 -744 -10 0 0 1 0 1 0 -1 0 0 3623.dat
1 71 -190 -752 -90 1 0 0 0 1 0 -0 0 1 3024.dat
1 71 -170 -752 110 1 0 0 0 1 0 -0 0 1 3024.dat
1 71 -140 -752 -150 1 0 0 0 1 0 -0 0 1 3023.dat
1 71 -150 -768 -130 1 0 0 0 1 0 -0 0 1 3005.dat
1 71 -90 -752 -190 1 0 0 0 1 0 -0 0 1 3024.dat
1 71 -30 -768 170 1 0 0 0 1 0 -0 0 1 3005.dat
1 71 0 -752 190 1 0 0 0 1 0 -0 0 1 3023.dat
1 71 90 -768 150 1 0 0 0 1 0 -0 0 1 3005.dat
1 71 110 -752 -170 1 0 0 0 1 0 -0 0 1 3024.dat
1 71 150 -768 90 1 0 0 0 1 0 -0 0 1 3005.dat
1 71 170 -768 -30 1 0 0 0 1 0 -0 0 1 3005.dat
1 71 190 -752 0 0 0 1 0 1 0 -1 0 0 3023.dat
1 71 -190 -760 -90 1 0 0 0 1 0 -0 0 1 3024.dat
1 71 -190 -776 -20 0 0 1 0 1 0 -1 0 0 3010.dat
1 71 -190 -776 30 1 0 0 0 1 0 -0 0 1 3005.dat
1 71 -170 -776 -110 1 0 0 0 1 0 -0 0 1 3005.dat
1 71 -170 -776 90 1 0 0 0 1 0 -0 0 1 3005.dat
1 71 -170 -760 110 1 0 0 0 1 0 -0 0 1 3024.dat
1 71 -140 -760 -150 1 0 0 0 1 0 -0 0 1 3023.dat
1 71 -120 -760 150 1 0 0 0 1 0 -0 0 1 3023.dat
1 71 -110 -776 -170 1 0 0 0 1 0 -0 0 1 3005.dat
1 71 -90 -760 -190 1 0 0 0 1 0 -0 0 1 3024.dat
1 71 -70 -776 170 1 0 0 0 1 0 -0 0 1 3005.dat
1 71 -20 -776 -190 1 0 0 0 1 0 -0 0 1 3010.dat
1 71 0 -776 170 1 0 0 0 1 0 -0 0 1 3004.dat
1 71 30 -776 -190 1 0 0 0 1 0 -0 0 1 3005.dat
1 71 50 -776 170 1 0 0 0 1 0 -0 0 1 3005.dat
1 71 90 -776 -170 1 0 0 0 1 0 -0 0 1 3005.dat
1 71 110 -760 -170 1 0 0 0 1 0 -0 0 1 3024.dat
1 71 150 -760 -120 0 0 1 0 1 0 -1 0 0 3023.dat
1 71 170 -776 -70 1 0 0 0 1 0 -0 0 1 3005.dat
1 71 170 -776 0 0 0 1 0 1 0 -1 0 0 3004.dat
1 71 170 -776 50 1 0 0 0 1 0 -0 0 1 3005.dat
1 71 -190 -784 -70 1 0 0 0 1 0 -0 0 1 3005.dat
1 71 -190 -784 50 1 0 0 0 1 0 -0 0 1 3005.dat
1 71 -190 -768 70 1 0 0 0 1 0 -0 0 1 3024.dat
1 71 -170 -784 -90 1 0 0 0 1 0 -0 0 1 3005.dat
1 71 -150 -784 110 1 0 0 0 1 0 -0 0 1 3005.dat
1 71 -150 -768 130 1 0 0 0 1 0 -0 0 1 3024.dat
1 71 -130 -784 -150 1 0 0 0 1 0 -0 0 1 3005.dat
1 71 -120 -768 150 1 0 0 0 1 0 -0 0 1 3023.dat
1 71 -90 -784 -170 1 0 0 0 1 0 -0 0 1 3005.dat
1 71 -90 -768 170 1 0 0 0 1 0 -0 0 1 3024.dat
1 71 -70 -784 -190 1 0 0 0 1 0 -0 0 1 3005.dat
1 71 -50 -784 170 1 0 0 0 1 0 -0 0 1 3005.dat
1 71 30 -784 170 1 0 0 0 1 0 -0 0 1 3005.dat
1 71 50 -784 -190 1 0 0 0 1 0 -0 0 1 3005.dat
1 71 70 -768 -190 1 0 0 0 1 0 -0 0 1 3024.dat
1 71 70 -768 170 1 0 0 0 1 0 -0 0 1 3024.dat
1 71 110 -784 -150 1 0 0 0 1 0 -0 0 1 3005.dat
1 71 110 -768 150 1 0 0 0 1 0 -0 0 1 3024.dat
1 71 130 -768 -150 1 0 0 0 1 0 -0 0 1 3024.dat
1 71 130 -768 130 1 0 0 0 1 0 -0 0 1 3024.dat
1 71 150 -768 -120 0 0 1 0 1 0 -1 0 0 3023.dat
1 71 150 -768 110 1 0 0 0 1 0 -0 0 1 3024.dat
1 71 170 -768 -90 1 0 0 0 1 0 -0 0 1 3024.dat
1 71 170 -784 -50 1 0 0 0 1 0 -0 0 1 3005.dat
1 71 170 -784 30 1 0 0 0 1 0 -0 0 1 3005.dat
1 71 170 -768 70 1 0 0 0 1 0 -0 0 1 3024.dat
1 71 -170 -792 70 1 0 0 0 1 0 -0 0 1 3005.dat
1 71 -150 -792 -130 1 0 0 0 1 0 -0 0 1 3005.dat
1 71 -140 -776 130 1 0 0 0 1 0 -0 0 1 3023.dat
1 71 -110 -792 150 1 0 0 0 1 0 -0 0 1 3005.dat
1 71 -90 -776 170 1 0 0 0 1 0 -0 0 1 3024.dat
1 71 -30 -792 170 1 0 0 0 1 0 -0 0 1 3005.dat
1 71 70 -792 -170 1 0 0 0 1 0 -0 0 1 3005.dat
1 71 70 -776 170 1 0 0 0 1 0 -0 0 1 3024.dat
1 71 90 -792 150 1 0 0 0 1 0 -0 0 1 3005.dat
1 71 110 -776 150 1 0 0 0 1 0 -0 0 1 3024.dat
1 71 130 -776 -140 0 0 1 0 1 0 -1 0 0 3023.dat
1 71 130 -776 130 1 0 0 0 1 0 -0 0 1 3024.dat
1 71 150 -792 -110 1 0 0 0 1 0 -0 0 1 3005.dat
1 71 150 -792 90 1 0 0 0 1 0 -0 0 1 3005.dat
1 71 150 -776 110 1 0 0 0 1 0 -0 0 1 3024.dat
1 71 170 -776 -90 1 0 0 0 1 0 -0 0 1 3024.dat
1 71 170 -792 -30 1 0 0 0 1 0 -0 0 1 3005.dat
1 71 170 -776 70 1 0 0 0 1 0 -0 0 1 3024.dat
1 71 -190 -784 -20 0 0 1 0 1 0 -1 0 0 3710.dat
1 71 -190 -784 30 1 0 0 0 1 0 -0 0 1 3024.dat
1 71 -170 -784 -110 1 0 0 0 1 0 -0 0 1 3024.dat
1 71 -170 -784 90 1 0 0 0 1 0 -0 0 1 3024.dat
1 71 -130 -784 130 1 0 0 0 1 0 -0 0 1 3024.dat
1 71 -110 -784 -170 1 0 0 0 1 0 -0 0 1 3024.dat
1 71 -90 -800 150 1 0 0 0 1 0 -0 0 1 3005.dat
1 71 -70 -784 170 1 0 0 0 1 0 -0 0 1 3024.dat
1 71 -20 -784 -190 1 0 0 0 1 0 -0 0 1 3710.dat
1 71 0 -800 170 1 0 0 0 1 0 -0 0 1 3004.dat
1 71 30 -784 -190 1 0 0 0 1 0 -0 0 1 3024.dat
1 71 50 -784 170 1 0 0 0 1 0 -0 0 1 3024.dat
1 71 70 -800 150 1 0 0 0 1 0 -0 0 1 3005.dat
1 71 90 -784 -170 1 0 0 0 1 0 -0 0 1 3024.dat
1 71 110 -800 130 1 0 0 0 1 0 -0 0 1 3005.dat
1 71 130 -784 -130 1 0 0 0 1 0 -0 0 1 3024.dat
1 71 130 -800 110 1 0 0 0 1 0 -0 0 1 3005.dat
1 71 150 -800 -90 1 0 0 0 1 0 -0 0 1 3005.dat
1 71 150 -800 70 1 0 0 0 1 0 -0 0 1 3005.dat
1 71 170 -784 -70 1 0 0 0 1 0 -0 0 1 3024.dat
1 71 170 -800 0 0 0 1 0 1 0 -1 0 0 3004.dat
1 71 170 -784 50 1 0 0 0 1 0 -0 0 1 3024.dat
1 71 -190 -792 0 0 0 1 0 1 0 -1 0 0 3710.dat
1 71 -170 -792 -70 0 0 1 0 1 0 -1 0 0 3623.dat
1 71 -170 -808 50 1 0 0 0 1 0 -0 0 1 3005.dat
1 71 -150 -808 -110 1 0 0 0 1 0 -0 0 1 3005.dat
1 71 -150 -808 90 1 0 0 0 1 0 -0 0 1 3005.dat
1 71 -150 -792 110 1 0 0 0 1 0 -0 0 1 3024.dat
1 71 -120 -792 -150 1 0 0 0 1 0 -0 0 1 3023.dat
1 71 -130 -792 130 1 0 0 0 1 0 -0 0 1 3024.dat
1 71 -70 -792 -170 1 0 0 0 1 0 -0 0 1 3623.dat
1 71 -70 -808 150 1 0 0 0 1 0 -0 0 1 3005.dat
1 71 -50 -792 170 1 0 0 0 1 0 -0 0 1 3024.dat
1 71 0 -792 -190 1 0 0 0 1 0 -0 0 1 3710.dat
1 71 30 -792 170 1 0 0 0 1 0 -0 0 1 3024.dat
1 71 50 -808 -170 1 0 0 0 1 0 -0 0 1 3005.dat
1 71 50 -808 150 1 0 0 0 1 0 -0 0 1 3005.dat
1 71 90 -808 -150 1 0 0 0 1 0 -0 0 1 3005.dat
1 71 110 -792 -150 1 0 0 0 1 0 -0 0 1 3024.dat
1 71 130 -792 -130 1 0 0 0 1 0 -0 0 1 3024.dat
1 71 150 -808 -70 1 0 0 0 1 0 -0 0 1 3005.dat
1 71 150 -808 50 1 0 0 0 1 0 -0 0 1 3005.dat
1 71 170 -792 -50 1 0 0 0 1 0 -0 0 1 3024.dat
1 71 170 -792 30 1 0 0 0 1 0 -0 0 1 3024.dat
1 71 -170 -800 -60 0 0 1 0 1 0 -1 0 0 3710.dat
1 71 -170 -816 10 0 0 1 0 1 0 -1 0 0 3622.dat
1 71 -170 -800 70 1 0 0 0 1 0 -0 0 1 3024.dat
1 71 -130 -800 -130 1 0 0 0 1 0 -0 0 1 3024.dat
1 71 -130 -816 110 1 0 0 0 1 0 -0 0 1 3005.dat
1 71 -110 -800 -150 1 0 0 0 1 0 -0 0 1 3024.dat
1 71 -110 -816 130 1 0 0 0 1 0 -0 0 1 3005.dat
1 71 -60 -800 -170 1 0 0 0 1 0 -0 0 1 3710.dat
1 71 -50 -816 150 1 0 0 0 1 0 -0 0 1 3005.dat
1 71 -30 -800 170 1 0 0 0 1 0 -0 0 1 3024.dat
1 71 10 -816 -170 1 0 0 0 1 0 -0 0 1 3622.dat
1 71 30 -816 150 1 0 0 0 1 0 -0 0 1 3005.dat
1 71 70 -800 -170 1 0 0 0 1 0 -0 0 1 3024.dat
1 71 90 -816 130 1 0 0 0 1 0 -0 0 1 3005.dat
1 71 110 -816 -130 1 0 0 0 1 0 -0 0 1 3005.dat
1 71 130 -816 -110 1 0 0 0 1 0 -0 0 1 3005.dat
1 71 130 -816 90 1 0 0 0 1 0 -0 0 1 3005.dat
1 71 150 -816 -50 1 0 0 0 1 0 -0 0 1 3005.dat
1 71 150 -816 30 1 0 0 0 1 0 -0 0 1 3005.dat
1 71 170 -800 -30 1 0 0 0 1 0 -0 0 1 3024.dat
1 71 -170 -808 -50 0 0 1 0 1 0 -1 0 0 3623.dat
1 71 -150 -824 -90 1 0 0 0 1 0 -0 0 1 3005.dat
1 71 -150 -824 70 1 0 0 0 1 0 -0 0 1 3005.dat
1 71 -130 -808 -130 1 0 0 0 1 0 -0 0 1 3024.dat
1 71 -100 -808 -150 1 0 0 0 1 0 -0 0 1 3023.dat
1 71 -90 -824 130 1 0 0 0 1 0 -0 0 1 3005.dat
1 71 -50 -808 -170 1 0 0 0 1 0 -0 0 1 3623.dat
1 71 -10 -824 150 1 0 0 0 1 0 -0 0 1 3622.dat
1 71 70 -824 -150 1 0 0 0 1 0 -0 0 1 3005.dat
1 71 70 -808 150 1 0 0 0 1 0 -0 0 1 3024.dat
1 71 110 -808 110 1 0 0 0 1 0 -0 0 1 3024.dat
1 71 130 -824 -90 1 0 0 0 1 0 -0 0 1 3005.dat
1 71 150 -824 -10 0 0 1 0 1 0 -1 0 0 3622.dat
1 71 150 -808 70 1 0 0 0 1 0 -0 0 1 3024.dat
1 71 -170 -816 -40 0 0 1 0 1 0 -1 0 0 3023.dat
1 71 -150 -832 -70 1 0 0 0 1 0 -0 0 1 3005.dat
1 71 -150 -832 50 1 0 0 0 1 0 -0 0 1 3005.dat
1 71 -130 -832 -110 1 0 0 0 1 0 -0 0 1 3005.dat
1 71 -130 -832 90 1 0 0 0 1 0 -0 0 1 3005.dat
1 71 -110 -832 -130 1 0 0 0 1 0 -0 0 1 3005.dat
1 71 -80 -816 -150 1 0 0 0 1 0 -0 0 1 3023.dat
1 71 -70 -816 150 1 0 0 0 1 0 -0 0 1 3024.dat
1 71 -40 -816 -170 1 0 0 0 1 0 -0 0 1 3023.dat
1 71 50 -832 -150 1 0 0 0 1 0 -0 0 1 3005.dat
1 71 50 -816 150 1 0 0 0 1 0 -0 0 1 3024.dat
1 71 70 -832 130 1 0 0 0 1 0 -0 0 1 3005.dat
1 71 90 -832 -130 1 0 0 0 1 0 -0 0 1 3005.dat
1 71 110 -816 110 1 0 0 0 1 0 -0 0 1 3024.dat
1 71 130 -832 70 1 0 0 0 1 0 -0 0 1 3005.dat
1 71 150 -816 -70 1 0 0 0 1 0 -0 0 1 3024.dat
1 71 150 -816 50 1 0 0 0 1 0 -0 0 1 3024.dat
1 71 -170 -824 0 0 0 1 0 1 0 -1 0 0 3023.dat
1 71 -150 -840 -40 0 0 1 0 1 0 -1 0 0 3004.dat
1 71 -150 -840 30 1 0 0 0 1 0 -0 0 1 3005.dat
1 71 -110 -824 110 1 0 0 0 1 0 -0 0 1 3024.dat
1 71 -60 -824 -150 1 0 0 0 1 0 -0 0 1 3710.dat
1 71 -70 -840 130 1 0 0 0 1 0 -0 0 1 3005.dat
1 71 -50 -824 150 1 0 0 0 1 0 -0 0 1 3024.dat
1 71 0 -824 -170 1 0 0 0 1 0 -0 0 1 3023.dat
1 71 30 -840 -150 1 0 0 0 1 0 -0 0 1 3005.dat
1 71 30 -824 150 1 0 0 0 1 0 -0 0 1 3024.dat
1 71 50 -840 130 1 0 0 0 1 0 -0 0 1 3005.dat
1 71 90 -840 110 1 0 0 0 1 0 -0 0 1 3005.dat
1 71 110 -824 -110 1 0 0 0 1 0 -0 0 1 3024.dat
1 71 110 -840 90 1 0 0 0 1 0 -0 0 1 3005.dat
1 71 130 -840 -70 1 0 0 0 1 0 -0 0 1 3005.dat
1 71 130 -840 50 1 0 0 0 1 0 -0 0 1 3005.dat
1 71 150 -824 -50 1 0 0 0 1 0 -0 0 1 3024.dat
1 71 150 -824 30 1 0 0 0 1 0 -0 0 1 3024.dat
1 71 -150 -848 0 0 0 1 0 1 0 -1 0 0 3004.dat
1 71 -130 -848 -90 1 0 0 0 1 0 -0 0 1 3005.dat
1 71 -130 -848 70 1 0 0 0 1 0 -0 0 1 3005.dat
1 71 -110 -832 110 1 0 0 0 1 0 -0 0 1 3024.dat
1 71 -90 -848 -130 1 0 0 0 1 0 -0 0 1 3005.dat
1 71 -90 -832 130 1 0 0 0 1 0 -0 0 1 3024.dat
1 71 -40 -832 -150 1 0 0 0 1 0 -0 0 1 3710.dat
1 71 -20 -848 130 1 0 0 0 1 0 -0 0 1 3010.dat
1 71 10 -848 -150 1 0 0 0 1 0 -0 0 1 3005.dat
1 71 30 -848 130 1 0 0 0 1 0 -0 0 1 3005.dat
1 71 70 -848 -130 1 0 0 0 1 0 -0 0 1 3005.dat
1 71 110 -832 -110 1 0 0 0 1 0 -0 0 1 3024.dat
1 71 130 -832 -90 1 0 0 0 1 0 -0 0 1 3024.dat
1 71 130 -848 -20 0 0 1 0 1 0 -1 0 0 3010.dat
1 71 130 -848 30 1 0 0 0 1 0 -0 0 1 3005.dat
1 71 -140 -840 50 1 0 0 0 1 0 -0 0 1 3023.dat
1 71 -130 -840 -70 1 0 0 0 1 0 -0 0 1 3024.dat
1 71 -110 -840 -110 1 0 0 0 1 0 -0 0 1 3024.dat
1 71 -110 -840 90 1 0 0 0 1 0 -0 0 1 3024.dat
1 71 -90 -840 110 1 0 0 0 1 0 -0 0 1 3024.dat
1 71 -70 -840 -130 1 0 0 0 1 0 -0 0 1 3024.dat
1 71 -30 -840 -150 1 0 0 0 1 0 -0 0 1 3623.dat
1 71 50 -840 -140 0 0 1 0 1 0 -1 0 0 3023.dat
1 71 70 -840 110 1 0 0 0 1 0 -0 0 1 3024.dat
1 71 90 -840 -110 1 0 0 0 1 0 -0 0 1 3024.dat
1 71 90 -840 90 1 0 0 0 1 0 -0 0 1 3024.dat
1 71 110 -840 -90 1 0 0 0 1 0 -0 0 1 3024.dat
1 71 110 -840 70 1 0 0 0 1 0 -0 0 1 3024.dat
1 71 -140 -848 -30 1 0 0 0 1 0 -0 0 1 3023.dat
1 71 -130 -848 -60 0 0 1 0 1 0 -1 0 0 3023.dat
1 71 -130 -848 20 0 0 1 0 1 0 -1 0 0 3710.dat
1 71 -100 -848 -110 1 0 0 0 1 0 -0 0 1 3023.dat
1 71 -110 -848 -90 1 0 0 0 1 0 -0 0 1 3024.dat
1 71 -110 -848 80 0 0 1 0 1 0 -1 0 0 3023.dat
1 71 -90 -848 100 0 0 1 0 1 0 -1 0 0 3023.dat
1 71 -40 -848 -130 1 0 0 0 1 0 -0 0 1 3710.dat
1 71 -60 -848 110 1 0 0 0 1 0 -0 0 1 3023.dat
1 71 -20 -848 -150 1 0 0 0 1 0 -0 0 1 3023.dat
1 71 30 -848 -130 1 0 0 0 1 0 -0 0 1 3623.dat
1 71 50 -848 110 1 0 0 0 1 0 -0 0 1 3623.dat
1 71 80 -848 -110 1 0 0 0 1 0 -0 0 1 3023.dat
1 71 80 -848 90 1 0 0 0 1 0 -0 0 1 3023.dat
1 71 100 -848 -90 1 0 0 0 1 0 -0 0 1 3023.dat
1 71 100 -848 70 1 0 0 0 1 0 -0 0 1 3023.dat
1 71 110 -848 -60 0 0 1 0 1 0 -1 0 0 3023.dat
1 71 110 -848 40 0 0 1 0 1 0 -1 0 0 3023.dat
1 71 -130 -856 -20 0 0 1 0 1 0 -1 0 0 3710.dat
1 71 -130 -856 30 1 0 0 0 1 0 -0 0 1 3024.dat
1 71 -100 -856 -90 1 0 0 0 1 0 -0 0 1 3023.dat
1 71 -110 -856 -70 1 0 0 0 1 0 -0 0 1 3024.dat
1 71 -110 -856 60 0 0 1 0 1 0 -1 0 0 3023.dat
1 71 -80 -856 -110 1 0 0 0 1 0 -0 0 1 3023.dat
1 71 -90 -856 80 0 0 1 0 1 0 -1 0 0 3023.dat
1 71 -70 -856 100 0 0 1 0 1 0 -1 0 0 3023.dat
1 71 -20 -856 -130 1 0 0 0 1 0 -0 0 1 3710.dat
1 71 -20 -856 110 1 0 0 0 1 0 -0 0 1 3710.dat
1 71 30 -856 -130 1 0 0 0 1 0 -0 0 1 3024.dat
1 71 40 -856 110 1 0 0 0 1 0 -0 0 1 3023.dat
1 71 60 -856 -110 1 0 0 0 1 0 -0 0 1 3023.dat
1 71 60 -856 90 1 0 0 0 1 0 -0 0 1 3023.dat
1 71 80 -856 -90 1 0 0 0 1 0 -0 0 1 3023.dat
1 71 100 -856 -70 1 0 0 0 1 0 -0 0 1 3023.dat
1 71 100 -856 50 1 0 0 0 1 0 -0 0 1 3023.dat
1 71 90 -856 70 1 0 0 0 1 0 -0 0 1 3024.dat
1 71 110 -856 -20 0 0 1 0 1 0 -1 0 0 3710.dat
1 71 110 -856 30 1 0 0 0 1 0 -0 0 1 3024.dat
1 71 -110 -864 -40 0 0 1 0 1 0 -1 0 0 3710.dat
1 71 -110 -864 30 0 0 1 0 1 0 -1 0 0 3623.dat
1 71 -80 -864 -90 1 0 0 0 1 0 -0 0 1 3023.dat
1 71 -90 -864 -70 1 0 0 0 1 0 -0 0 1 3024.dat
1 71 -90 -864 60 0 0 1 0 1 0 -1 0 0 3023.dat
1 71 -40 -864 -110 1 0 0 0 1 0 -0 0 1 3710.dat
1 71 -70 -864 80 0 0 1 0 1 0 -1 0 0 3023.dat
1 71 -20 -864 90 1 0 0 0 1 0 -0 0 1 3710.dat
1 71 -10 -864 110 1 0 0 0 1 0 -0 0 1 3623.dat
1 71 30 -864 -110 1 0 0 0 1 0 -0 0 1 3623.dat
1 71 40 -864 90 1 0 0 0 1 0 -0 0 1 3023.dat
1 71 60 -864 -90 1 0 0 0 1 0 -0 0 1 3023.dat
1 71 80 -864 -70 1 0 0 0 1 0 -0 0 1 3023.dat
1 71 70 -864 70 1 0 0 0 1 0 -0 0 1 3024.dat
1 71 90 -864 -20 0 0 1 0 1 0 -1 0 0 3710.dat
1 71 90 -864 40 0 0 1 0 1 0 -1 0 0 3023.dat
1 71 110 -864 -10 0 0 1 0 1 0 -1 0 0 3623.dat
1 71 -110 -872 -20 0 0 1 0 1 0 -1 0 0 3710.dat
1 71 -110 -872 30 1 0 0 0 1 0 -0 0 1 3024.dat
1 71 -90 -872 -70 1 0 0 0 1 0 -0 0 1 3024.dat
1 71 -90 -872 50 1 0 0 0 1 0 -0 0 1 3024.dat
1 71 -70 -872 -90 1 0 0 0 1 0 -0 0 1 3024.dat
1 71 -70 -872 70 1 0 0 0 1 0 -0 0 1 3024.dat
1 71 -20 -872 -110 1 0 0 0 1 0 -0 0 1 3710.dat
1 71 -20 -872 90 1 0 0 0 1 0 -0 0 1 3710.dat
1 71 30 -872 -110 1 0 0 0 1 0 -0 0 1 3024.dat
1 71 30 -872 90 1 0 0 0 1 0 -0 0 1 3024.dat
1 71 50 -872 -90 1 0 0 0 1 0 -0 0 1 3024.dat
1 71 60 -872 70 1 0 0 0 1 0 -0 0 1 3023.dat
1 71 70 -872 -70 1 0 0 0 1 0 -0 0 1 3024.dat
1 71 70 -872 50 1 0 0 0 1 0 -0 0 1 3024.dat
1 71 90 -872 -20 0 0 1 0 1 0 -1 0 0 3710.dat
1 71 90 -872 30 1 0 0 0 1 0 -0 0 1 3024.dat
1 71 -90 -896 -20 0 0 1 0 1 0 -1 0 0 3010.dat
1 71 -90 -896 30 1 0 0 0 1 0 -0 0 1 3005.dat
1 71 -70 -896 -70 1 0 0 0 1 0 -0 0 1 3005.dat
1 71 -70 -896 50 1 0 0 0 1 0 -0 0 1 3005.dat
1 71 -20 -896 -90 1 0 0 0 1 0 -0 0 1 3010.dat
1 71 -20 -896 70 1 0 0 0 1 0 -0 0 1 3010.dat
1 71 30 -896 -90 1 0 0 0 1 0 -0 0 1 3005.dat
1 71 30 -896 70 1 0 0 0 1 0 -0 0 1 3005.dat
1 71 50 -896 -70 1 0 0 0 1 0 -0 0 1 3005.dat
1 71 50 -880 70 1 0 0 0 1 0 -0 0 1 3024.dat
1 71 70 -896 -20 0 0 1 0 1 0 -1 0 0 3010.dat
1 71 70 -896 30 1 0 0 0 1 0 -0 0 1 3005.dat
1 71 70 -880 50 1 0 0 0 1 0 -0 0 1 3024.dat
1 71 50 -904 50 1 0 0 0 1 0 -0 0 1 3005.dat
1 71 -90 -920 -20 0 0 1 0 1 0 -1 0 0 3010.dat
1 71 -90 -920 30 1 0 0 0 1 0 -0 0 1 3005.dat
1 71 -70 -920 -70 1 0 0 0 1 0 -0 0 1 3005.dat
1 71 -70 -920 50 1 0 0 0 1 0 -0 0 1 3005.dat
1 71 -20 -920 -90 1 0 0 0 1 0 -0 0 1 3010.dat
1 71 -20 -920 70 1 0 0 0 1 0 -0 0 1 3010.dat
1 71 30 -920 -90 1 0 0 0 1 0 -0 0 1 3005.dat
1 71 30 -920 70 1 0 0 0 1 0 -0 0 1 3005.dat
1 71 50 -920 -70 1 0 0 0 1 0 -0 0 1 3005.dat
1 71 70 -920 -20 0 0 1 0 1 0 -1 0 0 3010.dat
1 71 70 -920 30 1 0 0 0 1 0 -0 0 1 3005.dat
1 71 50 -928 50 1 0 0 0 1 0 -0 0 1 3005.dat
1 71 -90 -944 -20 0 0 1 0 1 0 -1 0 0 3010.dat
1 71 -90 -944 30 1 0 0 0 1 0 -0 0 1 3005.dat
1 71 -70 -944 -70 1 0 0 0 1 0 -0 0 1 3005.dat
1 71 -70 -944 50 1 0 0 0 1 0 -0 0 1 3005.dat
1 71 -20 -944 -90 1 0 0 0 1 0 -0 0 1 3010.dat
1 71 -20 -944 70 1 0 0 0 1 0 -0 0 1 3010.dat
1 71 30 -944 -90 1 0 0 0 1 0 -0 0 1 3005.dat
1 71 30 -944 70 1 0 0 0 1 0 -0 0 1 3005.dat
1 71 50 -944 -70 1 0 0 0 1 0 -0 0 1 3005.dat
1 71 70 -944 -20 0 0 1 0 1 0 -1 0 0 3010.dat
1 71 70 -944 30 1 0 0 0 1 0 -0 0 1 3005.dat
1 71 50 -952 50 1 0 0 0 1 0 -0 0 1 3005.dat
1 71 -90 -968 -20 0 0 1 0 1 0 -1 0 0 3010.dat
1 71 -90 -968 30 1 0 0 0 1 0 -0 0 1 3005.dat
1 71 -70 -968 -70 1 0 0 0 1 0 -0 0 1 3005.dat
1 71 -70 -968 50 1 0 0 0 1 0 -0 0 1 3005.dat
1 71 -20 -968 -90 1 0 0 0 1 0 -0 0 1 3010.dat
1 71 -20 -968 70 1 0 0 0 1 0 -0 0 1 3010.dat
1 71 30 -968 -90 1 0 0 0 1 0 -0 0 1 3005.dat
1 71 30 -968 70 1 0 0 0 1 0 -0 0 1 3005.dat
1 71 50 -968 -70 1 0 0 0 1 0 -0 0 1 3005.dat
1 71 70 -968 -20 0 0 1 0 1 0 -1 0 0 3010.dat
1 71 70 -968 30 1 0 0 0 1 0 -0 0 1 3005.dat
1 71 50 -976 50 1 0 0 0 1 0 -0 0 1 3005.dat
1 71 -90 -992 -20 0 0 1 0 1 0 -1 0 0 3010.dat
1 71 -90 -992 30 1 0 0 0 1 0 -0 0 1 3005.dat
1 71 -70 -992 -70 1 0 0 0 1 0 -0 0 1 3005.dat
1 71 -70 -992 50 1 0 0 0 1 0 -0 0 1 3005.dat
1 71 -20 -992 -90 1 0 0 0 1 0 -0 0 1 3010.dat
1 71 -20 -992 70 1 0 0 0 1 0 -0 0 1 3010.dat
1 71 30 -992 -90 1 0 0 0 1 0 -0 0 1 3005.dat
1 71 30 -992 70 1 0 0 0 1 0 -0 0 1 3005.dat
1 71 50 -992 -70 1 0 0 0 1 0 -0 0 1 3005.dat
1 71 70 -992 -20 0 0 1 0 1 0 -1 0 0 3010.dat
1 71 70 -992 30 1 0 0 0 1 0 -0 0 1 3005.dat
1 71 50 -1000 50 1 0 0 0 1 0 -0 0 1 3005.dat
1 71 -90 -1016 -20 0 0 1 0 1 0 -1 0 0 3010.dat
1 71 -90 -1016 30 1 0 0 0 1 0 -0 0 1 3005.dat
1 71 -70 -1016 -70 1 0 0 0 1 0 -0 0 1 3005.dat
1 71 -70 -1016 50 1 0 0 0 1 0 -0 0 1 3005.dat
1 71 -20 -1016 -90 1 0 0 0 1 0 -0 0 1 3010.dat
1 71 -20 -1016 70 1 0 0 0 1 0 -0 0 1 3010.dat
1 71 30 -1016 -90 1 0 0 0 1 0 -0 0 1 3005.dat
1 71 30 -1016 70 1 0 0 0 1 0 -0 0 1 3005.dat
1 71 50 -1016 -70 1 0 0 0 1 0 -0 0 1 3005.dat
1 71 70 -1016 -20 0 0 1 0 1 0 -1 0 0 3010.dat
1 71 70 -1016 30 1 0 0 0 1 0 -0 0 1 3005.dat
1 71 50 -1008 50 1 0 0 0 1 0 -0 0 1 3024.dat
1 71 -90 -1032 -70 1 0 0 0 1 0 -0 0 1 3005.dat
1 71 -90 -1032 50 1 0 0 0 1 0 -0 0 1 3005.dat
1 71 -70 -1032 -90 1 0 0 0 1 0 -0 0 1 3005.dat
1 71 -70 -1032 70 1 0 0 0 1 0 -0 0 1 3005.dat
1 71 -10 -1032 90 1 0 0 0 1 0 -0 0 1 3622.dat
1 71 50 -1032 -90 1 0 0 0 1 0 -0 0 1 3005.dat
1 71 60 -1016 50 1 0 0 0 1 0 -0 0 1 3023.dat
1 71 50 -1032 70 1 0 0 0 1 0 -0 0 1 3005.dat
1 71 70 -1032 -70 1 0 0 0 1 0 -0 0 1 3005.dat
1 71 90 -1032 -10 0 0 1 0 1 0 -1 0 0 3622.dat
1 71 -90 -1040 -20 0 0 1 0 1 0 -1 0 0 3010.dat
1 71 -90 -1040 30 1 0 0 0 1 0 -0 0 1 3005.dat
1 71 -20 -1040 -90 1 0 0 0 1 0 -0 0 1 3010.dat
1 71 -50 -1040 70 1 0 0 0 1 0 -0 0 1 3005.dat
1 71 30 -1040 -90 1 0 0 0 1 0 -0 0 1 3005.dat
1 71 30 -1040 70 1 0 0 0 1 0 -0 0 1 3005.dat
1 71 70 -1040 -50 1 0 0 0 1 0 -0 0 1 3005.dat
1 71 70 -1040 40 0 0 1 0 1 0 -1 0 0 3004.dat
1 71 -90 -1040 -70 1 0 0 0 1 0 -0 0 1 3024.dat
1 71 -90 -1056 50 1 0 0 0 1 0 -0 0 1 3005.dat
1 71 -70 -1056 -90 1 0 0 0 1 0 -0 0 1 3005.dat
1 71 -70 -1040 70 1 0 0 0 1 0 -0 0 1 3024.dat
1 71 -10 -1040 90 1 0 0 0 1 0 -0 0 1 3623.dat
1 71 50 -1040 -90 1 0 0 0 1 0 -0 0 1 3024.dat
1 71 50 -1040 70 1 0 0 0 1 0 -0 0 1 3024.dat
1 71 70 -1056 -70 1 0 0 0 1 0 -0 0 1 3005.dat
1 71 90 -1040 -10 0 0 1 0 1 0 -1 0 0 3623.dat
1 71 -20 -1048 -40 1 0 0 0 1 0 -0 0 1 3020.dat
1 71 -20 -1048 0 1 0 0 0 1 0 -0 0 1 3020.dat
1 71 -20 -1048 30 1 0 0 0 1 0 -0 0 1 3710.dat
1 71 -10 -1048 50 1 0 0 0 1 0 -0 0 1 3623.dat
1 71 10 -1048 80 0 0 1 0 1 0 -1 0 0 3023.dat
1 71 40 -1048 -20 0 0 1 0 1 0 -1 0 0 3020.dat
1 71 50 -1048 30 1 0 0 0 1 0 -0 0 1 3623.dat
1 71 70 -1048 -50 1 0 0 0 1 0 -0 0 1 3024.dat
1 71 80 -1048 10 1 0 0 0 1 0 -0 0 1 3023.dat
1 71 70 -1048 50 1 0 0 0 1 0 -0 0 1 3024.dat
1 71 -20 -1056 -40 1 0 0 0 1 0 -0 0 1 3020.dat
1 71 -20 -1056 0 1 0 0 0 1 0 -0 0 1 3020.dat
1 71 -20 -1056 30 1 0 0 0 1 0 -0 0 1 3710.dat
1 71 -10 -1056 50 1 0 0 0 1 0 -0 0 1 3623.dat
1 71 10 -1056 80 0 0 1 0 1 0 -1 0 0 3023.dat
1 71 40 -1056 -20 0 0 1 0 1 0 -1 0 0 3020.dat
1 71 50 -1056 30 1 0 0 0 1 0 -0 0 1 3623.dat
1 71 70 -1056 -50 1 0 0 0 1 0 -0 0 1 3024.dat
1 71 80 -1056 10 1 0 0 0 1 0 -0 0 1 3023.dat
1 71 70 -1056 50 1 0 0 0 1 0 -0 0 1 3024.dat
