# Procedural revolved water-bottle fixture; generated locally for benchmark coverage, not a scanned or photographed object.
# https://github.com/mikedh/trimesh
v 0.00000000 0.00000000 0.00000000
v 0.85000000 0.00000000 0.00000000
v 1.00000000 0.00000000 0.16000000
v 1.00000000 0.00000000 3.80000000
v 0.96000000 0.00000000 4.05000000
v 0.72000000 0.00000000 4.40000000
v 0.42000000 0.00000000 4.60000000
v 0.42000000 0.00000000 5.25000000
v 0.47000000 0.00000000 5.25000000
v 0.47000000 0.00000000 5.52000000
v 0.00000000 0.00000000 5.52000000
v 0.84590702 0.08331457 0.00000000
v 0.99518473 0.09801714 0.16000000
v 0.99518473 0.09801714 3.80000000
v 0.95537734 0.09409645 4.05000000
v 0.71653300 0.07057234 4.40000000
v 0.41797759 0.04116720 4.60000000
v 0.41797759 0.04116720 5.25000000
v 0.46773682 0.04606806 5.25000000
v 0.46773682 0.04606806 5.52000000
v 0.83366749 0.16582677 0.00000000
v 0.98078528 0.19509032 0.16000000
v 0.98078528 0.19509032 3.80000000
v 0.94155387 0.18728671 4.05000000
v 0.70616540 0.14046503 4.40000000
v 0.41192982 0.08193794 4.60000000
v 0.41192982 0.08193794 5.25000000
v 0.46096908 0.09169245 5.25000000
v 0.46096908 0.09169245 5.52000000
v 0.81339929 0.24674198 0.00000000
v 0.95694034 0.29028468 0.16000000
v 0.95694034 0.29028468 3.80000000
v 0.91866272 0.27867329 4.05000000
v 0.68899704 0.20900497 4.40000000
v 0.40191494 0.12191956 4.60000000
v 0.40191494 0.12191956 5.25000000
v 0.44976196 0.13643380 5.25000000
v 0.44976196 0.13643380 5.52000000
v 0.78529760 0.32528092 0.00000000
v 0.92387953 0.38268343 0.16000000
v 0.92387953 0.38268343 3.80000000
v 0.88692435 0.36737610 4.05000000
v 0.66519326 0.27553207 4.40000000
v 0.38802940 0.16072704 4.60000000
v 0.38802940 0.16072704 5.25000000
v 0.43422338 0.17986121 5.25000000
v 0.43422338 0.17986121 5.52000000
v 0.74963307 0.40068723 0.00000000
v 0.88192126 0.47139674 0.16000000
v 0.88192126 0.47139674 3.80000000
v 0.84664441 0.45254087 4.05000000
v 0.63498331 0.33940565 4.40000000
v 0.37040693 0.19798663 4.60000000
v 0.37040693 0.19798663 5.25000000
v 0.41450299 0.22155647 5.25000000
v 0.41450299 0.22155647 5.52000000
v 0.70674917 0.47223470 0.00000000
v 0.83146961 0.55557023 0.16000000
v 0.83146961 0.55557023 3.80000000
v 0.79821083 0.53334742 4.05000000
v 0.59865812 0.40001057 4.40000000
v 0.34921724 0.23333950 4.60000000
v 0.34921724 0.23333950 5.25000000
v 0.39079072 0.26111801 5.25000000
v 0.39079072 0.26111801 5.52000000
v 0.65705889 0.53923429 0.00000000
v 0.77301045 0.63439328 0.16000000
v 0.77301045 0.63439328 3.80000000
v 0.74209004 0.60901755 4.05000000
v 0.55656753 0.45676316 4.40000000
v 0.32466439 0.26644518 4.60000000
v 0.32466439 0.26644518 5.25000000
v 0.36331491 0.29816484 5.25000000
v 0.36331491 0.29816484 5.52000000
v 0.60104076 0.60104076 0.00000000
v 0.70710678 0.70710678 0.16000000
v 0.70710678 0.70710678 3.80000000
v 0.67882251 0.67882251 4.05000000
v 0.50911688 0.50911688 4.40000000
v 0.29698485 0.29698485 4.60000000
v 0.29698485 0.29698485 5.25000000
v 0.33234019 0.33234019 5.25000000
v 0.33234019 0.33234019 5.52000000
v 0.53923429 0.65705889 0.00000000
v 0.63439328 0.77301045 0.16000000
v 0.63439328 0.77301045 3.80000000
v 0.60901755 0.74209004 4.05000000
v 0.45676316 0.55656753 4.40000000
v 0.26644518 0.32466439 4.60000000
v 0.26644518 0.32466439 5.25000000
v 0.29816484 0.36331491 5.25000000
v 0.29816484 0.36331491 5.52000000
v 0.47223470 0.70674917 0.00000000
v 0.55557023 0.83146961 0.16000000
v 0.55557023 0.83146961 3.80000000
v 0.53334742 0.79821083 4.05000000
v 0.40001057 0.59865812 4.40000000
v 0.23333950 0.34921724 4.60000000
v 0.23333950 0.34921724 5.25000000
v 0.26111801 0.39079072 5.25000000
v 0.26111801 0.39079072 5.52000000
v 0.40068723 0.74963307 0.00000000
v 0.47139674 0.88192126 0.16000000
v 0.47139674 0.88192126 3.80000000
v 0.45254087 0.84664441 4.05000000
v 0.33940565 0.63498331 4.40000000
v 0.19798663 0.37040693 4.60000000
v 0.19798663 0.37040693 5.25000000
v 0.22155647 0.41450299 5.25000000
v 0.22155647 0.41450299 5.52000000
v 0.32528092 0.78529760 0.00000000
v 0.38268343 0.92387953 0.16000000
v 0.38268343 0.92387953 3.80000000
v 0.36737610 0.88692435 4.05000000
v 0.27553207 0.66519326 4.40000000
v 0.16072704 0.38802940 4.60000000
v 0.16072704 0.38802940 5.25000000
v 0.17986121 0.43422338 5.25000000
v 0.17986121 0.43422338 5.52000000
v 0.24674198 0.81339929 0.00000000
v 0.29028468 0.95694034 0.16000000
v 0.29028468 0.95694034 3.80000000
v 0.27867329 0.91866272 4.05000000
v 0.20900497 0.68899704 4.40000000
v 0.12191956 0.40191494 4.60000000
v 0.12191956 0.40191494 5.25000000
v 0.13643380 0.44976196 5.25000000
v 0.13643380 0.44976196 5.52000000
v 0.16582677 0.83366749 0.00000000
v 0.19509032 0.98078528 0.16000000
v 0.19509032 0.98078528 3.80000000
v 0.18728671 0.94155387 4.05000000
v 0.14046503 0.70616540 4.40000000
v 0.08193794 0.41192982 4.60000000
v 0.08193794 0.41192982 5.25000000
v 0.09169245 0.46096908 5.25000000
v 0.09169245 0.46096908 5.52000000
v 0.08331457 0.84590702 0.00000000
v 0.09801714 0.99518473 0.16000000
v 0.09801714 0.99518473 3.80000000
v 0.09409645 0.95537734 4.05000000
v 0.07057234 0.71653300 4.40000000
v 0.04116720 0.41797759 4.60000000
v 0.04116720 0.41797759 5.25000000
v 0.04606806 0.46773682 5.25000000
v 0.04606806 0.46773682 5.52000000
v 0.00000000 0.85000000 0.00000000
v 0.00000000 1.00000000 0.16000000
v 0.00000000 1.00000000 3.80000000
v 0.00000000 0.96000000 4.05000000
v 0.00000000 0.72000000 4.40000000
v 0.00000000 0.42000000 4.60000000
v 0.00000000 0.42000000 5.25000000
v 0.00000000 0.47000000 5.25000000
v 0.00000000 0.47000000 5.52000000
v -0.08331457 0.84590702 0.00000000
v -0.09801714 0.99518473 0.16000000
v -0.09801714 0.99518473 3.80000000
v -0.09409645 0.95537734 4.05000000
v -0.07057234 0.71653300 4.40000000
v -0.04116720 0.41797759 4.60000000
v -0.04116720 0.41797759 5.25000000
v -0.04606806 0.46773682 5.25000000
v -0.04606806 0.46773682 5.52000000
v -0.16582677 0.83366749 0.00000000
v -0.19509032 0.98078528 0.16000000
v -0.19509032 0.98078528 3.80000000
v -0.18728671 0.94155387 4.05000000
v -0.14046503 0.70616540 4.40000000
v -0.08193794 0.41192982 4.60000000
v -0.08193794 0.41192982 5.25000000
v -0.09169245 0.46096908 5.25000000
v -0.09169245 0.46096908 5.52000000
v -0.24674198 0.81339929 0.00000000
v -0.29028468 0.95694034 0.16000000
v -0.29028468 0.95694034 3.80000000
v -0.27867329 0.91866272 4.05000000
v -0.20900497 0.68899704 4.40000000
v -0.12191956 0.40191494 4.60000000
v -0.12191956 0.40191494 5.25000000
v -0.13643380 0.44976196 5.25000000
v -0.13643380 0.44976196 5.52000000
v -0.32528092 0.78529760 0.00000000
v -0.38268343 0.92387953 0.16000000
v -0.38268343 0.92387953 3.80000000
v -0.36737610 0.88692435 4.05000000
v -0.27553207 0.66519326 4.40000000
v -0.16072704 0.38802940 4.60000000
v -0.16072704 0.38802940 5.25000000
v -0.17986121 0.43422338 5.25000000
v -0.17986121 0.43422338 5.52000000
v -0.40068723 0.74963307 0.00000000
v -0.47139674 0.88192126 0.16000000
v -0.47139674 0.88192126 3.80000000
v -0.45254087 0.84664441 4.05000000
v -0.33940565 0.63498331 4.40000000
v -0.19798663 0.37040693 4.60000000
v -0.19798663 0.37040693 5.25000000
v -0.22155647 0.41450299 5.25000000
v -0.22155647 0.41450299 5.52000000
v -0.47223470 0.70674917 0.00000000
v -0.55557023 0.83146961 0.16000000
v -0.55557023 0.83146961 3.80000000
v -0.53334742 0.79821083 4.05000000
v -0.40001057 0.59865812 4.40000000
v -0.23333950 0.34921724 4.60000000
v -0.23333950 0.34921724 5.25000000
v -0.26111801 0.39079072 5.25000000
v -0.26111801 0.39079072 5.52000000
v -0.53923429 0.65705889 0.00000000
v -0.63439328 0.77301045 0.16000000
v -0.63439328 0.77301045 3.80000000
v -0.60901755 0.74209004 4.05000000
v -0.45676316 0.55656753 4.40000000
v -0.26644518 0.32466439 4.60000000
v -0.26644518 0.32466439 5.25000000
v -0.29816484 0.36331491 5.25000000
v -0.29816484 0.36331491 5.52000000
v -0.60104076 0.60104076 0.00000000
v -0.70710678 0.70710678 0.16000000
v -0.70710678 0.70710678 3.80000000
v -0.67882251 0.67882251 4.05000000
v -0.50911688 0.50911688 4.40000000
v -0.29698485 0.29698485 4.60000000
v -0.29698485 0.29698485 5.25000000
v -0.33234019 0.33234019 5.25000000
v -0.33234019 0.33234019 5.52000000
v -0.65705889 0.53923429 0.00000000
v -0.77301045 0.63439328 0.16000000
v -0.77301045 0.63439328 3.80000000
v -0.74209004 0.60901755 4.05000000
v -0.55656753 0.45676316 4.40000000
v -0.32466439 0.26644518 4.60000000
v -0.32466439 0.26644518 5.25000000
v -0.36331491 0.29816484 5.25000000
v -0.36331491 0.29816484 5.52000000
v -0.70674917 0.47223470 0.00000000
v -0.83146961 0.55557023 0.16000000
v -0.83146961 0.55557023 3.80000000
v -0.79821083 0.53334742 4.05000000
v -0.59865812 0.40001057 4.40000000
v -0.34921724 0.23333950 4.60000000
v -0.34921724 0.23333950 5.25000000
v -0.39079072 0.26111801 5.25000000
v -0.39079072 0.26111801 5.52000000
v -0.74963307 0.40068723 0.00000000
v -0.88192126 0.47139674 0.16000000
v -0.88192126 0.47139674 3.80000000
v -0.84664441 0.45254087 4.05000000
v -0.63498331 0.33940565 4.40000000
v -0.37040693 0.19798663 4.60000000
v -0.37040693 0.19798663 5.25000000
v -0.41450299 0.22155647 5.25000000
v -0.41450299 0.22155647 5.52000000
v -0.78529760 0.32528092 0.00000000
v -0.92387953 0.38268343 0.16000000
v -0.92387953 0.38268343 3.80000000
v -0.88692435 0.36737610 4.05000000
v -0.66519326 0.27553207 4.40000000
v -0.38802940 0.16072704 4.60000000
v -0.38802940 0.16072704 5.25000000
v -0.43422338 0.17986121 5.25000000
v -0.43422338 0.17986121 5.52000000
v -0.81339929 0.24674198 0.00000000
v -0.95694034 0.29028468 0.16000000
v -0.95694034 0.29028468 3.80000000
v -0.91866272 0.27867329 4.05000000
v -0.68899704 0.20900497 4.40000000
v -0.40191494 0.12191956 4.60000000
v -0.40191494 0.12191956 5.25000000
v -0.44976196 0.13643380 5.25000000
v -0.44976196 0.13643380 5.52000000
v -0.83366749 0.16582677 0.00000000
v -0.98078528 0.19509032 0.16000000
v -0.98078528 0.19509032 3.80000000
v -0.94155387 0.18728671 4.05000000
v -0.70616540 0.14046503 4.40000000
v -0.41192982 0.08193794 4.60000000
v -0.41192982 0.08193794 5.25000000
v -0.46096908 0.09169245 5.25000000
v -0.46096908 0.09169245 5.52000000
v -0.84590702 0.08331457 0.00000000
v -0.99518473 0.09801714 0.16000000
v -0.99518473 0.09801714 3.80000000
v -0.95537734 0.09409645 4.05000000
v -0.71653300 0.07057234 4.40000000
v -0.41797759 0.04116720 4.60000000
v -0.41797759 0.04116720 5.25000000
v -0.46773682 0.04606806 5.25000000
v -0.46773682 0.04606806 5.52000000
v -0.85000000 0.00000000 0.00000000
v -1.00000000 0.00000000 0.16000000
v -1.00000000 0.00000000 3.80000000
v -0.96000000 0.00000000 4.05000000
v -0.72000000 0.00000000 4.40000000
v -0.42000000 0.00000000 4.60000000
v -0.42000000 0.00000000 5.25000000
v -0.47000000 0.00000000 5.25000000
v -0.47000000 0.00000000 5.52000000
v -0.84590702 -0.08331457 0.00000000
v -0.99518473 -0.09801714 0.16000000
v -0.99518473 -0.09801714 3.80000000
v -0.95537734 -0.09409645 4.05000000
v -0.71653300 -0.07057234 4.40000000
v -0.41797759 -0.04116720 4.60000000
v -0.41797759 -0.04116720 5.25000000
v -0.46773682 -0.04606806 5.25000000
v -0.46773682 -0.04606806 5.52000000
v -0.83366749 -0.16582677 0.00000000
v -0.98078528 -0.19509032 0.16000000
v -0.98078528 -0.19509032 3.80000000
v -0.94155387 -0.18728671 4.05000000
v -0.70616540 -0.14046503 4.40000000
v -0.41192982 -0.08193794 4.60000000
v -0.41192982 -0.08193794 5.25000000
v -0.46096908 -0.09169245 5.25000000
v -0.46096908 -0.09169245 5.52000000
v -0.81339929 -0.24674198 0.00000000
v -0.95694034 -0.29028468 0.16000000
v -0.95694034 -0.29028468 3.80000000
v -0.91866272 -0.27867329 4.05000000
v -0.68899704 -0.20900497 4.40000000
v -0.40191494 -0.12191956 4.60000000
v -0.40191494 -0.12191956 5.25000000
v -0.44976196 -0.13643380 5.25000000
v -0.44976196 -0.13643380 5.52000000
v -0.78529760 -0.32528092 0.00000000
v -0.92387953 -0.38268343 0.16000000
v -0.92387953 -0.38268343 3.80000000
v -0.88692435 -0.36737610 4.05000000
v -0.66519326 -0.27553207 4.40000000
v -0.38802940 -0.16072704 4.60000000
v -0.38802940 -0.16072704 5.25000000
v -0.43422338 -0.17986121 5.25000000
v -0.43422338 -0.17986121 5.52000000
v -0.74963307 -0.40068723 0.00000000
v -0.88192126 -0.47139674 0.16000000
v -0.88192126 -0.47139674 3.80000000
v -0.84664441 -0.45254087 4.05000000
v -0.63498331 -0.33940565 4.40000000
v -0.37040693 -0.19798663 4.60000000
v -0.37040693 -0.19798663 5.25000000
v -0.41450299 -0.22155647 5.25000000
v -0.41450299 -0.22155647 5.52000000
v -0.70674917 -0.47223470 0.00000000
v -0.83146961 -0.55557023 0.16000000
v -0.83146961 -0.55557023 3.80000000
v -0.79821083 -0.53334742 4.05000000
v -0.59865812 -0.40001057 4.40000000
v -0.34921724 -0.23333950 4.60000000
v -0.34921724 -0.23333950 5.25000000
v -0.39079072 -0.26111801 5.25000000
v -0.39079072 -0.26111801 5.52000000
v -0.65705889 -0.53923429 0.00000000
v -0.77301045 -0.63439328 0.16000000
v -0.77301045 -0.63439328 3.80000000
v -0.74209004 -0.60901755 4.05000000
v -0.55656753 -0.45676316 4.40000000
v -0.32466439 -0.26644518 4.60000000
v -0.32466439 -0.26644518 5.25000000
v -0.36331491 -0.29816484 5.25000000
v -0.36331491 -0.29816484 5.52000000
v -0.60104076 -0.60104076 0.00000000
v -0.70710678 -0.70710678 0.16000000
v -0.70710678 -0.70710678 3.80000000
v -0.67882251 -0.67882251 4.05000000
v -0.50911688 -0.50911688 4.40000000
v -0.29698485 -0.29698485 4.60000000
v -0.29698485 -0.29698485 5.25000000
v -0.33234019 -0.33234019 5.25000000
v -0.33234019 -0.33234019 5.52000000
v -0.53923429 -0.65705889 0.00000000
v -0.63439328 -0.77301045 0.16000000
v -0.63439328 -0.77301045 3.80000000
v -0.60901755 -0.74209004 4.05000000
v -0.45676316 -0.55656753 4.40000000
v -0.26644518 -0.32466439 4.60000000
v -0.26644518 -0.32466439 5.25000000
v -0.29816484 -0.36331491 5.25000000
v -0.29816484 -0.36331491 5.52000000
v -0.47223470 -0.70674917 0.00000000
v -0.55557023 -0.83146961 0.16000000
v -0.55557023 -0.83146961 3.80000000
v -0.53334742 -0.79821083 4.05000000
v -0.40001057 -0.59865812 4.40000000
v -0.23333950 -0.34921724 4.60000000
v -0.23333950 -0.34921724 5.25000000
v -0.26111801 -0.39079072 5.25000000
v -0.26111801 -0.39079072 5.52000000
v -0.40068723 -0.74963307 0.00000000
v -0.47139674 -0.88192126 0.16000000
v -0.47139674 -0.88192126 3.80000000
v -0.45254087 -0.84664441 4.05000000
v -0.33940565 -0.63498331 4.40000000
v -0.19798663 -0.37040693 4.60000000
v -0.19798663 -0.37040693 5.25000000
v -0.22155647 -0.41450299 5.25000000
v -0.22155647 -0.41450299 5.52000000
v -0.32528092 -0.78529760 0.00000000
v -0.38268343 -0.92387953 0.16000000
v -0.38268343 -0.92387953 3.80000000
v -0.36737610 -0.88692435 4.05000000
v -0.27553207 -0.66519326 4.40000000
v -0.16072704 -0.38802940 4.60000000
v -0.16072704 -0.38802940 5.25000000
v -0.17986121 -0.43422338 5.25000000
v -0.17986121 -0.43422338 5.52000000
v -0.24674198 -0.81339929 0.00000000
v -0.29028468 -0.95694034 0.16000000
v -0.29028468 -0.95694034 3.80000000
v -0.27867329 -0.91866272 4.05000000
v -0.20900497 -0.68899704 4.40000000
v -0.12191956 -0.40191494 4.60000000
v -0.12191956 -0.40191494 5.25000000
v -0.13643380 -0.44976196 5.25000000
v -0.13643380 -0.44976196 5.52000000
v -0.16582677 -0.83366749 0.00000000
v -0.19509032 -0.98078528 0.16000000
v -0.19509032 -0.98078528 3.80000000
v -0.18728671 -0.94155387 4.05000000
v -0.14046503 -0.70616540 4.40000000
v -0.08193794 -0.41192982 4.60000000
v -0.08193794 -0.41192982 5.25000000
v -0.09169245 -0.46096908 5.25000000
v -0.09169245 -0.46096908 5.52000000
v -0.08331457 -0.84590702 0.00000000
v -0.09801714 -0.99518473 0.16000000
v -0.09801714 -0.99518473 3.80000000
v -0.09409645 -0.95537734 4.05000000
v -0.07057234 -0.71653300 4.40000000
v -0.04116720 -0.41797759 4.60000000
v -0.04116720 -0.41797759 5.25000000
v -0.04606806 -0.46773682 5.25000000
v -0.04606806 -0.46773682 5.52000000
v -0.00000000 -0.85000000 0.00000000
v -0.00000000 -1.00000000 0.16000000
v -0.00000000 -1.00000000 3.80000000
v -0.00000000 -0.96000000 4.05000000
v -0.00000000 -0.72000000 4.40000000
v -0.00000000 -0.42000000 4.60000000
v -0.00000000 -0.42000000 5.25000000
v -0.00000000 -0.47000000 5.25000000
v -0.00000000 -0.47000000 5.52000000
v 0.08331457 -0.84590702 0.00000000
v 0.09801714 -0.99518473 0.16000000
v 0.09801714 -0.99518473 3.80000000
v 0.09409645 -0.95537734 4.05000000
v 0.07057234 -0.71653300 4.40000000
v 0.04116720 -0.41797759 4.60000000
v 0.04116720 -0.41797759 5.25000000
v 0.04606806 -0.46773682 5.25000000
v 0.04606806 -0.46773682 5.52000000
v 0.16582677 -0.83366749 0.00000000
v 0.19509032 -0.98078528 0.16000000
v 0.19509032 -0.98078528 3.80000000
v 0.18728671 -0.94155387 4.05000000
v 0.14046503 -0.70616540 4.40000000
v 0.08193794 -0.41192982 4.60000000
v 0.08193794 -0.41192982 5.25000000
v 0.09169245 -0.46096908 5.25000000
v 0.09169245 -0.46096908 5.52000000
v 0.24674198 -0.81339929 0.00000000
v 0.29028468 -0.95694034 0.16000000
v 0.29028468 -0.95694034 3.80000000
v 0.27867329 -0.91866272 4.05000000
v 0.20900497 -0.68899704 4.40000000
v 0.12191956 -0.40191494 4.60000000
v 0.12191956 -0.40191494 5.25000000
v 0.13643380 -0.44976196 5.25000000
v 0.13643380 -0.44976196 5.52000000
v 0.32528092 -0.78529760 0.00000000
v 0.38268343 -0.92387953 0.16000000
v 0.38268343 -0.92387953 3.80000000
v 0.36737610 -0.88692435 4.05000000
v 0.27553207 -0.66519326 4.40000000
v 0.16072704 -0.38802940 4.60000000
v 0.16072704 -0.38802940 5.25000000
v 0.17986121 -0.43422338 5.25000000
v 0.17986121 -0.43422338 5.52000000
v 0.40068723 -0.74963307 0.00000000
v 0.47139674 -0.88192126 0.16000000
v 0.47139674 -0.88192126 3.80000000
v 0.45254087 -0.84664441 4.05000000
v 0.33940565 -0.63498331 4.40000000
v 0.19798663 -0.37040693 4.60000000
v 0.19798663 -0.37040693 5.25000000
v 0.22155647 -0.41450299 5.25000000
v 0.22155647 -0.41450299 5.52000000
v 0.47223470 -0.70674917 0.00000000
v 0.55557023 -0.83146961 0.16000000
v 0.55557023 -0.83146961 3.80000000
v 0.53334742 -0.79821083 4.05000000
v 0.40001057 -0.59865812 4.40000000
v 0.23333950 -0.34921724 4.60000000
v 0.23333950 -0.34921724 5.25000000
v 0.26111801 -0.39079072 5.25000000
v 0.26111801 -0.39079072 5.52000000
v 0.53923429 -0.65705889 0.00000000
v 0.63439328 -0.77301045 0.16000000
v 0.63439328 -0.77301045 3.80000000
v 0.60901755 -0.74209004 4.05000000
v 0.45676316 -0.55656753 4.40000000
v 0.26644518 -0.32466439 4.60000000
v 0.26644518 -0.32466439 5.25000000
v 0.29816484 -0.36331491 5.25000000
v 0.29816484 -0.36331491 5.52000000
v 0.60104076 -0.60104076 0.00000000
v 0.70710678 -0.70710678 0.16000000
v 0.70710678 -0.70710678 3.80000000
v 0.67882251 -0.67882251 4.05000000
v 0.50911688 -0.50911688 4.40000000
v 0.29698485 -0.29698485 4.60000000
v 0.29698485 -0.29698485 5.25000000
v 0.33234019 -0.33234019 5.25000000
v 0.33234019 -0.33234019 5.52000000
v 0.65705889 -0.53923429 0.00000000
v 0.77301045 -0.63439328 0.16000000
v 0.77301045 -0.63439328 3.80000000
v 0.74209004 -0.60901755 4.05000000
v 0.55656753 -0.45676316 4.40000000
v 0.32466439 -0.26644518 4.60000000
v 0.32466439 -0.26644518 5.25000000
v 0.36331491 -0.29816484 5.25000000
v 0.36331491 -0.29816484 5.52000000
v 0.70674917 -0.47223470 0.00000000
v 0.83146961 -0.55557023 0.16000000
v 0.83146961 -0.55557023 3.80000000
v 0.79821083 -0.53334742 4.05000000
v 0.59865812 -0.40001057 4.40000000
v 0.34921724 -0.23333950 4.60000000
v 0.34921724 -0.23333950 5.25000000
v 0.39079072 -0.26111801 5.25000000
v 0.39079072 -0.26111801 5.52000000
v 0.74963307 -0.40068723 0.00000000
v 0.88192126 -0.47139674 0.16000000
v 0.88192126 -0.47139674 3.80000000
v 0.84664441 -0.45254087 4.05000000
v 0.63498331 -0.33940565 4.40000000
v 0.37040693 -0.19798663 4.60000000
v 0.37040693 -0.19798663 5.25000000
v 0.41450299 -0.22155647 5.25000000
v 0.41450299 -0.22155647 5.52000000
v 0.78529760 -0.32528092 0.00000000
v 0.92387953 -0.38268343 0.16000000
v 0.92387953 -0.38268343 3.80000000
v 0.88692435 -0.36737610 4.05000000
v 0.66519326 -0.27553207 4.40000000
v 0.38802940 -0.16072704 4.60000000
v 0.38802940 -0.16072704 5.25000000
v 0.43422338 -0.17986121 5.25000000
v 0.43422338 -0.17986121 5.52000000
v 0.81339929 -0.24674198 0.00000000
v 0.95694034 -0.29028468 0.16000000
v 0.95694034 -0.29028468 3.80000000
v 0.91866272 -0.27867329 4.05000000
v 0.68899704 -0.20900497 4.40000000
v 0.40191494 -0.12191956 4.60000000
v 0.40191494 -0.12191956 5.25000000
v 0.44976196 -0.13643380 5.25000000
v 0.44976196 -0.13643380 5.52000000
v 0.83366749 -0.16582677 0.00000000
v 0.98078528 -0.19509032 0.16000000
v 0.98078528 -0.19509032 3.80000000
v 0.94155387 -0.18728671 4.05000000
v 0.70616540 -0.14046503 4.40000000
v 0.41192982 -0.08193794 4.60000000
v 0.41192982 -0.08193794 5.25000000
v 0.46096908 -0.09169245 5.25000000
v 0.46096908 -0.09169245 5.52000000
v 0.84590702 -0.08331457 0.00000000
v 0.99518473 -0.09801714 0.16000000
v 0.99518473 -0.09801714 3.80000000
v 0.95537734 -0.09409645 4.05000000
v 0.71653300 -0.07057234 4.40000000
v 0.41797759 -0.04116720 4.60000000
v 0.41797759 -0.04116720 5.25000000
v 0.46773682 -0.04606806 5.25000000
v 0.46773682 -0.04606806 5.52000000
f 2 1 12
f 2 12 3
f 3 12 13
f 3 13 4
f 4 13 14
f 4 14 5
f 5 14 15
f 5 15 6
f 6 15 16
f 6 16 7
f 7 16 17
f 7 17 8
f 8 17 18
f 8 18 9
f 9 18 19
f 9 19 10
f 10 19 20
f 10 20 11
f 12 1 21
f 12 21 13
f 13 21 22
f 13 22 14
f 14 22 23
f 14 23 15
f 15 23 24
f 15 24 16
f 16 24 25
f 16 25 17
f 17 25 26
f 17 26 18
f 18 26 27
f 18 27 19
f 19 27 28
f 19 28 20
f 20 28 29
f 20 29 11
f 21 1 30
f 21 30 22
f 22 30 31
f 22 31 23
f 23 31 32
f 23 32 24
f 24 32 33
f 24 33 25
f 25 33 34
f 25 34 26
f 26 34 35
f 26 35 27
f 27 35 36
f 27 36 28
f 28 36 37
f 28 37 29
f 29 37 38
f 29 38 11
f 30 1 39
f 30 39 31
f 31 39 40
f 31 40 32
f 32 40 41
f 32 41 33
f 33 41 42
f 33 42 34
f 34 42 43
f 34 43 35
f 35 43 44
f 35 44 36
f 36 44 45
f 36 45 37
f 37 45 46
f 37 46 38
f 38 46 47
f 38 47 11
f 39 1 48
f 39 48 40
f 40 48 49
f 40 49 41
f 41 49 50
f 41 50 42
f 42 50 51
f 42 51 43
f 43 51 52
f 43 52 44
f 44 52 53
f 44 53 45
f 45 53 54
f 45 54 46
f 46 54 55
f 46 55 47
f 47 55 56
f 47 56 11
f 48 1 57
f 48 57 49
f 49 57 58
f 49 58 50
f 50 58 59
f 50 59 51
f 51 59 60
f 51 60 52
f 52 60 61
f 52 61 53
f 53 61 62
f 53 62 54
f 54 62 63
f 54 63 55
f 55 63 64
f 55 64 56
f 56 64 65
f 56 65 11
f 57 1 66
f 57 66 58
f 58 66 67
f 58 67 59
f 59 67 68
f 59 68 60
f 60 68 69
f 60 69 61
f 61 69 70
f 61 70 62
f 62 70 71
f 62 71 63
f 63 71 72
f 63 72 64
f 64 72 73
f 64 73 65
f 65 73 74
f 65 74 11
f 66 1 75
f 66 75 67
f 67 75 76
f 67 76 68
f 68 76 77
f 68 77 69
f 69 77 78
f 69 78 70
f 70 78 79
f 70 79 71
f 71 79 80
f 71 80 72
f 72 80 81
f 72 81 73
f 73 81 82
f 73 82 74
f 74 82 83
f 74 83 11
f 75 1 84
f 75 84 76
f 76 84 85
f 76 85 77
f 77 85 86
f 77 86 78
f 78 86 87
f 78 87 79
f 79 87 88
f 79 88 80
f 80 88 89
f 80 89 81
f 81 89 90
f 81 90 82
f 82 90 91
f 82 91 83
f 83 91 92
f 83 92 11
f 84 1 93
f 84 93 85
f 85 93 94
f 85 94 86
f 86 94 95
f 86 95 87
f 87 95 96
f 87 96 88
f 88 96 97
f 88 97 89
f 89 97 98
f 89 98 90
f 90 98 99
f 90 99 91
f 91 99 100
f 91 100 92
f 92 100 101
f 92 101 11
f 93 1 102
f 93 102 94
f 94 102 103
f 94 103 95
f 95 103 104
f 95 104 96
f 96 104 105
f 96 105 97
f 97 105 106
f 97 106 98
f 98 106 107
f 98 107 99
f 99 107 108
f 99 108 100
f 100 108 109
f 100 109 101
f 101 109 110
f 101 110 11
f 102 1 111
f 102 111 103
f 103 111 112
f 103 112 104
f 104 112 113
f 104 113 105
f 105 113 114
f 105 114 106
f 106 114 115
f 106 115 107
f 107 115 116
f 107 116 108
f 108 116 117
f 108 117 109
f 109 117 118
f 109 118 110
f 110 118 119
f 110 119 11
f 111 1 120
f 111 120 112
f 112 120 121
f 112 121 113
f 113 121 122
f 113 122 114
f 114 122 123
f 114 123 115
f 115 123 124
f 115 124 116
f 116 124 125
f 116 125 117
f 117 125 126
f 117 126 118
f 118 126 127
f 118 127 119
f 119 127 128
f 119 128 11
f 120 1 129
f 120 129 121
f 121 129 130
f 121 130 122
f 122 130 131
f 122 131 123
f 123 131 132
f 123 132 124
f 124 132 133
f 124 133 125
f 125 133 134
f 125 134 126
f 126 134 135
f 126 135 127
f 127 135 136
f 127 136 128
f 128 136 137
f 128 137 11
f 129 1 138
f 129 138 130
f 130 138 139
f 130 139 131
f 131 139 140
f 131 140 132
f 132 140 141
f 132 141 133
f 133 141 142
f 133 142 134
f 134 142 143
f 134 143 135
f 135 143 144
f 135 144 136
f 136 144 145
f 136 145 137
f 137 145 146
f 137 146 11
f 138 1 147
f 138 147 139
f 139 147 148
f 139 148 140
f 140 148 149
f 140 149 141
f 141 149 150
f 141 150 142
f 142 150 151
f 142 151 143
f 143 151 152
f 143 152 144
f 144 152 153
f 144 153 145
f 145 153 154
f 145 154 146
f 146 154 155
f 146 155 11
f 147 1 156
f 147 156 148
f 148 156 157
f 148 157 149
f 149 157 158
f 149 158 150
f 150 158 159
f 150 159 151
f 151 159 160
f 151 160 152
f 152 160 161
f 152 161 153
f 153 161 162
f 153 162 154
f 154 162 163
f 154 163 155
f 155 163 164
f 155 164 11
f 156 1 165
f 156 165 157
f 157 165 166
f 157 166 158
f 158 166 167
f 158 167 159
f 159 167 168
f 159 168 160
f 160 168 169
f 160 169 161
f 161 169 170
f 161 170 162
f 162 170 171
f 162 171 163
f 163 171 172
f 163 172 164
f 164 172 173
f 164 173 11
f 165 1 174
f 165 174 166
f 166 174 175
f 166 175 167
f 167 175 176
f 167 176 168
f 168 176 177
f 168 177 169
f 169 177 178
f 169 178 170
f 170 178 179
f 170 179 171
f 171 179 180
f 171 180 172
f 172 180 181
f 172 181 173
f 173 181 182
f 173 182 11
f 174 1 183
f 174 183 175
f 175 183 184
f 175 184 176
f 176 184 185
f 176 185 177
f 177 185 186
f 177 186 178
f 178 186 187
f 178 187 179
f 179 187 188
f 179 188 180
f 180 188 189
f 180 189 181
f 181 189 190
f 181 190 182
f 182 190 191
f 182 191 11
f 183 1 192
f 183 192 184
f 184 192 193
f 184 193 185
f 185 193 194
f 185 194 186
f 186 194 195
f 186 195 187
f 187 195 196
f 187 196 188
f 188 196 197
f 188 197 189
f 189 197 198
f 189 198 190
f 190 198 199
f 190 199 191
f 191 199 200
f 191 200 11
f 192 1 201
f 192 201 193
f 193 201 202
f 193 202 194
f 194 202 203
f 194 203 195
f 195 203 204
f 195 204 196
f 196 204 205
f 196 205 197
f 197 205 206
f 197 206 198
f 198 206 207
f 198 207 199
f 199 207 208
f 199 208 200
f 200 208 209
f 200 209 11
f 201 1 210
f 201 210 202
f 202 210 211
f 202 211 203
f 203 211 212
f 203 212 204
f 204 212 213
f 204 213 205
f 205 213 214
f 205 214 206
f 206 214 215
f 206 215 207
f 207 215 216
f 207 216 208
f 208 216 217
f 208 217 209
f 209 217 218
f 209 218 11
f 210 1 219
f 210 219 211
f 211 219 220
f 211 220 212
f 212 220 221
f 212 221 213
f 213 221 222
f 213 222 214
f 214 222 223
f 214 223 215
f 215 223 224
f 215 224 216
f 216 224 225
f 216 225 217
f 217 225 226
f 217 226 218
f 218 226 227
f 218 227 11
f 219 1 228
f 219 228 220
f 220 228 229
f 220 229 221
f 221 229 230
f 221 230 222
f 222 230 231
f 222 231 223
f 223 231 232
f 223 232 224
f 224 232 233
f 224 233 225
f 225 233 234
f 225 234 226
f 226 234 235
f 226 235 227
f 227 235 236
f 227 236 11
f 228 1 237
f 228 237 229
f 229 237 238
f 229 238 230
f 230 238 239
f 230 239 231
f 231 239 240
f 231 240 232
f 232 240 241
f 232 241 233
f 233 241 242
f 233 242 234
f 234 242 243
f 234 243 235
f 235 243 244
f 235 244 236
f 236 244 245
f 236 245 11
f 237 1 246
f 237 246 238
f 238 246 247
f 238 247 239
f 239 247 248
f 239 248 240
f 240 248 249
f 240 249 241
f 241 249 250
f 241 250 242
f 242 250 251
f 242 251 243
f 243 251 252
f 243 252 244
f 244 252 253
f 244 253 245
f 245 253 254
f 245 254 11
f 246 1 255
f 246 255 247
f 247 255 256
f 247 256 248
f 248 256 257
f 248 257 249
f 249 257 258
f 249 258 250
f 250 258 259
f 250 259 251
f 251 259 260
f 251 260 252
f 252 260 261
f 252 261 253
f 253 261 262
f 253 262 254
f 254 262 263
f 254 263 11
f 255 1 264
f 255 264 256
f 256 264 265
f 256 265 257
f 257 265 266
f 257 266 258
f 258 266 267
f 258 267 259
f 259 267 268
f 259 268 260
f 260 268 269
f 260 269 261
f 261 269 270
f 261 270 262
f 262 270 271
f 262 271 263
f 263 271 272
f 263 272 11
f 264 1 273
f 264 273 265
f 265 273 274
f 265 274 266
f 266 274 275
f 266 275 267
f 267 275 276
f 267 276 268
f 268 276 277
f 268 277 269
f 269 277 278
f 269 278 270
f 270 278 279
f 270 279 271
f 271 279 280
f 271 280 272
f 272 280 281
f 272 281 11
f 273 1 282
f 273 282 274
f 274 282 283
f 274 283 275
f 275 283 284
f 275 284 276
f 276 284 285
f 276 285 277
f 277 285 286
f 277 286 278
f 278 286 287
f 278 287 279
f 279 287 288
f 279 288 280
f 280 288 289
f 280 289 281
f 281 289 290
f 281 290 11
f 282 1 291
f 282 291 283
f 283 291 292
f 283 292 284
f 284 292 293
f 284 293 285
f 285 293 294
f 285 294 286
f 286 294 295
f 286 295 287
f 287 295 296
f 287 296 288
f 288 296 297
f 288 297 289
f 289 297 298
f 289 298 290
f 290 298 299
f 290 299 11
f 291 1 300
f 291 300 292
f 292 300 301
f 292 301 293
f 293 301 302
f 293 302 294
f 294 302 303
f 294 303 295
f 295 303 304
f 295 304 296
f 296 304 305
f 296 305 297
f 297 305 306
f 297 306 298
f 298 306 307
f 298 307 299
f 299 307 308
f 299 308 11
f 300 1 309
f 300 309 301
f 301 309 310
f 301 310 302
f 302 310 311
f 302 311 303
f 303 311 312
f 303 312 304
f 304 312 313
f 304 313 305
f 305 313 314
f 305 314 306
f 306 314 315
f 306 315 307
f 307 315 316
f 307 316 308
f 308 316 317
f 308 317 11
f 309 1 318
f 309 318 310
f 310 318 319
f 310 319 311
f 311 319 320
f 311 320 312
f 312 320 321
f 312 321 313
f 313 321 322
f 313 322 314
f 314 322 323
f 314 323 315
f 315 323 324
f 315 324 316
f 316 324 325
f 316 325 317
f 317 325 326
f 317 326 11
f 318 1 327
f 318 327 319
f 319 327 328
f 319 328 320
f 320 328 329
f 320 329 321
f 321 329 330
f 321 330 322
f 322 330 331
f 322 331 323
f 323 331 332
f 323 332 324
f 324 332 333
f 324 333 325
f 325 333 334
f 325 334 326
f 326 334 335
f 326 335 11
f 327 1 336
f 327 336 328
f 328 336 337
f 328 337 329
f 329 337 338
f 329 338 330
f 330 338 339
f 330 339 331
f 331 339 340
f 331 340 332
f 332 340 341
f 332 341 333
f 333 341 342
f 333 342 334
f 334 342 343
f 334 343 335
f 335 343 344
f 335 344 11
f 336 1 345
f 336 345 337
f 337 345 346
f 337 346 338
f 338 346 347
f 338 347 339
f 339 347 348
f 339 348 340
f 340 348 349
f 340 349 341
f 341 349 350
f 341 350 342
f 342 350 351
f 342 351 343
f 343 351 352
f 343 352 344
f 344 352 353
f 344 353 11
f 345 1 354
f 345 354 346
f 346 354 355
f 346 355 347
f 347 355 356
f 347 356 348
f 348 356 357
f 348 357 349
f 349 357 358
f 349 358 350
f 350 358 359
f 350 359 351
f 351 359 360
f 351 360 352
f 352 360 361
f 352 361 353
f 353 361 362
f 353 362 11
f 354 1 363
f 354 363 355
f 355 363 364
f 355 364 356
f 356 364 365
f 356 365 357
f 357 365 366
f 357 366 358
f 358 366 367
f 358 367 359
f 359 367 368
f 359 368 360
f 360 368 369
f 360 369 361
f 361 369 370
f 361 370 362
f 362 370 371
f 362 371 11
f 363 1 372
f 363 372 364
f 364 372 373
f 364 373 365
f 365 373 374
f 365 374 366
f 366 374 375
f 366 375 367
f 367 375 376
f 367 376 368
f 368 376 377
f 368 377 369
f 369 377 378
f 369 378 370
f 370 378 379
f 370 379 371
f 371 379 380
f 371 380 11
f 372 1 381
f 372 381 373
f 373 381 382
f 373 382 374
f 374 382 383
f 374 383 375
f 375 383 384
f 375 384 376
f 376 384 385
f 376 385 377
f 377 385 386
f 377 386 378
f 378 386 387
f 378 387 379
f 379 387 388
f 379 388 380
f 380 388 389
f 380 389 11
f 381 1 390
f 381 390 382
f 382 390 391
f 382 391 383
f 383 391 392
f 383 392 384
f 384 392 393
f 384 393 385
f 385 393 394
f 385 394 386
f 386 394 395
f 386 395 387
f 387 395 396
f 387 396 388
f 388 396 397
f 388 397 389
f 389 397 398
f 389 398 11
f 390 1 399
f 390 399 391
f 391 399 400
f 391 400 392
f 392 400 401
f 392 401 393
f 393 401 402
f 393 402 394
f 394 402 403
f 394 403 395
f 395 403 404
f 395 404 396
f 396 404 405
f 396 405 397
f 397 405 406
f 397 406 398
f 398 406 407
f 398 407 11
f 399 1 408
f 399 408 400
f 400 408 409
f 400 409 401
f 401 409 410
f 401 410 402
f 402 410 411
f 402 411 403
f 403 411 412
f 403 412 404
f 404 412 413
f 404 413 405
f 405 413 414
f 405 414 406
f 406 414 415
f 406 415 407
f 407 415 416
f 407 416 11
f 408 1 417
f 408 417 409
f 409 417 418
f 409 418 410
f 410 418 419
f 410 419 411
f 411 419 420
f 411 420 412
f 412 420 421
f 412 421 413
f 413 421 422
f 413 422 414
f 414 422 423
f 414 423 415
f 415 423 424
f 415 424 416
f 416 424 425
f 416 425 11
f 417 1 426
f 417 426 418
f 418 426 427
f 418 427 419
f 419 427 428
f 419 428 420
f 420 428 429
f 420 429 421
f 421 429 430
f 421 430 422
f 422 430 431
f 422 431 423
f 423 431 432
f 423 432 424
f 424 432 433
f 424 433 425
f 425 433 434
f 425 434 11
f 426 1 435
f 426 435 427
f 427 435 436
f 427 436 428
f 428 436 437
f 428 437 429
f 429 437 438
f 429 438 430
f 430 438 439
f 430 439 431
f 431 439 440
f 431 440 432
f 432 440 441
f 432 441 433
f 433 441 442
f 433 442 434
f 434 442 443
f 434 443 11
f 435 1 444
f 435 444 436
f 436 444 445
f 436 445 437
f 437 445 446
f 437 446 438
f 438 446 447
f 438 447 439
f 439 447 448
f 439 448 440
f 440 448 449
f 440 449 441
f 441 449 450
f 441 450 442
f 442 450 451
f 442 451 443
f 443 451 452
f 443 452 11
f 444 1 453
f 444 453 445
f 445 453 454
f 445 454 446
f 446 454 455
f 446 455 447
f 447 455 456
f 447 456 448
f 448 456 457
f 448 457 449
f 449 457 458
f 449 458 450
f 450 458 459
f 450 459 451
f 451 459 460
f 451 460 452
f 452 460 461
f 452 461 11
f 453 1 462
f 453 462 454
f 454 462 463
f 454 463 455
f 455 463 464
f 455 464 456
f 456 464 465
f 456 465 457
f 457 465 466
f 457 466 458
f 458 466 467
f 458 467 459
f 459 467 468
f 459 468 460
f 460 468 469
f 460 469 461
f 461 469 470
f 461 470 11
f 462 1 471
f 462 471 463
f 463 471 472
f 463 472 464
f 464 472 473
f 464 473 465
f 465 473 474
f 465 474 466
f 466 474 475
f 466 475 467
f 467 475 476
f 467 476 468
f 468 476 477
f 468 477 469
f 469 477 478
f 469 478 470
f 470 478 479
f 470 479 11
f 471 1 480
f 471 480 472
f 472 480 481
f 472 481 473
f 473 481 482
f 473 482 474
f 474 482 483
f 474 483 475
f 475 483 484
f 475 484 476
f 476 484 485
f 476 485 477
f 477 485 486
f 477 486 478
f 478 486 487
f 478 487 479
f 479 487 488
f 479 488 11
f 480 1 489
f 480 489 481
f 481 489 490
f 481 490 482
f 482 490 491
f 482 491 483
f 483 491 492
f 483 492 484
f 484 492 493
f 484 493 485
f 485 493 494
f 485 494 486
f 486 494 495
f 486 495 487
f 487 495 496
f 487 496 488
f 488 496 497
f 488 497 11
f 489 1 498
f 489 498 490
f 490 498 499
f 490 499 491
f 491 499 500
f 491 500 492
f 492 500 501
f 492 501 493
f 493 501 502
f 493 502 494
f 494 502 503
f 494 503 495
f 495 503 504
f 495 504 496
f 496 504 505
f 496 505 497
f 497 505 506
f 497 506 11
f 498 1 507
f 498 507 499
f 499 507 508
f 499 508 500
f 500 508 509
f 500 509 501
f 501 509 510
f 501 510 502
f 502 510 511
f 502 511 503
f 503 511 512
f 503 512 504
f 504 512 513
f 504 513 505
f 505 513 514
f 505 514 506
f 506 514 515
f 506 515 11
f 507 1 516
f 507 516 508
f 508 516 517
f 508 517 509
f 509 517 518
f 509 518 510
f 510 518 519
f 510 519 511
f 511 519 520
f 511 520 512
f 512 520 521
f 512 521 513
f 513 521 522
f 513 522 514
f 514 522 523
f 514 523 515
f 515 523 524
f 515 524 11
f 516 1 525
f 516 525 517
f 517 525 526
f 517 526 518
f 518 526 527
f 518 527 519
f 519 527 528
f 519 528 520
f 520 528 529
f 520 529 521
f 521 529 530
f 521 530 522
f 522 530 531
f 522 531 523
f 523 531 532
f 523 532 524
f 524 532 533
f 524 533 11
f 525 1 534
f 525 534 526
f 526 534 535
f 526 535 527
f 527 535 536
f 527 536 528
f 528 536 537
f 528 537 529
f 529 537 538
f 529 538 530
f 530 538 539
f 530 539 531
f 531 539 540
f 531 540 532
f 532 540 541
f 532 541 533
f 533 541 542
f 533 542 11
f 534 1 543
f 534 543 535
f 535 543 544
f 535 544 536
f 536 544 545
f 536 545 537
f 537 545 546
f 537 546 538
f 538 546 547
f 538 547 539
f 539 547 548
f 539 548 540
f 540 548 549
f 540 549 541
f 541 549 550
f 541 550 542
f 542 550 551
f 542 551 11
f 543 1 552
f 543 552 544
f 544 552 553
f 544 553 545
f 545 553 554
f 545 554 546
f 546 554 555
f 546 555 547
f 547 555 556
f 547 556 548
f 548 556 557
f 548 557 549
f 549 557 558
f 549 558 550
f 550 558 559
f 550 559 551
f 551 559 560
f 551 560 11
f 552 1 561
f 552 561 553
f 553 561 562
f 553 562 554
f 554 562 563
f 554 563 555
f 555 563 564
f 555 564 556
f 556 564 565
f 556 565 557
f 557 565 566
f 557 566 558
f 558 566 567
f 558 567 559
f 559 567 568
f 559 568 560
f 560 568 569
f 560 569 11
f 561 1 570
f 561 570 562
f 562 570 571
f 562 571 563
f 563 571 572
f 563 572 564
f 564 572 573
f 564 573 565
f 565 573 574
f 565 574 566
f 566 574 575
f 566 575 567
f 567 575 576
f 567 576 568
f 568 576 577
f 568 577 569
f 569 577 578
f 569 578 11
f 570 1 2
f 570 2 571
f 571 2 3
f 571 3 572
f 572 3 4
f 572 4 573
f 573 4 5
f 573 5 574
f 574 5 6
f 574 6 575
f 575 6 7
f 575 7 576
f 576 7 8
f 576 8 577
f 577 8 9
f 577 9 578
f 578 9 10
f 578 10 11

