0 Generic OBJ exterior sculpture
0 !LEGO_BUILDER_REVISION 220fdb1f981a035c13dcbdf7322d83574f1aa96a7d76b10929d2008c79cea422
0 Mechanical connections and assembly order are not verified.
0 // smooth exposed top tiles
1 71 -200 -376 160 1 0 0 0 1 0 -0 0 1 3070b.dat
1 71 -60 -376 240 1 0 0 0 1 0 -0 0 1 3070b.dat
1 71 160 -376 -200 1 0 0 0 1 0 -0 0 1 3070b.dat
1 71 240 -376 -60 1 0 0 0 1 0 -0 0 1 3070b.dat
1 71 -180 -384 180 1 0 0 0 1 0 -0 0 1 3070b.dat
1 71 -120 -384 220 1 0 0 0 1 0 -0 0 1 3070b.dat
1 71 180 -384 -180 1 0 0 0 1 0 -0 0 1 3070b.dat
1 71 200 -384 140 1 0 0 0 1 0 -0 0 1 3070b.dat
1 71 220 -384 -120 1 0 0 0 1 0 -0 0 1 3070b.dat
1 71 40 -392 240 1 0 0 0 1 0 -0 0 1 3070b.dat
1 71 140 -392 200 1 0 0 0 1 0 -0 0 1 3070b.dat
1 71 240 -392 40 1 0 0 0 1 0 -0 0 1 3070b.dat
1 71 -40 -400 240 1 0 0 0 1 0 -0 0 1 3070b.dat
1 71 -240 -408 -100 1 0 0 0 1 0 -0 0 1 3070b.dat
1 71 -220 -408 -140 1 0 0 0 1 0 -0 0 1 3070b.dat
1 71 -100 -408 -240 1 0 0 0 1 0 -0 0 1 3070b.dat
1 71 20 -408 240 1 0 0 0 1 0 -0 0 1 3070b.dat
1 71 100 -408 220 1 0 0 0 1 0 -0 0 1 3070b.dat
1 71 220 -408 100 1 0 0 0 1 0 -0 0 1 3070b.dat
1 71 240 -408 -10 0 0 1 0 1 0 -1 0 0 2431.dat
1 71 -140 -416 -220 1 0 0 0 1 0 -0 0 1 3070b.dat
1 71 -10 -416 240 1 0 0 0 1 0 -0 0 1 3069b.dat
1 71 80 -416 -240 1 0 0 0 1 0 -0 0 1 3070b.dat
1 71 160 -416 180 1 0 0 0 1 0 -0 0 1 3070b.dat
1 71 180 -416 160 1 0 0 0 1 0 -0 0 1 3070b.dat
1 71 -240 -424 80 1 0 0 0 1 0 -0 0 1 3070b.dat
1 71 -220 -432 120 1 0 0 0 1 0 -0 0 1 3070b.dat
1 71 120 -432 -220 1 0 0 0 1 0 -0 0 1 3070b.dat
1 71 -240 -440 -80 1 0 0 0 1 0 -0 0 1 3070b.dat
1 71 -200 -440 -160 1 0 0 0 1 0 -0 0 1 3070b.dat
1 71 -160 -440 -200 1 0 0 0 1 0 -0 0 1 3070b.dat
1 71 -140 -440 200 1 0 0 0 1 0 -0 0 1 3070b.dat
1 71 -100 -440 220 1 0 0 0 1 0 -0 0 1 3070b.dat
1 71 200 -440 -140 1 0 0 0 1 0 -0 0 1 3070b.dat
1 71 220 -440 -100 1 0 0 0 1 0 -0 0 1 3070b.dat
1 71 -240 -448 60 1 0 0 0 1 0 -0 0 1 3070b.dat
1 71 -180 -448 -180 1 0 0 0 1 0 -0 0 1 3070b.dat
1 71 -80 -448 -240 1 0 0 0 1 0 -0 0 1 3070b.dat
1 71 60 -448 -240 1 0 0 0 1 0 -0 0 1 3070b.dat
1 71 80 -448 220 1 0 0 0 1 0 -0 0 1 3070b.dat
1 71 220 -448 80 1 0 0 0 1 0 -0 0 1 3070b.dat
1 71 -220 -456 -120 1 0 0 0 1 0 -0 0 1 3070b.dat
1 71 -200 -456 140 1 0 0 0 1 0 -0 0 1 3070b.dat
1 71 120 -456 200 1 0 0 0 1 0 -0 0 1 3070b.dat
1 71 140 -456 -200 1 0 0 0 1 0 -0 0 1 3070b.dat
1 71 180 -456 -160 1 0 0 0 1 0 -0 0 1 3070b.dat
1 71 200 -456 120 1 0 0 0 1 0 -0 0 1 3070b.dat
1 71 -240 -464 -60 1 0 0 0 1 0 -0 0 1 3070b.dat
1 71 -240 -464 40 1 0 0 0 1 0 -0 0 1 3070b.dat
1 71 -180 -464 160 1 0 0 0 1 0 -0 0 1 3070b.dat
1 71 -160 -464 180 1 0 0 0 1 0 -0 0 1 3070b.dat
1 71 -120 -464 -220 1 0 0 0 1 0 -0 0 1 3070b.dat
1 71 -80 -464 220 1 0 0 0 1 0 -0 0 1 3070b.dat
1 71 -60 -464 -240 1 0 0 0 1 0 -0 0 1 3070b.dat
1 71 40 -464 -240 1 0 0 0 1 0 -0 0 1 3070b.dat
1 71 160 -464 -180 1 0 0 0 1 0 -0 0 1 3070b.dat
1 71 220 -464 -80 1 0 0 0 1 0 -0 0 1 3070b.dat
1 71 -240 -472 -10 0 0 1 0 1 0 -1 0 0 2431.dat
1 71 -220 -472 100 1 0 0 0 1 0 -0 0 1 3070b.dat
1 71 -40 -472 -240 1 0 0 0 1 0 -0 0 1 3070b.dat
1 71 20 -472 -240 1 0 0 0 1 0 -0 0 1 3070b.dat
1 71 60 -472 220 1 0 0 0 1 0 -0 0 1 3070b.dat
1 71 100 -472 -220 1 0 0 0 1 0 -0 0 1 3070b.dat
1 71 140 -472 180 1 0 0 0 1 0 -0 0 1 3070b.dat
1 71 180 -472 140 1 0 0 0 1 0 -0 0 1 3070b.dat
1 71 220 -472 60 1 0 0 0 1 0 -0 0 1 3070b.dat
1 71 -120 -480 200 1 0 0 0 1 0 -0 0 1 3070b.dat
1 71 -60 -480 220 1 0 0 0 1 0 -0 0 1 3070b.dat
1 71 -10 -480 -240 1 0 0 0 1 0 -0 0 1 3069b.dat
1 71 160 -480 160 1 0 0 0 1 0 -0 0 1 3070b.dat
1 71 200 -480 -120 1 0 0 0 1 0 -0 0 1 3070b.dat
1 71 220 -480 -60 1 0 0 0 1 0 -0 0 1 3070b.dat
1 71 220 -480 40 1 0 0 0 1 0 -0 0 1 3070b.dat
1 71 -220 -488 -100 1 0 0 0 1 0 -0 0 1 3070b.dat
1 71 -200 -488 -140 1 0 0 0 1 0 -0 0 1 3070b.dat
1 71 -140 -488 -200 1 0 0 0 1 0 -0 0 1 3070b.dat
1 71 -100 -488 -220 1 0 0 0 1 0 -0 0 1 3070b.dat
1 71 -40 -488 220 1 0 0 0 1 0 -0 0 1 3070b.dat
1 71 30 -488 220 1 0 0 0 1 0 -0 0 1 3069b.dat
1 71 100 -488 200 1 0 0 0 1 0 -0 0 1 3070b.dat
1 71 200 -488 100 1 0 0 0 1 0 -0 0 1 3070b.dat
1 71 220 -488 -40 1 0 0 0 1 0 -0 0 1 3070b.dat
1 71 -220 -496 80 1 0 0 0 1 0 -0 0 1 3070b.dat
1 71 -200 -496 120 1 0 0 0 1 0 -0 0 1 3070b.dat
1 71 -180 -496 -160 1 0 0 0 1 0 -0 0 1 3070b.dat
1 71 -160 -496 -180 1 0 0 0 1 0 -0 0 1 3070b.dat
1 71 -140 -496 180 1 0 0 0 1 0 -0 0 1 3070b.dat
1 71 -10 -496 220 1 0 0 0 1 0 -0 0 1 3069b.dat
1 71 80 -496 -220 1 0 0 0 1 0 -0 0 1 3070b.dat
1 71 120 -496 -200 1 0 0 0 1 0 -0 0 1 3070b.dat
1 71 180 -496 -140 1 0 0 0 1 0 -0 0 1 3070b.dat
1 71 220 -496 0 0 0 1 0 1 0 -1 0 0 63864.dat
1 71 -220 -504 -80 1 0 0 0 1 0 -0 0 1 3070b.dat
1 71 -180 -504 140 1 0 0 0 1 0 -0 0 1 3070b.dat
1 71 -160 -504 160 1 0 0 0 1 0 -0 0 1 3070b.dat
1 71 -100 -504 200 1 0 0 0 1 0 -0 0 1 3070b.dat
1 71 -80 -504 -220 1 0 0 0 1 0 -0 0 1 3070b.dat
1 71 120 -504 180 1 0 0 0 1 0 -0 0 1 3070b.dat
1 71 140 -504 -180 1 0 0 0 1 0 -0 0 1 3070b.dat
1 71 160 -504 -160 1 0 0 0 1 0 -0 0 1 3070b.dat
1 71 180 -504 120 1 0 0 0 1 0 -0 0 1 3070b.dat
1 71 200 -504 -100 1 0 0 0 1 0 -0 0 1 3070b.dat
1 71 -220 -512 60 1 0 0 0 1 0 -0 0 1 3070b.dat
1 71 -200 -512 -120 1 0 0 0 1 0 -0 0 1 3070b.dat
1 71 -120 -512 -200 1 0 0 0 1 0 -0 0 1 3070b.dat
1 71 60 -512 -220 1 0 0 0 1 0 -0 0 1 3070b.dat
1 71 80 -512 200 1 0 0 0 1 0 -0 0 1 3070b.dat
1 71 160 -512 140 1 0 0 0 1 0 -0 0 1 3070b.dat
1 71 200 -512 80 1 0 0 0 1 0 -0 0 1 3070b.dat
1 71 -220 -520 -60 1 0 0 0 1 0 -0 0 1 3070b.dat
1 71 -220 -520 40 1 0 0 0 1 0 -0 0 1 3070b.dat
1 71 -200 -520 100 1 0 0 0 1 0 -0 0 1 3070b.dat
1 71 -80 -520 200 1 0 0 0 1 0 -0 0 1 3070b.dat
1 71 -60 -520 -220 1 0 0 0 1 0 -0 0 1 3070b.dat
1 71 40 -520 -220 1 0 0 0 1 0 -0 0 1 3070b.dat
1 71 60 -520 200 1 0 0 0 1 0 -0 0 1 3070b.dat
1 71 100 -520 -200 1 0 0 0 1 0 -0 0 1 3070b.dat
1 71 140 -520 160 1 0 0 0 1 0 -0 0 1 3070b.dat
1 71 200 -520 -80 1 0 0 0 1 0 -0 0 1 3070b.dat
1 71 200 -520 60 1 0 0 0 1 0 -0 0 1 3070b.dat
1 71 -220 -528 -10 0 0 1 0 1 0 -1 0 0 2431.dat
1 71 -180 -528 -140 1 0 0 0 1 0 -0 0 1 3070b.dat
1 71 -160 -528 -160 1 0 0 0 1 0 -0 0 1 3070b.dat
1 71 -140 -528 -180 1 0 0 0 1 0 -0 0 1 3070b.dat
1 71 -120 -528 180 1 0 0 0 1 0 -0 0 1 3070b.dat
1 71 -60 -528 200 1 0 0 0 1 0 -0 0 1 3070b.dat
1 71 -10 -528 -220 1 0 0 0 1 0 -0 0 1 2431.dat
1 71 100 -528 180 1 0 0 0 1 0 -0 0 1 3070b.dat
1 71 180 -528 -120 1 0 0 0 1 0 -0 0 1 3070b.dat
1 71 180 -528 100 1 0 0 0 1 0 -0 0 1 3070b.dat
1 71 200 -528 -60 1 0 0 0 1 0 -0 0 1 3070b.dat
1 71 -200 -536 -100 1 0 0 0 1 0 -0 0 1 3070b.dat
1 71 -200 -536 80 1 0 0 0 1 0 -0 0 1 3070b.dat
1 71 -180 -536 120 1 0 0 0 1 0 -0 0 1 3070b.dat
1 71 -160 -536 140 1 0 0 0 1 0 -0 0 1 3070b.dat
1 71 -140 -536 160 1 0 0 0 1 0 -0 0 1 3070b.dat
1 71 -100 -536 -200 1 0 0 0 1 0 -0 0 1 3070b.dat
1 71 -40 -536 200 1 0 0 0 1 0 -0 0 1 3070b.dat
1 71 30 -536 200 1 0 0 0 1 0 -0 0 1 3069b.dat
1 71 80 -536 -200 1 0 0 0 1 0 -0 0 1 3070b.dat
1 71 120 -536 -180 1 0 0 0 1 0 -0 0 1 3070b.dat
1 71 140 -536 -160 1 0 0 0 1 0 -0 0 1 3070b.dat
1 71 160 -536 -140 1 0 0 0 1 0 -0 0 1 3070b.dat
1 71 200 -536 -40 1 0 0 0 1 0 -0 0 1 3070b.dat
1 71 200 -536 30 0 0 1 0 1 0 -1 0 0 3069b.dat
1 71 -100 -544 180 1 0 0 0 1 0 -0 0 1 3070b.dat
1 71 -10 -544 200 1 0 0 0 1 0 -0 0 1 3069b.dat
1 71 120 -544 160 1 0 0 0 1 0 -0 0 1 3070b.dat
1 71 140 -544 140 1 0 0 0 1 0 -0 0 1 3070b.dat
1 71 160 -544 120 1 0 0 0 1 0 -0 0 1 3070b.dat
1 71 180 -544 -100 1 0 0 0 1 0 -0 0 1 3070b.dat
1 71 200 -544 -10 0 0 1 0 1 0 -1 0 0 3069b.dat
1 71 -200 -552 -80 1 0 0 0 1 0 -0 0 1 3070b.dat
1 71 -200 -552 60 1 0 0 0 1 0 -0 0 1 3070b.dat
1 71 -180 -552 -120 1 0 0 0 1 0 -0 0 1 3070b.dat
1 71 -180 -552 100 1 0 0 0 1 0 -0 0 1 3070b.dat
1 71 -120 -552 -180 1 0 0 0 1 0 -0 0 1 3070b.dat
1 71 -80 -552 -200 1 0 0 0 1 0 -0 0 1 3070b.dat
1 71 60 -552 -200 1 0 0 0 1 0 -0 0 1 3070b.dat
1 71 80 -552 180 1 0 0 0 1 0 -0 0 1 3070b.dat
1 71 100 -552 -180 1 0 0 0 1 0 -0 0 1 3070b.dat
1 71 180 -552 80 1 0 0 0 1 0 -0 0 1 3070b.dat
1 71 -200 -560 -60 1 0 0 0 1 0 -0 0 1 3070b.dat
1 71 -200 -560 40 1 0 0 0 1 0 -0 0 1 3070b.dat
1 71 -160 -560 -140 1 0 0 0 1 0 -0 0 1 3070b.dat
1 71 -160 -560 120 1 0 0 0 1 0 -0 0 1 3070b.dat
1 71 -140 -560 -160 1 0 0 0 1 0 -0 0 1 3070b.dat
1 71 -120 -560 160 1 0 0 0 1 0 -0 0 1 3070b.dat
1 71 -80 -560 180 1 0 0 0 1 0 -0 0 1 3070b.dat
1 71 -60 -560 -200 1 0 0 0 1 0 -0 0 1 3070b.dat
1 71 40 -560 -200 1 0 0 0 1 0 -0 0 1 3070b.dat
1 71 60 -560 180 1 0 0 0 1 0 -0 0 1 3070b.dat
1 71 100 -560 160 1 0 0 0 1 0 -0 0 1 3070b.dat
1 71 120 -560 -160 1 0 0 0 1 0 -0 0 1 3070b.dat
1 71 140 -560 -140 1 0 0 0 1 0 -0 0 1 3070b.dat
1 71 160 -560 -120 1 0 0 0 1 0 -0 0 1 3070b.dat
1 71 160 -560 100 1 0 0 0 1 0 -0 0 1 3070b.dat
1 71 180 -560 -80 1 0 0 0 1 0 -0 0 1 3070b.dat
1 71 180 -560 60 1 0 0 0 1 0 -0 0 1 3070b.dat
1 71 -200 -568 -10 0 0 1 0 1 0 -1 0 0 2431.dat
1 71 -180 -568 -100 1 0 0 0 1 0 -0 0 1 3070b.dat
1 71 -180 -568 80 1 0 0 0 1 0 -0 0 1 3070b.dat
1 71 -140 -568 140 1 0 0 0 1 0 -0 0 1 3070b.dat
1 71 -100 -568 -180 1 0 0 0 1 0 -0 0 1 3070b.dat
1 71 -60 -568 180 1 0 0 0 1 0 -0 0 1 3070b.dat
1 71 -10 -568 -200 1 0 0 0 1 0 -0 0 1 2431.dat
1 71 40 -568 180 1 0 0 0 1 0 -0 0 1 3070b.dat
1 71 80 -568 -180 1 0 0 0 1 0 -0 0 1 3070b.dat
1 71 120 -568 140 1 0 0 0 1 0 -0 0 1 3070b.dat
1 71 140 -568 120 1 0 0 0 1 0 -0 0 1 3070b.dat
1 71 180 -568 -60 1 0 0 0 1 0 -0 0 1 3070b.dat
1 71 180 -568 40 1 0 0 0 1 0 -0 0 1 3070b.dat
1 71 -180 -576 -80 1 0 0 0 1 0 -0 0 1 3070b.dat
1 71 -160 -576 -120 1 0 0 0 1 0 -0 0 1 3070b.dat
1 71 -140 -576 -140 1 0 0 0 1 0 -0 0 1 3070b.dat
1 71 -120 -576 -160 1 0 0 0 1 0 -0 0 1 3070b.dat
1 71 -100 -576 160 1 0 0 0 1 0 -0 0 1 3070b.dat
1 71 -80 -576 -180 1 0 0 0 1 0 -0 0 1 3070b.dat
1 71 -10 -576 180 1 0 0 0 1 0 -0 0 1 2431.dat
1 71 80 -576 160 1 0 0 0 1 0 -0 0 1 3070b.dat
1 71 160 -576 -100 1 0 0 0 1 0 -0 0 1 3070b.dat
1 71 160 -576 80 1 0 0 0 1 0 -0 0 1 3070b.dat
1 71 180 -576 -10 0 0 1 0 1 0 -1 0 0 2431.dat
1 71 -180 -584 -60 1 0 0 0 1 0 -0 0 1 3070b.dat
1 71 -180 -584 60 1 0 0 0 1 0 -0 0 1 3070b.dat
1 71 -160 -584 100 1 0 0 0 1 0 -0 0 1 3070b.dat
1 71 -140 -584 120 1 0 0 0 1 0 -0 0 1 3070b.dat
1 71 -120 -584 140 1 0 0 0 1 0 -0 0 1 3070b.dat
1 71 -80 -584 160 1 0 0 0 1 0 -0 0 1 3070b.dat
1 71 -60 -584 -180 1 0 0 0 1 0 -0 0 1 3070b.dat
1 71 60 -584 -180 1 0 0 0 1 0 -0 0 1 3070b.dat
1 71 100 -584 -160 1 0 0 0 1 0 -0 0 1 3070b.dat
1 71 120 -584 -140 1 0 0 0 1 0 -0 0 1 3070b.dat
1 71 140 -584 -120 1 0 0 0 1 0 -0 0 1 3070b.dat
1 71 160 -584 -80 1 0 0 0 1 0 -0 0 1 3070b.dat
1 71 -180 -592 -10 0 0 1 0 1 0 -1 0 0 2431.dat
1 71 -180 -592 40 1 0 0 0 1 0 -0 0 1 3070b.dat
1 71 -160 -592 -100 1 0 0 0 1 0 -0 0 1 3070b.dat
1 71 -160 -592 80 1 0 0 0 1 0 -0 0 1 3070b.dat
1 71 -100 -592 -160 1 0 0 0 1 0 -0 0 1 3070b.dat
1 71 -60 -592 160 1 0 0 0 1 0 -0 0 1 3070b.dat
1 71 -10 -592 -180 1 0 0 0 1 0 -0 0 1 2431.dat
1 71 40 -592 -180 1 0 0 0 1 0 -0 0 1 3070b.dat
1 71 60 -592 160 1 0 0 0 1 0 -0 0 1 3070b.dat
1 71 80 -592 -160 1 0 0 0 1 0 -0 0 1 3070b.dat
1 71 100 -592 140 1 0 0 0 1 0 -0 0 1 3070b.dat
1 71 120 -592 120 1 0 0 0 1 0 -0 0 1 3070b.dat
1 71 140 -592 100 1 0 0 0 1 0 -0 0 1 3070b.dat
1 71 160 -592 -60 1 0 0 0 1 0 -0 0 1 3070b.dat
1 71 160 -592 60 1 0 0 0 1 0 -0 0 1 3070b.dat
1 71 -160 -600 -80 1 0 0 0 1 0 -0 0 1 3070b.dat
1 71 -140 -600 -120 1 0 0 0 1 0 -0 0 1 3070b.dat
1 71 -140 -600 100 1 0 0 0 1 0 -0 0 1 3070b.dat
1 71 -120 -600 -140 1 0 0 0 1 0 -0 0 1 3070b.dat
1 71 -120 -600 120 1 0 0 0 1 0 -0 0 1 3070b.dat
1 71 -100 -600 140 1 0 0 0 1 0 -0 0 1 3070b.dat
1 71 -80 -600 -160 1 0 0 0 1 0 -0 0 1 3070b.dat
1 71 -10 -600 160 1 0 0 0 1 0 -0 0 1 2431.dat
1 71 40 -600 160 1 0 0 0 1 0 -0 0 1 3070b.dat
1 71 80 -600 140 1 0 0 0 1 0 -0 0 1 3070b.dat
1 71 100 -600 -140 1 0 0 0 1 0 -0 0 1 3070b.dat
1 71 120 -600 -120 1 0 0 0 1 0 -0 0 1 3070b.dat
1 71 140 -600 -100 1 0 0 0 1 0 -0 0 1 3070b.dat
1 71 140 -600 80 1 0 0 0 1 0 -0 0 1 3070b.dat
1 71 160 -600 -10 0 0 1 0 1 0 -1 0 0 2431.dat
1 71 160 -600 40 1 0 0 0 1 0 -0 0 1 3070b.dat
1 71 -160 -608 -60 1 0 0 0 1 0 -0 0 1 3070b.dat
1 71 -160 -608 60 1 0 0 0 1 0 -0 0 1 3070b.dat
1 71 -80 -608 140 1 0 0 0 1 0 -0 0 1 3070b.dat
1 71 -60 -608 -160 1 0 0 0 1 0 -0 0 1 3070b.dat
1 71 60 -608 -160 1 0 0 0 1 0 -0 0 1 3070b.dat
1 71 60 -608 140 1 0 0 0 1 0 -0 0 1 3070b.dat
1 71 100 -608 120 1 0 0 0 1 0 -0 0 1 3070b.dat
1 71 120 -608 100 1 0 0 0 1 0 -0 0 1 3070b.dat
1 71 140 -608 -80 1 0 0 0 1 0 -0 0 1 3070b.dat
1 71 -160 -616 -10 0 0 1 0 1 0 -1 0 0 2431.dat
1 71 -160 -616 40 1 0 0 0 1 0 -0 0 1 3070b.dat
1 71 -140 -616 -100 1 0 0 0 1 0 -0 0 1 3070b.dat
1 71 -140 -616 80 1 0 0 0 1 0 -0 0 1 3070b.dat
1 71 -120 -616 -120 1 0 0 0 1 0 -0 0 1 3070b.dat
1 71 -120 -616 100 1 0 0 0 1 0 -0 0 1 3070b.dat
1 71 -100 -616 -140 1 0 0 0 1 0 -0 0 1 3070b.dat
1 71 -100 -616 120 1 0 0 0 1 0 -0 0 1 3070b.dat
1 71 -60 -616 140 1 0 0 0 1 0 -0 0 1 3070b.dat
1 71 -10 -616 -160 1 0 0 0 1 0 -0 0 1 2431.dat
1 71 40 -616 -160 1 0 0 0 1 0 -0 0 1 3070b.dat
1 71 40 -616 140 1 0 0 0 1 0 -0 0 1 3070b.dat
1 71 80 -616 -140 1 0 0 0 1 0 -0 0 1 3070b.dat
1 71 100 -616 -120 1 0 0 0 1 0 -0 0 1 3070b.dat
1 71 120 -616 -100 1 0 0 0 1 0 -0 0 1 3070b.dat
1 71 140 -616 -60 1 0 0 0 1 0 -0 0 1 3070b.dat
1 71 140 -616 50 0 0 1 0 1 0 -1 0 0 3069b.dat
1 71 -140 -624 -80 1 0 0 0 1 0 -0 0 1 3070b.dat
1 71 -140 -624 60 1 0 0 0 1 0 -0 0 1 3070b.dat
1 71 -120 -624 -100 1 0 0 0 1 0 -0 0 1 3070b.dat
1 71 -80 -624 -140 1 0 0 0 1 0 -0 0 1 3070b.dat
1 71 -80 -624 120 1 0 0 0 1 0 -0 0 1 3070b.dat
1 71 -10 -624 140 1 0 0 0 1 0 -0 0 1 2431.dat
1 71 60 -624 -140 1 0 0 0 1 0 -0 0 1 3070b.dat
1 71 80 -624 120 1 0 0 0 1 0 -0 0 1 3070b.dat
1 71 100 -624 100 1 0 0 0 1 0 -0 0 1 3070b.dat
1 71 120 -624 -80 1 0 0 0 1 0 -0 0 1 3070b.dat
1 71 120 -624 80 1 0 0 0 1 0 -0 0 1 3070b.dat
1 71 140 -624 -10 0 0 1 0 1 0 -1 0 0 2431.dat
1 71 -140 -632 -50 0 0 1 0 1 0 -1 0 0 3069b.dat
1 71 -140 -632 30 0 0 1 0 1 0 -1 0 0 3069b.dat
1 71 -120 -632 80 1 0 0 0 1 0 -0 0 1 3070b.dat
1 71 -100 -632 -120 1 0 0 0 1 0 -0 0 1 3070b.dat
1 71 -100 -632 100 1 0 0 0 1 0 -0 0 1 3070b.dat
1 71 -50 -632 -140 1 0 0 0 1 0 -0 0 1 3069b.dat
1 71 -60 -632 120 1 0 0 0 1 0 -0 0 1 3070b.dat
1 71 30 -632 -140 1 0 0 0 1 0 -0 0 1 3069b.dat
1 71 60 -632 120 1 0 0 0 1 0 -0 0 1 3070b.dat
1 71 80 -632 -120 1 0 0 0 1 0 -0 0 1 3070b.dat
1 71 80 -632 100 1 0 0 0 1 0 -0 0 1 3070b.dat
1 71 100 -632 -100 1 0 0 0 1 0 -0 0 1 3070b.dat
1 71 100 -632 80 1 0 0 0 1 0 -0 0 1 3070b.dat
1 71 120 -632 -60 1 0 0 0 1 0 -0 0 1 3070b.dat
1 71 120 -632 60 1 0 0 0 1 0 -0 0 1 3070b.dat
1 71 -140 -640 -10 0 0 1 0 1 0 -1 0 0 3069b.dat
1 71 -120 -640 -80 1 0 0 0 1 0 -0 0 1 3070b.dat
1 71 -120 -640 60 1 0 0 0 1 0 -0 0 1 3070b.dat
1 71 -100 -640 -100 1 0 0 0 1 0 -0 0 1 3070b.dat
1 71 -100 -640 80 1 0 0 0 1 0 -0 0 1 3070b.dat
1 71 -80 -640 -120 1 0 0 0 1 0 -0 0 1 3070b.dat
1 71 -80 -640 100 1 0 0 0 1 0 -0 0 1 3070b.dat
1 71 -10 -640 120 1 0 0 0 1 0 -0 0 1 2431.dat
1 71 -10 -640 -140 1 0 0 0 1 0 -0 0 1 3069b.dat
1 71 40 -640 120 1 0 0 0 1 0 -0 0 1 3070b.dat
1 71 60 -640 -120 1 0 0 0 1 0 -0 0 1 3070b.dat
1 71 80 -640 -100 1 0 0 0 1 0 -0 0 1 3070b.dat
1 71 100 -640 -80 1 0 0 0 1 0 -0 0 1 3070b.dat
1 71 120 -640 -10 0 0 1 0 1 0 -1 0 0 2431.dat
1 71 120 -640 40 1 0 0 0 1 0 -0 0 1 3070b.dat
1 71 -120 -648 -30 0 0 1 0 1 0 -1 0 0 2431.dat
1 71 -120 -648 30 0 0 1 0 1 0 -1 0 0 3069b.dat
1 71 -100 -648 -80 1 0 0 0 1 0 -0 0 1 3070b.dat
1 71 -80 -648 -100 1 0 0 0 1 0 -0 0 1 3070b.dat
1 71 -30 -648 -120 1 0 0 0 1 0 -0 0 1 2431.dat
1 71 -60 -648 100 1 0 0 0 1 0 -0 0 1 3070b.dat
1 71 30 -648 -120 1 0 0 0 1 0 -0 0 1 3069b.dat
1 71 50 -648 100 1 0 0 0 1 0 -0 0 1 3069b.dat
1 71 80 -648 80 1 0 0 0 1 0 -0 0 1 3070b.dat
1 71 100 -648 -60 1 0 0 0 1 0 -0 0 1 3070b.dat
1 71 100 -648 50 0 0 1 0 1 0 -1 0 0 3069b.dat
1 71 -100 -656 -60 1 0 0 0 1 0 -0 0 1 3070b.dat
1 71 -100 -656 50 0 0 1 0 1 0 -1 0 0 3069b.dat
1 71 -80 -656 -80 1 0 0 0 1 0 -0 0 1 3070b.dat
1 71 -70 -656 80 1 0 0 0 1 0 -0 0 1 3069b.dat
1 71 -60 -656 -100 1 0 0 0 1 0 -0 0 1 3070b.dat
1 71 -10 -656 100 1 0 0 0 1 0 -0 0 1 2431.dat
1 71 50 -656 -100 1 0 0 0 1 0 -0 0 1 3069b.dat
1 71 60 -656 80 1 0 0 0 1 0 -0 0 1 3070b.dat
1 71 80 -656 -70 0 0 1 0 1 0 -1 0 0 3069b.dat
1 71 80 -656 60 1 0 0 0 1 0 -0 0 1 3070b.dat
1 71 100 -656 -10 0 0 1 0 1 0 -1 0 0 2431.dat
1 71 -100 -664 -10 0 0 1 0 1 0 -1 0 0 2431.dat
1 71 -80 -664 -60 1 0 0 0 1 0 -0 0 1 3070b.dat
1 71 -80 -664 50 0 0 1 0 1 0 -1 0 0 3069b.dat
1 71 -60 -664 -80 1 0 0 0 1 0 -0 0 1 3070b.dat
1 71 -10 -664 -100 1 0 0 0 1 0 -0 0 1 2431.dat
1 71 -10 -664 80 1 0 0 0 1 0 -0 0 1 2431.dat
1 71 50 -664 -80 1 0 0 0 1 0 -0 0 1 3069b.dat
1 71 40 -664 80 1 0 0 0 1 0 -0 0 1 3070b.dat
1 71 60 -664 -60 1 0 0 0 1 0 -0 0 1 3070b.dat
1 71 60 -664 60 1 0 0 0 1 0 -0 0 1 3070b.dat
1 71 80 -664 -10 0 0 1 0 1 0 -1 0 0 2431.dat
1 71 80 -664 40 1 0 0 0 1 0 -0 0 1 3070b.dat
1 71 -80 -672 -10 0 0 1 0 1 0 -1 0 0 2431.dat
1 71 -60 -672 -50 0 0 1 0 1 0 -1 0 0 3069b.dat
1 71 -60 -672 50 0 0 1 0 1 0 -1 0 0 3069b.dat
1 71 -10 -672 -80 1 0 0 0 1 0 -0 0 1 2431.dat
1 71 -10 -672 60 1 0 0 0 1 0 -0 0 1 2431.dat
1 71 40 -672 -60 1 0 0 0 1 0 -0 0 1 3070b.dat
1 71 50 -672 40 1 0 0 0 1 0 -0 0 1 3069b.dat
1 71 40 -672 60 1 0 0 0 1 0 -0 0 1 3070b.dat
1 71 60 -672 -10 0 0 1 0 1 0 -1 0 0 2431.dat
1 71 -30 -680 -10 1 0 0 0 1 0 -0 0 1 87079.dat
1 71 -30 -680 20 1 0 0 0 1 0 -0 0 1 2431.dat
1 71 -10 -680 -50 1 0 0 0 1 0 -0 0 1 87079.dat
1 71 -10 -680 40 1 0 0 0 1 0 -0 0 1 2431.dat
1 71 30 -680 0 0 0 1 0 1 0 -1 0 0 26603.dat
1 71 40 -680 -40 1 0 0 0 1 0 -0 0 1 3070b.dat
0 // exterior shell
1 71 -30 -24 -10 1 0 0 0 1 0 -0 0 1 3001.dat
1 71 -30 -24 20 1 0 0 0 1 0 -0 0 1 3010.dat
1 71 -10 -24 -50 1 0 0 0 1 0 -0 0 1 3001.dat
1 71 -10 -24 40 1 0 0 0 1 0 -0 0 1 3010.dat
1 71 30 -24 -10 1 0 0 0 1 0 -0 0 1 3003.dat
1 71 30 -24 20 1 0 0 0 1 0 -0 0 1 3004.dat
1 71 40 -24 -40 1 0 0 0 1 0 -0 0 1 3005.dat
1 71 -80 -32 -10 0 0 1 0 1 0 -1 0 0 3010.dat
1 71 -60 -32 -50 0 0 1 0 1 0 -1 0 0 3004.dat
1 71 -60 -32 50 0 0 1 0 1 0 -1 0 0 3004.dat
1 71 -10 -32 -80 1 0 0 0 1 0 -0 0 1 3010.dat
1 71 -10 -32 60 1 0 0 0 1 0 -0 0 1 3010.dat
1 71 40 -32 -60 1 0 0 0 1 0 -0 0 1 3005.dat
1 71 50 -32 40 1 0 0 0 1 0 -0 0 1 3004.dat
1 71 40 -32 60 1 0 0 0 1 0 -0 0 1 3005.dat
1 71 60 -32 -10 0 0 1 0 1 0 -1 0 0 3010.dat
1 71 -100 -40 -10 0 0 1 0 1 0 -1 0 0 3010.dat
1 71 -80 -40 -60 1 0 0 0 1 0 -0 0 1 3005.dat
1 71 -80 -40 50 0 0 1 0 1 0 -1 0 0 3004.dat
1 71 -60 -40 -80 1 0 0 0 1 0 -0 0 1 3005.dat
1 71 -10 -40 -100 1 0 0 0 1 0 -0 0 1 3010.dat
1 71 -10 -40 80 1 0 0 0 1 0 -0 0 1 3010.dat
1 71 50 -40 -80 1 0 0 0 1 0 -0 0 1 3004.dat
1 71 40 -40 80 1 0 0 0 1 0 -0 0 1 3005.dat
1 71 60 -40 -60 1 0 0 0 1 0 -0 0 1 3005.dat
1 71 60 -40 60 1 0 0 0 1 0 -0 0 1 3005.dat
1 71 80 -40 -10 0 0 1 0 1 0 -1 0 0 3010.dat
1 71 80 -40 40 1 0 0 0 1 0 -0 0 1 3005.dat
1 71 -100 -48 -60 1 0 0 0 1 0 -0 0 1 3005.dat
1 71 -100 -48 50 0 0 1 0 1 0 -1 0 0 3004.dat
1 71 -80 -48 -80 1 0 0 0 1 0 -0 0 1 3005.dat
1 71 -70 -48 80 1 0 0 0 1 0 -0 0 1 3004.dat
1 71 -60 -48 -100 1 0 0 0 1 0 -0 0 1 3005.dat
1 71 -10 -48 100 1 0 0 0 1 0 -0 0 1 3010.dat
1 71 50 -48 -100 1 0 0 0 1 0 -0 0 1 3004.dat
1 71 60 -48 80 1 0 0 0 1 0 -0 0 1 3005.dat
1 71 80 -48 -70 0 0 1 0 1 0 -1 0 0 3004.dat
1 71 80 -48 60 1 0 0 0 1 0 -0 0 1 3005.dat
1 71 100 -48 -10 0 0 1 0 1 0 -1 0 0 3010.dat
1 71 -120 -56 -30 0 0 1 0 1 0 -1 0 0 3010.dat
1 71 -120 -56 30 0 0 1 0 1 0 -1 0 0 3004.dat
1 71 -100 -56 -80 1 0 0 0 1 0 -0 0 1 3005.dat
1 71 -80 -56 -100 1 0 0 0 1 0 -0 0 1 3005.dat
1 71 -30 -56 -120 1 0 0 0 1 0 -0 0 1 3010.dat
1 71 -60 -56 100 1 0 0 0 1 0 -0 0 1 3005.dat
1 71 30 -56 -120 1 0 0 0 1 0 -0 0 1 3004.dat
1 71 50 -56 100 1 0 0 0 1 0 -0 0 1 3004.dat
1 71 80 -56 80 1 0 0 0 1 0 -0 0 1 3005.dat
1 71 100 -56 -60 1 0 0 0 1 0 -0 0 1 3005.dat
1 71 100 -56 50 0 0 1 0 1 0 -1 0 0 3004.dat
1 71 -140 -64 -10 0 0 1 0 1 0 -1 0 0 3004.dat
1 71 -120 -64 -80 1 0 0 0 1 0 -0 0 1 3005.dat
1 71 -120 -64 60 1 0 0 0 1 0 -0 0 1 3005.dat
1 71 -100 -64 -100 1 0 0 0 1 0 -0 0 1 3005.dat
1 71 -100 -64 80 1 0 0 0 1 0 -0 0 1 3005.dat
1 71 -80 -64 -120 1 0 0 0 1 0 -0 0 1 3005.dat
1 71 -80 -64 100 1 0 0 0 1 0 -0 0 1 3005.dat
1 71 -10 -64 120 1 0 0 0 1 0 -0 0 1 3010.dat
1 71 -10 -64 -140 1 0 0 0 1 0 -0 0 1 3004.dat
1 71 40 -64 120 1 0 0 0 1 0 -0 0 1 3005.dat
1 71 60 -64 -120 1 0 0 0 1 0 -0 0 1 3005.dat
1 71 80 -64 -100 1 0 0 0 1 0 -0 0 1 3005.dat
1 71 100 -64 -80 1 0 0 0 1 0 -0 0 1 3005.dat
1 71 120 -64 -10 0 0 1 0 1 0 -1 0 0 3010.dat
1 71 120 -64 40 1 0 0 0 1 0 -0 0 1 3005.dat
1 71 -140 -72 -50 0 0 1 0 1 0 -1 0 0 3004.dat
1 71 -140 -72 30 0 0 1 0 1 0 -1 0 0 3004.dat
1 71 -120 -72 80 1 0 0 0 1 0 -0 0 1 3005.dat
1 71 -100 -72 -120 1 0 0 0 1 0 -0 0 1 3005.dat
1 71 -100 -72 100 1 0 0 0 1 0 -0 0 1 3005.dat
1 71 -50 -72 -140 1 0 0 0 1 0 -0 0 1 3004.dat
1 71 -60 -72 120 1 0 0 0 1 0 -0 0 1 3005.dat
1 71 30 -72 -140 1 0 0 0 1 0 -0 0 1 3004.dat
1 71 60 -72 120 1 0 0 0 1 0 -0 0 1 3005.dat
1 71 80 -72 -120 1 0 0 0 1 0 -0 0 1 3005.dat
1 71 80 -72 100 1 0 0 0 1 0 -0 0 1 3005.dat
1 71 100 -72 -100 1 0 0 0 1 0 -0 0 1 3005.dat
1 71 100 -72 80 1 0 0 0 1 0 -0 0 1 3005.dat
1 71 120 -72 -60 1 0 0 0 1 0 -0 0 1 3005.dat
1 71 120 -72 60 1 0 0 0 1 0 -0 0 1 3005.dat
1 71 -140 -80 -80 1 0 0 0 1 0 -0 0 1 3005.dat
1 71 -140 -80 60 1 0 0 0 1 0 -0 0 1 3005.dat
1 71 -120 -80 -100 1 0 0 0 1 0 -0 0 1 3005.dat
1 71 -80 -80 -140 1 0 0 0 1 0 -0 0 1 3005.dat
1 71 -80 -80 120 1 0 0 0 1 0 -0 0 1 3005.dat
1 71 -10 -80 140 1 0 0 0 1 0 -0 0 1 3010.dat
1 71 60 -80 -140 1 0 0 0 1 0 -0 0 1 3005.dat
1 71 80 -80 120 1 0 0 0 1 0 -0 0 1 3005.dat
1 71 100 -80 100 1 0 0 0 1 0 -0 0 1 3005.dat
1 71 120 -80 -80 1 0 0 0 1 0 -0 0 1 3005.dat
1 71 120 -80 80 1 0 0 0 1 0 -0 0 1 3005.dat
1 71 140 -80 -10 0 0 1 0 1 0 -1 0 0 3010.dat
1 71 -160 -88 -10 0 0 1 0 1 0 -1 0 0 3010.dat
1 71 -160 -88 40 1 0 0 0 1 0 -0 0 1 3005.dat
1 71 -140 -88 -100 1 0 0 0 1 0 -0 0 1 3005.dat
1 71 -140 -72 -10 0 0 1 0 1 0 -1 0 0 3023.dat
1 71 -140 -88 80 1 0 0 0 1 0 -0 0 1 3005.dat
1 71 -120 -88 -120 1 0 0 0 1 0 -0 0 1 3005.dat
1 71 -120 -88 100 1 0 0 0 1 0 -0 0 1 3005.dat
1 71 -100 -88 -140 1 0 0 0 1 0 -0 0 1 3005.dat
1 71 -100 -88 120 1 0 0 0 1 0 -0 0 1 3005.dat
1 71 -60 -88 140 1 0 0 0 1 0 -0 0 1 3005.dat
1 71 -10 -88 -160 1 0 0 0 1 0 -0 0 1 3010.dat
1 71 -10 -72 -140 1 0 0 0 1 0 -0 0 1 3023.dat
1 71 40 -88 -160 1 0 0 0 1 0 -0 0 1 3005.dat
1 71 40 -72 130 0 0 1 0 1 0 -1 0 0 3023.dat
1 71 80 -88 -140 1 0 0 0 1 0 -0 0 1 3005.dat
1 71 100 -88 -120 1 0 0 0 1 0 -0 0 1 3005.dat
1 71 120 -88 -100 1 0 0 0 1 0 -0 0 1 3005.dat
1 71 130 -72 40 1 0 0 0 1 0 -0 0 1 3023.dat
1 71 140 -88 -60 1 0 0 0 1 0 -0 0 1 3005.dat
1 71 140 -88 60 1 0 0 0 1 0 -0 0 1 3005.dat
1 71 -160 -96 -60 1 0 0 0 1 0 -0 0 1 3005.dat
1 71 -160 -96 60 1 0 0 0 1 0 -0 0 1 3005.dat
1 71 -140 -80 -60 1 0 0 0 1 0 -0 0 1 3024.dat
1 71 -80 -96 140 1 0 0 0 1 0 -0 0 1 3005.dat
1 71 -60 -96 -160 1 0 0 0 1 0 -0 0 1 3005.dat
1 71 -60 -80 -140 1 0 0 0 1 0 -0 0 1 3024.dat
1 71 50 -80 140 1 0 0 0 1 0 -0 0 1 3023.dat
1 71 60 -96 -160 1 0 0 0 1 0 -0 0 1 3005.dat
1 71 60 -80 120 1 0 0 0 1 0 -0 0 1 3024.dat
1 71 100 -96 120 1 0 0 0 1 0 -0 0 1 3005.dat
1 71 120 -96 100 1 0 0 0 1 0 -0 0 1 3005.dat
1 71 140 -96 -80 1 0 0 0 1 0 -0 0 1 3005.dat
1 71 140 -80 40 1 0 0 0 1 0 -0 0 1 3024.dat
1 71 -160 -104 -80 1 0 0 0 1 0 -0 0 1 3005.dat
1 71 -140 -104 -120 1 0 0 0 1 0 -0 0 1 3005.dat
1 71 -140 -88 -80 1 0 0 0 1 0 -0 0 1 3024.dat
1 71 -140 -104 100 1 0 0 0 1 0 -0 0 1 3005.dat
1 71 -120 -104 -140 1 0 0 0 1 0 -0 0 1 3005.dat
1 71 -120 -104 120 1 0 0 0 1 0 -0 0 1 3005.dat
1 71 -100 -104 140 1 0 0 0 1 0 -0 0 1 3005.dat
1 71 -80 -104 -160 1 0 0 0 1 0 -0 0 1 3005.dat
1 71 -80 -88 -140 1 0 0 0 1 0 -0 0 1 3024.dat
1 71 -10 -88 150 1 0 0 0 1 0 -0 0 1 3020.dat
1 71 60 -88 140 1 0 0 0 1 0 -0 0 1 3623.dat
1 71 40 -104 160 1 0 0 0 1 0 -0 0 1 3005.dat
1 71 80 -88 120 1 0 0 0 1 0 -0 0 1 3024.dat
1 71 100 -104 -140 1 0 0 0 1 0 -0 0 1 3005.dat
1 71 120 -104 -120 1 0 0 0 1 0 -0 0 1 3005.dat
1 71 130 -88 80 1 0 0 0 1 0 -0 0 1 3023.dat
1 71 140 -104 -100 1 0 0 0 1 0 -0 0 1 3005.dat
1 71 150 -88 -10 0 0 1 0 1 0 -1 0 0 3020.dat
1 71 150 -88 40 1 0 0 0 1 0 -0 0 1 3023.dat
1 71 -180 -112 -10 0 0 1 0 1 0 -1 0 0 3010.dat
1 71 -180 -112 40 1 0 0 0 1 0 -0 0 1 3005.dat
1 71 -160 -112 -100 1 0 0 0 1 0 -0 0 1 3005.dat
1 71 -160 -96 -10 0 0 1 0 1 0 -1 0 0 3710.dat
1 71 -160 -96 40 1 0 0 0 1 0 -0 0 1 3024.dat
1 71 -160 -112 80 1 0 0 0 1 0 -0 0 1 3005.dat
1 71 -140 -96 -100 1 0 0 0 1 0 -0 0 1 3024.dat
1 71 -140 -96 80 1 0 0 0 1 0 -0 0 1 3024.dat
1 71 -100 -112 -160 1 0 0 0 1 0 -0 0 1 3005.dat
1 71 -100 -96 -140 1 0 0 0 1 0 -0 0 1 3024.dat
1 71 -60 -96 150 0 0 1 0 1 0 -1 0 0 3023.dat
1 71 -10 -112 -180 1 0 0 0 1 0 -0 0 1 3010.dat
1 71 -10 -96 -160 1 0 0 0 1 0 -0 0 1 3710.dat
1 71 -10 -112 160 1 0 0 0 1 0 -0 0 1 3010.dat
1 71 40 -112 -180 1 0 0 0 1 0 -0 0 1 3005.dat
1 71 40 -96 -160 1 0 0 0 1 0 -0 0 1 3024.dat
1 71 80 -96 140 1 0 0 0 1 0 -0 0 1 3623.dat
1 71 60 -112 160 1 0 0 0 1 0 -0 0 1 3005.dat
1 71 80 -112 -160 1 0 0 0 1 0 -0 0 1 3005.dat
1 71 80 -96 -140 1 0 0 0 1 0 -0 0 1 3024.dat
1 71 120 -112 120 1 0 0 0 1 0 -0 0 1 3005.dat
1 71 150 -96 -60 1 0 0 0 1 0 -0 0 1 3023.dat
1 71 140 -96 80 0 0 1 0 1 0 -1 0 0 3623.dat
1 71 160 -112 -10 0 0 1 0 1 0 -1 0 0 3010.dat
1 71 160 -112 50 0 0 1 0 1 0 -1 0 0 3004.dat
1 71 -180 -120 -60 1 0 0 0 1 0 -0 0 1 3005.dat
1 71 -180 -120 60 1 0 0 0 1 0 -0 0 1 3005.dat
1 71 -160 -104 -60 1 0 0 0 1 0 -0 0 1 3024.dat
1 71 -160 -104 60 1 0 0 0 1 0 -0 0 1 3024.dat
1 71 -160 -120 100 1 0 0 0 1 0 -0 0 1 3005.dat
1 71 -140 -120 120 1 0 0 0 1 0 -0 0 1 3005.dat
1 71 -120 -120 140 1 0 0 0 1 0 -0 0 1 3005.dat
1 71 -80 -104 150 0 0 1 0 1 0 -1 0 0 3023.dat
1 71 -60 -120 -180 1 0 0 0 1 0 -0 0 1 3005.dat
1 71 -60 -104 -160 1 0 0 0 1 0 -0 0 1 3024.dat
1 71 -60 -120 160 1 0 0 0 1 0 -0 0 1 3005.dat
1 71 60 -120 -180 1 0 0 0 1 0 -0 0 1 3005.dat
1 71 60 -104 -160 1 0 0 0 1 0 -0 0 1 3024.dat
1 71 90 -104 140 1 0 0 0 1 0 -0 0 1 3023.dat
1 71 100 -120 -160 1 0 0 0 1 0 -0 0 1 3005.dat
1 71 120 -120 -140 1 0 0 0 1 0 -0 0 1 3005.dat
1 71 140 -120 -120 1 0 0 0 1 0 -0 0 1 3005.dat
1 71 150 -104 -80 1 0 0 0 1 0 -0 0 1 3023.dat
1 71 140 -104 90 0 0 1 0 1 0 -1 0 0 3023.dat
1 71 160 -120 -60 1 0 0 0 1 0 -0 0 1 3005.dat
1 71 -180 -128 -80 1 0 0 0 1 0 -0 0 1 3005.dat
1 71 -160 -128 -120 1 0 0 0 1 0 -0 0 1 3005.dat
1 71 -160 -112 -80 1 0 0 0 1 0 -0 0 1 3024.dat
1 71 -140 -128 -140 1 0 0 0 1 0 -0 0 1 3005.dat
1 71 -140 -112 -120 1 0 0 0 1 0 -0 0 1 3024.dat
1 71 -120 -128 -160 1 0 0 0 1 0 -0 0 1 3005.dat
1 71 -120 -112 -140 1 0 0 0 1 0 -0 0 1 3024.dat
1 71 -100 -112 150 0 0 1 0 1 0 -1 0 0 3023.dat
1 71 -80 -128 -180 1 0 0 0 1 0 -0 0 1 3005.dat
1 71 -80 -112 -160 1 0 0 0 1 0 -0 0 1 3024.dat
1 71 -80 -128 160 1 0 0 0 1 0 -0 0 1 3005.dat
1 71 -10 -128 180 1 0 0 0 1 0 -0 0 1 3010.dat
1 71 40 -112 160 1 0 0 0 1 0 -0 0 1 3024.dat
1 71 90 -112 140 1 0 0 0 1 0 -0 0 1 3023.dat
1 71 80 -128 160 1 0 0 0 1 0 -0 0 1 3005.dat
1 71 150 -112 -100 1 0 0 0 1 0 -0 0 1 3023.dat
1 71 150 -112 80 1 0 0 0 1 0 -0 0 1 3023.dat
1 71 140 -128 100 1 0 0 0 1 0 -0 0 1 3005.dat
1 71 160 -128 -80 1 0 0 0 1 0 -0 0 1 3005.dat
1 71 180 -128 -10 0 0 1 0 1 0 -1 0 0 3010.dat
1 71 -200 -136 -10 0 0 1 0 1 0 -1 0 0 3010.dat
1 71 -180 -136 -100 1 0 0 0 1 0 -0 0 1 3005.dat
1 71 -180 -120 -10 0 0 1 0 1 0 -1 0 0 3710.dat
1 71 -180 -120 40 1 0 0 0 1 0 -0 0 1 3024.dat
1 71 -180 -136 80 1 0 0 0 1 0 -0 0 1 3005.dat
1 71 -160 -120 -100 1 0 0 0 1 0 -0 0 1 3024.dat
1 71 -160 -120 80 1 0 0 0 1 0 -0 0 1 3024.dat
1 71 -140 -136 140 1 0 0 0 1 0 -0 0 1 3005.dat
1 71 -100 -136 -180 1 0 0 0 1 0 -0 0 1 3005.dat
1 71 -100 -120 -160 1 0 0 0 1 0 -0 0 1 3024.dat
1 71 -100 -136 160 1 0 0 0 1 0 -0 0 1 3005.dat
1 71 -60 -136 180 1 0 0 0 1 0 -0 0 1 3005.dat
1 71 -10 -136 -200 1 0 0 0 1 0 -0 0 1 3010.dat
1 71 -10 -120 -180 1 0 0 0 1 0 -0 0 1 3710.dat
1 71 40 -120 -180 1 0 0 0 1 0 -0 0 1 3024.dat
1 71 50 -120 160 1 0 0 0 1 0 -0 0 1 3023.dat
1 71 40 -136 180 1 0 0 0 1 0 -0 0 1 3005.dat
1 71 80 -136 -180 1 0 0 0 1 0 -0 0 1 3005.dat
1 71 80 -120 -160 1 0 0 0 1 0 -0 0 1 3024.dat
1 71 110 -120 140 1 0 0 0 1 0 -0 0 1 3023.dat
1 71 130 -120 120 1 0 0 0 1 0 -0 0 1 3023.dat
1 71 160 -136 -100 1 0 0 0 1 0 -0 0 1 3005.dat
1 71 160 -120 60 0 0 1 0 1 0 -1 0 0 3623.dat
1 71 180 -136 -60 1 0 0 0 1 0 -0 0 1 3005.dat
1 71 180 -136 40 1 0 0 0 1 0 -0 0 1 3005.dat
1 71 -200 -144 -60 1 0 0 0 1 0 -0 0 1 3005.dat
1 71 -200 -144 40 1 0 0 0 1 0 -0 0 1 3005.dat
1 71 -180 -128 -60 1 0 0 0 1 0 -0 0 1 3024.dat
1 71 -180 -128 50 0 0 1 0 1 0 -1 0 0 3023.dat
1 71 -160 -144 -140 1 0 0 0 1 0 -0 0 1 3005.dat
1 71 -160 -128 110 0 0 1 0 1 0 -1 0 0 3023.dat
1 71 -140 -144 -160 1 0 0 0 1 0 -0 0 1 3005.dat
1 71 -140 -128 120 1 0 0 0 1 0 -0 0 1 3024.dat
1 71 -120 -128 150 0 0 1 0 1 0 -1 0 0 3023.dat
1 71 -80 -144 180 1 0 0 0 1 0 -0 0 1 3005.dat
1 71 -60 -144 -200 1 0 0 0 1 0 -0 0 1 3005.dat
1 71 -60 -128 -180 1 0 0 0 1 0 -0 0 1 3024.dat
1 71 40 -144 -200 1 0 0 0 1 0 -0 0 1 3005.dat
1 71 50 -128 -180 1 0 0 0 1 0 -0 0 1 3023.dat
1 71 60 -128 170 0 0 1 0 1 0 -1 0 0 3023.dat
1 71 110 -128 -160 1 0 0 0 1 0 -0 0 1 3023.dat
1 71 110 -128 140 1 0 0 0 1 0 -0 0 1 3023.dat
1 71 100 -144 160 1 0 0 0 1 0 -0 0 1 3005.dat
1 71 130 -128 -140 1 0 0 0 1 0 -0 0 1 3023.dat
1 71 150 -128 -120 1 0 0 0 1 0 -0 0 1 3023.dat
1 71 140 -144 120 1 0 0 0 1 0 -0 0 1 3005.dat
1 71 160 -128 80 0 0 1 0 1 0 -1 0 0 3623.dat
1 71 180 -144 -80 1 0 0 0 1 0 -0 0 1 3005.dat
1 71 180 -144 60 1 0 0 0 1 0 -0 0 1 3005.dat
1 71 -200 -152 -80 1 0 0 0 1 0 -0 0 1 3005.dat
1 71 -200 -152 60 1 0 0 0 1 0 -0 0 1 3005.dat
1 71 -180 -152 -120 1 0 0 0 1 0 -0 0 1 3005.dat
1 71 -180 -136 -80 1 0 0 0 1 0 -0 0 1 3024.dat
1 71 -180 -136 60 1 0 0 0 1 0 -0 0 1 3024.dat
1 71 -180 -152 100 1 0 0 0 1 0 -0 0 1 3005.dat
1 71 -160 -136 -120 1 0 0 0 1 0 -0 0 1 3024.dat
1 71 -160 -136 110 0 0 1 0 1 0 -1 0 0 3023.dat
1 71 -120 -152 -180 1 0 0 0 1 0 -0 0 1 3005.dat
1 71 -120 -136 -160 1 0 0 0 1 0 -0 0 1 3024.dat
1 71 -120 -152 160 1 0 0 0 1 0 -0 0 1 3005.dat
1 71 -80 -152 -200 1 0 0 0 1 0 -0 0 1 3005.dat
1 71 -80 -136 -180 1 0 0 0 1 0 -0 0 1 3024.dat
1 71 -10 -136 180 1 0 0 0 1 0 -0 0 1 3710.dat
1 71 60 -152 -200 1 0 0 0 1 0 -0 0 1 3005.dat
1 71 60 -136 -180 1 0 0 0 1 0 -0 0 1 3024.dat
1 71 70 -152 180 1 0 0 0 1 0 -0 0 1 3004.dat
1 71 80 -136 160 1 0 0 0 1 0 -0 0 1 3024.dat
1 71 100 -152 -180 1 0 0 0 1 0 -0 0 1 3005.dat
1 71 110 -136 -160 1 0 0 0 1 0 -0 0 1 3023.dat
1 71 120 -136 140 1 0 0 0 1 0 -0 0 1 3024.dat
1 71 140 -152 -140 1 0 0 0 1 0 -0 0 1 3005.dat
1 71 160 -152 -120 1 0 0 0 1 0 -0 0 1 3005.dat
1 71 170 -136 80 1 0 0 0 1 0 -0 0 1 3023.dat
1 71 160 -152 100 1 0 0 0 1 0 -0 0 1 3005.dat
1 71 180 -136 -10 0 0 1 0 1 0 -1 0 0 3710.dat
1 71 -200 -160 -10 0 0 1 0 1 0 -1 0 0 3010.dat
1 71 -180 -144 -100 1 0 0 0 1 0 -0 0 1 3024.dat
1 71 -180 -144 80 1 0 0 0 1 0 -0 0 1 3024.dat
1 71 -160 -144 120 1 0 0 0 1 0 -0 0 1 3024.dat
1 71 -140 -144 140 1 0 0 0 1 0 -0 0 1 3024.dat
1 71 -100 -144 -180 1 0 0 0 1 0 -0 0 1 3024.dat
1 71 -100 -144 170 0 0 1 0 1 0 -1 0 0 3023.dat
1 71 -30 -144 180 1 0 0 0 1 0 -0 0 1 3710.dat
1 71 -10 -160 -200 1 0 0 0 1 0 -0 0 1 3010.dat
1 71 -10 -160 200 1 0 0 0 1 0 -0 0 1 3004.dat
1 71 30 -144 180 1 0 0 0 1 0 -0 0 1 3023.dat
1 71 80 -144 -180 1 0 0 0 1 0 -0 0 1 3024.dat
1 71 120 -144 -160 1 0 0 0 1 0 -0 0 1 3024.dat
1 71 130 -144 140 1 0 0 0 1 0 -0 0 1 3023.dat
1 71 120 -160 160 1 0 0 0 1 0 -0 0 1 3005.dat
1 71 170 -144 -100 1 0 0 0 1 0 -0 0 1 3023.dat
1 71 160 -160 120 1 0 0 0 1 0 -0 0 1 3005.dat
1 71 180 -144 -30 0 0 1 0 1 0 -1 0 0 3710.dat
1 71 180 -144 30 0 0 1 0 1 0 -1 0 0 3023.dat
1 71 180 -160 80 1 0 0 0 1 0 -0 0 1 3005.dat
1 71 200 -160 -10 0 0 1 0 1 0 -1 0 0 3004.dat
1 71 -200 -168 -100 1 0 0 0 1 0 -0 0 1 3005.dat
1 71 -200 -168 -60 1 0 0 0 1 0 -0 0 1 3005.dat
1 71 -200 -168 40 1 0 0 0 1 0 -0 0 1 3005.dat
1 71 -200 -168 80 1 0 0 0 1 0 -0 0 1 3005.dat
1 71 -180 -152 -100 1 0 0 0 1 0 -0 0 1 3024.dat
1 71 -180 -152 80 1 0 0 0 1 0 -0 0 1 3024.dat
1 71 -180 -168 120 1 0 0 0 1 0 -0 0 1 3005.dat
1 71 -160 -152 -140 1 0 0 0 1 0 -0 0 1 3024.dat
1 71 -160 -152 130 0 0 1 0 1 0 -1 0 0 3023.dat
1 71 -140 -152 -160 1 0 0 0 1 0 -0 0 1 3024.dat
1 71 -140 -152 150 0 0 1 0 1 0 -1 0 0 3023.dat
1 71 -100 -168 -200 1 0 0 0 1 0 -0 0 1 3005.dat
1 71 -100 -152 -180 1 0 0 0 1 0 -0 0 1 3024.dat
1 71 -90 -168 180 1 0 0 0 1 0 -0 0 1 3004.dat
1 71 -60 -168 -200 1 0 0 0 1 0 -0 0 1 3005.dat
1 71 -50 -152 180 1 0 0 0 1 0 -0 0 1 3023.dat
1 71 -40 -168 200 1 0 0 0 1 0 -0 0 1 3005.dat
1 71 30 -152 190 1 0 0 0 1 0 -0 0 1 3022.dat
1 71 40 -168 -200 1 0 0 0 1 0 -0 0 1 3005.dat
1 71 80 -168 -200 1 0 0 0 1 0 -0 0 1 3005.dat
1 71 80 -152 -180 1 0 0 0 1 0 -0 0 1 3024.dat
1 71 100 -152 160 1 0 0 0 1 0 -0 0 1 3024.dat
1 71 120 -168 -180 1 0 0 0 1 0 -0 0 1 3005.dat
1 71 130 -152 -160 1 0 0 0 1 0 -0 0 1 3023.dat
1 71 140 -168 140 1 0 0 0 1 0 -0 0 1 3005.dat
1 71 160 -168 -140 1 0 0 0 1 0 -0 0 1 3005.dat
1 71 180 -168 -90 0 0 1 0 1 0 -1 0 0 3004.dat
1 71 180 -152 -50 0 0 1 0 1 0 -1 0 0 3023.dat
1 71 190 -152 30 1 0 0 0 1 0 -0 0 1 3022.dat
1 71 180 -168 60 1 0 0 0 1 0 -0 0 1 3005.dat
1 71 200 -168 -40 1 0 0 0 1 0 -0 0 1 3005.dat
1 71 -220 -176 -10 0 0 1 0 1 0 -1 0 0 3010.dat
1 71 -200 -176 -80 1 0 0 0 1 0 -0 0 1 3005.dat
1 71 -200 -176 60 1 0 0 0 1 0 -0 0 1 3005.dat
1 71 -180 -176 -130 0 0 1 0 1 0 -1 0 0 3004.dat
1 71 -180 -160 100 1 0 0 0 1 0 -0 0 1 3024.dat
1 71 -160 -176 -160 1 0 0 0 1 0 -0 0 1 3005.dat
1 71 -160 -160 -140 1 0 0 0 1 0 -0 0 1 3024.dat
1 71 -160 -176 140 1 0 0 0 1 0 -0 0 1 3005.dat
1 71 -130 -176 -180 1 0 0 0 1 0 -0 0 1 3004.dat
1 71 -140 -160 -160 1 0 0 0 1 0 -0 0 1 3024.dat
1 71 -140 -176 160 1 0 0 0 1 0 -0 0 1 3005.dat
1 71 -120 -160 170 0 0 1 0 1 0 -1 0 0 3023.dat
1 71 -80 -176 -200 1 0 0 0 1 0 -0 0 1 3005.dat
1 71 -60 -160 190 0 0 1 0 1 0 -1 0 0 3023.dat
1 71 -10 -176 -220 1 0 0 0 1 0 -0 0 1 3010.dat
1 71 30 -176 200 1 0 0 0 1 0 -0 0 1 3004.dat
1 71 60 -176 -200 1 0 0 0 1 0 -0 0 1 3005.dat
1 71 80 -160 180 1 0 0 0 1 0 -0 0 1 3623.dat
1 71 100 -160 -180 1 0 0 0 1 0 -0 0 1 3024.dat
1 71 100 -160 160 1 0 0 0 1 0 -0 0 1 3024.dat
1 71 140 -176 -160 1 0 0 0 1 0 -0 0 1 3005.dat
1 71 170 -160 -120 1 0 0 0 1 0 -0 0 1 3023.dat
1 71 170 -160 100 1 0 0 0 1 0 -0 0 1 3023.dat
1 71 190 -160 -60 1 0 0 0 1 0 -0 0 1 3023.dat
1 71 200 -176 30 0 0 1 0 1 0 -1 0 0 3004.dat
1 71 -220 -184 -60 1 0 0 0 1 0 -0 0 1 3005.dat
1 71 -220 -184 40 1 0 0 0 1 0 -0 0 1 3005.dat
1 71 -200 -184 100 1 0 0 0 1 0 -0 0 1 3005.dat
1 71 -180 -168 100 1 0 0 0 1 0 -0 0 1 3024.dat
1 71 -120 -184 180 1 0 0 0 1 0 -0 0 1 3005.dat
1 71 -70 -184 200 1 0 0 0 1 0 -0 0 1 3004.dat
1 71 -60 -184 -220 1 0 0 0 1 0 -0 0 1 3005.dat
1 71 -10 -184 200 1 0 0 0 1 0 -0 0 1 3004.dat
1 71 40 -184 -220 1 0 0 0 1 0 -0 0 1 3005.dat
1 71 80 -168 180 1 0 0 0 1 0 -0 0 1 3623.dat
1 71 60 -184 200 1 0 0 0 1 0 -0 0 1 3005.dat
1 71 100 -184 -200 1 0 0 0 1 0 -0 0 1 3005.dat
1 71 100 -168 -180 1 0 0 0 1 0 -0 0 1 3024.dat
1 71 130 -184 160 1 0 0 0 1 0 -0 0 1 3004.dat
1 71 160 -184 120 1 0 0 0 1 0 -0 0 1 3005.dat
1 71 180 -184 -120 1 0 0 0 1 0 -0 0 1 3005.dat
1 71 180 -168 90 0 0 1 0 1 0 -1 0 0 3023.dat
1 71 200 -184 -70 0 0 1 0 1 0 -1 0 0 3004.dat
1 71 200 -184 -10 0 0 1 0 1 0 -1 0 0 3004.dat
1 71 200 -184 60 1 0 0 0 1 0 -0 0 1 3005.dat
1 71 -220 -192 60 1 0 0 0 1 0 -0 0 1 3005.dat
1 71 -200 -192 -110 0 0 1 0 1 0 -1 0 0 3004.dat
1 71 -200 -192 80 1 0 0 0 1 0 -0 0 1 3005.dat
1 71 -180 -192 120 1 0 0 0 1 0 -0 0 1 3005.dat
1 71 -110 -192 -200 1 0 0 0 1 0 -0 0 1 3004.dat
1 71 -100 -176 180 1 0 0 0 1 0 -0 0 1 3024.dat
1 71 -40 -192 200 1 0 0 0 1 0 -0 0 1 3005.dat
1 71 60 -192 -220 1 0 0 0 1 0 -0 0 1 3005.dat
1 71 80 -192 -200 1 0 0 0 1 0 -0 0 1 3005.dat
1 71 90 -176 180 1 0 0 0 1 0 -0 0 1 3023.dat
1 71 80 -192 200 1 0 0 0 1 0 -0 0 1 3005.dat
1 71 120 -192 -180 1 0 0 0 1 0 -0 0 1 3005.dat
1 71 150 -176 140 1 0 0 0 1 0 -0 0 1 3023.dat
1 71 160 -192 -140 1 0 0 0 1 0 -0 0 1 3005.dat
1 71 180 -176 -100 1 0 0 0 1 0 -0 0 1 3024.dat
1 71 190 -176 80 1 0 0 0 1 0 -0 0 1 3023.dat
1 71 180 -192 100 1 0 0 0 1 0 -0 0 1 3005.dat
1 71 200 -192 -40 1 0 0 0 1 0 -0 0 1 3005.dat
1 71 -220 -200 -80 1 0 0 0 1 0 -0 0 1 3005.dat
1 71 -220 -200 -10 0 0 1 0 1 0 -1 0 0 3010.dat
1 71 -200 -184 -80 1 0 0 0 1 0 -0 0 1 3024.dat
1 71 -180 -200 -140 1 0 0 0 1 0 -0 0 1 3005.dat
1 71 -180 -200 140 1 0 0 0 1 0 -0 0 1 3005.dat
1 71 -160 -184 -160 1 0 0 0 1 0 -0 0 1 3024.dat
1 71 -160 -184 150 0 0 1 0 1 0 -1 0 0 3023.dat
1 71 -140 -200 -180 1 0 0 0 1 0 -0 0 1 3005.dat
1 71 -140 -184 160 1 0 0 0 1 0 -0 0 1 3024.dat
1 71 -100 -184 190 0 0 1 0 1 0 -1 0 0 3023.dat
1 71 -80 -200 -220 1 0 0 0 1 0 -0 0 1 3005.dat
1 71 -80 -184 -200 1 0 0 0 1 0 -0 0 1 3024.dat
1 71 -10 -200 -220 1 0 0 0 1 0 -0 0 1 3010.dat
1 71 30 -200 200 1 0 0 0 1 0 -0 0 1 3004.dat
1 71 110 -200 180 1 0 0 0 1 0 -0 0 1 3004.dat
1 71 140 -200 -180 1 0 0 0 1 0 -0 0 1 3005.dat
1 71 150 -184 -160 1 0 0 0 1 0 -0 0 1 3023.dat
1 71 160 -200 140 1 0 0 0 1 0 -0 0 1 3005.dat
1 71 190 -184 -100 1 0 0 0 1 0 -0 0 1 3023.dat
1 71 180 -200 120 1 0 0 0 1 0 -0 0 1 3005.dat
1 71 200 -184 30 0 0 1 0 1 0 -1 0 0 3023.dat
1 71 200 -200 80 1 0 0 0 1 0 -0 0 1 3005.dat
1 71 -220 -208 -60 1 0 0 0 1 0 -0 0 1 3005.dat
1 71 -220 -208 40 1 0 0 0 1 0 -0 0 1 3005.dat
1 71 -220 -208 80 1 0 0 0 1 0 -0 0 1 3005.dat
1 71 -200 -208 110 0 0 1 0 1 0 -1 0 0 3004.dat
1 71 -180 -208 -160 1 0 0 0 1 0 -0 0 1 3005.dat
1 71 -160 -208 -180 1 0 0 0 1 0 -0 0 1 3005.dat
1 71 -160 -192 -160 1 0 0 0 1 0 -0 0 1 3024.dat
1 71 -160 -208 160 1 0 0 0 1 0 -0 0 1 3005.dat
1 71 -140 -192 170 0 0 1 0 1 0 -1 0 0 3023.dat
1 71 -120 -208 180 1 0 0 0 1 0 -0 0 1 3005.dat
1 71 -80 -208 200 1 0 0 0 1 0 -0 0 1 3622.dat
1 71 -60 -208 -220 1 0 0 0 1 0 -0 0 1 3005.dat
1 71 -10 -192 210 1 0 0 0 1 0 -0 0 1 3022.dat
1 71 40 -208 -220 1 0 0 0 1 0 -0 0 1 3005.dat
1 71 60 -208 200 1 0 0 0 1 0 -0 0 1 3005.dat
1 71 80 -208 -220 1 0 0 0 1 0 -0 0 1 3005.dat
1 71 110 -208 -200 1 0 0 0 1 0 -0 0 1 3004.dat
1 71 140 -208 160 1 0 0 0 1 0 -0 0 1 3005.dat
1 71 160 -208 -160 1 0 0 0 1 0 -0 0 1 3005.dat
1 71 180 -208 -130 0 0 1 0 1 0 -1 0 0 3004.dat
1 71 200 -208 -80 0 0 1 0 1 0 -1 0 0 3622.dat
1 71 210 -192 0 0 0 1 0 1 0 -1 0 0 3021.dat
1 71 200 -208 50 0 0 1 0 1 0 -1 0 0 3004.dat
1 71 -220 -216 -100 1 0 0 0 1 0 -0 0 1 3005.dat
1 71 -220 -216 60 1 0 0 0 1 0 -0 0 1 3005.dat
1 71 -200 -216 -130 0 0 1 0 1 0 -1 0 0 3004.dat
1 71 -200 -200 -100 1 0 0 0 1 0 -0 0 1 3024.dat
1 71 -130 -216 -200 1 0 0 0 1 0 -0 0 1 3004.dat
1 71 -140 -216 180 1 0 0 0 1 0 -0 0 1 3005.dat
1 71 -100 -216 -220 1 0 0 0 1 0 -0 0 1 3005.dat
1 71 -100 -200 -200 1 0 0 0 1 0 -0 0 1 3024.dat
1 71 -40 -200 210 0 0 1 0 1 0 -1 0 0 3023.dat
1 71 10 -216 220 1 0 0 0 1 0 -0 0 1 3010.dat
1 71 60 -216 -220 1 0 0 0 1 0 -0 0 1 3005.dat
1 71 90 -216 200 1 0 0 0 1 0 -0 0 1 3004.dat
1 71 190 -200 100 1 0 0 0 1 0 -0 0 1 3023.dat
1 71 210 -200 -40 1 0 0 0 1 0 -0 0 1 3023.dat
1 71 220 -216 0 0 0 1 0 1 0 -1 0 0 3622.dat
1 71 -220 -224 -80 1 0 0 0 1 0 -0 0 1 3005.dat
1 71 -220 -208 -10 0 0 1 0 1 0 -1 0 0 3710.dat
1 71 -180 -224 140 1 0 0 0 1 0 -0 0 1 3005.dat
1 71 -120 -224 200 1 0 0 0 1 0 -0 0 1 3005.dat
1 71 -80 -224 -220 1 0 0 0 1 0 -0 0 1 3005.dat
1 71 -50 -224 220 1 0 0 0 1 0 -0 0 1 3004.dat
1 71 -10 -208 -220 1 0 0 0 1 0 -0 0 1 3710.dat
1 71 -10 -224 -240 1 0 0 0 1 0 -0 0 1 3004.dat
1 71 120 -224 180 1 0 0 0 1 0 -0 0 1 3005.dat
1 71 140 -224 -180 1 0 0 0 1 0 -0 0 1 3005.dat
1 71 160 -208 150 0 0 1 0 1 0 -1 0 0 3023.dat
1 71 180 -224 120 1 0 0 0 1 0 -0 0 1 3005.dat
1 71 200 -224 -120 1 0 0 0 1 0 -0 0 1 3005.dat
1 71 200 -224 90 0 0 1 0 1 0 -1 0 0 3004.dat
1 71 220 -224 -50 0 0 1 0 1 0 -1 0 0 3004.dat
1 71 220 -224 40 1 0 0 0 1 0 -0 0 1 3005.dat
1 71 -240 -232 -10 0 0 1 0 1 0 -1 0 0 3010.dat
1 71 -220 -216 -30 0 0 1 0 1 0 -1 0 0 3710.dat
1 71 -220 -216 30 0 0 1 0 1 0 -1 0 0 3023.dat
1 71 -220 -232 90 0 0 1 0 1 0 -1 0 0 3004.dat
1 71 -200 -216 110 0 0 1 0 1 0 -1 0 0 3023.dat
1 71 -180 -232 -160 1 0 0 0 1 0 -0 0 1 3005.dat
1 71 -160 -232 -180 1 0 0 0 1 0 -0 0 1 3005.dat
1 71 -160 -216 160 1 0 0 0 1 0 -0 0 1 3024.dat
1 71 -100 -232 200 1 0 0 0 1 0 -0 0 1 3005.dat
1 71 -80 -216 200 1 0 0 0 1 0 -0 0 1 3024.dat
1 71 -50 -216 -220 1 0 0 0 1 0 -0 0 1 3023.dat
1 71 -40 -232 -240 1 0 0 0 1 0 -0 0 1 3005.dat
1 71 20 -232 -240 1 0 0 0 1 0 -0 0 1 3005.dat
1 71 30 -216 -220 1 0 0 0 1 0 -0 0 1 3023.dat
1 71 60 -216 210 0 0 1 0 1 0 -1 0 0 3023.dat
1 71 90 -232 -220 1 0 0 0 1 0 -0 0 1 3004.dat
1 71 110 -216 -200 1 0 0 0 1 0 -0 0 1 3023.dat
1 71 150 -216 160 1 0 0 0 1 0 -0 0 1 3023.dat
1 71 140 -232 180 1 0 0 0 1 0 -0 0 1 3005.dat
1 71 160 -232 -160 1 0 0 0 1 0 -0 0 1 3005.dat
1 71 170 -216 140 1 0 0 0 1 0 -0 0 1 3023.dat
1 71 180 -232 -140 1 0 0 0 1 0 -0 0 1 3005.dat
1 71 200 -232 -100 1 0 0 0 1 0 -0 0 1 3005.dat
1 71 200 -216 -80 1 0 0 0 1 0 -0 0 1 3024.dat
1 71 210 -216 60 1 0 0 0 1 0 -0 0 1 3023.dat
1 71 -240 -240 -60 1 0 0 0 1 0 -0 0 1 3005.dat
1 71 -240 -240 40 1 0 0 0 1 0 -0 0 1 3005.dat
1 71 -220 -240 -100 1 0 0 0 1 0 -0 0 1 3005.dat
1 71 -220 -224 -60 1 0 0 0 1 0 -0 0 1 3024.dat
1 71 -220 -224 50 0 0 1 0 1 0 -1 0 0 3023.dat
1 71 -200 -240 -140 1 0 0 0 1 0 -0 0 1 3005.dat
1 71 -200 -224 -120 1 0 0 0 1 0 -0 0 1 3024.dat
1 71 -200 -240 120 1 0 0 0 1 0 -0 0 1 3005.dat
1 71 -180 -240 160 1 0 0 0 1 0 -0 0 1 3005.dat
1 71 -160 -224 170 0 0 1 0 1 0 -1 0 0 3023.dat
1 71 -140 -240 -200 1 0 0 0 1 0 -0 0 1 3005.dat
1 71 -140 -240 180 1 0 0 0 1 0 -0 0 1 3005.dat
1 71 -110 -240 -220 1 0 0 0 1 0 -0 0 1 3004.dat
1 71 -120 -224 -200 1 0 0 0 1 0 -0 0 1 3024.dat
1 71 -80 -224 210 0 0 1 0 1 0 -1 0 0 3023.dat
1 71 -60 -240 -240 1 0 0 0 1 0 -0 0 1 3005.dat
1 71 -60 -224 -220 1 0 0 0 1 0 -0 0 1 3024.dat
1 71 10 -240 220 1 0 0 0 1 0 -0 0 1 3010.dat
1 71 40 -240 -240 1 0 0 0 1 0 -0 0 1 3005.dat
1 71 50 -224 -220 1 0 0 0 1 0 -0 0 1 3023.dat
1 71 60 -240 220 1 0 0 0 1 0 -0 0 1 3005.dat
1 71 90 -240 200 1 0 0 0 1 0 -0 0 1 3004.dat
1 71 120 -240 -200 1 0 0 0 1 0 -0 0 1 3005.dat
1 71 160 -240 -180 1 0 0 0 1 0 -0 0 1 3005.dat
1 71 160 -240 160 1 0 0 0 1 0 -0 0 1 3005.dat
1 71 180 -240 140 1 0 0 0 1 0 -0 0 1 3005.dat
1 71 210 -224 -80 1 0 0 0 1 0 -0 0 1 3023.dat
1 71 220 -240 0 0 0 1 0 1 0 -1 0 0 3622.dat
1 71 220 -240 60 1 0 0 0 1 0 -0 0 1 3005.dat
1 71 -220 -248 -120 1 0 0 0 1 0 -0 0 1 3005.dat
1 71 -220 -248 -80 1 0 0 0 1 0 -0 0 1 3005.dat
1 71 -220 -232 60 1 0 0 0 1 0 -0 0 1 3024.dat
1 71 -200 -232 -120 1 0 0 0 1 0 -0 0 1 3024.dat
1 71 -200 -248 140 1 0 0 0 1 0 -0 0 1 3005.dat
1 71 -180 -232 140 1 0 0 0 1 0 -0 0 1 3024.dat
1 71 -160 -248 180 1 0 0 0 1 0 -0 0 1 3005.dat
1 71 -120 -248 200 1 0 0 0 1 0 -0 0 1 3005.dat
1 71 -80 -232 -220 1 0 0 0 1 0 -0 0 1 3024.dat
1 71 -60 -248 220 1 0 0 0 1 0 -0 0 1 3622.dat
1 71 -10 -248 -240 1 0 0 0 1 0 -0 0 1 3004.dat
1 71 60 -232 -220 1 0 0 0 1 0 -0 0 1 3024.dat
1 71 120 -232 190 0 0 1 0 1 0 -1 0 0 3023.dat
1 71 140 -248 -200 1 0 0 0 1 0 -0 0 1 3005.dat
1 71 140 -232 -180 1 0 0 0 1 0 -0 0 1 3024.dat
1 71 180 -248 -160 1 0 0 0 1 0 -0 0 1 3005.dat
1 71 190 -232 120 1 0 0 0 1 0 -0 0 1 3023.dat
1 71 200 -248 -120 1 0 0 0 1 0 -0 0 1 3005.dat
1 71 200 -232 90 0 0 1 0 1 0 -1 0 0 3023.dat
1 71 220 -248 -60 0 0 1 0 1 0 -1 0 0 3622.dat
1 71 220 -248 40 1 0 0 0 1 0 -0 0 1 3005.dat
1 71 -240 -256 -10 0 0 1 0 1 0 -1 0 0 3010.dat
1 71 -240 -256 60 1 0 0 0 1 0 -0 0 1 3005.dat
1 71 -220 -240 80 0 0 1 0 1 0 -1 0 0 3623.dat
1 71 -180 -256 -180 1 0 0 0 1 0 -0 0 1 3005.dat
1 71 -180 -240 -160 1 0 0 0 1 0 -0 0 1 3024.dat
1 71 -160 -240 -180 1 0 0 0 1 0 -0 0 1 3024.dat
1 71 -100 -240 200 1 0 0 0 1 0 -0 0 1 3024.dat
1 71 -80 -256 -240 1 0 0 0 1 0 -0 0 1 3005.dat
1 71 -80 -240 -220 1 0 0 0 1 0 -0 0 1 3024.dat
1 71 -40 -256 -240 1 0 0 0 1 0 -0 0 1 3005.dat
1 71 20 -256 -240 1 0 0 0 1 0 -0 0 1 3005.dat
1 71 60 -256 -240 1 0 0 0 1 0 -0 0 1 3005.dat
1 71 80 -240 -220 1 0 0 0 1 0 -0 0 1 3623.dat
1 71 80 -256 220 1 0 0 0 1 0 -0 0 1 3005.dat
1 71 120 -256 200 1 0 0 0 1 0 -0 0 1 3005.dat
1 71 140 -256 180 1 0 0 0 1 0 -0 0 1 3005.dat
1 71 180 -240 -140 1 0 0 0 1 0 -0 0 1 3024.dat
1 71 200 -240 -100 1 0 0 0 1 0 -0 0 1 3024.dat
1 71 200 -240 100 0 0 1 0 1 0 -1 0 0 3623.dat
1 71 220 -256 80 1 0 0 0 1 0 -0 0 1 3005.dat
1 71 -240 -264 -70 0 0 1 0 1 0 -1 0 0 3004.dat
1 71 -240 -264 40 1 0 0 0 1 0 -0 0 1 3005.dat
1 71 -220 -264 -100 1 0 0 0 1 0 -0 0 1 3005.dat
1 71 -220 -264 90 0 0 1 0 1 0 -1 0 0 3004.dat
1 71 -200 -264 -150 0 0 1 0 1 0 -1 0 0 3004.dat
1 71 -200 -248 120 1 0 0 0 1 0 -0 0 1 3024.dat
1 71 -180 -248 -160 1 0 0 0 1 0 -0 0 1 3024.dat
1 71 -180 -264 160 1 0 0 0 1 0 -0 0 1 3005.dat
1 71 -150 -264 -200 1 0 0 0 1 0 -0 0 1 3004.dat
1 71 -160 -248 -180 1 0 0 0 1 0 -0 0 1 3024.dat
1 71 -140 -248 190 0 0 1 0 1 0 -1 0 0 3023.dat
1 71 -110 -264 -220 1 0 0 0 1 0 -0 0 1 3004.dat
1 71 -100 -248 210 0 0 1 0 1 0 -1 0 0 3023.dat
1 71 -60 -264 -240 1 0 0 0 1 0 -0 0 1 3005.dat
1 71 10 -264 220 1 0 0 0 1 0 -0 0 1 3010.dat
1 71 40 -264 -240 1 0 0 0 1 0 -0 0 1 3005.dat
1 71 60 -264 220 1 0 0 0 1 0 -0 0 1 3005.dat
1 71 90 -264 -220 1 0 0 0 1 0 -0 0 1 3004.dat
1 71 100 -264 200 1 0 0 0 1 0 -0 0 1 3005.dat
1 71 120 -248 -200 1 0 0 0 1 0 -0 0 1 3024.dat
1 71 160 -264 -180 1 0 0 0 1 0 -0 0 1 3005.dat
1 71 160 -264 160 1 0 0 0 1 0 -0 0 1 3005.dat
1 71 190 -248 -140 1 0 0 0 1 0 -0 0 1 3023.dat
1 71 180 -264 140 1 0 0 0 1 0 -0 0 1 3005.dat
1 71 210 -248 -100 1 0 0 0 1 0 -0 0 1 3023.dat
1 71 200 -264 110 0 0 1 0 1 0 -1 0 0 3004.dat
1 71 220 -264 0 0 0 1 0 1 0 -1 0 0 3622.dat
1 71 220 -264 60 1 0 0 0 1 0 -0 0 1 3005.dat
1 71 -220 -272 -120 1 0 0 0 1 0 -0 0 1 3005.dat
1 71 -220 -272 120 1 0 0 0 1 0 -0 0 1 3005.dat
1 71 -200 -256 130 0 0 1 0 1 0 -1 0 0 3023.dat
1 71 -160 -272 180 1 0 0 0 1 0 -0 0 1 3005.dat
1 71 -130 -272 200 1 0 0 0 1 0 -0 0 1 3004.dat
1 71 -70 -272 220 1 0 0 0 1 0 -0 0 1 3010.dat
1 71 -10 -272 -240 1 0 0 0 1 0 -0 0 1 3004.dat
1 71 120 -272 -220 1 0 0 0 1 0 -0 0 1 3005.dat
1 71 130 -256 -200 1 0 0 0 1 0 -0 0 1 3023.dat
1 71 180 -272 -160 1 0 0 0 1 0 -0 0 1 3005.dat
1 71 200 -272 -130 0 0 1 0 1 0 -1 0 0 3004.dat
1 71 220 -272 -70 0 0 1 0 1 0 -1 0 0 3010.dat
1 71 220 -272 40 1 0 0 0 1 0 -0 0 1 3005.dat
1 71 -240 -280 -10 0 0 1 0 1 0 -1 0 0 3010.dat
1 71 -240 -280 70 0 0 1 0 1 0 -1 0 0 3004.dat
1 71 -200 -280 140 1 0 0 0 1 0 -0 0 1 3005.dat
1 71 -180 -280 -180 1 0 0 0 1 0 -0 0 1 3005.dat
1 71 -80 -280 -240 1 0 0 0 1 0 -0 0 1 3005.dat
1 71 -40 -280 -240 1 0 0 0 1 0 -0 0 1 3005.dat
1 71 20 -280 -240 1 0 0 0 1 0 -0 0 1 3005.dat
1 71 60 -280 -240 1 0 0 0 1 0 -0 0 1 3005.dat
1 71 80 -280 220 1 0 0 0 1 0 -0 0 1 3005.dat
1 71 120 -280 200 1 0 0 0 1 0 -0 0 1 3005.dat
1 71 140 -280 -200 1 0 0 0 1 0 -0 0 1 3005.dat
1 71 140 -280 180 1 0 0 0 1 0 -0 0 1 3005.dat
1 71 220 -280 80 1 0 0 0 1 0 -0 0 1 3005.dat
1 71 -240 -288 -70 0 0 1 0 1 0 -1 0 0 3004.dat
1 71 -240 -288 40 1 0 0 0 1 0 -0 0 1 3005.dat
1 71 -220 -272 -100 1 0 0 0 1 0 -0 0 1 3024.dat
1 71 -220 -288 100 1 0 0 0 1 0 -0 0 1 3005.dat
1 71 -200 -288 -160 1 0 0 0 1 0 -0 0 1 3005.dat
1 71 -200 -272 -140 1 0 0 0 1 0 -0 0 1 3024.dat
1 71 -180 -288 160 1 0 0 0 1 0 -0 0 1 3005.dat
1 71 -160 -288 -200 1 0 0 0 1 0 -0 0 1 3005.dat
1 71 -130 -288 -220 1 0 0 0 1 0 -0 0 1 3004.dat
1 71 -140 -272 -200 1 0 0 0 1 0 -0 0 1 3024.dat
1 71 -100 -272 -220 1 0 0 0 1 0 -0 0 1 3024.dat
1 71 -60 -288 -240 1 0 0 0 1 0 -0 0 1 3005.dat
1 71 -10 -272 230 1 0 0 0 1 0 -0 0 1 3022.dat
1 71 40 -272 220 1 0 0 0 1 0 -0 0 1 3623.dat
1 71 40 -288 -240 1 0 0 0 1 0 -0 0 1 3005.dat
1 71 80 -288 -240 1 0 0 0 1 0 -0 0 1 3005.dat
1 71 90 -272 -220 1 0 0 0 1 0 -0 0 1 3023.dat
1 71 100 -272 200 1 0 0 0 1 0 -0 0 1 3024.dat
1 71 160 -288 -180 1 0 0 0 1 0 -0 0 1 3005.dat
1 71 170 -272 160 1 0 0 0 1 0 -0 0 1 3023.dat
1 71 160 -288 180 1 0 0 0 1 0 -0 0 1 3005.dat
1 71 180 -288 140 1 0 0 0 1 0 -0 0 1 3005.dat
1 71 200 -272 110 0 0 1 0 1 0 -1 0 0 3023.dat
1 71 220 -272 0 0 0 1 0 1 0 -1 0 0 3623.dat
1 71 220 -288 60 1 0 0 0 1 0 -0 0 1 3005.dat
1 71 -240 -296 -100 1 0 0 0 1 0 -0 0 1 3005.dat
1 71 -220 -296 -130 0 0 1 0 1 0 -1 0 0 3004.dat
1 71 -220 -280 -100 1 0 0 0 1 0 -0 0 1 3024.dat
1 71 -220 -296 120 1 0 0 0 1 0 -0 0 1 3005.dat
1 71 -200 -280 -140 1 0 0 0 1 0 -0 0 1 3024.dat
1 71 -160 -296 180 1 0 0 0 1 0 -0 0 1 3005.dat
1 71 -130 -296 200 1 0 0 0 1 0 -0 0 1 3004.dat
1 71 -100 -296 -240 1 0 0 0 1 0 -0 0 1 3005.dat
1 71 -100 -280 -220 1 0 0 0 1 0 -0 0 1 3024.dat
1 71 -80 -296 220 1 0 0 0 1 0 -0 0 1 3622.dat
1 71 -40 -280 220 1 0 0 0 1 0 -0 0 1 3024.dat
1 71 -10 -296 -240 1 0 0 0 1 0 -0 0 1 3004.dat
1 71 0 -296 240 1 0 0 0 1 0 -0 0 1 3622.dat
1 71 40 -280 220 1 0 0 0 1 0 -0 0 1 3623.dat
1 71 110 -296 -220 1 0 0 0 1 0 -0 0 1 3004.dat
1 71 100 -280 210 0 0 1 0 1 0 -1 0 0 3023.dat
1 71 180 -296 -160 1 0 0 0 1 0 -0 0 1 3005.dat
1 71 180 -296 160 1 0 0 0 1 0 -0 0 1 3005.dat
1 71 200 -296 -130 0 0 1 0 1 0 -1 0 0 3004.dat
1 71 210 -280 100 1 0 0 0 1 0 -0 0 1 3023.dat
1 71 200 -296 120 1 0 0 0 1 0 -0 0 1 3005.dat
1 71 220 -296 -80 0 0 1 0 1 0 -1 0 0 3622.dat
1 71 230 -280 -10 0 0 1 0 1 0 -1 0 0 3020.dat
1 71 220 -296 40 1 0 0 0 1 0 -0 0 1 3005.dat
1 71 -240 -304 -10 0 0 1 0 1 0 -1 0 0 3010.dat
1 71 -240 -304 70 0 0 1 0 1 0 -1 0 0 3004.dat
1 71 -200 -304 140 1 0 0 0 1 0 -0 0 1 3005.dat
1 71 -180 -304 -180 1 0 0 0 1 0 -0 0 1 3005.dat
1 71 -80 -304 -240 1 0 0 0 1 0 -0 0 1 3005.dat
1 71 -40 -304 -240 1 0 0 0 1 0 -0 0 1 3005.dat
1 71 -40 -288 230 0 0 1 0 1 0 -1 0 0 3023.dat
1 71 20 -304 -240 1 0 0 0 1 0 -0 0 1 3005.dat
1 71 70 -288 220 1 0 0 0 1 0 -0 0 1 3710.dat
1 71 60 -304 -240 1 0 0 0 1 0 -0 0 1 3005.dat
1 71 120 -304 200 1 0 0 0 1 0 -0 0 1 3005.dat
1 71 140 -304 -200 1 0 0 0 1 0 -0 0 1 3005.dat
1 71 140 -288 180 1 0 0 0 1 0 -0 0 1 3024.dat
1 71 220 -304 90 0 0 1 0 1 0 -1 0 0 3004.dat
1 71 240 -304 -10 0 0 1 0 1 0 -1 0 0 3010.dat
1 71 -240 -312 -70 0 0 1 0 1 0 -1 0 0 3004.dat
1 71 -240 -312 40 1 0 0 0 1 0 -0 0 1 3005.dat
1 71 -220 -312 100 1 0 0 0 1 0 -0 0 1 3005.dat
1 71 -200 -312 -160 1 0 0 0 1 0 -0 0 1 3005.dat
1 71 -180 -312 160 1 0 0 0 1 0 -0 0 1 3005.dat
1 71 -160 -312 -200 1 0 0 0 1 0 -0 0 1 3005.dat
1 71 -130 -312 -220 1 0 0 0 1 0 -0 0 1 3004.dat
1 71 -60 -312 -240 1 0 0 0 1 0 -0 0 1 3005.dat
1 71 -40 -312 240 1 0 0 0 1 0 -0 0 1 3005.dat
1 71 40 -312 -240 1 0 0 0 1 0 -0 0 1 3005.dat
1 71 70 -296 220 1 0 0 0 1 0 -0 0 1 3710.dat
1 71 40 -312 240 1 0 0 0 1 0 -0 0 1 3005.dat
1 71 80 -312 -240 1 0 0 0 1 0 -0 0 1 3005.dat
1 71 150 -296 180 1 0 0 0 1 0 -0 0 1 3023.dat
1 71 140 -312 200 1 0 0 0 1 0 -0 0 1 3005.dat
1 71 160 -312 -180 1 0 0 0 1 0 -0 0 1 3005.dat
1 71 180 -296 140 1 0 0 0 1 0 -0 0 1 3024.dat
1 71 220 -312 60 1 0 0 0 1 0 -0 0 1 3005.dat
1 71 240 -312 40 1 0 0 0 1 0 -0 0 1 3005.dat
1 71 -240 -320 -100 1 0 0 0 1 0 -0 0 1 3005.dat
1 71 -220 -320 -130 0 0 1 0 1 0 -1 0 0 3004.dat
1 71 -220 -320 120 1 0 0 0 1 0 -0 0 1 3005.dat
1 71 -170 -320 180 1 0 0 0 1 0 -0 0 1 3004.dat
1 71 -140 -320 200 1 0 0 0 1 0 -0 0 1 3005.dat
1 71 -120 -304 210 0 0 1 0 1 0 -1 0 0 3023.dat
1 71 -100 -320 -240 1 0 0 0 1 0 -0 0 1 3005.dat
1 71 -90 -320 220 1 0 0 0 1 0 -0 0 1 3004.dat
1 71 -60 -304 220 1 0 0 0 1 0 -0 0 1 3024.dat
1 71 -10 -320 -240 1 0 0 0 1 0 -0 0 1 3004.dat
1 71 0 -320 240 1 0 0 0 1 0 -0 0 1 3622.dat
1 71 80 -320 220 1 0 0 0 1 0 -0 0 1 3622.dat
1 71 110 -320 -220 1 0 0 0 1 0 -0 0 1 3004.dat
1 71 160 -320 180 1 0 0 0 1 0 -0 0 1 3005.dat
1 71 180 -320 -170 0 0 1 0 1 0 -1 0 0 3004.dat
1 71 190 -304 140 1 0 0 0 1 0 -0 0 1 3023.dat
1 71 180 -320 160 1 0 0 0 1 0 -0 0 1 3005.dat
1 71 200 -320 -140 1 0 0 0 1 0 -0 0 1 3005.dat
1 71 210 -304 -120 1 0 0 0 1 0 -0 0 1 3023.dat
1 71 200 -320 120 1 0 0 0 1 0 -0 0 1 3005.dat
1 71 220 -320 -90 0 0 1 0 1 0 -1 0 0 3004.dat
1 71 220 -304 -60 1 0 0 0 1 0 -0 0 1 3024.dat
1 71 -240 -328 -10 0 0 1 0 1 0 -1 0 0 3010.dat
1 71 -240 -328 70 0 0 1 0 1 0 -1 0 0 3004.dat
1 71 -200 -328 150 0 0 1 0 1 0 -1 0 0 3004.dat
1 71 -180 -328 -180 1 0 0 0 1 0 -0 0 1 3005.dat
1 71 -120 -328 220 1 0 0 0 1 0 -0 0 1 3005.dat
1 71 -80 -328 -240 1 0 0 0 1 0 -0 0 1 3005.dat
1 71 -60 -312 230 0 0 1 0 1 0 -1 0 0 3023.dat
1 71 -40 -328 -240 1 0 0 0 1 0 -0 0 1 3005.dat
1 71 20 -328 -240 1 0 0 0 1 0 -0 0 1 3005.dat
1 71 60 -328 -240 1 0 0 0 1 0 -0 0 1 3005.dat
1 71 120 -328 200 1 0 0 0 1 0 -0 0 1 3005.dat
1 71 150 -328 -200 1 0 0 0 1 0 -0 0 1 3004.dat
1 71 200 -328 140 1 0 0 0 1 0 -0 0 1 3005.dat
1 71 220 -328 -120 1 0 0 0 1 0 -0 0 1 3005.dat
1 71 230 -312 -60 1 0 0 0 1 0 -0 0 1 3023.dat
1 71 220 -328 90 0 0 1 0 1 0 -1 0 0 3004.dat
1 71 240 -328 -10 0 0 1 0 1 0 -1 0 0 3010.dat
1 71 -240 -336 -70 0 0 1 0 1 0 -1 0 0 3004.dat
1 71 -240 -336 40 1 0 0 0 1 0 -0 0 1 3005.dat
1 71 -220 -336 100 1 0 0 0 1 0 -0 0 1 3005.dat
1 71 -200 -336 -160 1 0 0 0 1 0 -0 0 1 3005.dat
1 71 -160 -336 -200 1 0 0 0 1 0 -0 0 1 3005.dat
1 71 -130 -336 -220 1 0 0 0 1 0 -0 0 1 3004.dat
1 71 -60 -336 -240 1 0 0 0 1 0 -0 0 1 3005.dat
1 71 -50 -336 240 1 0 0 0 1 0 -0 0 1 3004.dat
1 71 40 -336 -240 1 0 0 0 1 0 -0 0 1 3005.dat
1 71 40 -336 240 1 0 0 0 1 0 -0 0 1 3005.dat
1 71 80 -336 -240 1 0 0 0 1 0 -0 0 1 3005.dat
1 71 140 -336 200 1 0 0 0 1 0 -0 0 1 3005.dat
1 71 220 -336 60 1 0 0 0 1 0 -0 0 1 3005.dat
1 71 240 -336 -60 1 0 0 0 1 0 -0 0 1 3005.dat
1 71 240 -336 40 1 0 0 0 1 0 -0 0 1 3005.dat
1 71 -240 -344 -100 1 0 0 0 1 0 -0 0 1 3005.dat
1 71 -220 -344 -130 0 0 1 0 1 0 -1 0 0 3004.dat
1 71 -220 -344 120 1 0 0 0 1 0 -0 0 1 3005.dat
1 71 -170 -344 180 1 0 0 0 1 0 -0 0 1 3004.dat
1 71 -140 -344 200 1 0 0 0 1 0 -0 0 1 3005.dat
1 71 -100 -344 -240 1 0 0 0 1 0 -0 0 1 3005.dat
1 71 -90 -344 220 1 0 0 0 1 0 -0 0 1 3004.dat
1 71 -10 -344 -240 1 0 0 0 1 0 -0 0 1 3004.dat
1 71 0 -344 240 1 0 0 0 1 0 -0 0 1 3622.dat
1 71 80 -344 220 1 0 0 0 1 0 -0 0 1 3622.dat
1 71 110 -344 -220 1 0 0 0 1 0 -0 0 1 3004.dat
1 71 160 -344 180 1 0 0 0 1 0 -0 0 1 3005.dat
1 71 180 -344 -170 0 0 1 0 1 0 -1 0 0 3004.dat
1 71 180 -344 160 1 0 0 0 1 0 -0 0 1 3005.dat
1 71 200 -344 -140 1 0 0 0 1 0 -0 0 1 3005.dat
1 71 200 -344 120 1 0 0 0 1 0 -0 0 1 3005.dat
1 71 220 -344 -90 0 0 1 0 1 0 -1 0 0 3004.dat
1 71 -240 -352 -10 0 0 1 0 1 0 -1 0 0 3010.dat
1 71 -240 -352 70 0 0 1 0 1 0 -1 0 0 3004.dat
1 71 -200 -352 150 0 0 1 0 1 0 -1 0 0 3004.dat
1 71 -180 -352 -180 1 0 0 0 1 0 -0 0 1 3005.dat
1 71 -120 -352 220 1 0 0 0 1 0 -0 0 1 3005.dat
1 71 -80 -352 -240 1 0 0 0 1 0 -0 0 1 3005.dat
1 71 -40 -352 -240 1 0 0 0 1 0 -0 0 1 3005.dat
1 71 20 -352 -240 1 0 0 0 1 0 -0 0 1 3005.dat
1 71 60 -352 -240 1 0 0 0 1 0 -0 0 1 3005.dat
1 71 120 -352 200 1 0 0 0 1 0 -0 0 1 3005.dat
1 71 150 -352 -200 1 0 0 0 1 0 -0 0 1 3004.dat
1 71 200 -352 140 1 0 0 0 1 0 -0 0 1 3005.dat
1 71 220 -352 -120 1 0 0 0 1 0 -0 0 1 3005.dat
1 71 220 -352 90 0 0 1 0 1 0 -1 0 0 3004.dat
1 71 240 -352 -10 0 0 1 0 1 0 -1 0 0 3010.dat
1 71 -240 -360 -70 0 0 1 0 1 0 -1 0 0 3004.dat
1 71 -240 -360 40 1 0 0 0 1 0 -0 0 1 3005.dat
1 71 -220 -360 100 1 0 0 0 1 0 -0 0 1 3005.dat
1 71 -200 -360 -160 1 0 0 0 1 0 -0 0 1 3005.dat
1 71 -160 -360 -200 1 0 0 0 1 0 -0 0 1 3005.dat
1 71 -130 -360 -220 1 0 0 0 1 0 -0 0 1 3004.dat
1 71 -60 -360 -240 1 0 0 0 1 0 -0 0 1 3005.dat
1 71 -50 -360 240 1 0 0 0 1 0 -0 0 1 3004.dat
1 71 40 -360 -240 1 0 0 0 1 0 -0 0 1 3005.dat
1 71 40 -360 240 1 0 0 0 1 0 -0 0 1 3005.dat
1 71 80 -360 -240 1 0 0 0 1 0 -0 0 1 3005.dat
1 71 140 -360 200 1 0 0 0 1 0 -0 0 1 3005.dat
1 71 220 -360 60 1 0 0 0 1 0 -0 0 1 3005.dat
1 71 240 -360 -60 1 0 0 0 1 0 -0 0 1 3005.dat
1 71 240 -360 40 1 0 0 0 1 0 -0 0 1 3005.dat
1 71 -240 -368 -100 1 0 0 0 1 0 -0 0 1 3005.dat
1 71 -220 -368 -130 0 0 1 0 1 0 -1 0 0 3004.dat
1 71 -220 -368 120 1 0 0 0 1 0 -0 0 1 3005.dat
1 71 -170 -368 180 1 0 0 0 1 0 -0 0 1 3004.dat
1 71 -140 -368 200 1 0 0 0 1 0 -0 0 1 3005.dat
1 71 -100 -368 -240 1 0 0 0 1 0 -0 0 1 3005.dat
1 71 -90 -368 220 1 0 0 0 1 0 -0 0 1 3004.dat
1 71 -10 -368 -240 1 0 0 0 1 0 -0 0 1 3004.dat
1 71 0 -368 240 1 0 0 0 1 0 -0 0 1 3622.dat
1 71 80 -368 220 1 0 0 0 1 0 -0 0 1 3622.dat
1 71 110 -368 -220 1 0 0 0 1 0 -0 0 1 3004.dat
1 71 160 -368 180 1 0 0 0 1 0 -0 0 1 3005.dat
1 71 180 -368 -170 0 0 1 0 1 0 -1 0 0 3004.dat
1 71 180 -368 160 1 0 0 0 1 0 -0 0 1 3005.dat
1 71 200 -368 -140 1 0 0 0 1 0 -0 0 1 3005.dat
1 71 200 -368 120 1 0 0 0 1 0 -0 0 1 3005.dat
1 71 220 -368 -90 0 0 1 0 1 0 -1 0 0 3004.dat
1 71 -240 -376 -10 0 0 1 0 1 0 -1 0 0 3010.dat
1 71 -240 -376 70 0 0 1 0 1 0 -1 0 0 3004.dat
1 71 -200 -376 140 1 0 0 0 1 0 -0 0 1 3005.dat
1 71 -200 -360 160 1 0 0 0 1 0 -0 0 1 3024.dat
1 71 -180 -376 -180 1 0 0 0 1 0 -0 0 1 3005.dat
1 71 -120 -376 220 1 0 0 0 1 0 -0 0 1 3005.dat
1 71 -80 -376 -240 1 0 0 0 1 0 -0 0 1 3005.dat
1 71 -40 -376 -240 1 0 0 0 1 0 -0 0 1 3005.dat
1 71 20 -376 -240 1 0 0 0 1 0 -0 0 1 3005.dat
1 71 60 -376 -240 1 0 0 0 1 0 -0 0 1 3005.dat
1 71 120 -376 200 1 0 0 0 1 0 -0 0 1 3005.dat
1 71 140 -376 -200 1 0 0 0 1 0 -0 0 1 3005.dat
1 71 160 -360 -200 1 0 0 0 1 0 -0 0 1 3024.dat
1 71 200 -376 140 1 0 0 0 1 0 -0 0 1 3005.dat
1 71 220 -376 -120 1 0 0 0 1 0 -0 0 1 3005.dat
1 71 220 -376 90 0 0 1 0 1 0 -1 0 0 3004.dat
1 71 240 -376 -10 0 0 1 0 1 0 -1 0 0 3010.dat
1 71 -240 -384 -70 0 0 1 0 1 0 -1 0 0 3004.dat
1 71 -240 -384 40 1 0 0 0 1 0 -0 0 1 3005.dat
1 71 -220 -384 100 1 0 0 0 1 0 -0 0 1 3005.dat
1 71 -200 -384 -160 1 0 0 0 1 0 -0 0 1 3005.dat
1 71 -200 -368 160 1 0 0 0 1 0 -0 0 1 3024.dat
1 71 -160 -384 -200 1 0 0 0 1 0 -0 0 1 3005.dat
1 71 -130 -384 -220 1 0 0 0 1 0 -0 0 1 3004.dat
1 71 -60 -384 -240 1 0 0 0 1 0 -0 0 1 3005.dat
1 71 -50 -368 240 1 0 0 0 1 0 -0 0 1 3023.dat
1 71 40 -384 -240 1 0 0 0 1 0 -0 0 1 3005.dat
1 71 40 -384 240 1 0 0 0 1 0 -0 0 1 3005.dat
1 71 80 -384 -240 1 0 0 0 1 0 -0 0 1 3005.dat
1 71 140 -384 200 1 0 0 0 1 0 -0 0 1 3005.dat
1 71 160 -368 -200 1 0 0 0 1 0 -0 0 1 3024.dat
1 71 220 -384 60 1 0 0 0 1 0 -0 0 1 3005.dat
1 71 240 -368 -60 1 0 0 0 1 0 -0 0 1 3024.dat
1 71 240 -384 40 1 0 0 0 1 0 -0 0 1 3005.dat
1 71 -240 -392 -100 1 0 0 0 1 0 -0 0 1 3005.dat
1 71 -220 -392 -130 0 0 1 0 1 0 -1 0 0 3004.dat
1 71 -220 -392 120 1 0 0 0 1 0 -0 0 1 3005.dat
1 71 -180 -392 160 1 0 0 0 1 0 -0 0 1 3005.dat
1 71 -170 -376 180 1 0 0 0 1 0 -0 0 1 3023.dat
1 71 -140 -392 200 1 0 0 0 1 0 -0 0 1 3005.dat
1 71 -100 -392 -240 1 0 0 0 1 0 -0 0 1 3005.dat
1 71 -80 -392 220 1 0 0 0 1 0 -0 0 1 3622.dat
1 71 -10 -392 240 1 0 0 0 1 0 -0 0 1 3010.dat
1 71 -10 -392 -240 1 0 0 0 1 0 -0 0 1 3004.dat
1 71 80 -392 220 1 0 0 0 1 0 -0 0 1 3622.dat
1 71 110 -392 -220 1 0 0 0 1 0 -0 0 1 3004.dat
1 71 160 -392 -180 1 0 0 0 1 0 -0 0 1 3005.dat
1 71 160 -392 180 1 0 0 0 1 0 -0 0 1 3005.dat
1 71 180 -376 -170 0 0 1 0 1 0 -1 0 0 3023.dat
1 71 180 -392 160 1 0 0 0 1 0 -0 0 1 3005.dat
1 71 200 -392 -140 1 0 0 0 1 0 -0 0 1 3005.dat
1 71 200 -392 120 1 0 0 0 1 0 -0 0 1 3005.dat
1 71 220 -392 -80 0 0 1 0 1 0 -1 0 0 3622.dat
1 71 -240 -400 -10 0 0 1 0 1 0 -1 0 0 3010.dat
1 71 -240 -400 70 0 0 1 0 1 0 -1 0 0 3004.dat
1 71 -200 -400 140 1 0 0 0 1 0 -0 0 1 3005.dat
1 71 -180 -400 -180 1 0 0 0 1 0 -0 0 1 3005.dat
1 71 -160 -400 180 1 0 0 0 1 0 -0 0 1 3005.dat
1 71 -120 -400 200 1 0 0 0 1 0 -0 0 1 3005.dat
1 71 -80 -400 -240 1 0 0 0 1 0 -0 0 1 3005.dat
1 71 -40 -400 -240 1 0 0 0 1 0 -0 0 1 3005.dat
1 71 20 -400 -240 1 0 0 0 1 0 -0 0 1 3005.dat
1 71 60 -400 -240 1 0 0 0 1 0 -0 0 1 3005.dat
1 71 120 -400 200 1 0 0 0 1 0 -0 0 1 3005.dat
1 71 140 -400 -200 1 0 0 0 1 0 -0 0 1 3005.dat
1 71 180 -400 -160 1 0 0 0 1 0 -0 0 1 3005.dat
1 71 180 -400 140 1 0 0 0 1 0 -0 0 1 3005.dat
1 71 200 -400 -120 1 0 0 0 1 0 -0 0 1 3005.dat
1 71 220 -400 90 0 0 1 0 1 0 -1 0 0 3004.dat
1 71 240 -400 -10 0 0 1 0 1 0 -1 0 0 3010.dat
1 71 -240 -408 -70 0 0 1 0 1 0 -1 0 0 3004.dat
1 71 -240 -408 40 1 0 0 0 1 0 -0 0 1 3005.dat
1 71 -220 -408 100 1 0 0 0 1 0 -0 0 1 3005.dat
1 71 -200 -408 -160 1 0 0 0 1 0 -0 0 1 3005.dat
1 71 -160 -408 -200 1 0 0 0 1 0 -0 0 1 3005.dat
1 71 -130 -408 -220 1 0 0 0 1 0 -0 0 1 3004.dat
1 71 -60 -408 -240 1 0 0 0 1 0 -0 0 1 3005.dat
1 71 40 -408 -240 1 0 0 0 1 0 -0 0 1 3005.dat
1 71 40 -408 220 1 0 0 0 1 0 -0 0 1 3005.dat
1 71 80 -408 -240 1 0 0 0 1 0 -0 0 1 3005.dat
1 71 140 -408 180 1 0 0 0 1 0 -0 0 1 3005.dat
1 71 220 -408 50 0 0 1 0 1 0 -1 0 0 3004.dat
1 71 -240 -400 -100 1 0 0 0 1 0 -0 0 1 3024.dat
1 71 -220 -400 -130 0 0 1 0 1 0 -1 0 0 3023.dat
1 71 -220 -416 120 1 0 0 0 1 0 -0 0 1 3005.dat
1 71 -180 -416 160 1 0 0 0 1 0 -0 0 1 3005.dat
1 71 -140 -416 200 1 0 0 0 1 0 -0 0 1 3005.dat
1 71 -100 -400 -240 1 0 0 0 1 0 -0 0 1 3024.dat
1 71 -70 -416 220 1 0 0 0 1 0 -0 0 1 3010.dat
1 71 -10 -416 -240 1 0 0 0 1 0 -0 0 1 3004.dat
1 71 0 -400 240 1 0 0 0 1 0 -0 0 1 3623.dat
1 71 70 -416 220 1 0 0 0 1 0 -0 0 1 3004.dat
1 71 110 -416 -220 1 0 0 0 1 0 -0 0 1 3004.dat
1 71 100 -400 220 1 0 0 0 1 0 -0 0 1 3024.dat
1 71 160 -416 -180 1 0 0 0 1 0 -0 0 1 3005.dat
1 71 160 -400 180 1 0 0 0 1 0 -0 0 1 3024.dat
1 71 180 -400 160 1 0 0 0 1 0 -0 0 1 3024.dat
1 71 200 -416 -140 1 0 0 0 1 0 -0 0 1 3005.dat
1 71 200 -416 120 1 0 0 0 1 0 -0 0 1 3005.dat
1 71 220 -416 -80 0 0 1 0 1 0 -1 0 0 3622.dat
1 71 -240 -424 -10 0 0 1 0 1 0 -1 0 0 3010.dat
1 71 -240 -424 60 1 0 0 0 1 0 -0 0 1 3005.dat
1 71 -240 -408 80 1 0 0 0 1 0 -0 0 1 3024.dat
1 71 -220 -424 -110 0 0 1 0 1 0 -1 0 0 3004.dat
1 71 -200 -424 -140 1 0 0 0 1 0 -0 0 1 3005.dat
1 71 -200 -424 140 1 0 0 0 1 0 -0 0 1 3005.dat
1 71 -180 -424 -180 1 0 0 0 1 0 -0 0 1 3005.dat
1 71 -160 -424 180 1 0 0 0 1 0 -0 0 1 3005.dat
1 71 -120 -424 200 1 0 0 0 1 0 -0 0 1 3005.dat
1 71 -100 -424 -220 1 0 0 0 1 0 -0 0 1 3005.dat
1 71 -80 -424 -240 1 0 0 0 1 0 -0 0 1 3005.dat
1 71 -40 -424 -240 1 0 0 0 1 0 -0 0 1 3005.dat
1 71 -10 -408 240 1 0 0 0 1 0 -0 0 1 3023.dat
1 71 20 -424 -240 1 0 0 0 1 0 -0 0 1 3005.dat
1 71 20 -424 220 1 0 0 0 1 0 -0 0 1 3005.dat
1 71 60 -424 -240 1 0 0 0 1 0 -0 0 1 3005.dat
1 71 110 -424 200 1 0 0 0 1 0 -0 0 1 3004.dat
1 71 140 -424 -200 1 0 0 0 1 0 -0 0 1 3005.dat
1 71 160 -408 180 1 0 0 0 1 0 -0 0 1 3024.dat
1 71 180 -424 -160 1 0 0 0 1 0 -0 0 1 3005.dat
1 71 180 -424 140 1 0 0 0 1 0 -0 0 1 3005.dat
1 71 180 -408 160 1 0 0 0 1 0 -0 0 1 3024.dat
1 71 200 -424 -120 1 0 0 0 1 0 -0 0 1 3005.dat
1 71 200 -424 100 1 0 0 0 1 0 -0 0 1 3005.dat
1 71 220 -424 -10 0 0 1 0 1 0 -1 0 0 3010.dat
1 71 220 -424 80 1 0 0 0 1 0 -0 0 1 3005.dat
1 71 -240 -432 -70 0 0 1 0 1 0 -1 0 0 3004.dat
1 71 -240 -432 40 1 0 0 0 1 0 -0 0 1 3005.dat
1 71 -240 -416 80 1 0 0 0 1 0 -0 0 1 3024.dat
1 71 -220 -432 100 1 0 0 0 1 0 -0 0 1 3005.dat
1 71 -200 -432 -160 1 0 0 0 1 0 -0 0 1 3005.dat
1 71 -150 -432 -200 1 0 0 0 1 0 -0 0 1 3004.dat
1 71 -120 -432 -220 1 0 0 0 1 0 -0 0 1 3005.dat
1 71 -60 -432 -240 1 0 0 0 1 0 -0 0 1 3005.dat
1 71 -10 -432 220 1 0 0 0 1 0 -0 0 1 3004.dat
1 71 40 -432 -240 1 0 0 0 1 0 -0 0 1 3005.dat
1 71 40 -432 220 1 0 0 0 1 0 -0 0 1 3005.dat
1 71 80 -432 -220 1 0 0 0 1 0 -0 0 1 3005.dat
1 71 140 -432 180 1 0 0 0 1 0 -0 0 1 3005.dat
1 71 160 -432 160 1 0 0 0 1 0 -0 0 1 3005.dat
1 71 220 -432 50 0 0 1 0 1 0 -1 0 0 3004.dat
1 71 -220 -440 80 1 0 0 0 1 0 -0 0 1 3005.dat
1 71 -220 -424 120 1 0 0 0 1 0 -0 0 1 3024.dat
1 71 -180 -440 160 1 0 0 0 1 0 -0 0 1 3005.dat
1 71 -140 -424 200 1 0 0 0 1 0 -0 0 1 3024.dat
1 71 -70 -424 220 1 0 0 0 1 0 -0 0 1 3710.dat
1 71 -10 -440 -240 1 0 0 0 1 0 -0 0 1 3004.dat
1 71 70 -440 220 1 0 0 0 1 0 -0 0 1 3004.dat
1 71 100 -440 -220 1 0 0 0 1 0 -0 0 1 3005.dat
1 71 120 -424 -220 1 0 0 0 1 0 -0 0 1 3024.dat
1 71 160 -440 -180 1 0 0 0 1 0 -0 0 1 3005.dat
1 71 200 -424 -140 1 0 0 0 1 0 -0 0 1 3024.dat
1 71 200 -440 120 1 0 0 0 1 0 -0 0 1 3005.dat
1 71 220 -424 -80 0 0 1 0 1 0 -1 0 0 3623.dat
1 71 -240 -448 -10 0 0 1 0 1 0 -1 0 0 3010.dat
1 71 -240 -432 60 1 0 0 0 1 0 -0 0 1 3024.dat
1 71 -220 -448 -110 0 0 1 0 1 0 -1 0 0 3004.dat
1 71 -200 -448 -140 1 0 0 0 1 0 -0 0 1 3005.dat
1 71 -200 -448 130 0 0 1 0 1 0 -1 0 0 3004.dat
1 71 -180 -432 -180 1 0 0 0 1 0 -0 0 1 3024.dat
1 71 -160 -448 180 1 0 0 0 1 0 -0 0 1 3005.dat
1 71 -130 -432 200 1 0 0 0 1 0 -0 0 1 3023.dat
1 71 -100 -448 -220 1 0 0 0 1 0 -0 0 1 3005.dat
1 71 -70 -432 220 1 0 0 0 1 0 -0 0 1 3710.dat
1 71 -80 -432 -240 1 0 0 0 1 0 -0 0 1 3024.dat
1 71 -40 -448 -240 1 0 0 0 1 0 -0 0 1 3005.dat
1 71 20 -448 -240 1 0 0 0 1 0 -0 0 1 3005.dat
1 71 20 -448 220 1 0 0 0 1 0 -0 0 1 3005.dat
1 71 60 -432 -240 1 0 0 0 1 0 -0 0 1 3024.dat
1 71 110 -448 200 1 0 0 0 1 0 -0 0 1 3004.dat
1 71 130 -448 -200 1 0 0 0 1 0 -0 0 1 3004.dat
1 71 180 -448 -160 1 0 0 0 1 0 -0 0 1 3005.dat
1 71 180 -448 140 1 0 0 0 1 0 -0 0 1 3005.dat
1 71 200 -432 -130 0 0 1 0 1 0 -1 0 0 3023.dat
1 71 200 -448 100 1 0 0 0 1 0 -0 0 1 3005.dat
1 71 220 -432 -70 0 0 1 0 1 0 -1 0 0 3710.dat
1 71 220 -448 0 0 0 1 0 1 0 -1 0 0 3622.dat
1 71 220 -432 80 1 0 0 0 1 0 -0 0 1 3024.dat
1 71 -240 -456 -60 1 0 0 0 1 0 -0 0 1 3005.dat
1 71 -240 -456 40 1 0 0 0 1 0 -0 0 1 3005.dat
1 71 -240 -440 60 1 0 0 0 1 0 -0 0 1 3024.dat
1 71 -220 -456 -80 1 0 0 0 1 0 -0 0 1 3005.dat
1 71 -220 -456 100 1 0 0 0 1 0 -0 0 1 3005.dat
1 71 -170 -440 -180 1 0 0 0 1 0 -0 0 1 3023.dat
1 71 -180 -456 -160 1 0 0 0 1 0 -0 0 1 3005.dat
1 71 -140 -456 -200 1 0 0 0 1 0 -0 0 1 3005.dat
1 71 -140 -456 180 1 0 0 0 1 0 -0 0 1 3005.dat
1 71 -120 -456 -220 1 0 0 0 1 0 -0 0 1 3005.dat
1 71 -110 -456 200 1 0 0 0 1 0 -0 0 1 3004.dat
1 71 -70 -440 -240 1 0 0 0 1 0 -0 0 1 3023.dat
1 71 -50 -456 220 1 0 0 0 1 0 -0 0 1 3010.dat
1 71 0 -456 220 1 0 0 0 1 0 -0 0 1 3005.dat
1 71 40 -456 -240 1 0 0 0 1 0 -0 0 1 3005.dat
1 71 40 -456 220 1 0 0 0 1 0 -0 0 1 3005.dat
1 71 60 -440 -240 1 0 0 0 1 0 -0 0 1 3024.dat
1 71 80 -456 -220 1 0 0 0 1 0 -0 0 1 3005.dat
1 71 140 -456 180 1 0 0 0 1 0 -0 0 1 3005.dat
1 71 160 -456 160 1 0 0 0 1 0 -0 0 1 3005.dat
1 71 180 -456 -140 1 0 0 0 1 0 -0 0 1 3005.dat
1 71 200 -456 -110 0 0 1 0 1 0 -1 0 0 3004.dat
1 71 220 -456 -60 0 0 1 0 1 0 -1 0 0 3622.dat
1 71 220 -456 50 0 0 1 0 1 0 -1 0 0 3004.dat
1 71 220 -440 80 1 0 0 0 1 0 -0 0 1 3024.dat
1 71 -220 -464 70 0 0 1 0 1 0 -1 0 0 3004.dat
1 71 -180 -448 160 1 0 0 0 1 0 -0 0 1 3024.dat
1 71 -160 -464 -180 1 0 0 0 1 0 -0 0 1 3005.dat
1 71 -80 -464 -220 1 0 0 0 1 0 -0 0 1 3005.dat
1 71 -60 -448 -240 1 0 0 0 1 0 -0 0 1 3024.dat
1 71 -10 -464 -240 1 0 0 0 1 0 -0 0 1 3004.dat
1 71 60 -464 -220 1 0 0 0 1 0 -0 0 1 3005.dat
1 71 60 -464 220 1 0 0 0 1 0 -0 0 1 3005.dat
1 71 80 -464 200 1 0 0 0 1 0 -0 0 1 3005.dat
1 71 100 -464 -220 1 0 0 0 1 0 -0 0 1 3005.dat
1 71 160 -448 -180 1 0 0 0 1 0 -0 0 1 3024.dat
1 71 200 -464 80 1 0 0 0 1 0 -0 0 1 3005.dat
1 71 200 -448 120 1 0 0 0 1 0 -0 0 1 3024.dat
1 71 -240 -456 -10 0 0 1 0 1 0 -1 0 0 3710.dat
1 71 -220 -472 -100 1 0 0 0 1 0 -0 0 1 3005.dat
1 71 -200 -472 -130 0 0 1 0 1 0 -1 0 0 3004.dat
1 71 -200 -472 120 1 0 0 0 1 0 -0 0 1 3005.dat
1 71 -180 -472 140 1 0 0 0 1 0 -0 0 1 3005.dat
1 71 -180 -456 160 1 0 0 0 1 0 -0 0 1 3024.dat
1 71 -160 -456 180 1 0 0 0 1 0 -0 0 1 3024.dat
1 71 -100 -472 -220 1 0 0 0 1 0 -0 0 1 3005.dat
1 71 -50 -456 -240 1 0 0 0 1 0 -0 0 1 3023.dat
1 71 20 -456 -240 1 0 0 0 1 0 -0 0 1 3024.dat
1 71 20 -472 220 1 0 0 0 1 0 -0 0 1 3005.dat
1 71 100 -472 200 1 0 0 0 1 0 -0 0 1 3005.dat
1 71 120 -472 -200 1 0 0 0 1 0 -0 0 1 3005.dat
1 71 120 -472 180 1 0 0 0 1 0 -0 0 1 3005.dat
1 71 140 -472 -180 1 0 0 0 1 0 -0 0 1 3005.dat
1 71 160 -456 -170 0 0 1 0 1 0 -1 0 0 3023.dat
1 71 180 -472 120 1 0 0 0 1 0 -0 0 1 3005.dat
1 71 180 -456 140 1 0 0 0 1 0 -0 0 1 3024.dat
1 71 200 -472 100 1 0 0 0 1 0 -0 0 1 3005.dat
1 71 220 -472 0 0 0 1 0 1 0 -1 0 0 3622.dat
1 71 -240 -464 -10 0 0 1 0 1 0 -1 0 0 3710.dat
1 71 -220 -480 -70 0 0 1 0 1 0 -1 0 0 3004.dat
1 71 -220 -480 40 1 0 0 0 1 0 -0 0 1 3005.dat
1 71 -220 -464 100 1 0 0 0 1 0 -0 0 1 3024.dat
1 71 -180 -480 -160 1 0 0 0 1 0 -0 0 1 3005.dat
1 71 -160 -480 160 1 0 0 0 1 0 -0 0 1 3005.dat
1 71 -130 -480 -200 1 0 0 0 1 0 -0 0 1 3004.dat
1 71 -140 -480 180 1 0 0 0 1 0 -0 0 1 3005.dat
1 71 -100 -464 200 1 0 0 0 1 0 -0 0 1 3623.dat
1 71 -60 -480 -220 1 0 0 0 1 0 -0 0 1 3005.dat
1 71 -30 -464 220 1 0 0 0 1 0 -0 0 1 3710.dat
1 71 -40 -464 -240 1 0 0 0 1 0 -0 0 1 3024.dat
1 71 20 -464 -240 1 0 0 0 1 0 -0 0 1 3024.dat
1 71 40 -480 -220 1 0 0 0 1 0 -0 0 1 3005.dat
1 71 40 -480 220 1 0 0 0 1 0 -0 0 1 3005.dat
1 71 80 -480 -220 1 0 0 0 1 0 -0 0 1 3005.dat
1 71 140 -464 180 1 0 0 0 1 0 -0 0 1 3024.dat
1 71 160 -480 -160 1 0 0 0 1 0 -0 0 1 3005.dat
1 71 160 -464 160 1 0 0 0 1 0 -0 0 1 3024.dat
1 71 180 -480 -140 1 0 0 0 1 0 -0 0 1 3005.dat
1 71 180 -464 140 1 0 0 0 1 0 -0 0 1 3024.dat
1 71 200 -464 -100 0 0 1 0 1 0 -1 0 0 3623.dat
1 71 220 -464 -50 0 0 1 0 1 0 -1 0 0 3023.dat
1 71 220 -464 50 0 0 1 0 1 0 -1 0 0 3023.dat
1 71 -220 -488 -10 0 0 1 0 1 0 -1 0 0 3010.dat
1 71 -220 -488 70 0 0 1 0 1 0 -1 0 0 3004.dat
1 71 -200 -488 100 1 0 0 0 1 0 -0 0 1 3005.dat
1 71 -160 -488 -180 1 0 0 0 1 0 -0 0 1 3005.dat
1 71 -100 -472 200 1 0 0 0 1 0 -0 0 1 3623.dat
1 71 -80 -488 -220 1 0 0 0 1 0 -0 0 1 3005.dat
1 71 -30 -472 220 1 0 0 0 1 0 -0 0 1 3710.dat
1 71 -40 -488 -220 1 0 0 0 1 0 -0 0 1 3005.dat
1 71 -10 -472 -240 1 0 0 0 1 0 -0 0 1 3023.dat
1 71 20 -488 -220 1 0 0 0 1 0 -0 0 1 3005.dat
1 71 60 -488 -220 1 0 0 0 1 0 -0 0 1 3005.dat
1 71 70 -488 200 1 0 0 0 1 0 -0 0 1 3004.dat
1 71 100 -488 -200 1 0 0 0 1 0 -0 0 1 3005.dat
1 71 140 -488 160 1 0 0 0 1 0 -0 0 1 3005.dat
1 71 160 -488 140 1 0 0 0 1 0 -0 0 1 3005.dat
1 71 160 -472 160 1 0 0 0 1 0 -0 0 1 3024.dat
1 71 200 -472 -100 0 0 1 0 1 0 -1 0 0 3623.dat
1 71 200 -488 70 0 0 1 0 1 0 -1 0 0 3004.dat
1 71 220 -472 -50 0 0 1 0 1 0 -1 0 0 3023.dat
1 71 220 -472 40 1 0 0 0 1 0 -0 0 1 3024.dat
1 71 -220 -480 -100 1 0 0 0 1 0 -0 0 1 3024.dat
1 71 -200 -480 -130 0 0 1 0 1 0 -1 0 0 3023.dat
1 71 -200 -480 120 1 0 0 0 1 0 -0 0 1 3024.dat
1 71 -180 -496 140 1 0 0 0 1 0 -0 0 1 3005.dat
1 71 -120 -496 180 1 0 0 0 1 0 -0 0 1 3005.dat
1 71 -100 -480 -220 1 0 0 0 1 0 -0 0 1 3024.dat
1 71 -80 -496 200 1 0 0 0 1 0 -0 0 1 3622.dat
1 71 -10 -480 220 1 0 0 0 1 0 -0 0 1 3710.dat
1 71 -10 -496 -220 1 0 0 0 1 0 -0 0 1 3004.dat
1 71 100 -480 200 1 0 0 0 1 0 -0 0 1 3024.dat
1 71 120 -480 -200 1 0 0 0 1 0 -0 0 1 3024.dat
1 71 120 -496 180 1 0 0 0 1 0 -0 0 1 3005.dat
1 71 140 -496 -180 1 0 0 0 1 0 -0 0 1 3005.dat
1 71 180 -496 -120 1 0 0 0 1 0 -0 0 1 3005.dat
1 71 180 -496 120 1 0 0 0 1 0 -0 0 1 3005.dat
1 71 200 -496 -80 0 0 1 0 1 0 -1 0 0 3622.dat
1 71 200 -496 40 1 0 0 0 1 0 -0 0 1 3005.dat
1 71 200 -480 100 1 0 0 0 1 0 -0 0 1 3024.dat
1 71 220 -480 -10 0 0 1 0 1 0 -1 0 0 3710.dat
1 71 -220 -488 -70 0 0 1 0 1 0 -1 0 0 3023.dat
1 71 -220 -504 40 1 0 0 0 1 0 -0 0 1 3005.dat
1 71 -200 -504 -110 0 0 1 0 1 0 -1 0 0 3004.dat
1 71 -200 -488 120 1 0 0 0 1 0 -0 0 1 3024.dat
1 71 -180 -488 -150 0 0 1 0 1 0 -1 0 0 3023.dat
1 71 -160 -488 160 1 0 0 0 1 0 -0 0 1 3024.dat
1 71 -140 -504 -180 1 0 0 0 1 0 -0 0 1 3005.dat
1 71 -140 -488 180 1 0 0 0 1 0 -0 0 1 3024.dat
1 71 -110 -504 -200 1 0 0 0 1 0 -0 0 1 3004.dat
1 71 -60 -504 -220 1 0 0 0 1 0 -0 0 1 3005.dat
1 71 -40 -504 200 1 0 0 0 1 0 -0 0 1 3005.dat
1 71 -10 -488 220 1 0 0 0 1 0 -0 0 1 3023.dat
1 71 30 -504 200 1 0 0 0 1 0 -0 0 1 3004.dat
1 71 40 -504 -220 1 0 0 0 1 0 -0 0 1 3005.dat
1 71 80 -488 -220 1 0 0 0 1 0 -0 0 1 3024.dat
1 71 100 -504 180 1 0 0 0 1 0 -0 0 1 3005.dat
1 71 120 -488 -200 1 0 0 0 1 0 -0 0 1 3024.dat
1 71 160 -488 -160 1 0 0 0 1 0 -0 0 1 3024.dat
1 71 180 -488 -140 1 0 0 0 1 0 -0 0 1 3024.dat
1 71 180 -504 100 1 0 0 0 1 0 -0 0 1 3005.dat
1 71 200 -504 -40 1 0 0 0 1 0 -0 0 1 3005.dat
1 71 220 -488 0 0 0 1 0 1 0 -1 0 0 3623.dat
1 71 -220 -496 -50 0 0 1 0 1 0 -1 0 0 3710.dat
1 71 -220 -512 10 0 0 1 0 1 0 -1 0 0 3004.dat
1 71 -220 -496 60 1 0 0 0 1 0 -0 0 1 3024.dat
1 71 -200 -512 90 0 0 1 0 1 0 -1 0 0 3004.dat
1 71 -180 -512 -140 1 0 0 0 1 0 -0 0 1 3005.dat
1 71 -180 -512 120 1 0 0 0 1 0 -0 0 1 3005.dat
1 71 -160 -512 -160 1 0 0 0 1 0 -0 0 1 3005.dat
1 71 -150 -496 160 1 0 0 0 1 0 -0 0 1 3023.dat
1 71 -80 -496 -220 1 0 0 0 1 0 -0 0 1 3024.dat
1 71 -40 -512 -220 1 0 0 0 1 0 -0 0 1 3005.dat
1 71 -10 -512 200 1 0 0 0 1 0 -0 0 1 3004.dat
1 71 20 -512 -220 1 0 0 0 1 0 -0 0 1 3005.dat
1 71 60 -496 -220 1 0 0 0 1 0 -0 0 1 3024.dat
1 71 60 -512 200 1 0 0 0 1 0 -0 0 1 3005.dat
1 71 90 -512 -200 1 0 0 0 1 0 -0 0 1 3004.dat
1 71 80 -496 200 1 0 0 0 1 0 -0 0 1 3024.dat
1 71 120 -512 -180 1 0 0 0 1 0 -0 0 1 3005.dat
1 71 140 -512 160 1 0 0 0 1 0 -0 0 1 3005.dat
1 71 160 -496 -150 0 0 1 0 1 0 -1 0 0 3023.dat
1 71 160 -496 140 1 0 0 0 1 0 -0 0 1 3024.dat
1 71 200 -512 0 0 0 1 0 1 0 -1 0 0 3622.dat
1 71 200 -512 60 1 0 0 0 1 0 -0 0 1 3005.dat
1 71 200 -496 80 1 0 0 0 1 0 -0 0 1 3024.dat
1 71 -220 -504 -40 0 0 1 0 1 0 -1 0 0 3623.dat
1 71 -220 -504 60 1 0 0 0 1 0 -0 0 1 3024.dat
1 71 -200 -520 -80 1 0 0 0 1 0 -0 0 1 3005.dat
1 71 -160 -520 140 1 0 0 0 1 0 -0 0 1 3005.dat
1 71 -140 -520 160 1 0 0 0 1 0 -0 0 1 3005.dat
1 71 -110 -520 180 1 0 0 0 1 0 -0 0 1 3004.dat
1 71 -80 -520 -200 1 0 0 0 1 0 -0 0 1 3005.dat
1 71 -70 -504 200 1 0 0 0 1 0 -0 0 1 3023.dat
1 71 -10 -520 -220 1 0 0 0 1 0 -0 0 1 3004.dat
1 71 60 -504 -220 1 0 0 0 1 0 -0 0 1 3024.dat
1 71 80 -504 200 1 0 0 0 1 0 -0 0 1 3024.dat
1 71 120 -520 160 1 0 0 0 1 0 -0 0 1 3005.dat
1 71 140 -520 -160 1 0 0 0 1 0 -0 0 1 3005.dat
1 71 160 -520 -140 1 0 0 0 1 0 -0 0 1 3005.dat
1 71 160 -520 120 1 0 0 0 1 0 -0 0 1 3005.dat
1 71 160 -504 140 1 0 0 0 1 0 -0 0 1 3024.dat
1 71 180 -520 -110 0 0 1 0 1 0 -1 0 0 3004.dat
1 71 200 -504 -70 0 0 1 0 1 0 -1 0 0 3023.dat
1 71 200 -520 40 1 0 0 0 1 0 -0 0 1 3005.dat
1 71 200 -504 80 1 0 0 0 1 0 -0 0 1 3024.dat
1 71 -220 -512 -40 0 0 1 0 1 0 -1 0 0 3623.dat
1 71 -220 -512 40 1 0 0 0 1 0 -0 0 1 3024.dat
1 71 -200 -528 -100 1 0 0 0 1 0 -0 0 1 3005.dat
1 71 -200 -528 60 1 0 0 0 1 0 -0 0 1 3005.dat
1 71 -180 -528 -120 1 0 0 0 1 0 -0 0 1 3005.dat
1 71 -130 -512 -180 1 0 0 0 1 0 -0 0 1 3023.dat
1 71 -100 -528 -200 1 0 0 0 1 0 -0 0 1 3005.dat
1 71 -60 -512 200 1 0 0 0 1 0 -0 0 1 3623.dat
1 71 -60 -512 -220 1 0 0 0 1 0 -0 0 1 3024.dat
1 71 30 -528 200 1 0 0 0 1 0 -0 0 1 3004.dat
1 71 40 -512 -220 1 0 0 0 1 0 -0 0 1 3024.dat
1 71 60 -528 -200 1 0 0 0 1 0 -0 0 1 3005.dat
1 71 80 -528 180 1 0 0 0 1 0 -0 0 1 3005.dat
1 71 100 -512 180 1 0 0 0 1 0 -0 0 1 3024.dat
1 71 140 -528 140 1 0 0 0 1 0 -0 0 1 3005.dat
1 71 180 -528 80 1 0 0 0 1 0 -0 0 1 3005.dat
1 71 180 -512 100 1 0 0 0 1 0 -0 0 1 3024.dat
1 71 200 -512 -60 0 0 1 0 1 0 -1 0 0 3623.dat
1 71 -220 -520 -10 0 0 1 0 1 0 -1 0 0 3710.dat
1 71 -200 -536 -60 1 0 0 0 1 0 -0 0 1 3005.dat
1 71 -200 -536 40 1 0 0 0 1 0 -0 0 1 3005.dat
1 71 -200 -520 80 1 0 0 0 1 0 -0 0 1 3024.dat
1 71 -180 -520 -140 1 0 0 0 1 0 -0 0 1 3024.dat
1 71 -180 -536 100 1 0 0 0 1 0 -0 0 1 3005.dat
1 71 -180 -520 120 1 0 0 0 1 0 -0 0 1 3024.dat
1 71 -160 -520 -160 1 0 0 0 1 0 -0 0 1 3024.dat
1 71 -130 -520 -180 1 0 0 0 1 0 -0 0 1 3023.dat
1 71 -80 -536 180 1 0 0 0 1 0 -0 0 1 3005.dat
1 71 -60 -536 -200 1 0 0 0 1 0 -0 0 1 3005.dat
1 71 -30 -520 200 1 0 0 0 1 0 -0 0 1 3710.dat
1 71 -40 -520 -220 1 0 0 0 1 0 -0 0 1 3024.dat
1 71 20 -520 -220 1 0 0 0 1 0 -0 0 1 3024.dat
1 71 40 -536 -200 1 0 0 0 1 0 -0 0 1 3005.dat
1 71 60 -536 180 1 0 0 0 1 0 -0 0 1 3005.dat
1 71 80 -520 -200 1 0 0 0 1 0 -0 0 1 3024.dat
1 71 100 -536 -180 1 0 0 0 1 0 -0 0 1 3005.dat
1 71 100 -520 180 1 0 0 0 1 0 -0 0 1 3024.dat
1 71 120 -520 -180 1 0 0 0 1 0 -0 0 1 3024.dat
1 71 180 -536 -80 1 0 0 0 1 0 -0 0 1 3005.dat
1 71 180 -536 60 1 0 0 0 1 0 -0 0 1 3005.dat
1 71 180 -520 100 1 0 0 0 1 0 -0 0 1 3024.dat
1 71 200 -520 -30 0 0 1 0 1 0 -1 0 0 3710.dat
1 71 200 -520 20 1 0 0 0 1 0 -0 0 1 3024.dat
1 71 -200 -544 -80 1 0 0 0 1 0 -0 0 1 3005.dat
1 71 -200 -544 -10 0 0 1 0 1 0 -1 0 0 3010.dat
1 71 -200 -528 80 1 0 0 0 1 0 -0 0 1 3024.dat
1 71 -180 -528 120 1 0 0 0 1 0 -0 0 1 3024.dat
1 71 -160 -544 -140 1 0 0 0 1 0 -0 0 1 3005.dat
1 71 -160 -528 140 1 0 0 0 1 0 -0 0 1 3024.dat
1 71 -140 -544 -160 1 0 0 0 1 0 -0 0 1 3005.dat
1 71 -130 -528 160 1 0 0 0 1 0 -0 0 1 3023.dat
1 71 -120 -544 -180 1 0 0 0 1 0 -0 0 1 3005.dat
1 71 -100 -528 180 1 0 0 0 1 0 -0 0 1 3024.dat
1 71 -80 -544 -200 1 0 0 0 1 0 -0 0 1 3005.dat
1 71 -60 -544 180 1 0 0 0 1 0 -0 0 1 3005.dat
1 71 -10 -544 -200 1 0 0 0 1 0 -0 0 1 3010.dat
1 71 -20 -528 200 1 0 0 0 1 0 -0 0 1 3623.dat
1 71 80 -528 -200 1 0 0 0 1 0 -0 0 1 3024.dat
1 71 100 -544 160 1 0 0 0 1 0 -0 0 1 3005.dat
1 71 120 -528 -180 1 0 0 0 1 0 -0 0 1 3024.dat
1 71 120 -528 160 1 0 0 0 1 0 -0 0 1 3024.dat
1 71 140 -528 -160 1 0 0 0 1 0 -0 0 1 3024.dat
1 71 160 -528 -130 0 0 1 0 1 0 -1 0 0 3023.dat
1 71 160 -544 100 1 0 0 0 1 0 -0 0 1 3005.dat
1 71 160 -528 120 1 0 0 0 1 0 -0 0 1 3024.dat
1 71 180 -528 -100 1 0 0 0 1 0 -0 0 1 3024.dat
1 71 180 -544 -60 1 0 0 0 1 0 -0 0 1 3005.dat
1 71 200 -528 -10 0 0 1 0 1 0 -1 0 0 3710.dat
1 71 200 -528 40 1 0 0 0 1 0 -0 0 1 3024.dat
1 71 -200 -536 60 1 0 0 0 1 0 -0 0 1 3024.dat
1 71 -180 -536 -110 0 0 1 0 1 0 -1 0 0 3023.dat
1 71 -180 -552 80 1 0 0 0 1 0 -0 0 1 3005.dat
1 71 -160 -552 120 1 0 0 0 1 0 -0 0 1 3005.dat
1 71 -140 -552 140 1 0 0 0 1 0 -0 0 1 3005.dat
1 71 -120 -552 160 1 0 0 0 1 0 -0 0 1 3005.dat
1 71 -100 -552 -180 1 0 0 0 1 0 -0 0 1 3005.dat
1 71 -100 -536 180 1 0 0 0 1 0 -0 0 1 3024.dat
1 71 -40 -552 180 1 0 0 0 1 0 -0 0 1 3005.dat
1 71 -10 -536 200 1 0 0 0 1 0 -0 0 1 3023.dat
1 71 30 -552 180 1 0 0 0 1 0 -0 0 1 3004.dat
1 71 60 -536 -200 1 0 0 0 1 0 -0 0 1 3024.dat
1 71 80 -552 -180 1 0 0 0 1 0 -0 0 1 3005.dat
1 71 80 -536 180 1 0 0 0 1 0 -0 0 1 3024.dat
1 71 120 -552 -160 1 0 0 0 1 0 -0 0 1 3005.dat
1 71 120 -536 160 1 0 0 0 1 0 -0 0 1 3024.dat
1 71 140 -552 -140 1 0 0 0 1 0 -0 0 1 3005.dat
1 71 140 -536 140 1 0 0 0 1 0 -0 0 1 3024.dat
1 71 160 -552 -120 1 0 0 0 1 0 -0 0 1 3005.dat
1 71 160 -536 120 1 0 0 0 1 0 -0 0 1 3024.dat
1 71 180 -536 -100 1 0 0 0 1 0 -0 0 1 3024.dat
1 71 180 -552 -40 1 0 0 0 1 0 -0 0 1 3005.dat
1 71 180 -552 30 0 0 1 0 1 0 -1 0 0 3004.dat
1 71 180 -536 80 1 0 0 0 1 0 -0 0 1 3024.dat
1 71 200 -536 -10 0 0 1 0 1 0 -1 0 0 3023.dat
1 71 -200 -544 -60 1 0 0 0 1 0 -0 0 1 3024.dat
1 71 -200 -544 50 0 0 1 0 1 0 -1 0 0 3023.dat
1 71 -180 -544 -110 0 0 1 0 1 0 -1 0 0 3023.dat
1 71 -180 -544 100 1 0 0 0 1 0 -0 0 1 3024.dat
1 71 -100 -560 160 1 0 0 0 1 0 -0 0 1 3005.dat
1 71 -80 -544 180 1 0 0 0 1 0 -0 0 1 3024.dat
1 71 -60 -544 -200 1 0 0 0 1 0 -0 0 1 3024.dat
1 71 -10 -560 180 1 0 0 0 1 0 -0 0 1 3004.dat
1 71 50 -544 -200 1 0 0 0 1 0 -0 0 1 3023.dat
1 71 70 -544 180 1 0 0 0 1 0 -0 0 1 3023.dat
1 71 100 -544 -180 1 0 0 0 1 0 -0 0 1 3024.dat
1 71 120 -560 140 1 0 0 0 1 0 -0 0 1 3005.dat
1 71 140 -560 120 1 0 0 0 1 0 -0 0 1 3005.dat
1 71 160 -560 -100 1 0 0 0 1 0 -0 0 1 3005.dat
1 71 180 -544 -80 1 0 0 0 1 0 -0 0 1 3024.dat
1 71 180 -560 -10 0 0 1 0 1 0 -1 0 0 3004.dat
1 71 180 -544 70 0 0 1 0 1 0 -1 0 0 3023.dat
1 71 -200 -552 -30 0 0 1 0 1 0 -1 0 0 3710.dat
1 71 -200 -552 30 0 0 1 0 1 0 -1 0 0 3023.dat
1 71 -180 -552 -90 0 0 1 0 1 0 -1 0 0 3023.dat
1 71 -180 -568 60 1 0 0 0 1 0 -0 0 1 3005.dat
1 71 -160 -552 -130 0 0 1 0 1 0 -1 0 0 3023.dat
1 71 -160 -568 100 1 0 0 0 1 0 -0 0 1 3005.dat
1 71 -130 -552 -160 1 0 0 0 1 0 -0 0 1 3023.dat
1 71 -80 -568 -180 1 0 0 0 1 0 -0 0 1 3005.dat
1 71 -70 -552 180 1 0 0 0 1 0 -0 0 1 3023.dat
1 71 -30 -552 -200 1 0 0 0 1 0 -0 0 1 3710.dat
1 71 30 -552 -200 1 0 0 0 1 0 -0 0 1 3023.dat
1 71 60 -568 -180 1 0 0 0 1 0 -0 0 1 3005.dat
1 71 60 -552 180 1 0 0 0 1 0 -0 0 1 3024.dat
1 71 80 -568 160 1 0 0 0 1 0 -0 0 1 3005.dat
1 71 100 -568 -160 1 0 0 0 1 0 -0 0 1 3005.dat
1 71 100 -552 160 1 0 0 0 1 0 -0 0 1 3024.dat
1 71 160 -568 80 1 0 0 0 1 0 -0 0 1 3005.dat
1 71 160 -552 100 1 0 0 0 1 0 -0 0 1 3024.dat
1 71 180 -552 -70 0 0 1 0 1 0 -1 0 0 3023.dat
1 71 180 -552 60 1 0 0 0 1 0 -0 0 1 3024.dat
1 71 -200 -560 -10 0 0 1 0 1 0 -1 0 0 3710.dat
1 71 -180 -560 -80 0 0 1 0 1 0 -1 0 0 3623.dat
1 71 -180 -576 40 1 0 0 0 1 0 -0 0 1 3005.dat
1 71 -180 -560 80 1 0 0 0 1 0 -0 0 1 3024.dat
1 71 -160 -560 -120 1 0 0 0 1 0 -0 0 1 3024.dat
1 71 -140 -560 -140 1 0 0 0 1 0 -0 0 1 3024.dat
1 71 -140 -576 120 1 0 0 0 1 0 -0 0 1 3005.dat
1 71 -130 -560 140 1 0 0 0 1 0 -0 0 1 3023.dat
1 71 -120 -560 -160 1 0 0 0 1 0 -0 0 1 3024.dat
1 71 -100 -560 -180 1 0 0 0 1 0 -0 0 1 3024.dat
1 71 -80 -576 160 1 0 0 0 1 0 -0 0 1 3005.dat
1 71 -60 -576 -180 1 0 0 0 1 0 -0 0 1 3005.dat
1 71 -50 -560 180 1 0 0 0 1 0 -0 0 1 3023.dat
1 71 -10 -560 -200 1 0 0 0 1 0 -0 0 1 3710.dat
1 71 30 -560 180 1 0 0 0 1 0 -0 0 1 3023.dat
1 71 40 -576 -180 1 0 0 0 1 0 -0 0 1 3005.dat
1 71 60 -576 160 1 0 0 0 1 0 -0 0 1 3005.dat
1 71 80 -560 -180 1 0 0 0 1 0 -0 0 1 3024.dat
1 71 100 -576 140 1 0 0 0 1 0 -0 0 1 3005.dat
1 71 120 -576 -140 1 0 0 0 1 0 -0 0 1 3005.dat
1 71 140 -576 -120 1 0 0 0 1 0 -0 0 1 3005.dat
1 71 140 -576 100 1 0 0 0 1 0 -0 0 1 3005.dat
1 71 160 -576 -80 1 0 0 0 1 0 -0 0 1 3005.dat
1 71 160 -576 60 1 0 0 0 1 0 -0 0 1 3005.dat
1 71 180 -560 -50 0 0 1 0 1 0 -1 0 0 3023.dat
1 71 180 -560 30 0 0 1 0 1 0 -1 0 0 3023.dat
1 71 -180 -568 -50 0 0 1 0 1 0 -1 0 0 3710.dat
1 71 -180 -584 10 0 0 1 0 1 0 -1 0 0 3004.dat
1 71 -160 -568 -110 0 0 1 0 1 0 -1 0 0 3023.dat
1 71 -160 -584 80 1 0 0 0 1 0 -0 0 1 3005.dat
1 71 -140 -568 -140 1 0 0 0 1 0 -0 0 1 3024.dat
1 71 -110 -568 -160 1 0 0 0 1 0 -0 0 1 3023.dat
1 71 -120 -568 140 1 0 0 0 1 0 -0 0 1 3024.dat
1 71 -100 -568 160 1 0 0 0 1 0 -0 0 1 3024.dat
1 71 -60 -584 160 1 0 0 0 1 0 -0 0 1 3005.dat
1 71 -10 -584 -180 1 0 0 0 1 0 -0 0 1 3010.dat
1 71 -10 -568 180 1 0 0 0 1 0 -0 0 1 3710.dat
1 71 40 -584 160 1 0 0 0 1 0 -0 0 1 3005.dat
1 71 80 -584 -160 1 0 0 0 1 0 -0 0 1 3005.dat
1 71 120 -584 120 1 0 0 0 1 0 -0 0 1 3005.dat
1 71 160 -568 -100 1 0 0 0 1 0 -0 0 1 3024.dat
1 71 160 -584 -60 1 0 0 0 1 0 -0 0 1 3005.dat
1 71 160 -584 40 1 0 0 0 1 0 -0 0 1 3005.dat
1 71 180 -568 -10 0 0 1 0 1 0 -1 0 0 3710.dat
1 71 -180 -576 -40 0 0 1 0 1 0 -1 0 0 3623.dat
1 71 -180 -576 60 1 0 0 0 1 0 -0 0 1 3024.dat
1 71 -160 -576 -90 0 0 1 0 1 0 -1 0 0 3023.dat
1 71 -160 -576 100 1 0 0 0 1 0 -0 0 1 3024.dat
1 71 -140 -592 -120 1 0 0 0 1 0 -0 0 1 3005.dat
1 71 -120 -592 -140 1 0 0 0 1 0 -0 0 1 3005.dat
1 71 -110 -576 140 1 0 0 0 1 0 -0 0 1 3023.dat
1 71 -90 -576 -160 1 0 0 0 1 0 -0 0 1 3023.dat
1 71 -10 -592 160 1 0 0 0 1 0 -0 0 1 3010.dat
1 71 60 -576 -180 1 0 0 0 1 0 -0 0 1 3024.dat
1 71 80 -592 140 1 0 0 0 1 0 -0 0 1 3005.dat
1 71 100 -576 -160 1 0 0 0 1 0 -0 0 1 3024.dat
1 71 140 -592 -100 1 0 0 0 1 0 -0 0 1 3005.dat
1 71 140 -592 80 1 0 0 0 1 0 -0 0 1 3005.dat
1 71 160 -592 -10 0 0 1 0 1 0 -1 0 0 3010.dat
1 71 -180 -584 -30 0 0 1 0 1 0 -1 0 0 3023.dat
1 71 -180 -584 40 1 0 0 0 1 0 -0 0 1 3024.dat
1 71 -160 -584 -80 0 0 1 0 1 0 -1 0 0 3623.dat
1 71 -160 -600 60 1 0 0 0 1 0 -0 0 1 3005.dat
1 71 -140 -584 100 1 0 0 0 1 0 -0 0 1 3024.dat
1 71 -120 -584 120 1 0 0 0 1 0 -0 0 1 3024.dat
1 71 -80 -584 -160 1 0 0 0 1 0 -0 0 1 3623.dat
1 71 -90 -584 140 1 0 0 0 1 0 -0 0 1 3023.dat
1 71 40 -584 -180 1 0 0 0 1 0 -0 0 1 3024.dat
1 71 60 -600 -160 1 0 0 0 1 0 -0 0 1 3005.dat
1 71 60 -584 160 1 0 0 0 1 0 -0 0 1 3024.dat
1 71 100 -584 -140 1 0 0 0 1 0 -0 0 1 3024.dat
1 71 100 -584 140 1 0 0 0 1 0 -0 0 1 3024.dat
1 71 120 -584 -120 1 0 0 0 1 0 -0 0 1 3024.dat
1 71 140 -600 -80 1 0 0 0 1 0 -0 0 1 3005.dat
1 71 140 -584 100 1 0 0 0 1 0 -0 0 1 3024.dat
1 71 160 -584 60 1 0 0 0 1 0 -0 0 1 3024.dat
1 71 -160 -592 -50 0 0 1 0 1 0 -1 0 0 3710.dat
1 71 -160 -608 20 0 0 1 0 1 0 -1 0 0 3622.dat
1 71 -140 -608 -100 1 0 0 0 1 0 -0 0 1 3005.dat
1 71 -140 -608 80 1 0 0 0 1 0 -0 0 1 3005.dat
1 71 -140 -592 100 1 0 0 0 1 0 -0 0 1 3024.dat
1 71 -120 -592 120 1 0 0 0 1 0 -0 0 1 3024.dat
1 71 -100 -608 -140 1 0 0 0 1 0 -0 0 1 3005.dat
1 71 -80 -592 140 1 0 0 0 1 0 -0 0 1 3623.dat
1 71 -50 -592 -160 1 0 0 0 1 0 -0 0 1 3710.dat
1 71 20 -608 -160 1 0 0 0 1 0 -0 0 1 3622.dat
1 71 40 -592 160 1 0 0 0 1 0 -0 0 1 3024.dat
1 71 60 -592 140 1 0 0 0 1 0 -0 0 1 3024.dat
1 71 80 -608 -140 1 0 0 0 1 0 -0 0 1 3005.dat
1 71 100 -592 -140 1 0 0 0 1 0 -0 0 1 3024.dat
1 71 100 -592 120 1 0 0 0 1 0 -0 0 1 3024.dat
1 71 120 -592 -120 1 0 0 0 1 0 -0 0 1 3024.dat
1 71 120 -592 100 1 0 0 0 1 0 -0 0 1 3024.dat
1 71 140 -608 -60 1 0 0 0 1 0 -0 0 1 3005.dat
1 71 140 -608 60 1 0 0 0 1 0 -0 0 1 3005.dat
1 71 160 -592 40 1 0 0 0 1 0 -0 0 1 3024.dat
1 71 -160 -600 -40 0 0 1 0 1 0 -1 0 0 3623.dat
1 71 -140 -616 -80 1 0 0 0 1 0 -0 0 1 3005.dat
1 71 -120 -600 -120 1 0 0 0 1 0 -0 0 1 3024.dat
1 71 -120 -600 100 1 0 0 0 1 0 -0 0 1 3024.dat
1 71 -100 -600 120 1 0 0 0 1 0 -0 0 1 3024.dat
1 71 -80 -616 -140 1 0 0 0 1 0 -0 0 1 3005.dat
1 71 -50 -600 140 1 0 0 0 1 0 -0 0 1 3710.dat
1 71 -40 -600 -160 1 0 0 0 1 0 -0 0 1 3623.dat
1 71 10 -616 140 1 0 0 0 1 0 -0 0 1 3004.dat
1 71 50 -600 140 1 0 0 0 1 0 -0 0 1 3023.dat
1 71 80 -616 120 1 0 0 0 1 0 -0 0 1 3005.dat
1 71 100 -600 -120 1 0 0 0 1 0 -0 0 1 3024.dat
1 71 100 -600 120 1 0 0 0 1 0 -0 0 1 3024.dat
1 71 120 -600 -100 1 0 0 0 1 0 -0 0 1 3024.dat
1 71 120 -616 80 1 0 0 0 1 0 -0 0 1 3005.dat
1 71 120 -600 100 1 0 0 0 1 0 -0 0 1 3024.dat
1 71 140 -616 -10 0 0 1 0 1 0 -1 0 0 3010.dat
1 71 140 -600 40 1 0 0 0 1 0 -0 0 1 3024.dat
1 71 -160 -608 -30 0 0 1 0 1 0 -1 0 0 3023.dat
1 71 -140 -624 -60 1 0 0 0 1 0 -0 0 1 3005.dat
1 71 -140 -608 60 1 0 0 0 1 0 -0 0 1 3024.dat
1 71 -120 -608 -110 0 0 1 0 1 0 -1 0 0 3023.dat
1 71 -120 -608 100 1 0 0 0 1 0 -0 0 1 3024.dat
1 71 -90 -608 120 1 0 0 0 1 0 -0 0 1 3023.dat
1 71 -60 -624 -140 1 0 0 0 1 0 -0 0 1 3005.dat
1 71 -40 -608 140 1 0 0 0 1 0 -0 0 1 3623.dat
1 71 -30 -608 -160 1 0 0 0 1 0 -0 0 1 3023.dat
1 71 40 -608 140 1 0 0 0 1 0 -0 0 1 3024.dat
1 71 60 -608 -140 1 0 0 0 1 0 -0 0 1 3024.dat
1 71 60 -624 120 1 0 0 0 1 0 -0 0 1 3005.dat
1 71 100 -608 -120 1 0 0 0 1 0 -0 0 1 3024.dat
1 71 100 -608 100 1 0 0 0 1 0 -0 0 1 3024.dat
1 71 120 -608 -90 0 0 1 0 1 0 -1 0 0 3023.dat
1 71 140 -608 40 1 0 0 0 1 0 -0 0 1 3024.dat
1 71 -140 -616 -10 0 0 1 0 1 0 -1 0 0 3710.dat
1 71 -140 -616 50 0 0 1 0 1 0 -1 0 0 3023.dat
1 71 -120 -616 -100 1 0 0 0 1 0 -0 0 1 3024.dat
1 71 -120 -616 80 1 0 0 0 1 0 -0 0 1 3024.dat
1 71 -100 -616 -120 1 0 0 0 1 0 -0 0 1 3024.dat
1 71 -100 -616 100 1 0 0 0 1 0 -0 0 1 3024.dat
1 71 -70 -616 120 1 0 0 0 1 0 -0 0 1 3023.dat
1 71 -10 -616 -140 1 0 0 0 1 0 -0 0 1 3710.dat
1 71 -30 -616 140 1 0 0 0 1 0 -0 0 1 3023.dat
1 71 50 -616 -140 1 0 0 0 1 0 -0 0 1 3023.dat
1 71 40 -632 120 1 0 0 0 1 0 -0 0 1 3005.dat
1 71 80 -616 -120 1 0 0 0 1 0 -0 0 1 3024.dat
1 71 90 -616 100 1 0 0 0 1 0 -0 0 1 3023.dat
1 71 100 -616 -100 1 0 0 0 1 0 -0 0 1 3024.dat
1 71 100 -616 80 1 0 0 0 1 0 -0 0 1 3024.dat
1 71 120 -616 -70 0 0 1 0 1 0 -1 0 0 3023.dat
1 71 120 -632 40 1 0 0 0 1 0 -0 0 1 3005.dat
1 71 120 -616 60 1 0 0 0 1 0 -0 0 1 3024.dat
1 71 -140 -624 -10 0 0 1 0 1 0 -1 0 0 3710.dat
1 71 -140 -624 40 1 0 0 0 1 0 -0 0 1 3024.dat
1 71 -120 -624 -80 1 0 0 0 1 0 -0 0 1 3024.dat
1 71 -120 -624 70 0 0 1 0 1 0 -1 0 0 3023.dat
1 71 -90 -624 -120 1 0 0 0 1 0 -0 0 1 3023.dat
1 71 -100 -624 -100 1 0 0 0 1 0 -0 0 1 3024.dat
1 71 -100 -624 90 0 0 1 0 1 0 -1 0 0 3023.dat
1 71 -80 -624 100 1 0 0 0 1 0 -0 0 1 3024.dat
1 71 -30 -624 120 1 0 0 0 1 0 -0 0 1 3710.dat
1 71 -10 -624 -140 1 0 0 0 1 0 -0 0 1 3710.dat
1 71 20 -624 120 1 0 0 0 1 0 -0 0 1 3024.dat
1 71 40 -624 -140 1 0 0 0 1 0 -0 0 1 3024.dat
1 71 70 -624 -120 1 0 0 0 1 0 -0 0 1 3023.dat
1 71 90 -624 -100 1 0 0 0 1 0 -0 0 1 3023.dat
1 71 80 -624 100 1 0 0 0 1 0 -0 0 1 3024.dat
1 71 100 -624 -80 1 0 0 0 1 0 -0 0 1 3024.dat
1 71 100 -624 80 1 0 0 0 1 0 -0 0 1 3024.dat
1 71 120 -624 -30 0 0 1 0 1 0 -1 0 0 3710.dat
1 71 120 -624 20 1 0 0 0 1 0 -0 0 1 3024.dat
1 71 120 -624 60 1 0 0 0 1 0 -0 0 1 3024.dat
1 71 -130 -632 -10 1 0 0 0 1 0 -0 0 1 3022.dat
1 71 -120 -632 -60 0 0 1 0 1 0 -1 0 0 3623.dat
1 71 -120 -632 40 0 0 1 0 1 0 -1 0 0 3623.dat
1 71 -90 -632 -100 1 0 0 0 1 0 -0 0 1 3023.dat
1 71 -100 -632 -80 1 0 0 0 1 0 -0 0 1 3024.dat
1 71 -100 -632 80 1 0 0 0 1 0 -0 0 1 3024.dat
1 71 -50 -632 -120 1 0 0 0 1 0 -0 0 1 3710.dat
1 71 -70 -632 100 1 0 0 0 1 0 -0 0 1 3023.dat
1 71 -10 -632 120 1 0 0 0 1 0 -0 0 1 3710.dat
1 71 -10 -632 -140 1 0 0 0 1 0 -0 0 1 3023.dat
1 71 30 -632 -120 1 0 0 0 1 0 -0 0 1 3710.dat
1 71 50 -632 100 1 0 0 0 1 0 -0 0 1 3023.dat
1 71 80 -632 -100 1 0 0 0 1 0 -0 0 1 3024.dat
1 71 80 -632 80 1 0 0 0 1 0 -0 0 1 3024.dat
1 71 100 -632 -70 0 0 1 0 1 0 -1 0 0 3023.dat
1 71 100 -632 50 0 0 1 0 1 0 -1 0 0 3023.dat
1 71 120 -632 -10 0 0 1 0 1 0 -1 0 0 3710.dat
1 71 -120 -640 -30 0 0 1 0 1 0 -1 0 0 3710.dat
1 71 -120 -640 30 0 0 1 0 1 0 -1 0 0 3023.dat
1 71 -90 -640 -80 1 0 0 0 1 0 -0 0 1 3023.dat
1 71 -100 -640 -60 1 0 0 0 1 0 -0 0 1 3024.dat
1 71 -100 -640 50 0 0 1 0 1 0 -1 0 0 3023.dat
1 71 -70 -640 -100 1 0 0 0 1 0 -0 0 1 3023.dat
1 71 -70 -640 80 1 0 0 0 1 0 -0 0 1 3023.dat
1 71 -30 -640 -120 1 0 0 0 1 0 -0 0 1 3710.dat
1 71 -30 -640 100 1 0 0 0 1 0 -0 0 1 3710.dat
1 71 30 -640 -120 1 0 0 0 1 0 -0 0 1 3023.dat
1 71 40 -640 100 1 0 0 0 1 0 -0 0 1 3623.dat
1 71 50 -640 -100 1 0 0 0 1 0 -0 0 1 3023.dat
1 71 70 -640 80 1 0 0 0 1 0 -0 0 1 3023.dat
1 71 80 -640 -70 0 0 1 0 1 0 -1 0 0 3023.dat
1 71 90 -640 60 1 0 0 0 1 0 -0 0 1 3023.dat
1 71 100 -640 -30 0 0 1 0 1 0 -1 0 0 3710.dat
1 71 100 -640 30 0 0 1 0 1 0 -1 0 0 3023.dat
1 71 -100 -648 -30 0 0 1 0 1 0 -1 0 0 3710.dat
1 71 -100 -648 40 0 0 1 0 1 0 -1 0 0 3623.dat
1 71 -70 -648 -80 1 0 0 0 1 0 -0 0 1 3023.dat
1 71 -80 -648 -60 1 0 0 0 1 0 -0 0 1 3024.dat
1 71 -80 -648 60 0 0 1 0 1 0 -1 0 0 3623.dat
1 71 -30 -648 -100 1 0 0 0 1 0 -0 0 1 3710.dat
1 71 -30 -648 80 1 0 0 0 1 0 -0 0 1 3710.dat
1 71 -10 -648 100 1 0 0 0 1 0 -0 0 1 3710.dat
1 71 40 -648 -100 1 0 0 0 1 0 -0 0 1 3623.dat
1 71 40 -648 80 1 0 0 0 1 0 -0 0 1 3623.dat
1 71 60 -648 -80 1 0 0 0 1 0 -0 0 1 3623.dat
1 71 70 -648 -60 1 0 0 0 1 0 -0 0 1 3023.dat
1 71 70 -648 60 1 0 0 0 1 0 -0 0 1 3023.dat
1 71 90 -648 -10 0 0 1 0 1 0 -1 0 0 3020.dat
1 71 80 -648 40 1 0 0 0 1 0 -0 0 1 3024.dat
1 71 -90 -656 -10 0 0 1 0 1 0 -1 0 0 3020.dat
1 71 -70 -656 -60 1 0 0 0 1 0 -0 0 1 3023.dat
1 71 -70 -656 50 1 0 0 0 1 0 -0 0 1 3022.dat
1 71 -30 -656 -80 1 0 0 0 1 0 -0 0 1 3710.dat
1 71 -60 -656 -40 1 0 0 0 1 0 -0 0 1 3024.dat
1 71 -10 -656 -100 1 0 0 0 1 0 -0 0 1 3710.dat
1 71 -10 -656 70 1 0 0 0 1 0 -0 0 1 3020.dat
1 71 40 -656 -80 1 0 0 0 1 0 -0 0 1 3623.dat
1 71 50 -656 -60 1 0 0 0 1 0 -0 0 1 3023.dat
1 71 50 -656 50 1 0 0 0 1 0 -0 0 1 3022.dat
1 71 40 -656 80 1 0 0 0 1 0 -0 0 1 3024.dat
1 71 70 -656 -10 0 0 1 0 1 0 -1 0 0 3020.dat
1 71 80 -656 40 1 0 0 0 1 0 -0 0 1 3024.dat
1 71 -50 -664 -30 1 0 0 0 1 0 -0 0 1 3020.dat
1 71 -50 -664 10 1 0 0 0 1 0 -0 0 1 3020.dat
1 71 -30 -664 -60 1 0 0 0 1 0 -0 0 1 3710.dat
1 71 -30 -664 50 1 0 0 0 1 0 -0 0 1 3020.dat
1 71 -10 -664 -80 1 0 0 0 1 0 -0 0 1 3710.dat
1 71 30 -664 -30 1 0 0 0 1 0 -0 0 1 3020.dat
1 71 30 -664 10 1 0 0 0 1 0 -0 0 1 3020.dat
1 71 30 -664 -60 1 0 0 0 1 0 -0 0 1 3023.dat
1 71 30 -664 50 1 0 0 0 1 0 -0 0 1 3022.dat
1 71 60 -664 40 1 0 0 0 1 0 -0 0 1 3024.dat
1 71 -30 -672 -10 1 0 0 0 1 0 -0 0 1 3020.dat
1 71 -30 -672 20 1 0 0 0 1 0 -0 0 1 3710.dat
1 71 -10 -672 -50 1 0 0 0 1 0 -0 0 1 3020.dat
1 71 -10 -672 40 1 0 0 0 1 0 -0 0 1 3710.dat
1 71 30 -672 0 0 0 1 0 1 0 -1 0 0 3021.dat
1 71 40 -672 -40 1 0 0 0 1 0 -0 0 1 3024.dat
